0
SECTION
2
HEADER
9
$INSUNITS
70
4
9
$ACADVER
1
AC1014
9
$HANDSEED
5
FFFF
0
ENDSEC
0
SECTION
2
TABLES
0
TABLE
2
VPORT
5
8
100
AcDbSymbolTable
0
ENDTAB
0
TABLE
2
LTYPE
5
5
100
AcDbSymbolTable
0
LTYPE
5
14
100
AcDbSymbolTableRecord
100
AcDbLinetypeTableRecord
2
BYBLOCK
70
0
0
LTYPE
5
15
100
AcDbSymbolTableRecord
100
AcDbLinetypeTableRecord
2
BYLAYER
70
0
0
LTYPE
5
16
100
AcDbSymbolTableRecord
100
AcDbLinetypeTableRecord
2
DASHED
70
0
3
Dashed __ __ __ __ __ __ __ __ __ __ __ __ __ _
72
65
73
2
40
0.75
49
0.5
74
0
49
-0.25
74
0
0
ENDTAB
0
TABLE
2
LAYER
5
2
100
AcDbSymbolTable
70
2
0
LAYER
5
50
100
AcDbSymbolTableRecord
100
AcDbLayerTableRecord
2
0
70
0
62
7
6
CONTINUOUS
0
ENDTAB
0
TABLE
2
STYLE
5
3
100
AcDbSymbolTable
70
1
0
STYLE
5
11
100
AcDbSymbolTableRecord
100
AcDbTextStyleTableRecord
2
STANDARD
70
0
0
ENDTAB
0
TABLE
2
VIEW
5
6
100
AcDbSymbolTable
70
0
0
ENDTAB
0
TABLE
2
UCS
5
7
100
AcDbSymbolTable
70
0
0
ENDTAB
0
TABLE
2
APPID
5
9
100
AcDbSymbolTable
70
2
0
APPID
5
12
100
AcDbSymbolTableRecord
100
AcDbRegAppTableRecord
2
ACAD
70
0
0
ENDTAB
0
TABLE
2
DIMSTYLE
5
A
100
AcDbSymbolTable
70
1
0
ENDTAB
0
TABLE
2
BLOCK_RECORD
5
1
100
AcDbSymbolTable
70
1
0
BLOCK_RECORD
5
1F
100
AcDbSymbolTableRecord
100
AcDbBlockTableRecord
2
*MODEL_SPACE
0
BLOCK_RECORD
5
1B
100
AcDbSymbolTableRecord
100
AcDbBlockTableRecord
2
*PAPER_SPACE
0
ENDTAB
0
ENDSEC
0
SECTION
2
BLOCKS
0
BLOCK
5
20
100
AcDbEntity
100
AcDbBlockBegin
2
*MODEL_SPACE
0
ENDBLK
5
21
100
AcDbEntity
100
AcDbBlockEnd
0
BLOCK
5
1C
100
AcDbEntity
100
AcDbBlockBegin
2
*PAPER_SPACE
0
ENDBLK
5
1D
100
AcDbEntity
100
AcDbBlockEnd
0
ENDSEC
0
SECTION
2
ENTITIES
0
LINE
5
100
100
AcDbEntity
8
0
100
AcDbLine
10
17.510571369826746
20
-45.422229486077526
30
0
11
16.907611585781627
21
-50.474054703793279
31
0
0
LINE
5
101
100
AcDbEntity
8
0
100
AcDbLine
10
12.935801905319657
20
-54
30
0
11
0
21
-54
31
0
0
LINE
5
102
100
AcDbEntity
8
0
100
AcDbLine
10
18.999999999999989
20
-44.100000000000001
30
0
11
20.850000000000009
21
-28.600000000000001
31
0
0
LINE
5
103
100
AcDbEntity
8
0
100
AcDbLine
10
14
20
54
30
0
11
14
21
51.499999999999986
31
0
0
ARC
5
104
100
AcDbEntity
8
0
100
AcDbCircle
10
15
20
51.499999999999986
30
0
40
1.0000000000000009
210
0
220
0
230
1
100
AcDbArc
50
180
51
269.99998805315681
0
LINE
5
105
100
AcDbEntity
8
0
100
AcDbLine
10
14.999999791488252
20
50.500000000000007
30
0
11
18.499999999989544
21
50.500000000000007
31
0
0
LINE
5
106
100
AcDbEntity
8
0
100
AcDbLine
10
18.499999999989544
20
50.500000000000007
30
0
11
20.84999999999193
21
39.999999999933621
31
0
0
LINE
5
107
100
AcDbEntity
8
0
100
AcDbLine
10
20.84999999999193
20
39.999999999933621
30
0
11
20.850000000000009
21
-28.600000000000001
31
0
0
ARC
5
108
100
AcDbEntity
8
0
100
AcDbCircle
10
18.999999999999989
20
-45.599999999999994
30
0
40
1.4999999999999947
210
0
220
-0
230
1
100
AcDbArc
50
90
51
173.1936696428786
0
ARC
5
109
100
AcDbEntity
8
0
100
AcDbCircle
10
12.935801905319657
20
-50
30
0
40
4.0000000000000036
210
0
220
0
230
1
100
AcDbArc
50
270
51
353.19366964287815
0
LINE
5
110
100
AcDbEntity
8
0
100
AcDbLine
10
0
20
54
30
0
11
-14
21
54
31
0
0
LINE
5
111
100
AcDbEntity
8
0
100
AcDbLine
10
-14
20
54
30
0
11
-14
21
51.499999999999986
31
0
0
ARC
5
112
100
AcDbEntity
8
0
100
AcDbCircle
10
-15
20
51.499999999999986
30
0
40
1.0000000000000004
210
0
220
0
230
1
100
AcDbArc
50
-89.999988053156841
51
0
0
LINE
5
113
100
AcDbEntity
8
0
100
AcDbLine
10
-14.999999791488252
20
50.500000000000007
30
0
11
-18.500000000000007
21
50.500000000000007
31
0
0
LINE
5
114
100
AcDbEntity
8
0
100
AcDbLine
10
-18.500000000000007
20
50.500000000000007
30
0
11
-20.850000000000005
21
40
31
0
0
LINE
5
115
100
AcDbEntity
8
0
100
AcDbLine
10
-20.850000000000005
20
40
30
0
11
-20.850000000000009
21
-28.600000000000001
31
0
0
LINE
5
116
100
AcDbEntity
8
0
100
AcDbLine
10
-18.999999999999989
20
-44.100000000000001
30
0
11
-20.850000000000001
21
-28.600000000000001
31
0
0
ARC
5
117
100
AcDbEntity
8
0
100
AcDbCircle
10
-18.999999999999989
20
-45.599999999999994
30
0
40
1.4999999999999991
210
0
220
-0
230
1
100
AcDbArc
50
6.8063303571213956
51
90
0
LINE
5
118
100
AcDbEntity
8
0
100
AcDbLine
10
-17.510571369826746
20
-45.422229486077526
30
0
11
-16.907611585781627
21
-50.474054703793279
31
0
0
ARC
5
119
100
AcDbEntity
8
0
100
AcDbCircle
10
-12.935801905319657
20
-50
30
0
40
3.9999999999999947
210
0
220
0
230
1
100
AcDbArc
50
186.80633035712188
51
270
0
LINE
5
120
100
AcDbEntity
8
0
100
AcDbLine
10
-12.935801905319657
20
-54
30
0
11
0
21
-54
31
0
0
LINE
5
121
100
AcDbEntity
8
0
100
AcDbLine
10
10.79289321588587
20
53.499999990017024
30
0
11
5.2071774089167064
21
53.499999990017024
31
0
0
LINE
5
122
100
AcDbEntity
8
0
100
AcDbLine
10
0
20
54
30
0
11
4.4999999105930346
21
54
31
0
0
LINE
5
123
100
AcDbEntity
8
0
100
AcDbLine
10
11.5
20
54
30
0
11
14
21
54
31
0
0
ARC
5
124
100
AcDbEntity
8
0
100
AcDbCircle
10
5.0000999105930353
20
53.999999990017017
30
0
40
0.50000000001701506
210
0
220
0
230
1
100
AcDbArc
50
269.98854084402132
51
270
0
ARC
5
125
100
AcDbEntity
8
0
100
AcDbCircle
10
10.9999
20
53.999999990017017
30
0
40
0.49999999999999822
210
-0
220
0
230
1
100
AcDbArc
50
270
51
270.0114591559784
0
LINE
5
126
100
AcDbEntity
8
0
100
AcDbLine
10
4.4999999105930346
20
54
30
0
11
4.8536593683646787
21
53.646411252916621
31
0
0
LINE
5
127
100
AcDbEntity
8
0
100
AcDbLine
10
11.146446610006841
20
53.64644660295145
30
0
11
11.5
21
54
31
0
0
ARC
5
128
100
AcDbEntity
8
0
100
AcDbCircle
10
5.2071774089167056
20
53.999999990017017
30
0
40
0.49999999999999922
210
0
220
0
230
1
100
AcDbArc
50
225.0057284330488
51
270.00000000000011
0
ARC
5
129
100
AcDbEntity
8
0
100
AcDbCircle
10
10.792893215885876
20
53.999999990017002
30
0
40
0.49999999999998046
210
0
220
0
230
1
100
AcDbArc
50
269.99999999999937
51
315.00000057168921
0
ENDSEC
0
SECTION
2
OBJECTS
0
DICTIONARY
5
C
100
AcDbDictionary
3
ACAD_GROUP
350
D
3
ACAD_MLINESTYLE
350
17
0
DICTIONARY
5
D
100
AcDbDictionary
0
DICTIONARY
5
1A
330
C
100
AcDbDictionary
0
DICTIONARY
5
17
100
AcDbDictionary
0
ENDSEC
0
EOF
