%TF.GenerationSoftware,KiCad,Pcbnew,10.0.5*%
%TF.CreationDate,2026-09-12T21:28:26+12:00*%
%TF.ProjectId,3310_pico,33333130-5f70-4696-936f-2e6b69636164,rev?*%
%TF.SameCoordinates,Original*%
%TF.FileFunction,Legend,Top*%
%TF.FilePolarity,Positive*%
%FSLAX46Y46*%
G04 Gerber Fmt 4.6, Leading zero omitted, Abs format (unit mm)*
G04 Created by KiCad (PCBNEW 10.0.5) date 2026-09-12 21:28:26*
%MOMM*%
%LPD*%
G01*
G04 APERTURE LIST*
%ADD10C,0.062500*%
%ADD11C,0.125000*%
%ADD12C,0.100000*%
%ADD13C,0.120000*%
G04 APERTURE END LIST*
D10*
G36*
X147785507Y-103173578D02*
G01*
X148096978Y-103173578D01*
X148096978Y-102986000D01*
X148252500Y-102986000D01*
X148252500Y-103173578D01*
X148174739Y-103173578D01*
X148174739Y-103358848D01*
X148096978Y-103358848D01*
X148096978Y-103546390D01*
X148019187Y-103546390D01*
X148019187Y-103640180D01*
X147863665Y-103640180D01*
X147863665Y-103546390D01*
X147785507Y-103546390D01*
X147785507Y-103452601D01*
X147863665Y-103452601D01*
X148019980Y-103452601D01*
X148019980Y-103265023D01*
X147863665Y-103265023D01*
X147863665Y-103452601D01*
X147785507Y-103452601D01*
X147785507Y-103358848D01*
X147707716Y-103358848D01*
X147707716Y-103173578D01*
X147629986Y-103173578D01*
X147629986Y-102986000D01*
X147785507Y-102986000D01*
X147785507Y-103173578D01*
G37*
G36*
X147552500Y-102986000D02*
G01*
X147552500Y-103079312D01*
X147319187Y-103079312D01*
X147319187Y-103546867D01*
X147396947Y-103546867D01*
X147396947Y-103640180D01*
X147163665Y-103640180D01*
X147163665Y-103079312D01*
X146931146Y-103079312D01*
X146931146Y-102986000D01*
X147552500Y-102986000D01*
G37*
G36*
X167399000Y-86717349D02*
G01*
X167305687Y-86717349D01*
X167305687Y-86641146D01*
X167399000Y-86641146D01*
X167399000Y-86717349D01*
G37*
G36*
X167305210Y-86795507D02*
G01*
X167211897Y-86795507D01*
X167211897Y-86717349D01*
X167305210Y-86717349D01*
X167305210Y-86795507D01*
G37*
G36*
X167211897Y-86873665D02*
G01*
X167119976Y-86873665D01*
X167119976Y-86795507D01*
X167211897Y-86795507D01*
X167211897Y-86873665D01*
G37*
G36*
X167119500Y-86951823D02*
G01*
X167026187Y-86951823D01*
X167026187Y-86873665D01*
X167119500Y-86873665D01*
X167119500Y-86951823D01*
G37*
G36*
X167399000Y-87184342D02*
G01*
X167305210Y-87184342D01*
X167305210Y-87262500D01*
X166839085Y-87262500D01*
X166839085Y-87184342D01*
X166744819Y-87184342D01*
X166744819Y-86717349D01*
X166839085Y-86717349D01*
X166839085Y-86641146D01*
X167211897Y-86641146D01*
X167211897Y-86717349D01*
X167119500Y-86717349D01*
X167119500Y-86795507D01*
X166838132Y-86795507D01*
X166838132Y-87106978D01*
X167305687Y-87106978D01*
X167305687Y-86795507D01*
X167399000Y-86795507D01*
X167399000Y-87184342D01*
G37*
G36*
X167399000Y-86562500D02*
G01*
X167305687Y-86562500D01*
X167305687Y-86329187D01*
X166838132Y-86329187D01*
X166838132Y-86406947D01*
X166744819Y-86406947D01*
X166744819Y-86173665D01*
X167305687Y-86173665D01*
X167305687Y-85941146D01*
X167399000Y-85941146D01*
X167399000Y-86562500D01*
G37*
D11*
G36*
X147645150Y-76249000D02*
G01*
X147645150Y-76155687D01*
X147721353Y-76155687D01*
X147721353Y-76249000D01*
X147645150Y-76249000D01*
G37*
G36*
X147566992Y-76155210D02*
G01*
X147566992Y-76061897D01*
X147645150Y-76061897D01*
X147645150Y-76155210D01*
X147566992Y-76155210D01*
G37*
G36*
X147488834Y-76061897D02*
G01*
X147488834Y-75969976D01*
X147566992Y-75969976D01*
X147566992Y-76061897D01*
X147488834Y-76061897D01*
G37*
G36*
X147410676Y-75969500D02*
G01*
X147410676Y-75876187D01*
X147488834Y-75876187D01*
X147488834Y-75969500D01*
X147410676Y-75969500D01*
G37*
G36*
X147178157Y-76249000D02*
G01*
X147178157Y-76155210D01*
X147100000Y-76155210D01*
X147100000Y-75689085D01*
X147178157Y-75689085D01*
X147178157Y-75594819D01*
X147645150Y-75594819D01*
X147645150Y-75689085D01*
X147721353Y-75689085D01*
X147721353Y-76061897D01*
X147645150Y-76061897D01*
X147645150Y-75969500D01*
X147566992Y-75969500D01*
X147566992Y-75688132D01*
X147255521Y-75688132D01*
X147255521Y-76155687D01*
X147566992Y-76155687D01*
X147566992Y-76249000D01*
X147178157Y-76249000D01*
G37*
G36*
X148345150Y-75689085D02*
G01*
X148422513Y-75689085D01*
X148422513Y-75782398D01*
X148266992Y-75782398D01*
X148266992Y-75688132D01*
X147955521Y-75688132D01*
X147955521Y-75876187D01*
X148345150Y-75876187D01*
X148345150Y-75967632D01*
X148422513Y-75967632D01*
X148422513Y-76155210D01*
X148345150Y-76155210D01*
X148345150Y-76249000D01*
X147878157Y-76249000D01*
X147878157Y-76155687D01*
X147955521Y-76155687D01*
X148266992Y-76155687D01*
X148266992Y-75967632D01*
X147955521Y-75967632D01*
X147955521Y-76155687D01*
X147878157Y-76155687D01*
X147878157Y-76155210D01*
X147800000Y-76155210D01*
X147800000Y-75689085D01*
X147878157Y-75689085D01*
X147878157Y-75594819D01*
X148345150Y-75594819D01*
X148345150Y-75689085D01*
G37*
G36*
X140044783Y-74088609D02*
G01*
X140122513Y-74088609D01*
X140122513Y-74276187D01*
X140044783Y-74276187D01*
X140044783Y-74367632D01*
X140122513Y-74367632D01*
X140122513Y-74555210D01*
X140044783Y-74555210D01*
X140044783Y-74649000D01*
X139500000Y-74649000D01*
X139500000Y-74555687D01*
X139655521Y-74555687D01*
X139966992Y-74555687D01*
X139966992Y-74367632D01*
X139655521Y-74367632D01*
X139655521Y-74555687D01*
X139500000Y-74555687D01*
X139500000Y-74276187D01*
X139655521Y-74276187D01*
X139966992Y-74276187D01*
X139966992Y-74088132D01*
X139655521Y-74088132D01*
X139655521Y-74276187D01*
X139500000Y-74276187D01*
X139500000Y-73994819D01*
X140044783Y-73994819D01*
X140044783Y-74088609D01*
G37*
G36*
X140278157Y-74649000D02*
G01*
X140278157Y-74555210D01*
X140200000Y-74555210D01*
X140200000Y-74461897D01*
X140355521Y-74461897D01*
X140355521Y-74555687D01*
X140666992Y-74555687D01*
X140666992Y-74367632D01*
X140278157Y-74367632D01*
X140278157Y-74276187D01*
X140200000Y-74276187D01*
X140200000Y-74088609D01*
X140278157Y-74088609D01*
X140278157Y-73994819D01*
X140745150Y-73994819D01*
X140745150Y-74088609D01*
X140822513Y-74088609D01*
X140822513Y-74181922D01*
X140666992Y-74181922D01*
X140666992Y-74088132D01*
X140355521Y-74088132D01*
X140355521Y-74276187D01*
X140745150Y-74276187D01*
X140745150Y-74367632D01*
X140822513Y-74367632D01*
X140822513Y-74555210D01*
X140745150Y-74555210D01*
X140745150Y-74649000D01*
X140278157Y-74649000D01*
G37*
G36*
X140978157Y-74649000D02*
G01*
X140978157Y-74555210D01*
X140900000Y-74555210D01*
X140900000Y-74461897D01*
X141055521Y-74461897D01*
X141055521Y-74555687D01*
X141366992Y-74555687D01*
X141366992Y-74367632D01*
X140978157Y-74367632D01*
X140978157Y-74276187D01*
X140900000Y-74276187D01*
X140900000Y-74088609D01*
X140978157Y-74088609D01*
X140978157Y-73994819D01*
X141445150Y-73994819D01*
X141445150Y-74088609D01*
X141522513Y-74088609D01*
X141522513Y-74181922D01*
X141366992Y-74181922D01*
X141366992Y-74088132D01*
X141055521Y-74088132D01*
X141055521Y-74276187D01*
X141445150Y-74276187D01*
X141445150Y-74367632D01*
X141522513Y-74367632D01*
X141522513Y-74555210D01*
X141445150Y-74555210D01*
X141445150Y-74649000D01*
X140978157Y-74649000D01*
G37*
G36*
X141600000Y-74649000D02*
G01*
X141600000Y-74555687D01*
X141833312Y-74555687D01*
X141833312Y-74088132D01*
X141755552Y-74088132D01*
X141755552Y-73994819D01*
X141988834Y-73994819D01*
X141988834Y-74555687D01*
X142221353Y-74555687D01*
X142221353Y-74649000D01*
X141600000Y-74649000D01*
G37*
G36*
X142378157Y-74649000D02*
G01*
X142378157Y-74555210D01*
X142300000Y-74555210D01*
X142300000Y-74461897D01*
X142455521Y-74461897D01*
X142455521Y-74555687D01*
X142766992Y-74555687D01*
X142766992Y-74367632D01*
X142534473Y-74367632D01*
X142534473Y-74276187D01*
X142766992Y-74276187D01*
X142766992Y-74088132D01*
X142455521Y-74088132D01*
X142455521Y-74181922D01*
X142300000Y-74181922D01*
X142300000Y-74088609D01*
X142378157Y-74088609D01*
X142378157Y-73994819D01*
X142845150Y-73994819D01*
X142845150Y-74088609D01*
X142922513Y-74088609D01*
X142922513Y-74276187D01*
X142845150Y-74276187D01*
X142845150Y-74367632D01*
X142922513Y-74367632D01*
X142922513Y-74555210D01*
X142845150Y-74555210D01*
X142845150Y-74649000D01*
X142378157Y-74649000D01*
G37*
G36*
X143545150Y-74088609D02*
G01*
X143622513Y-74088609D01*
X143622513Y-74276187D01*
X143545150Y-74276187D01*
X143545150Y-74367632D01*
X143622513Y-74367632D01*
X143622513Y-74555210D01*
X143545150Y-74555210D01*
X143545150Y-74649000D01*
X143078157Y-74649000D01*
X143078157Y-74555687D01*
X143155521Y-74555687D01*
X143466992Y-74555687D01*
X143466992Y-74367632D01*
X143155521Y-74367632D01*
X143155521Y-74555687D01*
X143078157Y-74555687D01*
X143078157Y-74555210D01*
X143000000Y-74555210D01*
X143000000Y-74367632D01*
X143078157Y-74367632D01*
X143078157Y-74276187D01*
X143155521Y-74276187D01*
X143466992Y-74276187D01*
X143466992Y-74088132D01*
X143155521Y-74088132D01*
X143155521Y-74276187D01*
X143078157Y-74276187D01*
X143000000Y-74276187D01*
X143000000Y-74088609D01*
X143078157Y-74088609D01*
X143078157Y-73994819D01*
X143545150Y-73994819D01*
X143545150Y-74088609D01*
G37*
D12*
G36*
X173196737Y-98436264D02*
G01*
X173274467Y-98436264D01*
X173274467Y-98905210D01*
X173196737Y-98905210D01*
X173196737Y-98999000D01*
X172650000Y-98999000D01*
X172650000Y-98903342D01*
X172807475Y-98903342D01*
X173116992Y-98903342D01*
X173116992Y-98438132D01*
X172807475Y-98438132D01*
X172807475Y-98903342D01*
X172650000Y-98903342D01*
X172650000Y-98342475D01*
X173196737Y-98342475D01*
X173196737Y-98436264D01*
G37*
G36*
X173350000Y-98999000D02*
G01*
X173350000Y-98903342D01*
X173505521Y-98903342D01*
X173505521Y-98810029D01*
X173583312Y-98810029D01*
X173583312Y-98717632D01*
X173660676Y-98717632D01*
X173660676Y-98623842D01*
X173739628Y-98623842D01*
X173739628Y-98530053D01*
X173816992Y-98530053D01*
X173816992Y-98438132D01*
X173507475Y-98438132D01*
X173507475Y-98532398D01*
X173350000Y-98532398D01*
X173350000Y-98436740D01*
X173428157Y-98436740D01*
X173428157Y-98342475D01*
X173897103Y-98342475D01*
X173897103Y-98436740D01*
X173974467Y-98436740D01*
X173974467Y-98532398D01*
X173897103Y-98532398D01*
X173897103Y-98626187D01*
X173818152Y-98626187D01*
X173818152Y-98719976D01*
X173740788Y-98719976D01*
X173740788Y-98812374D01*
X173662630Y-98812374D01*
X173662630Y-98903342D01*
X173895150Y-98903342D01*
X173895150Y-98810029D01*
X173974467Y-98810029D01*
X173974467Y-98999000D01*
X173350000Y-98999000D01*
G37*
D10*
G36*
X142294356Y-81588609D02*
G01*
X142372513Y-81588609D01*
X142372513Y-81776187D01*
X142294356Y-81776187D01*
X142294356Y-81869500D01*
X142216198Y-81869500D01*
X142216198Y-81962593D01*
X142294356Y-81962593D01*
X142294356Y-82055687D01*
X142372513Y-82055687D01*
X142372513Y-82149000D01*
X142216992Y-82149000D01*
X142216992Y-82055687D01*
X142138834Y-82055687D01*
X142138834Y-81962593D01*
X142060676Y-81962593D01*
X142060676Y-81869500D01*
X141905521Y-81869500D01*
X141905521Y-82149000D01*
X141750000Y-82149000D01*
X141750000Y-81776187D01*
X141905521Y-81776187D01*
X142216992Y-81776187D01*
X142216992Y-81588132D01*
X141905521Y-81588132D01*
X141905521Y-81776187D01*
X141750000Y-81776187D01*
X141750000Y-81494819D01*
X142294356Y-81494819D01*
X142294356Y-81588609D01*
G37*
G36*
X142528157Y-82149000D02*
G01*
X142528157Y-82055687D01*
X142605521Y-82055687D01*
X142605521Y-81962374D01*
X142683679Y-81962374D01*
X142683679Y-81867632D01*
X142760676Y-81867632D01*
X142760676Y-81776187D01*
X142838834Y-81776187D01*
X142838834Y-81682398D01*
X142916992Y-81682398D01*
X142916992Y-81588132D01*
X142605521Y-81588132D01*
X142605521Y-81682398D01*
X142450000Y-81682398D01*
X142450000Y-81494819D01*
X143072513Y-81494819D01*
X143072513Y-81682398D01*
X142994356Y-81682398D01*
X142994356Y-81776187D01*
X142916198Y-81776187D01*
X142916198Y-81869976D01*
X142838834Y-81869976D01*
X142838834Y-81962374D01*
X142760676Y-81962374D01*
X142760676Y-82055210D01*
X142683679Y-82055210D01*
X142683679Y-82149000D01*
X142528157Y-82149000D01*
G37*
G36*
X144200000Y-82099000D02*
G01*
X144200000Y-82005687D01*
X144433312Y-82005687D01*
X144433312Y-81538132D01*
X144355552Y-81538132D01*
X144355552Y-81444819D01*
X144588834Y-81444819D01*
X144588834Y-82005687D01*
X144821353Y-82005687D01*
X144821353Y-82099000D01*
X144200000Y-82099000D01*
G37*
G36*
X144900000Y-82099000D02*
G01*
X144900000Y-81444819D01*
X145055521Y-81444819D01*
X145055521Y-81726187D01*
X145210676Y-81726187D01*
X145210676Y-81632398D01*
X145288834Y-81632398D01*
X145288834Y-81538609D01*
X145366992Y-81538609D01*
X145366992Y-81444819D01*
X145522513Y-81444819D01*
X145522513Y-81538132D01*
X145444356Y-81538132D01*
X145444356Y-81632398D01*
X145366198Y-81632398D01*
X145366198Y-81726187D01*
X145288834Y-81726187D01*
X145288834Y-81817632D01*
X145366198Y-81817632D01*
X145366198Y-81911421D01*
X145444356Y-81911421D01*
X145444356Y-82005687D01*
X145522513Y-82005687D01*
X145522513Y-82099000D01*
X145366992Y-82099000D01*
X145366992Y-82005210D01*
X145288834Y-82005210D01*
X145288834Y-81911421D01*
X145210676Y-81911421D01*
X145210676Y-81817632D01*
X145055521Y-81817632D01*
X145055521Y-82099000D01*
X144900000Y-82099000D01*
G37*
D11*
G36*
X155294356Y-69288609D02*
G01*
X155372513Y-69288609D01*
X155372513Y-69476187D01*
X155294356Y-69476187D01*
X155294356Y-69569500D01*
X155216198Y-69569500D01*
X155216198Y-69662593D01*
X155294356Y-69662593D01*
X155294356Y-69755687D01*
X155372513Y-69755687D01*
X155372513Y-69849000D01*
X155216992Y-69849000D01*
X155216992Y-69755687D01*
X155138834Y-69755687D01*
X155138834Y-69662593D01*
X155060676Y-69662593D01*
X155060676Y-69569500D01*
X154905521Y-69569500D01*
X154905521Y-69849000D01*
X154750000Y-69849000D01*
X154750000Y-69476187D01*
X154905521Y-69476187D01*
X155216992Y-69476187D01*
X155216992Y-69288132D01*
X154905521Y-69288132D01*
X154905521Y-69476187D01*
X154750000Y-69476187D01*
X154750000Y-69194819D01*
X155294356Y-69194819D01*
X155294356Y-69288609D01*
G37*
G36*
X155450000Y-69849000D02*
G01*
X155450000Y-69755687D01*
X155683312Y-69755687D01*
X155683312Y-69288132D01*
X155605552Y-69288132D01*
X155605552Y-69194819D01*
X155838834Y-69194819D01*
X155838834Y-69755687D01*
X156071353Y-69755687D01*
X156071353Y-69849000D01*
X155450000Y-69849000D01*
G37*
G36*
X156150000Y-69849000D02*
G01*
X156150000Y-69755687D01*
X156383312Y-69755687D01*
X156383312Y-69288132D01*
X156305552Y-69288132D01*
X156305552Y-69194819D01*
X156538834Y-69194819D01*
X156538834Y-69755687D01*
X156771353Y-69755687D01*
X156771353Y-69849000D01*
X156150000Y-69849000D01*
G37*
G36*
X154800000Y-70649000D02*
G01*
X154800000Y-70555687D01*
X155033312Y-70555687D01*
X155033312Y-70088132D01*
X154955552Y-70088132D01*
X154955552Y-69994819D01*
X155188834Y-69994819D01*
X155188834Y-70555687D01*
X155421353Y-70555687D01*
X155421353Y-70649000D01*
X154800000Y-70649000D01*
G37*
G36*
X156045150Y-70088609D02*
G01*
X156122513Y-70088609D01*
X156122513Y-70555210D01*
X156045150Y-70555210D01*
X156045150Y-70649000D01*
X155578157Y-70649000D01*
X155578157Y-70555687D01*
X155655521Y-70555687D01*
X155966992Y-70555687D01*
X155966992Y-70088132D01*
X155655521Y-70088132D01*
X155655521Y-70555687D01*
X155578157Y-70555687D01*
X155578157Y-70555210D01*
X155500000Y-70555210D01*
X155500000Y-70088609D01*
X155578157Y-70088609D01*
X155578157Y-69994819D01*
X156045150Y-69994819D01*
X156045150Y-70088609D01*
G37*
G36*
X156745150Y-70088609D02*
G01*
X156822513Y-70088609D01*
X156822513Y-70555210D01*
X156745150Y-70555210D01*
X156745150Y-70649000D01*
X156278157Y-70649000D01*
X156278157Y-70555687D01*
X156355521Y-70555687D01*
X156666992Y-70555687D01*
X156666992Y-70088132D01*
X156355521Y-70088132D01*
X156355521Y-70555687D01*
X156278157Y-70555687D01*
X156278157Y-70555210D01*
X156200000Y-70555210D01*
X156200000Y-70088609D01*
X156278157Y-70088609D01*
X156278157Y-69994819D01*
X156745150Y-69994819D01*
X156745150Y-70088609D01*
G37*
G36*
X156900000Y-70649000D02*
G01*
X156900000Y-69994819D01*
X157055521Y-69994819D01*
X157055521Y-70276187D01*
X157210676Y-70276187D01*
X157210676Y-70182398D01*
X157288834Y-70182398D01*
X157288834Y-70088609D01*
X157366992Y-70088609D01*
X157366992Y-69994819D01*
X157522513Y-69994819D01*
X157522513Y-70088132D01*
X157444356Y-70088132D01*
X157444356Y-70182398D01*
X157366198Y-70182398D01*
X157366198Y-70276187D01*
X157288834Y-70276187D01*
X157288834Y-70367632D01*
X157366198Y-70367632D01*
X157366198Y-70461421D01*
X157444356Y-70461421D01*
X157444356Y-70555687D01*
X157522513Y-70555687D01*
X157522513Y-70649000D01*
X157366992Y-70649000D01*
X157366992Y-70555210D01*
X157288834Y-70555210D01*
X157288834Y-70461421D01*
X157210676Y-70461421D01*
X157210676Y-70367632D01*
X157055521Y-70367632D01*
X157055521Y-70649000D01*
X156900000Y-70649000D01*
G37*
D10*
G36*
X158156315Y-47199000D02*
G01*
X158156315Y-47105687D01*
X158233312Y-47105687D01*
X158233312Y-46638132D01*
X158078157Y-46638132D01*
X158078157Y-46731629D01*
X158000000Y-46731629D01*
X158000000Y-46544819D01*
X158621353Y-46544819D01*
X158621353Y-46731629D01*
X158543196Y-46731629D01*
X158543196Y-46638132D01*
X158388834Y-46638132D01*
X158388834Y-47105687D01*
X158466992Y-47105687D01*
X158466992Y-47199000D01*
X158156315Y-47199000D01*
G37*
G36*
X159244783Y-46638609D02*
G01*
X159322513Y-46638609D01*
X159322513Y-46826187D01*
X159244783Y-46826187D01*
X159244783Y-46919500D01*
X158855521Y-46919500D01*
X158855521Y-47199000D01*
X158700000Y-47199000D01*
X158700000Y-46826187D01*
X158855521Y-46826187D01*
X159166992Y-46826187D01*
X159166992Y-46638132D01*
X158855521Y-46638132D01*
X158855521Y-46826187D01*
X158700000Y-46826187D01*
X158700000Y-46544819D01*
X159244783Y-46544819D01*
X159244783Y-46638609D01*
G37*
G36*
X159400000Y-47199000D02*
G01*
X159400000Y-47105687D01*
X159633312Y-47105687D01*
X159633312Y-46638132D01*
X159555552Y-46638132D01*
X159555552Y-46544819D01*
X159788834Y-46544819D01*
X159788834Y-47105687D01*
X160021353Y-47105687D01*
X160021353Y-47199000D01*
X159400000Y-47199000D01*
G37*
G36*
X177144783Y-91288609D02*
G01*
X177222513Y-91288609D01*
X177222513Y-91755210D01*
X177144783Y-91755210D01*
X177144783Y-91849000D01*
X176600000Y-91849000D01*
X176600000Y-91755687D01*
X176755521Y-91755687D01*
X177066992Y-91755687D01*
X177066992Y-91288132D01*
X176755521Y-91288132D01*
X176755521Y-91755687D01*
X176600000Y-91755687D01*
X176600000Y-91194819D01*
X177144783Y-91194819D01*
X177144783Y-91288609D01*
G37*
G36*
X177378157Y-91849000D02*
G01*
X177378157Y-91755687D01*
X177455521Y-91755687D01*
X177455521Y-91662374D01*
X177533679Y-91662374D01*
X177533679Y-91567632D01*
X177610676Y-91567632D01*
X177610676Y-91476187D01*
X177688834Y-91476187D01*
X177688834Y-91382398D01*
X177766992Y-91382398D01*
X177766992Y-91288132D01*
X177455521Y-91288132D01*
X177455521Y-91382398D01*
X177300000Y-91382398D01*
X177300000Y-91194819D01*
X177922513Y-91194819D01*
X177922513Y-91382398D01*
X177844356Y-91382398D01*
X177844356Y-91476187D01*
X177766198Y-91476187D01*
X177766198Y-91569976D01*
X177688834Y-91569976D01*
X177688834Y-91662374D01*
X177610676Y-91662374D01*
X177610676Y-91755210D01*
X177533679Y-91755210D01*
X177533679Y-91849000D01*
X177378157Y-91849000D01*
G37*
G36*
X174850000Y-95599000D02*
G01*
X174850000Y-95505687D01*
X175083312Y-95505687D01*
X175083312Y-95038132D01*
X175005552Y-95038132D01*
X175005552Y-94944819D01*
X175238834Y-94944819D01*
X175238834Y-95505687D01*
X175471353Y-95505687D01*
X175471353Y-95599000D01*
X174850000Y-95599000D01*
G37*
G36*
X175550000Y-95599000D02*
G01*
X175550000Y-94944819D01*
X175705521Y-94944819D01*
X175705521Y-95038609D01*
X175783312Y-95038609D01*
X175783312Y-95132398D01*
X175861073Y-95132398D01*
X175861073Y-95226187D01*
X175938834Y-95226187D01*
X175938834Y-95317632D01*
X176016992Y-95317632D01*
X176016992Y-94944819D01*
X176172513Y-94944819D01*
X176172513Y-95599000D01*
X176016992Y-95599000D01*
X176016992Y-95505210D01*
X175938834Y-95505210D01*
X175938834Y-95413766D01*
X175861073Y-95413766D01*
X175861073Y-95319976D01*
X175783312Y-95319976D01*
X175783312Y-95226187D01*
X175705521Y-95226187D01*
X175705521Y-95599000D01*
X175550000Y-95599000D01*
G37*
G36*
X176794356Y-95411897D02*
G01*
X176872330Y-95411897D01*
X176872330Y-95505210D01*
X176794356Y-95505210D01*
X176794356Y-95599000D01*
X176638834Y-95599000D01*
X176638834Y-95505210D01*
X176250000Y-95505210D01*
X176250000Y-95319976D01*
X176328157Y-95319976D01*
X176405521Y-95319976D01*
X176405521Y-95411897D01*
X176638834Y-95411897D01*
X176638834Y-95132398D01*
X176560676Y-95132398D01*
X176560676Y-95225711D01*
X176483679Y-95225711D01*
X176483679Y-95319976D01*
X176405521Y-95319976D01*
X176328157Y-95319976D01*
X176328157Y-95225711D01*
X176405521Y-95225711D01*
X176405521Y-95132398D01*
X176483679Y-95132398D01*
X176483679Y-95038609D01*
X176560676Y-95038609D01*
X176560676Y-94944819D01*
X176794356Y-94944819D01*
X176794356Y-95411897D01*
G37*
G36*
X176950000Y-95599000D02*
G01*
X176950000Y-95505687D01*
X177183312Y-95505687D01*
X177183312Y-95038132D01*
X177105552Y-95038132D01*
X177105552Y-94944819D01*
X177338834Y-94944819D01*
X177338834Y-95505687D01*
X177571353Y-95505687D01*
X177571353Y-95599000D01*
X176950000Y-95599000D01*
G37*
G36*
X178194356Y-95411897D02*
G01*
X178272330Y-95411897D01*
X178272330Y-95505210D01*
X178194356Y-95505210D01*
X178194356Y-95599000D01*
X178038834Y-95599000D01*
X178038834Y-95505210D01*
X177650000Y-95505210D01*
X177650000Y-95319976D01*
X177728157Y-95319976D01*
X177805521Y-95319976D01*
X177805521Y-95411897D01*
X178038834Y-95411897D01*
X178038834Y-95132398D01*
X177960676Y-95132398D01*
X177960676Y-95225711D01*
X177883679Y-95225711D01*
X177883679Y-95319976D01*
X177805521Y-95319976D01*
X177728157Y-95319976D01*
X177728157Y-95225711D01*
X177805521Y-95225711D01*
X177805521Y-95132398D01*
X177883679Y-95132398D01*
X177883679Y-95038609D01*
X177960676Y-95038609D01*
X177960676Y-94944819D01*
X178194356Y-94944819D01*
X178194356Y-95411897D01*
G37*
G36*
X178895150Y-95038609D02*
G01*
X178972513Y-95038609D01*
X178972513Y-95226187D01*
X178895150Y-95226187D01*
X178895150Y-95317632D01*
X178972513Y-95317632D01*
X178972513Y-95505210D01*
X178895150Y-95505210D01*
X178895150Y-95599000D01*
X178428157Y-95599000D01*
X178428157Y-95505687D01*
X178505521Y-95505687D01*
X178816992Y-95505687D01*
X178816992Y-95317632D01*
X178505521Y-95317632D01*
X178505521Y-95505687D01*
X178428157Y-95505687D01*
X178428157Y-95505210D01*
X178350000Y-95505210D01*
X178350000Y-95317632D01*
X178428157Y-95317632D01*
X178428157Y-95226187D01*
X178505521Y-95226187D01*
X178816992Y-95226187D01*
X178816992Y-95038132D01*
X178505521Y-95038132D01*
X178505521Y-95226187D01*
X178428157Y-95226187D01*
X178350000Y-95226187D01*
X178350000Y-95038609D01*
X178428157Y-95038609D01*
X178428157Y-94944819D01*
X178895150Y-94944819D01*
X178895150Y-95038609D01*
G37*
G36*
X179050000Y-95599000D02*
G01*
X179050000Y-94944819D01*
X179205521Y-94944819D01*
X179205521Y-95317632D01*
X179283312Y-95317632D01*
X179283312Y-95226187D01*
X179438834Y-95226187D01*
X179438834Y-95317632D01*
X179516992Y-95317632D01*
X179516992Y-94944819D01*
X179672513Y-94944819D01*
X179672513Y-95599000D01*
X179516992Y-95599000D01*
X179516992Y-95505210D01*
X179438834Y-95505210D01*
X179438834Y-95413766D01*
X179283312Y-95413766D01*
X179283312Y-95505210D01*
X179205521Y-95505210D01*
X179205521Y-95599000D01*
X179050000Y-95599000D01*
G37*
G36*
X154094356Y-90688609D02*
G01*
X154172513Y-90688609D01*
X154172513Y-90876187D01*
X154094356Y-90876187D01*
X154094356Y-90969500D01*
X154016198Y-90969500D01*
X154016198Y-91062593D01*
X154094356Y-91062593D01*
X154094356Y-91155687D01*
X154172513Y-91155687D01*
X154172513Y-91249000D01*
X154016992Y-91249000D01*
X154016992Y-91155687D01*
X153938834Y-91155687D01*
X153938834Y-91062593D01*
X153860676Y-91062593D01*
X153860676Y-90969500D01*
X153705521Y-90969500D01*
X153705521Y-91249000D01*
X153550000Y-91249000D01*
X153550000Y-90876187D01*
X153705521Y-90876187D01*
X154016992Y-90876187D01*
X154016992Y-90688132D01*
X153705521Y-90688132D01*
X153705521Y-90876187D01*
X153550000Y-90876187D01*
X153550000Y-90594819D01*
X154094356Y-90594819D01*
X154094356Y-90688609D01*
G37*
G36*
X154250000Y-91249000D02*
G01*
X154250000Y-91155687D01*
X154483312Y-91155687D01*
X154483312Y-90688132D01*
X154405552Y-90688132D01*
X154405552Y-90594819D01*
X154638834Y-90594819D01*
X154638834Y-91155687D01*
X154871353Y-91155687D01*
X154871353Y-91249000D01*
X154250000Y-91249000D01*
G37*
G36*
X151550000Y-93249000D02*
G01*
X151550000Y-93155687D01*
X151783312Y-93155687D01*
X151783312Y-92688132D01*
X151705552Y-92688132D01*
X151705552Y-92594819D01*
X151938834Y-92594819D01*
X151938834Y-93155687D01*
X152171353Y-93155687D01*
X152171353Y-93249000D01*
X151550000Y-93249000D01*
G37*
G36*
X152250000Y-93249000D02*
G01*
X152250000Y-92594819D01*
X152405521Y-92594819D01*
X152405521Y-92876187D01*
X152560676Y-92876187D01*
X152560676Y-92782398D01*
X152638834Y-92782398D01*
X152638834Y-92688609D01*
X152716992Y-92688609D01*
X152716992Y-92594819D01*
X152872513Y-92594819D01*
X152872513Y-92688132D01*
X152794356Y-92688132D01*
X152794356Y-92782398D01*
X152716198Y-92782398D01*
X152716198Y-92876187D01*
X152638834Y-92876187D01*
X152638834Y-92967632D01*
X152716198Y-92967632D01*
X152716198Y-93061421D01*
X152794356Y-93061421D01*
X152794356Y-93155687D01*
X152872513Y-93155687D01*
X152872513Y-93249000D01*
X152716992Y-93249000D01*
X152716992Y-93155210D01*
X152638834Y-93155210D01*
X152638834Y-93061421D01*
X152560676Y-93061421D01*
X152560676Y-92967632D01*
X152405521Y-92967632D01*
X152405521Y-93249000D01*
X152250000Y-93249000D01*
G37*
G36*
X165094356Y-90688609D02*
G01*
X165172513Y-90688609D01*
X165172513Y-90876187D01*
X165094356Y-90876187D01*
X165094356Y-90969500D01*
X165016198Y-90969500D01*
X165016198Y-91062593D01*
X165094356Y-91062593D01*
X165094356Y-91155687D01*
X165172513Y-91155687D01*
X165172513Y-91249000D01*
X165016992Y-91249000D01*
X165016992Y-91155687D01*
X164938834Y-91155687D01*
X164938834Y-91062593D01*
X164860676Y-91062593D01*
X164860676Y-90969500D01*
X164705521Y-90969500D01*
X164705521Y-91249000D01*
X164550000Y-91249000D01*
X164550000Y-90876187D01*
X164705521Y-90876187D01*
X165016992Y-90876187D01*
X165016992Y-90688132D01*
X164705521Y-90688132D01*
X164705521Y-90876187D01*
X164550000Y-90876187D01*
X164550000Y-90594819D01*
X165094356Y-90594819D01*
X165094356Y-90688609D01*
G37*
G36*
X165250000Y-91249000D02*
G01*
X165250000Y-91155687D01*
X165405521Y-91155687D01*
X165405521Y-91062374D01*
X165483312Y-91062374D01*
X165483312Y-90969976D01*
X165560676Y-90969976D01*
X165560676Y-90876187D01*
X165639628Y-90876187D01*
X165639628Y-90782398D01*
X165716992Y-90782398D01*
X165716992Y-90688132D01*
X165405521Y-90688132D01*
X165405521Y-90782398D01*
X165250000Y-90782398D01*
X165250000Y-90689085D01*
X165328157Y-90689085D01*
X165328157Y-90594819D01*
X165795150Y-90594819D01*
X165795150Y-90689085D01*
X165872513Y-90689085D01*
X165872513Y-90782398D01*
X165795150Y-90782398D01*
X165795150Y-90876187D01*
X165716198Y-90876187D01*
X165716198Y-90969976D01*
X165638834Y-90969976D01*
X165638834Y-91062374D01*
X165560676Y-91062374D01*
X165560676Y-91155687D01*
X165795150Y-91155687D01*
X165795150Y-91062374D01*
X165872513Y-91062374D01*
X165872513Y-91249000D01*
X165250000Y-91249000D01*
G37*
G36*
X140644783Y-88338609D02*
G01*
X140722513Y-88338609D01*
X140722513Y-88805210D01*
X140644783Y-88805210D01*
X140644783Y-88899000D01*
X140100000Y-88899000D01*
X140100000Y-88805687D01*
X140255521Y-88805687D01*
X140566992Y-88805687D01*
X140566992Y-88338132D01*
X140255521Y-88338132D01*
X140255521Y-88805687D01*
X140100000Y-88805687D01*
X140100000Y-88244819D01*
X140644783Y-88244819D01*
X140644783Y-88338609D01*
G37*
G36*
X141345150Y-88339085D02*
G01*
X141422513Y-88339085D01*
X141422513Y-88432398D01*
X141266992Y-88432398D01*
X141266992Y-88338132D01*
X140955521Y-88338132D01*
X140955521Y-88526187D01*
X141345150Y-88526187D01*
X141345150Y-88617632D01*
X141422513Y-88617632D01*
X141422513Y-88805210D01*
X141345150Y-88805210D01*
X141345150Y-88899000D01*
X140878157Y-88899000D01*
X140878157Y-88805687D01*
X140955521Y-88805687D01*
X141266992Y-88805687D01*
X141266992Y-88617632D01*
X140955521Y-88617632D01*
X140955521Y-88805687D01*
X140878157Y-88805687D01*
X140878157Y-88805210D01*
X140800000Y-88805210D01*
X140800000Y-88339085D01*
X140878157Y-88339085D01*
X140878157Y-88244819D01*
X141345150Y-88244819D01*
X141345150Y-88339085D01*
G37*
G36*
X141550000Y-91049000D02*
G01*
X141550000Y-90955687D01*
X141783312Y-90955687D01*
X141783312Y-90488132D01*
X141705552Y-90488132D01*
X141705552Y-90394819D01*
X141938834Y-90394819D01*
X141938834Y-90955687D01*
X142171353Y-90955687D01*
X142171353Y-91049000D01*
X141550000Y-91049000D01*
G37*
G36*
X142250000Y-91049000D02*
G01*
X142250000Y-90394819D01*
X142405521Y-90394819D01*
X142405521Y-90488609D01*
X142483312Y-90488609D01*
X142483312Y-90582398D01*
X142561073Y-90582398D01*
X142561073Y-90676187D01*
X142638834Y-90676187D01*
X142638834Y-90767632D01*
X142716992Y-90767632D01*
X142716992Y-90394819D01*
X142872513Y-90394819D01*
X142872513Y-91049000D01*
X142716992Y-91049000D01*
X142716992Y-90955210D01*
X142638834Y-90955210D01*
X142638834Y-90863766D01*
X142561073Y-90863766D01*
X142561073Y-90769976D01*
X142483312Y-90769976D01*
X142483312Y-90676187D01*
X142405521Y-90676187D01*
X142405521Y-91049000D01*
X142250000Y-91049000D01*
G37*
G36*
X143494356Y-90861897D02*
G01*
X143572330Y-90861897D01*
X143572330Y-90955210D01*
X143494356Y-90955210D01*
X143494356Y-91049000D01*
X143338834Y-91049000D01*
X143338834Y-90955210D01*
X142950000Y-90955210D01*
X142950000Y-90769976D01*
X143028157Y-90769976D01*
X143105521Y-90769976D01*
X143105521Y-90861897D01*
X143338834Y-90861897D01*
X143338834Y-90582398D01*
X143260676Y-90582398D01*
X143260676Y-90675711D01*
X143183679Y-90675711D01*
X143183679Y-90769976D01*
X143105521Y-90769976D01*
X143028157Y-90769976D01*
X143028157Y-90675711D01*
X143105521Y-90675711D01*
X143105521Y-90582398D01*
X143183679Y-90582398D01*
X143183679Y-90488609D01*
X143260676Y-90488609D01*
X143260676Y-90394819D01*
X143494356Y-90394819D01*
X143494356Y-90861897D01*
G37*
G36*
X143650000Y-91049000D02*
G01*
X143650000Y-90955687D01*
X143883312Y-90955687D01*
X143883312Y-90488132D01*
X143805552Y-90488132D01*
X143805552Y-90394819D01*
X144038834Y-90394819D01*
X144038834Y-90955687D01*
X144271353Y-90955687D01*
X144271353Y-91049000D01*
X143650000Y-91049000D01*
G37*
G36*
X144894356Y-90861897D02*
G01*
X144972330Y-90861897D01*
X144972330Y-90955210D01*
X144894356Y-90955210D01*
X144894356Y-91049000D01*
X144738834Y-91049000D01*
X144738834Y-90955210D01*
X144350000Y-90955210D01*
X144350000Y-90769976D01*
X144428157Y-90769976D01*
X144505521Y-90769976D01*
X144505521Y-90861897D01*
X144738834Y-90861897D01*
X144738834Y-90582398D01*
X144660676Y-90582398D01*
X144660676Y-90675711D01*
X144583679Y-90675711D01*
X144583679Y-90769976D01*
X144505521Y-90769976D01*
X144428157Y-90769976D01*
X144428157Y-90675711D01*
X144505521Y-90675711D01*
X144505521Y-90582398D01*
X144583679Y-90582398D01*
X144583679Y-90488609D01*
X144660676Y-90488609D01*
X144660676Y-90394819D01*
X144894356Y-90394819D01*
X144894356Y-90861897D01*
G37*
G36*
X145595150Y-90488609D02*
G01*
X145672513Y-90488609D01*
X145672513Y-90676187D01*
X145595150Y-90676187D01*
X145595150Y-90767632D01*
X145672513Y-90767632D01*
X145672513Y-90955210D01*
X145595150Y-90955210D01*
X145595150Y-91049000D01*
X145128157Y-91049000D01*
X145128157Y-90955687D01*
X145205521Y-90955687D01*
X145516992Y-90955687D01*
X145516992Y-90767632D01*
X145205521Y-90767632D01*
X145205521Y-90955687D01*
X145128157Y-90955687D01*
X145128157Y-90955210D01*
X145050000Y-90955210D01*
X145050000Y-90767632D01*
X145128157Y-90767632D01*
X145128157Y-90676187D01*
X145205521Y-90676187D01*
X145516992Y-90676187D01*
X145516992Y-90488132D01*
X145205521Y-90488132D01*
X145205521Y-90676187D01*
X145128157Y-90676187D01*
X145050000Y-90676187D01*
X145050000Y-90488609D01*
X145128157Y-90488609D01*
X145128157Y-90394819D01*
X145595150Y-90394819D01*
X145595150Y-90488609D01*
G37*
G36*
X145750000Y-91049000D02*
G01*
X145750000Y-90394819D01*
X145905521Y-90394819D01*
X145905521Y-90767632D01*
X145983312Y-90767632D01*
X145983312Y-90676187D01*
X146138834Y-90676187D01*
X146138834Y-90767632D01*
X146216992Y-90767632D01*
X146216992Y-90394819D01*
X146372513Y-90394819D01*
X146372513Y-91049000D01*
X146216992Y-91049000D01*
X146216992Y-90955210D01*
X146138834Y-90955210D01*
X146138834Y-90863766D01*
X145983312Y-90863766D01*
X145983312Y-90955210D01*
X145905521Y-90955210D01*
X145905521Y-91049000D01*
X145750000Y-91049000D01*
G37*
G36*
X172728157Y-86449000D02*
G01*
X172728157Y-86355210D01*
X172650000Y-86355210D01*
X172650000Y-85889085D01*
X172728157Y-85889085D01*
X172728157Y-85794819D01*
X173195150Y-85794819D01*
X173195150Y-85889085D01*
X173272513Y-85889085D01*
X173272513Y-85982398D01*
X173116992Y-85982398D01*
X173116992Y-85888132D01*
X172805521Y-85888132D01*
X172805521Y-86355687D01*
X173116992Y-86355687D01*
X173116992Y-86261897D01*
X173272513Y-86261897D01*
X173272513Y-86355210D01*
X173195150Y-86355210D01*
X173195150Y-86449000D01*
X172728157Y-86449000D01*
G37*
G36*
X173428157Y-86449000D02*
G01*
X173428157Y-86355210D01*
X173350000Y-86355210D01*
X173350000Y-86261897D01*
X173505521Y-86261897D01*
X173505521Y-86355687D01*
X173816992Y-86355687D01*
X173816992Y-86075711D01*
X173428157Y-86075711D01*
X173428157Y-85982398D01*
X173350000Y-85982398D01*
X173350000Y-85794819D01*
X173972513Y-85794819D01*
X173972513Y-85888132D01*
X173505521Y-85888132D01*
X173505521Y-85982398D01*
X173895150Y-85982398D01*
X173895150Y-86076187D01*
X173972513Y-86076187D01*
X173972513Y-86355210D01*
X173895150Y-86355210D01*
X173895150Y-86449000D01*
X173428157Y-86449000D01*
G37*
G36*
X171727914Y-90849000D02*
G01*
X171727914Y-90755687D01*
X171961226Y-90755687D01*
X171961226Y-90288132D01*
X171883466Y-90288132D01*
X171883466Y-90194819D01*
X172116748Y-90194819D01*
X172116748Y-90755687D01*
X172349267Y-90755687D01*
X172349267Y-90849000D01*
X171727914Y-90849000D01*
G37*
G36*
X172973064Y-90288609D02*
G01*
X173050427Y-90288609D01*
X173050427Y-90755210D01*
X172973064Y-90755210D01*
X172973064Y-90849000D01*
X172506071Y-90849000D01*
X172506071Y-90755687D01*
X172583435Y-90755687D01*
X172894906Y-90755687D01*
X172894906Y-90288132D01*
X172583435Y-90288132D01*
X172583435Y-90755687D01*
X172506071Y-90755687D01*
X172506071Y-90755210D01*
X172427914Y-90755210D01*
X172427914Y-90288609D01*
X172506071Y-90288609D01*
X172506071Y-90194819D01*
X172973064Y-90194819D01*
X172973064Y-90288609D01*
G37*
G36*
X173673064Y-90288609D02*
G01*
X173750427Y-90288609D01*
X173750427Y-90755210D01*
X173673064Y-90755210D01*
X173673064Y-90849000D01*
X173206071Y-90849000D01*
X173206071Y-90755687D01*
X173283435Y-90755687D01*
X173594906Y-90755687D01*
X173594906Y-90288132D01*
X173283435Y-90288132D01*
X173283435Y-90755687D01*
X173206071Y-90755687D01*
X173206071Y-90755210D01*
X173127914Y-90755210D01*
X173127914Y-90288609D01*
X173206071Y-90288609D01*
X173206071Y-90194819D01*
X173673064Y-90194819D01*
X173673064Y-90288609D01*
G37*
G36*
X173827914Y-90849000D02*
G01*
X173827914Y-90382398D01*
X173906071Y-90382398D01*
X173906071Y-90476187D01*
X173984229Y-90476187D01*
X173984229Y-90849000D01*
X173827914Y-90849000D01*
G37*
G36*
X174138590Y-90849000D02*
G01*
X174138590Y-90475711D01*
X173984229Y-90475711D01*
X173984229Y-90382398D01*
X174216748Y-90382398D01*
X174216748Y-90476187D01*
X174294112Y-90476187D01*
X174294112Y-90849000D01*
X174138590Y-90849000D01*
G37*
G36*
X174372087Y-90849000D02*
G01*
X174372087Y-90194819D01*
X174993440Y-90194819D01*
X174993440Y-90382142D01*
X174916412Y-90382142D01*
X174916412Y-90288132D01*
X174527608Y-90288132D01*
X174527608Y-90476187D01*
X174916412Y-90476187D01*
X174916412Y-90569500D01*
X174527608Y-90569500D01*
X174527608Y-90849000D01*
X174372087Y-90849000D01*
G37*
D11*
G36*
X170078157Y-46399000D02*
G01*
X170078157Y-46305210D01*
X170000000Y-46305210D01*
X170000000Y-46211897D01*
X170155521Y-46211897D01*
X170155521Y-46305687D01*
X170466992Y-46305687D01*
X170466992Y-46117632D01*
X170078157Y-46117632D01*
X170078157Y-46026187D01*
X170000000Y-46026187D01*
X170000000Y-45838609D01*
X170078157Y-45838609D01*
X170078157Y-45744819D01*
X170545150Y-45744819D01*
X170545150Y-45838609D01*
X170622513Y-45838609D01*
X170622513Y-45931922D01*
X170466992Y-45931922D01*
X170466992Y-45838132D01*
X170155521Y-45838132D01*
X170155521Y-46026187D01*
X170545150Y-46026187D01*
X170545150Y-46117632D01*
X170622513Y-46117632D01*
X170622513Y-46305210D01*
X170545150Y-46305210D01*
X170545150Y-46399000D01*
X170078157Y-46399000D01*
G37*
G36*
X170700000Y-46399000D02*
G01*
X170700000Y-45744819D01*
X170855521Y-45744819D01*
X170855521Y-46117632D01*
X170933312Y-46117632D01*
X170933312Y-46026187D01*
X171088834Y-46026187D01*
X171088834Y-46117632D01*
X171166992Y-46117632D01*
X171166992Y-45744819D01*
X171322513Y-45744819D01*
X171322513Y-46399000D01*
X171166992Y-46399000D01*
X171166992Y-46305210D01*
X171088834Y-46305210D01*
X171088834Y-46213766D01*
X170933312Y-46213766D01*
X170933312Y-46305210D01*
X170855521Y-46305210D01*
X170855521Y-46399000D01*
X170700000Y-46399000D01*
G37*
G36*
X171400000Y-46399000D02*
G01*
X171400000Y-46305687D01*
X171633312Y-46305687D01*
X171633312Y-45838132D01*
X171555552Y-45838132D01*
X171555552Y-45744819D01*
X171788834Y-45744819D01*
X171788834Y-46305687D01*
X172021353Y-46305687D01*
X172021353Y-46399000D01*
X171400000Y-46399000D01*
G37*
D10*
G36*
X163044356Y-90688609D02*
G01*
X163122513Y-90688609D01*
X163122513Y-90876187D01*
X163044356Y-90876187D01*
X163044356Y-90969500D01*
X162966198Y-90969500D01*
X162966198Y-91062593D01*
X163044356Y-91062593D01*
X163044356Y-91155687D01*
X163122513Y-91155687D01*
X163122513Y-91249000D01*
X162966992Y-91249000D01*
X162966992Y-91155687D01*
X162888834Y-91155687D01*
X162888834Y-91062593D01*
X162810676Y-91062593D01*
X162810676Y-90969500D01*
X162655521Y-90969500D01*
X162655521Y-91249000D01*
X162500000Y-91249000D01*
X162500000Y-90876187D01*
X162655521Y-90876187D01*
X162966992Y-90876187D01*
X162966992Y-90688132D01*
X162655521Y-90688132D01*
X162655521Y-90876187D01*
X162500000Y-90876187D01*
X162500000Y-90594819D01*
X163044356Y-90594819D01*
X163044356Y-90688609D01*
G37*
G36*
X163744356Y-91061897D02*
G01*
X163822330Y-91061897D01*
X163822330Y-91155210D01*
X163744356Y-91155210D01*
X163744356Y-91249000D01*
X163588834Y-91249000D01*
X163588834Y-91155210D01*
X163200000Y-91155210D01*
X163200000Y-90969976D01*
X163278157Y-90969976D01*
X163355521Y-90969976D01*
X163355521Y-91061897D01*
X163588834Y-91061897D01*
X163588834Y-90782398D01*
X163510676Y-90782398D01*
X163510676Y-90875711D01*
X163433679Y-90875711D01*
X163433679Y-90969976D01*
X163355521Y-90969976D01*
X163278157Y-90969976D01*
X163278157Y-90875711D01*
X163355521Y-90875711D01*
X163355521Y-90782398D01*
X163433679Y-90782398D01*
X163433679Y-90688609D01*
X163510676Y-90688609D01*
X163510676Y-90594819D01*
X163744356Y-90594819D01*
X163744356Y-91061897D01*
G37*
G36*
X162100000Y-95749000D02*
G01*
X162100000Y-95655687D01*
X162333312Y-95655687D01*
X162333312Y-95188132D01*
X162255552Y-95188132D01*
X162255552Y-95094819D01*
X162488834Y-95094819D01*
X162488834Y-95655687D01*
X162721353Y-95655687D01*
X162721353Y-95749000D01*
X162100000Y-95749000D01*
G37*
G36*
X163345150Y-95188609D02*
G01*
X163422513Y-95188609D01*
X163422513Y-95655210D01*
X163345150Y-95655210D01*
X163345150Y-95749000D01*
X162878157Y-95749000D01*
X162878157Y-95655687D01*
X162955521Y-95655687D01*
X163266992Y-95655687D01*
X163266992Y-95188132D01*
X162955521Y-95188132D01*
X162955521Y-95655687D01*
X162878157Y-95655687D01*
X162878157Y-95655210D01*
X162800000Y-95655210D01*
X162800000Y-95188609D01*
X162878157Y-95188609D01*
X162878157Y-95094819D01*
X163345150Y-95094819D01*
X163345150Y-95188609D01*
G37*
G36*
X164045150Y-95188609D02*
G01*
X164122513Y-95188609D01*
X164122513Y-95655210D01*
X164045150Y-95655210D01*
X164045150Y-95749000D01*
X163578157Y-95749000D01*
X163578157Y-95655687D01*
X163655521Y-95655687D01*
X163966992Y-95655687D01*
X163966992Y-95188132D01*
X163655521Y-95188132D01*
X163655521Y-95655687D01*
X163578157Y-95655687D01*
X163578157Y-95655210D01*
X163500000Y-95655210D01*
X163500000Y-95188609D01*
X163578157Y-95188609D01*
X163578157Y-95094819D01*
X164045150Y-95094819D01*
X164045150Y-95188609D01*
G37*
G36*
X164744356Y-95188609D02*
G01*
X164822513Y-95188609D01*
X164822513Y-95376187D01*
X164744356Y-95376187D01*
X164744356Y-95469500D01*
X164666198Y-95469500D01*
X164666198Y-95562593D01*
X164744356Y-95562593D01*
X164744356Y-95655687D01*
X164822513Y-95655687D01*
X164822513Y-95749000D01*
X164666992Y-95749000D01*
X164666992Y-95655687D01*
X164588834Y-95655687D01*
X164588834Y-95562593D01*
X164510676Y-95562593D01*
X164510676Y-95469500D01*
X164355521Y-95469500D01*
X164355521Y-95749000D01*
X164200000Y-95749000D01*
X164200000Y-95376187D01*
X164355521Y-95376187D01*
X164666992Y-95376187D01*
X164666992Y-95188132D01*
X164355521Y-95188132D01*
X164355521Y-95376187D01*
X164200000Y-95376187D01*
X164200000Y-95094819D01*
X164744356Y-95094819D01*
X164744356Y-95188609D01*
G37*
G36*
X159378157Y-74449000D02*
G01*
X159378157Y-74355210D01*
X159300000Y-74355210D01*
X159300000Y-73889085D01*
X159378157Y-73889085D01*
X159378157Y-73794819D01*
X159845150Y-73794819D01*
X159845150Y-73889085D01*
X159922513Y-73889085D01*
X159922513Y-73982398D01*
X159766992Y-73982398D01*
X159766992Y-73888132D01*
X159455521Y-73888132D01*
X159455521Y-74355687D01*
X159766992Y-74355687D01*
X159766992Y-74261897D01*
X159922513Y-74261897D01*
X159922513Y-74355210D01*
X159845150Y-74355210D01*
X159845150Y-74449000D01*
X159378157Y-74449000D01*
G37*
G36*
X160078157Y-74449000D02*
G01*
X160078157Y-74355210D01*
X160000000Y-74355210D01*
X160000000Y-74261897D01*
X160155521Y-74261897D01*
X160155521Y-74355687D01*
X160466992Y-74355687D01*
X160466992Y-74167632D01*
X160234473Y-74167632D01*
X160234473Y-74076187D01*
X160466992Y-74076187D01*
X160466992Y-73888132D01*
X160155521Y-73888132D01*
X160155521Y-73981922D01*
X160000000Y-73981922D01*
X160000000Y-73888609D01*
X160078157Y-73888609D01*
X160078157Y-73794819D01*
X160545150Y-73794819D01*
X160545150Y-73888609D01*
X160622513Y-73888609D01*
X160622513Y-74076187D01*
X160545150Y-74076187D01*
X160545150Y-74167632D01*
X160622513Y-74167632D01*
X160622513Y-74355210D01*
X160545150Y-74355210D01*
X160545150Y-74449000D01*
X160078157Y-74449000D01*
G37*
G36*
X166249000Y-76522086D02*
G01*
X166155687Y-76522086D01*
X166155687Y-76288773D01*
X165688132Y-76288773D01*
X165688132Y-76366533D01*
X165594819Y-76366533D01*
X165594819Y-76133251D01*
X166155687Y-76133251D01*
X166155687Y-75900732D01*
X166249000Y-75900732D01*
X166249000Y-76522086D01*
G37*
G36*
X166155210Y-75276935D02*
G01*
X166249000Y-75276935D01*
X166249000Y-75743928D01*
X166155210Y-75743928D01*
X166155210Y-75822086D01*
X165688609Y-75822086D01*
X165688609Y-75743928D01*
X165594819Y-75743928D01*
X165594819Y-75666564D01*
X165688132Y-75666564D01*
X166155687Y-75666564D01*
X166155687Y-75355093D01*
X165688132Y-75355093D01*
X165688132Y-75666564D01*
X165594819Y-75666564D01*
X165594819Y-75276935D01*
X165688609Y-75276935D01*
X165688609Y-75199572D01*
X166155210Y-75199572D01*
X166155210Y-75276935D01*
G37*
G36*
X166249000Y-75043928D02*
G01*
X166155210Y-75043928D01*
X166155210Y-75122086D01*
X165782398Y-75122086D01*
X165782398Y-74966564D01*
X166155687Y-74966564D01*
X166155687Y-74811409D01*
X166249000Y-74811409D01*
X166249000Y-75043928D01*
G37*
G36*
X166249000Y-74733251D02*
G01*
X166155210Y-74733251D01*
X166155210Y-74811409D01*
X165782398Y-74811409D01*
X165782398Y-74655093D01*
X166249000Y-74655093D01*
X166249000Y-74733251D01*
G37*
G36*
X166249000Y-74577912D02*
G01*
X165594819Y-74577912D01*
X165594819Y-73956559D01*
X165782142Y-73956559D01*
X165782142Y-74033587D01*
X165688132Y-74033587D01*
X165688132Y-74422391D01*
X165876187Y-74422391D01*
X165876187Y-74033587D01*
X165969500Y-74033587D01*
X165969500Y-74422391D01*
X166249000Y-74422391D01*
X166249000Y-74577912D01*
G37*
G36*
X162028157Y-82599000D02*
G01*
X162028157Y-82505210D01*
X161950000Y-82505210D01*
X161950000Y-82039085D01*
X162028157Y-82039085D01*
X162028157Y-81944819D01*
X162495150Y-81944819D01*
X162495150Y-82039085D01*
X162572513Y-82039085D01*
X162572513Y-82132398D01*
X162416992Y-82132398D01*
X162416992Y-82038132D01*
X162105521Y-82038132D01*
X162105521Y-82505687D01*
X162416992Y-82505687D01*
X162416992Y-82411897D01*
X162572513Y-82411897D01*
X162572513Y-82505210D01*
X162495150Y-82505210D01*
X162495150Y-82599000D01*
X162028157Y-82599000D01*
G37*
G36*
X162650000Y-82599000D02*
G01*
X162650000Y-82505687D01*
X162883312Y-82505687D01*
X162883312Y-82038132D01*
X162805552Y-82038132D01*
X162805552Y-81944819D01*
X163038834Y-81944819D01*
X163038834Y-82505687D01*
X163271353Y-82505687D01*
X163271353Y-82599000D01*
X162650000Y-82599000D01*
G37*
G36*
X161977914Y-83349000D02*
G01*
X161977914Y-83255687D01*
X162211226Y-83255687D01*
X162211226Y-82788132D01*
X162133466Y-82788132D01*
X162133466Y-82694819D01*
X162366748Y-82694819D01*
X162366748Y-83255687D01*
X162599267Y-83255687D01*
X162599267Y-83349000D01*
X161977914Y-83349000D01*
G37*
G36*
X163223064Y-82788609D02*
G01*
X163300427Y-82788609D01*
X163300427Y-83255210D01*
X163223064Y-83255210D01*
X163223064Y-83349000D01*
X162756071Y-83349000D01*
X162756071Y-83255687D01*
X162833435Y-83255687D01*
X163144906Y-83255687D01*
X163144906Y-82788132D01*
X162833435Y-82788132D01*
X162833435Y-83255687D01*
X162756071Y-83255687D01*
X162756071Y-83255210D01*
X162677914Y-83255210D01*
X162677914Y-82788609D01*
X162756071Y-82788609D01*
X162756071Y-82694819D01*
X163223064Y-82694819D01*
X163223064Y-82788609D01*
G37*
G36*
X163923064Y-82788609D02*
G01*
X164000427Y-82788609D01*
X164000427Y-83255210D01*
X163923064Y-83255210D01*
X163923064Y-83349000D01*
X163456071Y-83349000D01*
X163456071Y-83255687D01*
X163533435Y-83255687D01*
X163844906Y-83255687D01*
X163844906Y-82788132D01*
X163533435Y-82788132D01*
X163533435Y-83255687D01*
X163456071Y-83255687D01*
X163456071Y-83255210D01*
X163377914Y-83255210D01*
X163377914Y-82788609D01*
X163456071Y-82788609D01*
X163456071Y-82694819D01*
X163923064Y-82694819D01*
X163923064Y-82788609D01*
G37*
G36*
X164077914Y-83349000D02*
G01*
X164077914Y-82882398D01*
X164156071Y-82882398D01*
X164156071Y-82976187D01*
X164234229Y-82976187D01*
X164234229Y-83349000D01*
X164077914Y-83349000D01*
G37*
G36*
X164388590Y-83349000D02*
G01*
X164388590Y-82975711D01*
X164234229Y-82975711D01*
X164234229Y-82882398D01*
X164466748Y-82882398D01*
X164466748Y-82976187D01*
X164544112Y-82976187D01*
X164544112Y-83349000D01*
X164388590Y-83349000D01*
G37*
G36*
X164622087Y-83349000D02*
G01*
X164622087Y-82694819D01*
X165243440Y-82694819D01*
X165243440Y-82882142D01*
X165166412Y-82882142D01*
X165166412Y-82788132D01*
X164777608Y-82788132D01*
X164777608Y-82976187D01*
X165166412Y-82976187D01*
X165166412Y-83069500D01*
X164777608Y-83069500D01*
X164777608Y-83349000D01*
X164622087Y-83349000D01*
G37*
G36*
X178894356Y-85788609D02*
G01*
X178972513Y-85788609D01*
X178972513Y-85976187D01*
X178894356Y-85976187D01*
X178894356Y-86069500D01*
X178816198Y-86069500D01*
X178816198Y-86162593D01*
X178894356Y-86162593D01*
X178894356Y-86255687D01*
X178972513Y-86255687D01*
X178972513Y-86349000D01*
X178816992Y-86349000D01*
X178816992Y-86255687D01*
X178738834Y-86255687D01*
X178738834Y-86162593D01*
X178660676Y-86162593D01*
X178660676Y-86069500D01*
X178505521Y-86069500D01*
X178505521Y-86349000D01*
X178350000Y-86349000D01*
X178350000Y-85976187D01*
X178505521Y-85976187D01*
X178816992Y-85976187D01*
X178816992Y-85788132D01*
X178505521Y-85788132D01*
X178505521Y-85976187D01*
X178350000Y-85976187D01*
X178350000Y-85694819D01*
X178894356Y-85694819D01*
X178894356Y-85788609D01*
G37*
G36*
X179595150Y-85788609D02*
G01*
X179672513Y-85788609D01*
X179672513Y-86255210D01*
X179595150Y-86255210D01*
X179595150Y-86349000D01*
X179128157Y-86349000D01*
X179128157Y-86255210D01*
X179050000Y-86255210D01*
X179050000Y-86161897D01*
X179205521Y-86161897D01*
X179205521Y-86255687D01*
X179516992Y-86255687D01*
X179516992Y-86069500D01*
X179128157Y-86069500D01*
X179128157Y-85976187D01*
X179205521Y-85976187D01*
X179516992Y-85976187D01*
X179516992Y-85788132D01*
X179205521Y-85788132D01*
X179205521Y-85976187D01*
X179128157Y-85976187D01*
X179050000Y-85976187D01*
X179050000Y-85788609D01*
X179128157Y-85788609D01*
X179128157Y-85694819D01*
X179595150Y-85694819D01*
X179595150Y-85788609D01*
G37*
G36*
X178494356Y-90611897D02*
G01*
X178572330Y-90611897D01*
X178572330Y-90705210D01*
X178494356Y-90705210D01*
X178494356Y-90799000D01*
X178338834Y-90799000D01*
X178338834Y-90705210D01*
X177950000Y-90705210D01*
X177950000Y-90519976D01*
X178028157Y-90519976D01*
X178105521Y-90519976D01*
X178105521Y-90611897D01*
X178338834Y-90611897D01*
X178338834Y-90332398D01*
X178260676Y-90332398D01*
X178260676Y-90425711D01*
X178183679Y-90425711D01*
X178183679Y-90519976D01*
X178105521Y-90519976D01*
X178028157Y-90519976D01*
X178028157Y-90425711D01*
X178105521Y-90425711D01*
X178105521Y-90332398D01*
X178183679Y-90332398D01*
X178183679Y-90238609D01*
X178260676Y-90238609D01*
X178260676Y-90144819D01*
X178494356Y-90144819D01*
X178494356Y-90611897D01*
G37*
G36*
X178728157Y-90799000D02*
G01*
X178728157Y-90705687D01*
X178805521Y-90705687D01*
X178805521Y-90612374D01*
X178883679Y-90612374D01*
X178883679Y-90517632D01*
X178960676Y-90517632D01*
X178960676Y-90426187D01*
X179038834Y-90426187D01*
X179038834Y-90332398D01*
X179116992Y-90332398D01*
X179116992Y-90238132D01*
X178805521Y-90238132D01*
X178805521Y-90332398D01*
X178650000Y-90332398D01*
X178650000Y-90144819D01*
X179272513Y-90144819D01*
X179272513Y-90332398D01*
X179194356Y-90332398D01*
X179194356Y-90426187D01*
X179116198Y-90426187D01*
X179116198Y-90519976D01*
X179038834Y-90519976D01*
X179038834Y-90612374D01*
X178960676Y-90612374D01*
X178960676Y-90705210D01*
X178883679Y-90705210D01*
X178883679Y-90799000D01*
X178728157Y-90799000D01*
G37*
G36*
X179894356Y-90238609D02*
G01*
X179972513Y-90238609D01*
X179972513Y-90426187D01*
X179894356Y-90426187D01*
X179894356Y-90519500D01*
X179816198Y-90519500D01*
X179816198Y-90612593D01*
X179894356Y-90612593D01*
X179894356Y-90705687D01*
X179972513Y-90705687D01*
X179972513Y-90799000D01*
X179816992Y-90799000D01*
X179816992Y-90705687D01*
X179738834Y-90705687D01*
X179738834Y-90612593D01*
X179660676Y-90612593D01*
X179660676Y-90519500D01*
X179505521Y-90519500D01*
X179505521Y-90799000D01*
X179350000Y-90799000D01*
X179350000Y-90426187D01*
X179505521Y-90426187D01*
X179816992Y-90426187D01*
X179816992Y-90238132D01*
X179505521Y-90238132D01*
X179505521Y-90426187D01*
X179350000Y-90426187D01*
X179350000Y-90144819D01*
X179894356Y-90144819D01*
X179894356Y-90238609D01*
G37*
D12*
G36*
X153146737Y-98986264D02*
G01*
X153224467Y-98986264D01*
X153224467Y-99455210D01*
X153146737Y-99455210D01*
X153146737Y-99549000D01*
X152600000Y-99549000D01*
X152600000Y-99453342D01*
X152757475Y-99453342D01*
X153066992Y-99453342D01*
X153066992Y-98988132D01*
X152757475Y-98988132D01*
X152757475Y-99453342D01*
X152600000Y-99453342D01*
X152600000Y-98892475D01*
X153146737Y-98892475D01*
X153146737Y-98986264D01*
G37*
G36*
X153378157Y-99549000D02*
G01*
X153378157Y-99455210D01*
X153300000Y-99455210D01*
X153300000Y-99359553D01*
X153457475Y-99359553D01*
X153457475Y-99453342D01*
X153766992Y-99453342D01*
X153766992Y-99267632D01*
X153534473Y-99267632D01*
X153534473Y-99173842D01*
X153766992Y-99173842D01*
X153766992Y-98988132D01*
X153457475Y-98988132D01*
X153457475Y-99081922D01*
X153300000Y-99081922D01*
X153300000Y-98986264D01*
X153378157Y-98986264D01*
X153378157Y-98892475D01*
X153847103Y-98892475D01*
X153847103Y-98986264D01*
X153924467Y-98986264D01*
X153924467Y-99176187D01*
X153847103Y-99176187D01*
X153847103Y-99265287D01*
X153924467Y-99265287D01*
X153924467Y-99455210D01*
X153847103Y-99455210D01*
X153847103Y-99549000D01*
X153378157Y-99549000D01*
G37*
D10*
G36*
X145157650Y-87349000D02*
G01*
X145157650Y-87255687D01*
X145233853Y-87255687D01*
X145233853Y-87349000D01*
X145157650Y-87349000D01*
G37*
G36*
X145079492Y-87255210D02*
G01*
X145079492Y-87161897D01*
X145157650Y-87161897D01*
X145157650Y-87255210D01*
X145079492Y-87255210D01*
G37*
G36*
X145001334Y-87161897D02*
G01*
X145001334Y-87069976D01*
X145079492Y-87069976D01*
X145079492Y-87161897D01*
X145001334Y-87161897D01*
G37*
G36*
X144923176Y-87069500D02*
G01*
X144923176Y-86976187D01*
X145001334Y-86976187D01*
X145001334Y-87069500D01*
X144923176Y-87069500D01*
G37*
G36*
X144690657Y-87349000D02*
G01*
X144690657Y-87255210D01*
X144612500Y-87255210D01*
X144612500Y-86789085D01*
X144690657Y-86789085D01*
X144690657Y-86694819D01*
X145157650Y-86694819D01*
X145157650Y-86789085D01*
X145233853Y-86789085D01*
X145233853Y-87161897D01*
X145157650Y-87161897D01*
X145157650Y-87069500D01*
X145079492Y-87069500D01*
X145079492Y-86788132D01*
X144768021Y-86788132D01*
X144768021Y-87255687D01*
X145079492Y-87255687D01*
X145079492Y-87349000D01*
X144690657Y-87349000D01*
G37*
G36*
X145856856Y-87161897D02*
G01*
X145934830Y-87161897D01*
X145934830Y-87255210D01*
X145856856Y-87255210D01*
X145856856Y-87349000D01*
X145701334Y-87349000D01*
X145701334Y-87255210D01*
X145312500Y-87255210D01*
X145312500Y-87069976D01*
X145390657Y-87069976D01*
X145468021Y-87069976D01*
X145468021Y-87161897D01*
X145701334Y-87161897D01*
X145701334Y-86882398D01*
X145623176Y-86882398D01*
X145623176Y-86975711D01*
X145546179Y-86975711D01*
X145546179Y-87069976D01*
X145468021Y-87069976D01*
X145390657Y-87069976D01*
X145390657Y-86975711D01*
X145468021Y-86975711D01*
X145468021Y-86882398D01*
X145546179Y-86882398D01*
X145546179Y-86788609D01*
X145623176Y-86788609D01*
X145623176Y-86694819D01*
X145856856Y-86694819D01*
X145856856Y-87161897D01*
G37*
G36*
X161094356Y-90688609D02*
G01*
X161172513Y-90688609D01*
X161172513Y-90876187D01*
X161094356Y-90876187D01*
X161094356Y-90969500D01*
X161016198Y-90969500D01*
X161016198Y-91062593D01*
X161094356Y-91062593D01*
X161094356Y-91155687D01*
X161172513Y-91155687D01*
X161172513Y-91249000D01*
X161016992Y-91249000D01*
X161016992Y-91155687D01*
X160938834Y-91155687D01*
X160938834Y-91062593D01*
X160860676Y-91062593D01*
X160860676Y-90969500D01*
X160705521Y-90969500D01*
X160705521Y-91249000D01*
X160550000Y-91249000D01*
X160550000Y-90876187D01*
X160705521Y-90876187D01*
X161016992Y-90876187D01*
X161016992Y-90688132D01*
X160705521Y-90688132D01*
X160705521Y-90876187D01*
X160550000Y-90876187D01*
X160550000Y-90594819D01*
X161094356Y-90594819D01*
X161094356Y-90688609D01*
G37*
G36*
X161795150Y-90689085D02*
G01*
X161872513Y-90689085D01*
X161872513Y-90782398D01*
X161716992Y-90782398D01*
X161716992Y-90688132D01*
X161405521Y-90688132D01*
X161405521Y-90876187D01*
X161795150Y-90876187D01*
X161795150Y-90967632D01*
X161872513Y-90967632D01*
X161872513Y-91155210D01*
X161795150Y-91155210D01*
X161795150Y-91249000D01*
X161328157Y-91249000D01*
X161328157Y-91155687D01*
X161405521Y-91155687D01*
X161716992Y-91155687D01*
X161716992Y-90967632D01*
X161405521Y-90967632D01*
X161405521Y-91155687D01*
X161328157Y-91155687D01*
X161328157Y-91155210D01*
X161250000Y-91155210D01*
X161250000Y-90689085D01*
X161328157Y-90689085D01*
X161328157Y-90594819D01*
X161795150Y-90594819D01*
X161795150Y-90689085D01*
G37*
G36*
X159450000Y-95499000D02*
G01*
X159450000Y-95405687D01*
X159605521Y-95405687D01*
X159605521Y-95312374D01*
X159683312Y-95312374D01*
X159683312Y-95219976D01*
X159760676Y-95219976D01*
X159760676Y-95126187D01*
X159839628Y-95126187D01*
X159839628Y-95032398D01*
X159916992Y-95032398D01*
X159916992Y-94938132D01*
X159605521Y-94938132D01*
X159605521Y-95032398D01*
X159450000Y-95032398D01*
X159450000Y-94939085D01*
X159528157Y-94939085D01*
X159528157Y-94844819D01*
X159995150Y-94844819D01*
X159995150Y-94939085D01*
X160072513Y-94939085D01*
X160072513Y-95032398D01*
X159995150Y-95032398D01*
X159995150Y-95126187D01*
X159916198Y-95126187D01*
X159916198Y-95219976D01*
X159838834Y-95219976D01*
X159838834Y-95312374D01*
X159760676Y-95312374D01*
X159760676Y-95405687D01*
X159995150Y-95405687D01*
X159995150Y-95312374D01*
X160072513Y-95312374D01*
X160072513Y-95499000D01*
X159450000Y-95499000D01*
G37*
G36*
X160150000Y-95499000D02*
G01*
X160150000Y-95405687D01*
X160305521Y-95405687D01*
X160305521Y-95312374D01*
X160383312Y-95312374D01*
X160383312Y-95219976D01*
X160460676Y-95219976D01*
X160460676Y-95126187D01*
X160539628Y-95126187D01*
X160539628Y-95032398D01*
X160616992Y-95032398D01*
X160616992Y-94938132D01*
X160305521Y-94938132D01*
X160305521Y-95032398D01*
X160150000Y-95032398D01*
X160150000Y-94939085D01*
X160228157Y-94939085D01*
X160228157Y-94844819D01*
X160695150Y-94844819D01*
X160695150Y-94939085D01*
X160772513Y-94939085D01*
X160772513Y-95032398D01*
X160695150Y-95032398D01*
X160695150Y-95126187D01*
X160616198Y-95126187D01*
X160616198Y-95219976D01*
X160538834Y-95219976D01*
X160538834Y-95312374D01*
X160460676Y-95312374D01*
X160460676Y-95405687D01*
X160695150Y-95405687D01*
X160695150Y-95312374D01*
X160772513Y-95312374D01*
X160772513Y-95499000D01*
X160150000Y-95499000D01*
G37*
G36*
X161394356Y-94938609D02*
G01*
X161472513Y-94938609D01*
X161472513Y-95126187D01*
X161394356Y-95126187D01*
X161394356Y-95219500D01*
X161316198Y-95219500D01*
X161316198Y-95312593D01*
X161394356Y-95312593D01*
X161394356Y-95405687D01*
X161472513Y-95405687D01*
X161472513Y-95499000D01*
X161316992Y-95499000D01*
X161316992Y-95405687D01*
X161238834Y-95405687D01*
X161238834Y-95312593D01*
X161160676Y-95312593D01*
X161160676Y-95219500D01*
X161005521Y-95219500D01*
X161005521Y-95499000D01*
X160850000Y-95499000D01*
X160850000Y-95126187D01*
X161005521Y-95126187D01*
X161316992Y-95126187D01*
X161316992Y-94938132D01*
X161005521Y-94938132D01*
X161005521Y-95126187D01*
X160850000Y-95126187D01*
X160850000Y-94844819D01*
X161394356Y-94844819D01*
X161394356Y-94938609D01*
G37*
G36*
X140478157Y-92149000D02*
G01*
X140478157Y-92055210D01*
X140400000Y-92055210D01*
X140400000Y-91589085D01*
X140478157Y-91589085D01*
X140478157Y-91494819D01*
X140945150Y-91494819D01*
X140945150Y-91589085D01*
X141022513Y-91589085D01*
X141022513Y-91682398D01*
X140866992Y-91682398D01*
X140866992Y-91588132D01*
X140555521Y-91588132D01*
X140555521Y-92055687D01*
X140866992Y-92055687D01*
X140866992Y-91961897D01*
X141022513Y-91961897D01*
X141022513Y-92055210D01*
X140945150Y-92055210D01*
X140945150Y-92149000D01*
X140478157Y-92149000D01*
G37*
G36*
X141644356Y-91961897D02*
G01*
X141722330Y-91961897D01*
X141722330Y-92055210D01*
X141644356Y-92055210D01*
X141644356Y-92149000D01*
X141488834Y-92149000D01*
X141488834Y-92055210D01*
X141100000Y-92055210D01*
X141100000Y-91869976D01*
X141178157Y-91869976D01*
X141255521Y-91869976D01*
X141255521Y-91961897D01*
X141488834Y-91961897D01*
X141488834Y-91682398D01*
X141410676Y-91682398D01*
X141410676Y-91775711D01*
X141333679Y-91775711D01*
X141333679Y-91869976D01*
X141255521Y-91869976D01*
X141178157Y-91869976D01*
X141178157Y-91775711D01*
X141255521Y-91775711D01*
X141255521Y-91682398D01*
X141333679Y-91682398D01*
X141333679Y-91588609D01*
X141410676Y-91588609D01*
X141410676Y-91494819D01*
X141644356Y-91494819D01*
X141644356Y-91961897D01*
G37*
G36*
X142322270Y-94361897D02*
G01*
X142400244Y-94361897D01*
X142400244Y-94455210D01*
X142322270Y-94455210D01*
X142322270Y-94549000D01*
X142166748Y-94549000D01*
X142166748Y-94455210D01*
X141777914Y-94455210D01*
X141777914Y-94269976D01*
X141856071Y-94269976D01*
X141933435Y-94269976D01*
X141933435Y-94361897D01*
X142166748Y-94361897D01*
X142166748Y-94082398D01*
X142088590Y-94082398D01*
X142088590Y-94175711D01*
X142011593Y-94175711D01*
X142011593Y-94269976D01*
X141933435Y-94269976D01*
X141856071Y-94269976D01*
X141856071Y-94175711D01*
X141933435Y-94175711D01*
X141933435Y-94082398D01*
X142011593Y-94082398D01*
X142011593Y-93988609D01*
X142088590Y-93988609D01*
X142088590Y-93894819D01*
X142322270Y-93894819D01*
X142322270Y-94361897D01*
G37*
G36*
X142556071Y-94549000D02*
G01*
X142556071Y-94455687D01*
X142633435Y-94455687D01*
X142633435Y-94362374D01*
X142711593Y-94362374D01*
X142711593Y-94267632D01*
X142788590Y-94267632D01*
X142788590Y-94176187D01*
X142866748Y-94176187D01*
X142866748Y-94082398D01*
X142944906Y-94082398D01*
X142944906Y-93988132D01*
X142633435Y-93988132D01*
X142633435Y-94082398D01*
X142477914Y-94082398D01*
X142477914Y-93894819D01*
X143100427Y-93894819D01*
X143100427Y-94082398D01*
X143022270Y-94082398D01*
X143022270Y-94176187D01*
X142944112Y-94176187D01*
X142944112Y-94269976D01*
X142866748Y-94269976D01*
X142866748Y-94362374D01*
X142788590Y-94362374D01*
X142788590Y-94455210D01*
X142711593Y-94455210D01*
X142711593Y-94549000D01*
X142556071Y-94549000D01*
G37*
G36*
X143256071Y-94549000D02*
G01*
X143256071Y-94455210D01*
X143177914Y-94455210D01*
X143177914Y-94082398D01*
X143333435Y-94082398D01*
X143333435Y-94455687D01*
X143488590Y-94455687D01*
X143488590Y-94549000D01*
X143256071Y-94549000D01*
G37*
G36*
X143566748Y-94549000D02*
G01*
X143566748Y-94455210D01*
X143488590Y-94455210D01*
X143488590Y-94082398D01*
X143644906Y-94082398D01*
X143644906Y-94549000D01*
X143566748Y-94549000D01*
G37*
G36*
X143722087Y-94549000D02*
G01*
X143722087Y-93894819D01*
X144343440Y-93894819D01*
X144343440Y-94082142D01*
X144266412Y-94082142D01*
X144266412Y-93988132D01*
X143877608Y-93988132D01*
X143877608Y-94176187D01*
X144266412Y-94176187D01*
X144266412Y-94269500D01*
X143877608Y-94269500D01*
X143877608Y-94549000D01*
X143722087Y-94549000D01*
G37*
G36*
X158094356Y-90688609D02*
G01*
X158172513Y-90688609D01*
X158172513Y-90876187D01*
X158094356Y-90876187D01*
X158094356Y-90969500D01*
X158016198Y-90969500D01*
X158016198Y-91062593D01*
X158094356Y-91062593D01*
X158094356Y-91155687D01*
X158172513Y-91155687D01*
X158172513Y-91249000D01*
X158016992Y-91249000D01*
X158016992Y-91155687D01*
X157938834Y-91155687D01*
X157938834Y-91062593D01*
X157860676Y-91062593D01*
X157860676Y-90969500D01*
X157705521Y-90969500D01*
X157705521Y-91249000D01*
X157550000Y-91249000D01*
X157550000Y-90876187D01*
X157705521Y-90876187D01*
X158016992Y-90876187D01*
X158016992Y-90688132D01*
X157705521Y-90688132D01*
X157705521Y-90876187D01*
X157550000Y-90876187D01*
X157550000Y-90594819D01*
X158094356Y-90594819D01*
X158094356Y-90688609D01*
G37*
G36*
X158328157Y-91249000D02*
G01*
X158328157Y-91155210D01*
X158250000Y-91155210D01*
X158250000Y-91061897D01*
X158405521Y-91061897D01*
X158405521Y-91155687D01*
X158716992Y-91155687D01*
X158716992Y-90875711D01*
X158328157Y-90875711D01*
X158328157Y-90782398D01*
X158250000Y-90782398D01*
X158250000Y-90594819D01*
X158872513Y-90594819D01*
X158872513Y-90688132D01*
X158405521Y-90688132D01*
X158405521Y-90782398D01*
X158795150Y-90782398D01*
X158795150Y-90876187D01*
X158872513Y-90876187D01*
X158872513Y-91155210D01*
X158795150Y-91155210D01*
X158795150Y-91249000D01*
X158328157Y-91249000D01*
G37*
G36*
X144878157Y-126099000D02*
G01*
X144878157Y-126005210D01*
X144800000Y-126005210D01*
X144800000Y-125539085D01*
X144878157Y-125539085D01*
X144878157Y-125444819D01*
X145345150Y-125444819D01*
X145345150Y-125539085D01*
X145422513Y-125539085D01*
X145422513Y-125632398D01*
X145266992Y-125632398D01*
X145266992Y-125538132D01*
X144955521Y-125538132D01*
X144955521Y-126005687D01*
X145266992Y-126005687D01*
X145266992Y-125911897D01*
X145422513Y-125911897D01*
X145422513Y-126005210D01*
X145345150Y-126005210D01*
X145345150Y-126099000D01*
X144878157Y-126099000D01*
G37*
G36*
X146045150Y-125539085D02*
G01*
X146122513Y-125539085D01*
X146122513Y-125632398D01*
X145966992Y-125632398D01*
X145966992Y-125538132D01*
X145655521Y-125538132D01*
X145655521Y-125726187D01*
X146045150Y-125726187D01*
X146045150Y-125817632D01*
X146122513Y-125817632D01*
X146122513Y-126005210D01*
X146045150Y-126005210D01*
X146045150Y-126099000D01*
X145578157Y-126099000D01*
X145578157Y-126005687D01*
X145655521Y-126005687D01*
X145966992Y-126005687D01*
X145966992Y-125817632D01*
X145655521Y-125817632D01*
X145655521Y-126005687D01*
X145578157Y-126005687D01*
X145578157Y-126005210D01*
X145500000Y-126005210D01*
X145500000Y-125539085D01*
X145578157Y-125539085D01*
X145578157Y-125444819D01*
X146045150Y-125444819D01*
X146045150Y-125539085D01*
G37*
G36*
X144327914Y-125249000D02*
G01*
X144327914Y-125155687D01*
X144561226Y-125155687D01*
X144561226Y-124688132D01*
X144483466Y-124688132D01*
X144483466Y-124594819D01*
X144716748Y-124594819D01*
X144716748Y-125155687D01*
X144949267Y-125155687D01*
X144949267Y-125249000D01*
X144327914Y-125249000D01*
G37*
G36*
X145573064Y-124688609D02*
G01*
X145650427Y-124688609D01*
X145650427Y-125155210D01*
X145573064Y-125155210D01*
X145573064Y-125249000D01*
X145106071Y-125249000D01*
X145106071Y-125155687D01*
X145183435Y-125155687D01*
X145494906Y-125155687D01*
X145494906Y-124688132D01*
X145183435Y-124688132D01*
X145183435Y-125155687D01*
X145106071Y-125155687D01*
X145106071Y-125155210D01*
X145027914Y-125155210D01*
X145027914Y-124688609D01*
X145106071Y-124688609D01*
X145106071Y-124594819D01*
X145573064Y-124594819D01*
X145573064Y-124688609D01*
G37*
G36*
X146273064Y-124688609D02*
G01*
X146350427Y-124688609D01*
X146350427Y-125155210D01*
X146273064Y-125155210D01*
X146273064Y-125249000D01*
X145806071Y-125249000D01*
X145806071Y-125155687D01*
X145883435Y-125155687D01*
X146194906Y-125155687D01*
X146194906Y-124688132D01*
X145883435Y-124688132D01*
X145883435Y-125155687D01*
X145806071Y-125155687D01*
X145806071Y-125155210D01*
X145727914Y-125155210D01*
X145727914Y-124688609D01*
X145806071Y-124688609D01*
X145806071Y-124594819D01*
X146273064Y-124594819D01*
X146273064Y-124688609D01*
G37*
G36*
X146427914Y-125249000D02*
G01*
X146427914Y-124782398D01*
X146506071Y-124782398D01*
X146506071Y-124876187D01*
X146584229Y-124876187D01*
X146584229Y-125249000D01*
X146427914Y-125249000D01*
G37*
G36*
X146738590Y-125249000D02*
G01*
X146738590Y-124875711D01*
X146584229Y-124875711D01*
X146584229Y-124782398D01*
X146816748Y-124782398D01*
X146816748Y-124876187D01*
X146894112Y-124876187D01*
X146894112Y-125249000D01*
X146738590Y-125249000D01*
G37*
G36*
X146972087Y-125249000D02*
G01*
X146972087Y-124594819D01*
X147593440Y-124594819D01*
X147593440Y-124782142D01*
X147516412Y-124782142D01*
X147516412Y-124688132D01*
X147127608Y-124688132D01*
X147127608Y-124876187D01*
X147516412Y-124876187D01*
X147516412Y-124969500D01*
X147127608Y-124969500D01*
X147127608Y-125249000D01*
X146972087Y-125249000D01*
G37*
D11*
G36*
X146649000Y-68554849D02*
G01*
X146555687Y-68554849D01*
X146555687Y-68478646D01*
X146649000Y-68478646D01*
X146649000Y-68554849D01*
G37*
G36*
X146555210Y-68633007D02*
G01*
X146461897Y-68633007D01*
X146461897Y-68554849D01*
X146555210Y-68554849D01*
X146555210Y-68633007D01*
G37*
G36*
X146461897Y-68711165D02*
G01*
X146369976Y-68711165D01*
X146369976Y-68633007D01*
X146461897Y-68633007D01*
X146461897Y-68711165D01*
G37*
G36*
X146369500Y-68789323D02*
G01*
X146276187Y-68789323D01*
X146276187Y-68711165D01*
X146369500Y-68711165D01*
X146369500Y-68789323D01*
G37*
G36*
X146649000Y-69021842D02*
G01*
X146555210Y-69021842D01*
X146555210Y-69100000D01*
X146089085Y-69100000D01*
X146089085Y-69021842D01*
X145994819Y-69021842D01*
X145994819Y-68554849D01*
X146089085Y-68554849D01*
X146089085Y-68478646D01*
X146461897Y-68478646D01*
X146461897Y-68554849D01*
X146369500Y-68554849D01*
X146369500Y-68633007D01*
X146088132Y-68633007D01*
X146088132Y-68944478D01*
X146555687Y-68944478D01*
X146555687Y-68633007D01*
X146649000Y-68633007D01*
X146649000Y-69021842D01*
G37*
G36*
X146649000Y-68321842D02*
G01*
X146555687Y-68321842D01*
X146555687Y-68244478D01*
X146462374Y-68244478D01*
X146462374Y-68166320D01*
X146367632Y-68166320D01*
X146367632Y-68089323D01*
X146276187Y-68089323D01*
X146276187Y-68011165D01*
X146182398Y-68011165D01*
X146182398Y-67933007D01*
X146088132Y-67933007D01*
X146088132Y-68244478D01*
X146182398Y-68244478D01*
X146182398Y-68400000D01*
X145994819Y-68400000D01*
X145994819Y-67777486D01*
X146182398Y-67777486D01*
X146182398Y-67855643D01*
X146276187Y-67855643D01*
X146276187Y-67933801D01*
X146369976Y-67933801D01*
X146369976Y-68011165D01*
X146462374Y-68011165D01*
X146462374Y-68089323D01*
X146555210Y-68089323D01*
X146555210Y-68166320D01*
X146649000Y-68166320D01*
X146649000Y-68321842D01*
G37*
G36*
X145155210Y-72255216D02*
G01*
X145249000Y-72255216D01*
X145249000Y-72800000D01*
X144594819Y-72800000D01*
X144594819Y-72644478D01*
X144688132Y-72644478D01*
X145155687Y-72644478D01*
X145155687Y-72333007D01*
X144688132Y-72333007D01*
X144688132Y-72644478D01*
X144594819Y-72644478D01*
X144594819Y-72255216D01*
X144688609Y-72255216D01*
X144688609Y-72177486D01*
X145155210Y-72177486D01*
X145155210Y-72255216D01*
G37*
G36*
X145249000Y-72100000D02*
G01*
X144594819Y-72100000D01*
X144594819Y-71944478D01*
X144688609Y-71944478D01*
X144688609Y-71866687D01*
X144782398Y-71866687D01*
X144782398Y-71711165D01*
X144688609Y-71711165D01*
X144688609Y-71633007D01*
X144594819Y-71633007D01*
X144594819Y-71477486D01*
X145249000Y-71477486D01*
X145249000Y-71633007D01*
X144876187Y-71633007D01*
X144876187Y-71711165D01*
X144969976Y-71711165D01*
X144969976Y-71866687D01*
X144876187Y-71866687D01*
X144876187Y-71944478D01*
X145249000Y-71944478D01*
X145249000Y-72100000D01*
G37*
G36*
X145249000Y-71321842D02*
G01*
X145155210Y-71321842D01*
X145155210Y-71400000D01*
X144688609Y-71400000D01*
X144688609Y-71321842D01*
X144594819Y-71321842D01*
X144594819Y-70854849D01*
X144688609Y-70854849D01*
X144688609Y-70777486D01*
X144781922Y-70777486D01*
X144781922Y-70933007D01*
X144688132Y-70933007D01*
X144688132Y-71244478D01*
X145155687Y-71244478D01*
X145155687Y-70933007D01*
X144969500Y-70933007D01*
X144969500Y-71166595D01*
X144876187Y-71166595D01*
X144876187Y-70777486D01*
X145155210Y-70777486D01*
X145155210Y-70854849D01*
X145249000Y-70854849D01*
X145249000Y-71321842D01*
G37*
G36*
X145249000Y-70700000D02*
G01*
X145155687Y-70700000D01*
X145155687Y-70544478D01*
X145062374Y-70544478D01*
X145062374Y-70466687D01*
X144969976Y-70466687D01*
X144969976Y-70389323D01*
X144876187Y-70389323D01*
X144876187Y-70310371D01*
X144782398Y-70310371D01*
X144782398Y-70233007D01*
X144688132Y-70233007D01*
X144688132Y-70544478D01*
X144782398Y-70544478D01*
X144782398Y-70700000D01*
X144689085Y-70700000D01*
X144689085Y-70621842D01*
X144594819Y-70621842D01*
X144594819Y-70154849D01*
X144689085Y-70154849D01*
X144689085Y-70077486D01*
X144782398Y-70077486D01*
X144782398Y-70154849D01*
X144876187Y-70154849D01*
X144876187Y-70233801D01*
X144969976Y-70233801D01*
X144969976Y-70311165D01*
X145062374Y-70311165D01*
X145062374Y-70389323D01*
X145155687Y-70389323D01*
X145155687Y-70154849D01*
X145062374Y-70154849D01*
X145062374Y-70077486D01*
X145249000Y-70077486D01*
X145249000Y-70700000D01*
G37*
G36*
X145249000Y-69921842D02*
G01*
X145155210Y-69921842D01*
X145155210Y-70000000D01*
X145061897Y-70000000D01*
X145061897Y-69844478D01*
X145155687Y-69844478D01*
X145155687Y-69533007D01*
X144967632Y-69533007D01*
X144967632Y-69765526D01*
X144876187Y-69765526D01*
X144876187Y-69533007D01*
X144688132Y-69533007D01*
X144688132Y-69844478D01*
X144781922Y-69844478D01*
X144781922Y-70000000D01*
X144688609Y-70000000D01*
X144688609Y-69921842D01*
X144594819Y-69921842D01*
X144594819Y-69454849D01*
X144688609Y-69454849D01*
X144688609Y-69377486D01*
X144876187Y-69377486D01*
X144876187Y-69454849D01*
X144967632Y-69454849D01*
X144967632Y-69377486D01*
X145155210Y-69377486D01*
X145155210Y-69454849D01*
X145249000Y-69454849D01*
X145249000Y-69921842D01*
G37*
G36*
X145155210Y-68754849D02*
G01*
X145249000Y-68754849D01*
X145249000Y-69221842D01*
X145155210Y-69221842D01*
X145155210Y-69300000D01*
X144688609Y-69300000D01*
X144688609Y-69221842D01*
X144594819Y-69221842D01*
X144594819Y-69144478D01*
X144688132Y-69144478D01*
X145155687Y-69144478D01*
X145155687Y-68833007D01*
X144688132Y-68833007D01*
X144688132Y-69144478D01*
X144594819Y-69144478D01*
X144594819Y-68754849D01*
X144688609Y-68754849D01*
X144688609Y-68677486D01*
X145155210Y-68677486D01*
X145155210Y-68754849D01*
G37*
G36*
X145249000Y-68600000D02*
G01*
X145155687Y-68600000D01*
X145155687Y-68366687D01*
X144688132Y-68366687D01*
X144688132Y-68444447D01*
X144594819Y-68444447D01*
X144594819Y-68211165D01*
X145155687Y-68211165D01*
X145155687Y-67978646D01*
X145249000Y-67978646D01*
X145249000Y-68600000D01*
G37*
G36*
X145249000Y-67900000D02*
G01*
X144594819Y-67900000D01*
X144594819Y-67744478D01*
X145155687Y-67744478D01*
X145155687Y-67356803D01*
X145062227Y-67356803D01*
X145062227Y-67278646D01*
X145249000Y-67278646D01*
X145249000Y-67900000D01*
G37*
G36*
X144078157Y-52949000D02*
G01*
X144078157Y-52855210D01*
X144000000Y-52855210D01*
X144000000Y-52294819D01*
X144155521Y-52294819D01*
X144155521Y-52855687D01*
X144466992Y-52855687D01*
X144466992Y-52294819D01*
X144622513Y-52294819D01*
X144622513Y-52855210D01*
X144545150Y-52855210D01*
X144545150Y-52949000D01*
X144078157Y-52949000D01*
G37*
G36*
X144700000Y-52949000D02*
G01*
X144700000Y-52855687D01*
X144933312Y-52855687D01*
X144933312Y-52388132D01*
X144855552Y-52388132D01*
X144855552Y-52294819D01*
X145088834Y-52294819D01*
X145088834Y-52855687D01*
X145321353Y-52855687D01*
X145321353Y-52949000D01*
X144700000Y-52949000D01*
G37*
G36*
X148046310Y-56835264D02*
G01*
X148124467Y-56835264D01*
X148124467Y-57025187D01*
X148046310Y-57025187D01*
X148046310Y-57118500D01*
X147968152Y-57118500D01*
X147968152Y-57209249D01*
X148046310Y-57209249D01*
X148046310Y-57302342D01*
X148124467Y-57302342D01*
X148124467Y-57398000D01*
X147966992Y-57398000D01*
X147966992Y-57304687D01*
X147888834Y-57304687D01*
X147888834Y-57211593D01*
X147810676Y-57211593D01*
X147810676Y-57118500D01*
X147657475Y-57118500D01*
X147657475Y-57398000D01*
X147500000Y-57398000D01*
X147500000Y-57022842D01*
X147657475Y-57022842D01*
X147966992Y-57022842D01*
X147966992Y-56837132D01*
X147657475Y-56837132D01*
X147657475Y-57022842D01*
X147500000Y-57022842D01*
X147500000Y-56741475D01*
X148046310Y-56741475D01*
X148046310Y-56835264D01*
G37*
G36*
X148590788Y-57022842D02*
G01*
X148668152Y-57022842D01*
X148668152Y-57212289D01*
X148357475Y-57212289D01*
X148357475Y-57302342D01*
X148590788Y-57302342D01*
X148590788Y-57398000D01*
X148278157Y-57398000D01*
X148278157Y-57304210D01*
X148200000Y-57304210D01*
X148200000Y-57116632D01*
X148357475Y-57116632D01*
X148510676Y-57116632D01*
X148510676Y-57024711D01*
X148357475Y-57024711D01*
X148357475Y-57116632D01*
X148200000Y-57116632D01*
X148200000Y-57022842D01*
X148278157Y-57022842D01*
X148278157Y-56929053D01*
X148590788Y-56929053D01*
X148590788Y-57022842D01*
G37*
G36*
X148744173Y-57585578D02*
G01*
X148744173Y-56929053D01*
X148824284Y-56929053D01*
X148824284Y-57022842D01*
X148902442Y-57022842D01*
X148902442Y-57302342D01*
X149054849Y-57302342D01*
X149054849Y-57024711D01*
X148900488Y-57024711D01*
X148900488Y-56929053D01*
X149134961Y-56929053D01*
X149134961Y-57022842D01*
X149212325Y-57022842D01*
X149212325Y-57304210D01*
X149134961Y-57304210D01*
X149134961Y-57398000D01*
X148902442Y-57398000D01*
X148902442Y-57585578D01*
X148744173Y-57585578D01*
G37*
G36*
X149288346Y-57398000D02*
G01*
X149288346Y-57302342D01*
X149366503Y-57302342D01*
X149366503Y-56837132D01*
X149288346Y-56837132D01*
X149288346Y-56741475D01*
X149523979Y-56741475D01*
X149523979Y-57302342D01*
X149600976Y-57302342D01*
X149600976Y-57398000D01*
X149288346Y-57398000D01*
G37*
G36*
X149754849Y-57398000D02*
G01*
X149754849Y-57304210D01*
X149676692Y-57304210D01*
X149676692Y-57022842D01*
X149754849Y-57022842D01*
X149754849Y-56929053D01*
X150067480Y-56929053D01*
X150067480Y-57022842D01*
X150145638Y-57022842D01*
X150145638Y-57398000D01*
X150065526Y-57398000D01*
X150065526Y-57304210D01*
X149987369Y-57304210D01*
X149987369Y-57024711D01*
X149834167Y-57024711D01*
X149834167Y-57302342D01*
X149989323Y-57302342D01*
X149989323Y-57398000D01*
X149754849Y-57398000D01*
G37*
G36*
X150299023Y-57398000D02*
G01*
X150299023Y-57304210D01*
X150220865Y-57304210D01*
X150220865Y-57022842D01*
X150299023Y-57022842D01*
X150299023Y-56929053D01*
X150611653Y-56929053D01*
X150611653Y-57022842D01*
X150689017Y-57022842D01*
X150689017Y-57118500D01*
X150531542Y-57118500D01*
X150531542Y-57024711D01*
X150378340Y-57024711D01*
X150378340Y-57302342D01*
X150531542Y-57302342D01*
X150531542Y-57208553D01*
X150689017Y-57208553D01*
X150689017Y-57304210D01*
X150611653Y-57304210D01*
X150611653Y-57398000D01*
X150299023Y-57398000D01*
G37*
G36*
X151155826Y-57022842D02*
G01*
X151233190Y-57022842D01*
X151233190Y-57212289D01*
X150922513Y-57212289D01*
X150922513Y-57302342D01*
X151155826Y-57302342D01*
X151155826Y-57398000D01*
X150843196Y-57398000D01*
X150843196Y-57304210D01*
X150765038Y-57304210D01*
X150765038Y-57116632D01*
X150922513Y-57116632D01*
X151075715Y-57116632D01*
X151075715Y-57024711D01*
X150922513Y-57024711D01*
X150922513Y-57116632D01*
X150765038Y-57116632D01*
X150765038Y-57022842D01*
X150843196Y-57022842D01*
X150843196Y-56929053D01*
X151155826Y-56929053D01*
X151155826Y-57022842D01*
G37*
G36*
X152166198Y-56835264D02*
G01*
X152244356Y-56835264D01*
X152244356Y-57025187D01*
X152166198Y-57025187D01*
X152166198Y-57118500D01*
X152088040Y-57118500D01*
X152088040Y-57209249D01*
X152166198Y-57209249D01*
X152166198Y-57302342D01*
X152244356Y-57302342D01*
X152244356Y-57398000D01*
X152086880Y-57398000D01*
X152086880Y-57304687D01*
X152008722Y-57304687D01*
X152008722Y-57211593D01*
X151930565Y-57211593D01*
X151930565Y-57118500D01*
X151777363Y-57118500D01*
X151777363Y-57398000D01*
X151619888Y-57398000D01*
X151619888Y-57022842D01*
X151777363Y-57022842D01*
X152086880Y-57022842D01*
X152086880Y-56837132D01*
X151777363Y-56837132D01*
X151777363Y-57022842D01*
X151619888Y-57022842D01*
X151619888Y-56741475D01*
X152166198Y-56741475D01*
X152166198Y-56835264D01*
G37*
G36*
X152398046Y-57398000D02*
G01*
X152398046Y-57304210D01*
X152319888Y-57304210D01*
X152319888Y-57208553D01*
X152477363Y-57208553D01*
X152477363Y-57302342D01*
X152786880Y-57302342D01*
X152786880Y-57116632D01*
X152554361Y-57116632D01*
X152554361Y-57022842D01*
X152786880Y-57022842D01*
X152786880Y-56837132D01*
X152477363Y-56837132D01*
X152477363Y-56930922D01*
X152319888Y-56930922D01*
X152319888Y-56835264D01*
X152398046Y-56835264D01*
X152398046Y-56741475D01*
X152866992Y-56741475D01*
X152866992Y-56835264D01*
X152944356Y-56835264D01*
X152944356Y-57025187D01*
X152866992Y-57025187D01*
X152866992Y-57114287D01*
X152944356Y-57114287D01*
X152944356Y-57304210D01*
X152866992Y-57304210D01*
X152866992Y-57398000D01*
X152398046Y-57398000D01*
G37*
G36*
X153564244Y-57304210D02*
G01*
X153564244Y-57022842D01*
X153721353Y-57022842D01*
X153721353Y-57304210D01*
X153564244Y-57304210D01*
G37*
G36*
X153408722Y-57398000D02*
G01*
X153408722Y-57304210D01*
X153330565Y-57304210D01*
X153330565Y-56929053D01*
X153488040Y-56929053D01*
X153488040Y-57302342D01*
X153566198Y-57302342D01*
X153566198Y-57398000D01*
X153408722Y-57398000D01*
G37*
G36*
X153719399Y-57398000D02*
G01*
X153719399Y-57302342D01*
X153797557Y-57302342D01*
X153797557Y-56929053D01*
X153955033Y-56929053D01*
X153955033Y-57304210D01*
X153876875Y-57304210D01*
X153876875Y-57398000D01*
X153719399Y-57398000D01*
G37*
G36*
X154030565Y-57398000D02*
G01*
X154030565Y-57302342D01*
X154108722Y-57302342D01*
X154108722Y-56929053D01*
X154266198Y-56929053D01*
X154266198Y-57302342D01*
X154343196Y-57302342D01*
X154343196Y-57398000D01*
X154030565Y-57398000D01*
G37*
G36*
X154108722Y-56837132D02*
G01*
X154108722Y-56741475D01*
X154266198Y-56741475D01*
X154266198Y-56837132D01*
X154108722Y-56837132D01*
G37*
G36*
X154575226Y-57398000D02*
G01*
X154575226Y-57304210D01*
X154497069Y-57304210D01*
X154497069Y-57024711D01*
X154418911Y-57024711D01*
X154418911Y-56929053D01*
X154497069Y-56929053D01*
X154497069Y-56741475D01*
X154654544Y-56741475D01*
X154654544Y-56929053D01*
X154809699Y-56929053D01*
X154809699Y-57024711D01*
X154654544Y-57024711D01*
X154654544Y-57302342D01*
X154729588Y-57302342D01*
X154729588Y-57208553D01*
X154887063Y-57208553D01*
X154887063Y-57304210D01*
X154809699Y-57304210D01*
X154809699Y-57398000D01*
X154575226Y-57398000D01*
G37*
G36*
X154963084Y-57398000D02*
G01*
X154963084Y-56741475D01*
X155120560Y-56741475D01*
X155120560Y-56929053D01*
X155353476Y-56929053D01*
X155353476Y-57022842D01*
X155431236Y-57022842D01*
X155431236Y-57398000D01*
X155273761Y-57398000D01*
X155273761Y-57024711D01*
X155120560Y-57024711D01*
X155120560Y-57398000D01*
X154963084Y-57398000D01*
G37*
G36*
X155896092Y-57398000D02*
G01*
X155896092Y-57304210D01*
X155817934Y-57304210D01*
X155817934Y-57208553D01*
X155975409Y-57208553D01*
X155975409Y-57302342D01*
X156284926Y-57302342D01*
X156284926Y-57116632D01*
X156052407Y-57116632D01*
X156052407Y-57022842D01*
X156284926Y-57022842D01*
X156284926Y-56837132D01*
X155975409Y-56837132D01*
X155975409Y-56930922D01*
X155817934Y-56930922D01*
X155817934Y-56835264D01*
X155896092Y-56835264D01*
X155896092Y-56741475D01*
X156365038Y-56741475D01*
X156365038Y-56835264D01*
X156442402Y-56835264D01*
X156442402Y-57025187D01*
X156365038Y-57025187D01*
X156365038Y-57114287D01*
X156442402Y-57114287D01*
X156442402Y-57304210D01*
X156365038Y-57304210D01*
X156365038Y-57398000D01*
X155896092Y-57398000D01*
G37*
G36*
X156517934Y-57398000D02*
G01*
X156517934Y-56741475D01*
X156675409Y-56741475D01*
X156675409Y-57022842D01*
X156828611Y-57022842D01*
X156828611Y-56929053D01*
X156906769Y-56929053D01*
X156906769Y-56835264D01*
X156984926Y-56835264D01*
X156984926Y-56741475D01*
X157142402Y-56741475D01*
X157142402Y-56837132D01*
X157064244Y-56837132D01*
X157064244Y-56931398D01*
X156986086Y-56931398D01*
X156986086Y-57025187D01*
X156908722Y-57025187D01*
X156908722Y-57114287D01*
X156986086Y-57114287D01*
X156986086Y-57208076D01*
X157064244Y-57208076D01*
X157064244Y-57302342D01*
X157142402Y-57302342D01*
X157142402Y-57398000D01*
X156984926Y-57398000D01*
X156984926Y-57304210D01*
X156906769Y-57304210D01*
X156906769Y-57210421D01*
X156828611Y-57210421D01*
X156828611Y-57116632D01*
X156675409Y-57116632D01*
X156675409Y-57398000D01*
X156517934Y-57398000D01*
G37*
G36*
X157528611Y-57398000D02*
G01*
X157528611Y-56929053D01*
X157608722Y-56929053D01*
X157608722Y-57022842D01*
X157686880Y-57022842D01*
X157686880Y-57398000D01*
X157528611Y-57398000D01*
G37*
G36*
X157839288Y-57118500D02*
G01*
X157839288Y-57024711D01*
X157684926Y-57024711D01*
X157684926Y-56929053D01*
X157919399Y-56929053D01*
X157919399Y-57022842D01*
X157996763Y-57022842D01*
X157996763Y-57118500D01*
X157839288Y-57118500D01*
G37*
G36*
X158463572Y-57022842D02*
G01*
X158540936Y-57022842D01*
X158540936Y-57212289D01*
X158230259Y-57212289D01*
X158230259Y-57302342D01*
X158463572Y-57302342D01*
X158463572Y-57398000D01*
X158150942Y-57398000D01*
X158150942Y-57304210D01*
X158072784Y-57304210D01*
X158072784Y-57116632D01*
X158230259Y-57116632D01*
X158383461Y-57116632D01*
X158383461Y-57024711D01*
X158230259Y-57024711D01*
X158230259Y-57116632D01*
X158072784Y-57116632D01*
X158072784Y-57022842D01*
X158150942Y-57022842D01*
X158150942Y-56929053D01*
X158463572Y-56929053D01*
X158463572Y-57022842D01*
G37*
G36*
X158616957Y-57398000D02*
G01*
X158616957Y-57302342D01*
X158927634Y-57302342D01*
X158927634Y-57210897D01*
X158695115Y-57210897D01*
X158695115Y-57118500D01*
X158616957Y-57118500D01*
X158616957Y-57022842D01*
X158695115Y-57022842D01*
X158695115Y-56929053D01*
X159085109Y-56929053D01*
X159085109Y-57024711D01*
X158774433Y-57024711D01*
X158774433Y-57116632D01*
X159007745Y-57116632D01*
X159007745Y-57208553D01*
X159085109Y-57208553D01*
X159085109Y-57304210D01*
X159007745Y-57304210D01*
X159007745Y-57398000D01*
X158616957Y-57398000D01*
G37*
G36*
X159161130Y-57398000D02*
G01*
X159161130Y-57302342D01*
X159239288Y-57302342D01*
X159239288Y-56929053D01*
X159396763Y-56929053D01*
X159396763Y-57302342D01*
X159473761Y-57302342D01*
X159473761Y-57398000D01*
X159161130Y-57398000D01*
G37*
G36*
X159239288Y-56837132D02*
G01*
X159239288Y-56741475D01*
X159396763Y-56741475D01*
X159396763Y-56837132D01*
X159239288Y-56837132D01*
G37*
G36*
X159549476Y-57398000D02*
G01*
X159549476Y-57302342D01*
X159860153Y-57302342D01*
X159860153Y-57210897D01*
X159627634Y-57210897D01*
X159627634Y-57118500D01*
X159549476Y-57118500D01*
X159549476Y-57022842D01*
X159627634Y-57022842D01*
X159627634Y-56929053D01*
X160017629Y-56929053D01*
X160017629Y-57024711D01*
X159706952Y-57024711D01*
X159706952Y-57116632D01*
X159940265Y-57116632D01*
X159940265Y-57208553D01*
X160017629Y-57208553D01*
X160017629Y-57304210D01*
X159940265Y-57304210D01*
X159940265Y-57398000D01*
X159549476Y-57398000D01*
G37*
G36*
X160249965Y-57398000D02*
G01*
X160249965Y-57304210D01*
X160171807Y-57304210D01*
X160171807Y-57024711D01*
X160093649Y-57024711D01*
X160093649Y-56929053D01*
X160171807Y-56929053D01*
X160171807Y-56741475D01*
X160329282Y-56741475D01*
X160329282Y-56929053D01*
X160484438Y-56929053D01*
X160484438Y-57024711D01*
X160329282Y-57024711D01*
X160329282Y-57302342D01*
X160404326Y-57302342D01*
X160404326Y-57208553D01*
X160561802Y-57208553D01*
X160561802Y-57304210D01*
X160484438Y-57304210D01*
X160484438Y-57398000D01*
X160249965Y-57398000D01*
G37*
G36*
X161028611Y-57022842D02*
G01*
X161105975Y-57022842D01*
X161105975Y-57304210D01*
X161028611Y-57304210D01*
X161028611Y-57398000D01*
X160715980Y-57398000D01*
X160715980Y-57304210D01*
X160637822Y-57304210D01*
X160637822Y-57302342D01*
X160795298Y-57302342D01*
X160948499Y-57302342D01*
X160948499Y-57024711D01*
X160795298Y-57024711D01*
X160795298Y-57302342D01*
X160637822Y-57302342D01*
X160637822Y-57022842D01*
X160715980Y-57022842D01*
X160715980Y-56929053D01*
X161028611Y-56929053D01*
X161028611Y-57022842D01*
G37*
G36*
X161181995Y-57398000D02*
G01*
X161181995Y-56929053D01*
X161262107Y-56929053D01*
X161262107Y-57022842D01*
X161340265Y-57022842D01*
X161340265Y-57398000D01*
X161181995Y-57398000D01*
G37*
G36*
X161492672Y-57118500D02*
G01*
X161492672Y-57024711D01*
X161338311Y-57024711D01*
X161338311Y-56929053D01*
X161572784Y-56929053D01*
X161572784Y-57022842D01*
X161650148Y-57022842D01*
X161650148Y-57118500D01*
X161492672Y-57118500D01*
G37*
D10*
G36*
X162649000Y-86717349D02*
G01*
X162555687Y-86717349D01*
X162555687Y-86641146D01*
X162649000Y-86641146D01*
X162649000Y-86717349D01*
G37*
G36*
X162555210Y-86795507D02*
G01*
X162461897Y-86795507D01*
X162461897Y-86717349D01*
X162555210Y-86717349D01*
X162555210Y-86795507D01*
G37*
G36*
X162461897Y-86873665D02*
G01*
X162369976Y-86873665D01*
X162369976Y-86795507D01*
X162461897Y-86795507D01*
X162461897Y-86873665D01*
G37*
G36*
X162369500Y-86951823D02*
G01*
X162276187Y-86951823D01*
X162276187Y-86873665D01*
X162369500Y-86873665D01*
X162369500Y-86951823D01*
G37*
G36*
X162649000Y-87184342D02*
G01*
X162555210Y-87184342D01*
X162555210Y-87262500D01*
X162089085Y-87262500D01*
X162089085Y-87184342D01*
X161994819Y-87184342D01*
X161994819Y-86717349D01*
X162089085Y-86717349D01*
X162089085Y-86641146D01*
X162461897Y-86641146D01*
X162461897Y-86717349D01*
X162369500Y-86717349D01*
X162369500Y-86795507D01*
X162088132Y-86795507D01*
X162088132Y-87106978D01*
X162555687Y-87106978D01*
X162555687Y-86795507D01*
X162649000Y-86795507D01*
X162649000Y-87184342D01*
G37*
G36*
X162649000Y-86562500D02*
G01*
X162555687Y-86562500D01*
X162555687Y-86406978D01*
X162462374Y-86406978D01*
X162462374Y-86329187D01*
X162369976Y-86329187D01*
X162369976Y-86251823D01*
X162276187Y-86251823D01*
X162276187Y-86172871D01*
X162182398Y-86172871D01*
X162182398Y-86095507D01*
X162088132Y-86095507D01*
X162088132Y-86406978D01*
X162182398Y-86406978D01*
X162182398Y-86562500D01*
X162089085Y-86562500D01*
X162089085Y-86484342D01*
X161994819Y-86484342D01*
X161994819Y-86017349D01*
X162089085Y-86017349D01*
X162089085Y-85939986D01*
X162182398Y-85939986D01*
X162182398Y-86017349D01*
X162276187Y-86017349D01*
X162276187Y-86096301D01*
X162369976Y-86096301D01*
X162369976Y-86173665D01*
X162462374Y-86173665D01*
X162462374Y-86251823D01*
X162555687Y-86251823D01*
X162555687Y-86017349D01*
X162462374Y-86017349D01*
X162462374Y-85939986D01*
X162649000Y-85939986D01*
X162649000Y-86562500D01*
G37*
G36*
X159878157Y-72549000D02*
G01*
X159878157Y-72455210D01*
X159800000Y-72455210D01*
X159800000Y-71989085D01*
X159878157Y-71989085D01*
X159878157Y-71894819D01*
X160345150Y-71894819D01*
X160345150Y-71989085D01*
X160422513Y-71989085D01*
X160422513Y-72082398D01*
X160266992Y-72082398D01*
X160266992Y-71988132D01*
X159955521Y-71988132D01*
X159955521Y-72455687D01*
X160266992Y-72455687D01*
X160266992Y-72361897D01*
X160422513Y-72361897D01*
X160422513Y-72455210D01*
X160345150Y-72455210D01*
X160345150Y-72549000D01*
X159878157Y-72549000D01*
G37*
G36*
X160500000Y-72549000D02*
G01*
X160500000Y-72455687D01*
X160655521Y-72455687D01*
X160655521Y-72362374D01*
X160733312Y-72362374D01*
X160733312Y-72269976D01*
X160810676Y-72269976D01*
X160810676Y-72176187D01*
X160889628Y-72176187D01*
X160889628Y-72082398D01*
X160966992Y-72082398D01*
X160966992Y-71988132D01*
X160655521Y-71988132D01*
X160655521Y-72082398D01*
X160500000Y-72082398D01*
X160500000Y-71989085D01*
X160578157Y-71989085D01*
X160578157Y-71894819D01*
X161045150Y-71894819D01*
X161045150Y-71989085D01*
X161122513Y-71989085D01*
X161122513Y-72082398D01*
X161045150Y-72082398D01*
X161045150Y-72176187D01*
X160966198Y-72176187D01*
X160966198Y-72269976D01*
X160888834Y-72269976D01*
X160888834Y-72362374D01*
X160810676Y-72362374D01*
X160810676Y-72455687D01*
X161045150Y-72455687D01*
X161045150Y-72362374D01*
X161122513Y-72362374D01*
X161122513Y-72549000D01*
X160500000Y-72549000D01*
G37*
G36*
X162077914Y-71649000D02*
G01*
X162077914Y-71555687D01*
X162311226Y-71555687D01*
X162311226Y-71088132D01*
X162233466Y-71088132D01*
X162233466Y-70994819D01*
X162466748Y-70994819D01*
X162466748Y-71555687D01*
X162699267Y-71555687D01*
X162699267Y-71649000D01*
X162077914Y-71649000D01*
G37*
G36*
X163323064Y-71088609D02*
G01*
X163400427Y-71088609D01*
X163400427Y-71555210D01*
X163323064Y-71555210D01*
X163323064Y-71649000D01*
X162856071Y-71649000D01*
X162856071Y-71555687D01*
X162933435Y-71555687D01*
X163244906Y-71555687D01*
X163244906Y-71088132D01*
X162933435Y-71088132D01*
X162933435Y-71555687D01*
X162856071Y-71555687D01*
X162856071Y-71555210D01*
X162777914Y-71555210D01*
X162777914Y-71088609D01*
X162856071Y-71088609D01*
X162856071Y-70994819D01*
X163323064Y-70994819D01*
X163323064Y-71088609D01*
G37*
G36*
X163556071Y-71649000D02*
G01*
X163556071Y-71555210D01*
X163477914Y-71555210D01*
X163477914Y-71182398D01*
X163633435Y-71182398D01*
X163633435Y-71555687D01*
X163788590Y-71555687D01*
X163788590Y-71649000D01*
X163556071Y-71649000D01*
G37*
G36*
X163866748Y-71649000D02*
G01*
X163866748Y-71555210D01*
X163788590Y-71555210D01*
X163788590Y-71182398D01*
X163944906Y-71182398D01*
X163944906Y-71649000D01*
X163866748Y-71649000D01*
G37*
G36*
X164022087Y-71649000D02*
G01*
X164022087Y-70994819D01*
X164643440Y-70994819D01*
X164643440Y-71182142D01*
X164566412Y-71182142D01*
X164566412Y-71088132D01*
X164177608Y-71088132D01*
X164177608Y-71276187D01*
X164566412Y-71276187D01*
X164566412Y-71369500D01*
X164177608Y-71369500D01*
X164177608Y-71649000D01*
X164022087Y-71649000D01*
G37*
G36*
X176544356Y-85838609D02*
G01*
X176622513Y-85838609D01*
X176622513Y-86026187D01*
X176544356Y-86026187D01*
X176544356Y-86119500D01*
X176466198Y-86119500D01*
X176466198Y-86212593D01*
X176544356Y-86212593D01*
X176544356Y-86305687D01*
X176622513Y-86305687D01*
X176622513Y-86399000D01*
X176466992Y-86399000D01*
X176466992Y-86305687D01*
X176388834Y-86305687D01*
X176388834Y-86212593D01*
X176310676Y-86212593D01*
X176310676Y-86119500D01*
X176155521Y-86119500D01*
X176155521Y-86399000D01*
X176000000Y-86399000D01*
X176000000Y-86026187D01*
X176155521Y-86026187D01*
X176466992Y-86026187D01*
X176466992Y-85838132D01*
X176155521Y-85838132D01*
X176155521Y-86026187D01*
X176000000Y-86026187D01*
X176000000Y-85744819D01*
X176544356Y-85744819D01*
X176544356Y-85838609D01*
G37*
G36*
X177245150Y-85838609D02*
G01*
X177322513Y-85838609D01*
X177322513Y-86026187D01*
X177245150Y-86026187D01*
X177245150Y-86117632D01*
X177322513Y-86117632D01*
X177322513Y-86305210D01*
X177245150Y-86305210D01*
X177245150Y-86399000D01*
X176778157Y-86399000D01*
X176778157Y-86305687D01*
X176855521Y-86305687D01*
X177166992Y-86305687D01*
X177166992Y-86117632D01*
X176855521Y-86117632D01*
X176855521Y-86305687D01*
X176778157Y-86305687D01*
X176778157Y-86305210D01*
X176700000Y-86305210D01*
X176700000Y-86117632D01*
X176778157Y-86117632D01*
X176778157Y-86026187D01*
X176855521Y-86026187D01*
X177166992Y-86026187D01*
X177166992Y-85838132D01*
X176855521Y-85838132D01*
X176855521Y-86026187D01*
X176778157Y-86026187D01*
X176700000Y-86026187D01*
X176700000Y-85838609D01*
X176778157Y-85838609D01*
X176778157Y-85744819D01*
X177245150Y-85744819D01*
X177245150Y-85838609D01*
G37*
G36*
X175700000Y-90799000D02*
G01*
X175700000Y-90705687D01*
X175933312Y-90705687D01*
X175933312Y-90238132D01*
X175855552Y-90238132D01*
X175855552Y-90144819D01*
X176088834Y-90144819D01*
X176088834Y-90705687D01*
X176321353Y-90705687D01*
X176321353Y-90799000D01*
X175700000Y-90799000D01*
G37*
G36*
X176400000Y-90799000D02*
G01*
X176400000Y-90144819D01*
X176555521Y-90144819D01*
X176555521Y-90426187D01*
X176710676Y-90426187D01*
X176710676Y-90332398D01*
X176788834Y-90332398D01*
X176788834Y-90238609D01*
X176866992Y-90238609D01*
X176866992Y-90144819D01*
X177022513Y-90144819D01*
X177022513Y-90238132D01*
X176944356Y-90238132D01*
X176944356Y-90332398D01*
X176866198Y-90332398D01*
X176866198Y-90426187D01*
X176788834Y-90426187D01*
X176788834Y-90517632D01*
X176866198Y-90517632D01*
X176866198Y-90611421D01*
X176944356Y-90611421D01*
X176944356Y-90705687D01*
X177022513Y-90705687D01*
X177022513Y-90799000D01*
X176866992Y-90799000D01*
X176866992Y-90705210D01*
X176788834Y-90705210D01*
X176788834Y-90611421D01*
X176710676Y-90611421D01*
X176710676Y-90517632D01*
X176555521Y-90517632D01*
X176555521Y-90799000D01*
X176400000Y-90799000D01*
G37*
D11*
G36*
X155294356Y-71288609D02*
G01*
X155372513Y-71288609D01*
X155372513Y-71476187D01*
X155294356Y-71476187D01*
X155294356Y-71569500D01*
X155216198Y-71569500D01*
X155216198Y-71662593D01*
X155294356Y-71662593D01*
X155294356Y-71755687D01*
X155372513Y-71755687D01*
X155372513Y-71849000D01*
X155216992Y-71849000D01*
X155216992Y-71755687D01*
X155138834Y-71755687D01*
X155138834Y-71662593D01*
X155060676Y-71662593D01*
X155060676Y-71569500D01*
X154905521Y-71569500D01*
X154905521Y-71849000D01*
X154750000Y-71849000D01*
X154750000Y-71476187D01*
X154905521Y-71476187D01*
X155216992Y-71476187D01*
X155216992Y-71288132D01*
X154905521Y-71288132D01*
X154905521Y-71476187D01*
X154750000Y-71476187D01*
X154750000Y-71194819D01*
X155294356Y-71194819D01*
X155294356Y-71288609D01*
G37*
G36*
X155450000Y-71849000D02*
G01*
X155450000Y-71755687D01*
X155683312Y-71755687D01*
X155683312Y-71288132D01*
X155605552Y-71288132D01*
X155605552Y-71194819D01*
X155838834Y-71194819D01*
X155838834Y-71755687D01*
X156071353Y-71755687D01*
X156071353Y-71849000D01*
X155450000Y-71849000D01*
G37*
G36*
X156150000Y-71849000D02*
G01*
X156150000Y-71755687D01*
X156305521Y-71755687D01*
X156305521Y-71662374D01*
X156383312Y-71662374D01*
X156383312Y-71569976D01*
X156460676Y-71569976D01*
X156460676Y-71476187D01*
X156539628Y-71476187D01*
X156539628Y-71382398D01*
X156616992Y-71382398D01*
X156616992Y-71288132D01*
X156305521Y-71288132D01*
X156305521Y-71382398D01*
X156150000Y-71382398D01*
X156150000Y-71289085D01*
X156228157Y-71289085D01*
X156228157Y-71194819D01*
X156695150Y-71194819D01*
X156695150Y-71289085D01*
X156772513Y-71289085D01*
X156772513Y-71382398D01*
X156695150Y-71382398D01*
X156695150Y-71476187D01*
X156616198Y-71476187D01*
X156616198Y-71569976D01*
X156538834Y-71569976D01*
X156538834Y-71662374D01*
X156460676Y-71662374D01*
X156460676Y-71755687D01*
X156695150Y-71755687D01*
X156695150Y-71662374D01*
X156772513Y-71662374D01*
X156772513Y-71849000D01*
X156150000Y-71849000D01*
G37*
G36*
X154800000Y-72649000D02*
G01*
X154800000Y-72555687D01*
X155033312Y-72555687D01*
X155033312Y-72088132D01*
X154955552Y-72088132D01*
X154955552Y-71994819D01*
X155188834Y-71994819D01*
X155188834Y-72555687D01*
X155421353Y-72555687D01*
X155421353Y-72649000D01*
X154800000Y-72649000D01*
G37*
G36*
X156045150Y-72088609D02*
G01*
X156122513Y-72088609D01*
X156122513Y-72555210D01*
X156045150Y-72555210D01*
X156045150Y-72649000D01*
X155578157Y-72649000D01*
X155578157Y-72555687D01*
X155655521Y-72555687D01*
X155966992Y-72555687D01*
X155966992Y-72088132D01*
X155655521Y-72088132D01*
X155655521Y-72555687D01*
X155578157Y-72555687D01*
X155578157Y-72555210D01*
X155500000Y-72555210D01*
X155500000Y-72088609D01*
X155578157Y-72088609D01*
X155578157Y-71994819D01*
X156045150Y-71994819D01*
X156045150Y-72088609D01*
G37*
G36*
X156745150Y-72088609D02*
G01*
X156822513Y-72088609D01*
X156822513Y-72555210D01*
X156745150Y-72555210D01*
X156745150Y-72649000D01*
X156278157Y-72649000D01*
X156278157Y-72555687D01*
X156355521Y-72555687D01*
X156666992Y-72555687D01*
X156666992Y-72088132D01*
X156355521Y-72088132D01*
X156355521Y-72555687D01*
X156278157Y-72555687D01*
X156278157Y-72555210D01*
X156200000Y-72555210D01*
X156200000Y-72088609D01*
X156278157Y-72088609D01*
X156278157Y-71994819D01*
X156745150Y-71994819D01*
X156745150Y-72088609D01*
G37*
G36*
X156900000Y-72649000D02*
G01*
X156900000Y-71994819D01*
X157055521Y-71994819D01*
X157055521Y-72276187D01*
X157210676Y-72276187D01*
X157210676Y-72182398D01*
X157288834Y-72182398D01*
X157288834Y-72088609D01*
X157366992Y-72088609D01*
X157366992Y-71994819D01*
X157522513Y-71994819D01*
X157522513Y-72088132D01*
X157444356Y-72088132D01*
X157444356Y-72182398D01*
X157366198Y-72182398D01*
X157366198Y-72276187D01*
X157288834Y-72276187D01*
X157288834Y-72367632D01*
X157366198Y-72367632D01*
X157366198Y-72461421D01*
X157444356Y-72461421D01*
X157444356Y-72555687D01*
X157522513Y-72555687D01*
X157522513Y-72649000D01*
X157366992Y-72649000D01*
X157366992Y-72555210D01*
X157288834Y-72555210D01*
X157288834Y-72461421D01*
X157210676Y-72461421D01*
X157210676Y-72367632D01*
X157055521Y-72367632D01*
X157055521Y-72649000D01*
X156900000Y-72649000D01*
G37*
D12*
G36*
X143096737Y-97536264D02*
G01*
X143174467Y-97536264D01*
X143174467Y-98005210D01*
X143096737Y-98005210D01*
X143096737Y-98099000D01*
X142550000Y-98099000D01*
X142550000Y-98003342D01*
X142707475Y-98003342D01*
X143016992Y-98003342D01*
X143016992Y-97538132D01*
X142707475Y-97538132D01*
X142707475Y-98003342D01*
X142550000Y-98003342D01*
X142550000Y-97442475D01*
X143096737Y-97442475D01*
X143096737Y-97536264D01*
G37*
G36*
X143796310Y-97909553D02*
G01*
X143874284Y-97909553D01*
X143874284Y-98005210D01*
X143796310Y-98005210D01*
X143796310Y-98099000D01*
X143638834Y-98099000D01*
X143638834Y-98005210D01*
X143250000Y-98005210D01*
X143250000Y-97819976D01*
X143407475Y-97819976D01*
X143407475Y-97909553D01*
X143638834Y-97909553D01*
X143638834Y-97632398D01*
X143562630Y-97632398D01*
X143562630Y-97725711D01*
X143485633Y-97725711D01*
X143485633Y-97819976D01*
X143407475Y-97819976D01*
X143250000Y-97819976D01*
X143250000Y-97817632D01*
X143328157Y-97817632D01*
X143328157Y-97723366D01*
X143405521Y-97723366D01*
X143405521Y-97630053D01*
X143483679Y-97630053D01*
X143483679Y-97536264D01*
X143560676Y-97536264D01*
X143560676Y-97442475D01*
X143796310Y-97442475D01*
X143796310Y-97909553D01*
G37*
D10*
G36*
X157899000Y-86717349D02*
G01*
X157805687Y-86717349D01*
X157805687Y-86641146D01*
X157899000Y-86641146D01*
X157899000Y-86717349D01*
G37*
G36*
X157805210Y-86795507D02*
G01*
X157711897Y-86795507D01*
X157711897Y-86717349D01*
X157805210Y-86717349D01*
X157805210Y-86795507D01*
G37*
G36*
X157711897Y-86873665D02*
G01*
X157619976Y-86873665D01*
X157619976Y-86795507D01*
X157711897Y-86795507D01*
X157711897Y-86873665D01*
G37*
G36*
X157619500Y-86951823D02*
G01*
X157526187Y-86951823D01*
X157526187Y-86873665D01*
X157619500Y-86873665D01*
X157619500Y-86951823D01*
G37*
G36*
X157899000Y-87184342D02*
G01*
X157805210Y-87184342D01*
X157805210Y-87262500D01*
X157339085Y-87262500D01*
X157339085Y-87184342D01*
X157244819Y-87184342D01*
X157244819Y-86717349D01*
X157339085Y-86717349D01*
X157339085Y-86641146D01*
X157711897Y-86641146D01*
X157711897Y-86717349D01*
X157619500Y-86717349D01*
X157619500Y-86795507D01*
X157338132Y-86795507D01*
X157338132Y-87106978D01*
X157805687Y-87106978D01*
X157805687Y-86795507D01*
X157899000Y-86795507D01*
X157899000Y-87184342D01*
G37*
G36*
X157899000Y-86484342D02*
G01*
X157805210Y-86484342D01*
X157805210Y-86562500D01*
X157711897Y-86562500D01*
X157711897Y-86406978D01*
X157805687Y-86406978D01*
X157805687Y-86095507D01*
X157617632Y-86095507D01*
X157617632Y-86328026D01*
X157526187Y-86328026D01*
X157526187Y-86095507D01*
X157338132Y-86095507D01*
X157338132Y-86406978D01*
X157431922Y-86406978D01*
X157431922Y-86562500D01*
X157338609Y-86562500D01*
X157338609Y-86484342D01*
X157244819Y-86484342D01*
X157244819Y-86017349D01*
X157338609Y-86017349D01*
X157338609Y-85939986D01*
X157526187Y-85939986D01*
X157526187Y-86017349D01*
X157617632Y-86017349D01*
X157617632Y-85939986D01*
X157805210Y-85939986D01*
X157805210Y-86017349D01*
X157899000Y-86017349D01*
X157899000Y-86484342D01*
G37*
G36*
X144856315Y-78951000D02*
G01*
X144856315Y-78857687D01*
X144933312Y-78857687D01*
X144933312Y-78390132D01*
X144778157Y-78390132D01*
X144778157Y-78483629D01*
X144700000Y-78483629D01*
X144700000Y-78296819D01*
X145321353Y-78296819D01*
X145321353Y-78483629D01*
X145243196Y-78483629D01*
X145243196Y-78390132D01*
X145088834Y-78390132D01*
X145088834Y-78857687D01*
X145166992Y-78857687D01*
X145166992Y-78951000D01*
X144856315Y-78951000D01*
G37*
G36*
X145944783Y-78390609D02*
G01*
X146022513Y-78390609D01*
X146022513Y-78578187D01*
X145944783Y-78578187D01*
X145944783Y-78671500D01*
X145555521Y-78671500D01*
X145555521Y-78951000D01*
X145400000Y-78951000D01*
X145400000Y-78578187D01*
X145555521Y-78578187D01*
X145866992Y-78578187D01*
X145866992Y-78390132D01*
X145555521Y-78390132D01*
X145555521Y-78578187D01*
X145400000Y-78578187D01*
X145400000Y-78296819D01*
X145944783Y-78296819D01*
X145944783Y-78390609D01*
G37*
G36*
X146178157Y-78951000D02*
G01*
X146178157Y-78857210D01*
X146100000Y-78857210D01*
X146100000Y-78763897D01*
X146255521Y-78763897D01*
X146255521Y-78857687D01*
X146566992Y-78857687D01*
X146566992Y-78669632D01*
X146334473Y-78669632D01*
X146334473Y-78578187D01*
X146566992Y-78578187D01*
X146566992Y-78390132D01*
X146255521Y-78390132D01*
X146255521Y-78483922D01*
X146100000Y-78483922D01*
X146100000Y-78390609D01*
X146178157Y-78390609D01*
X146178157Y-78296819D01*
X146645150Y-78296819D01*
X146645150Y-78390609D01*
X146722513Y-78390609D01*
X146722513Y-78578187D01*
X146645150Y-78578187D01*
X146645150Y-78669632D01*
X146722513Y-78669632D01*
X146722513Y-78857210D01*
X146645150Y-78857210D01*
X146645150Y-78951000D01*
X146178157Y-78951000D01*
G37*
G36*
X156094356Y-90688609D02*
G01*
X156172513Y-90688609D01*
X156172513Y-90876187D01*
X156094356Y-90876187D01*
X156094356Y-90969500D01*
X156016198Y-90969500D01*
X156016198Y-91062593D01*
X156094356Y-91062593D01*
X156094356Y-91155687D01*
X156172513Y-91155687D01*
X156172513Y-91249000D01*
X156016992Y-91249000D01*
X156016992Y-91155687D01*
X155938834Y-91155687D01*
X155938834Y-91062593D01*
X155860676Y-91062593D01*
X155860676Y-90969500D01*
X155705521Y-90969500D01*
X155705521Y-91249000D01*
X155550000Y-91249000D01*
X155550000Y-90876187D01*
X155705521Y-90876187D01*
X156016992Y-90876187D01*
X156016992Y-90688132D01*
X155705521Y-90688132D01*
X155705521Y-90876187D01*
X155550000Y-90876187D01*
X155550000Y-90594819D01*
X156094356Y-90594819D01*
X156094356Y-90688609D01*
G37*
G36*
X156328157Y-91249000D02*
G01*
X156328157Y-91155210D01*
X156250000Y-91155210D01*
X156250000Y-91061897D01*
X156405521Y-91061897D01*
X156405521Y-91155687D01*
X156716992Y-91155687D01*
X156716992Y-90967632D01*
X156484473Y-90967632D01*
X156484473Y-90876187D01*
X156716992Y-90876187D01*
X156716992Y-90688132D01*
X156405521Y-90688132D01*
X156405521Y-90781922D01*
X156250000Y-90781922D01*
X156250000Y-90688609D01*
X156328157Y-90688609D01*
X156328157Y-90594819D01*
X156795150Y-90594819D01*
X156795150Y-90688609D01*
X156872513Y-90688609D01*
X156872513Y-90876187D01*
X156795150Y-90876187D01*
X156795150Y-90967632D01*
X156872513Y-90967632D01*
X156872513Y-91155210D01*
X156795150Y-91155210D01*
X156795150Y-91249000D01*
X156328157Y-91249000D01*
G37*
D11*
G36*
X155294356Y-73288609D02*
G01*
X155372513Y-73288609D01*
X155372513Y-73476187D01*
X155294356Y-73476187D01*
X155294356Y-73569500D01*
X155216198Y-73569500D01*
X155216198Y-73662593D01*
X155294356Y-73662593D01*
X155294356Y-73755687D01*
X155372513Y-73755687D01*
X155372513Y-73849000D01*
X155216992Y-73849000D01*
X155216992Y-73755687D01*
X155138834Y-73755687D01*
X155138834Y-73662593D01*
X155060676Y-73662593D01*
X155060676Y-73569500D01*
X154905521Y-73569500D01*
X154905521Y-73849000D01*
X154750000Y-73849000D01*
X154750000Y-73476187D01*
X154905521Y-73476187D01*
X155216992Y-73476187D01*
X155216992Y-73288132D01*
X154905521Y-73288132D01*
X154905521Y-73476187D01*
X154750000Y-73476187D01*
X154750000Y-73194819D01*
X155294356Y-73194819D01*
X155294356Y-73288609D01*
G37*
G36*
X155450000Y-73849000D02*
G01*
X155450000Y-73755687D01*
X155683312Y-73755687D01*
X155683312Y-73288132D01*
X155605552Y-73288132D01*
X155605552Y-73194819D01*
X155838834Y-73194819D01*
X155838834Y-73755687D01*
X156071353Y-73755687D01*
X156071353Y-73849000D01*
X155450000Y-73849000D01*
G37*
G36*
X156695150Y-73288609D02*
G01*
X156772513Y-73288609D01*
X156772513Y-73755210D01*
X156695150Y-73755210D01*
X156695150Y-73849000D01*
X156228157Y-73849000D01*
X156228157Y-73755687D01*
X156305521Y-73755687D01*
X156616992Y-73755687D01*
X156616992Y-73288132D01*
X156305521Y-73288132D01*
X156305521Y-73755687D01*
X156228157Y-73755687D01*
X156228157Y-73755210D01*
X156150000Y-73755210D01*
X156150000Y-73288609D01*
X156228157Y-73288609D01*
X156228157Y-73194819D01*
X156695150Y-73194819D01*
X156695150Y-73288609D01*
G37*
G36*
X154700000Y-74649000D02*
G01*
X154700000Y-74555687D01*
X154933312Y-74555687D01*
X154933312Y-74088132D01*
X154855552Y-74088132D01*
X154855552Y-73994819D01*
X155088834Y-73994819D01*
X155088834Y-74555687D01*
X155321353Y-74555687D01*
X155321353Y-74649000D01*
X154700000Y-74649000D01*
G37*
G36*
X155400000Y-74649000D02*
G01*
X155400000Y-73994819D01*
X155555521Y-73994819D01*
X155555521Y-74276187D01*
X155710676Y-74276187D01*
X155710676Y-74182398D01*
X155788834Y-74182398D01*
X155788834Y-74088609D01*
X155866992Y-74088609D01*
X155866992Y-73994819D01*
X156022513Y-73994819D01*
X156022513Y-74088132D01*
X155944356Y-74088132D01*
X155944356Y-74182398D01*
X155866198Y-74182398D01*
X155866198Y-74276187D01*
X155788834Y-74276187D01*
X155788834Y-74367632D01*
X155866198Y-74367632D01*
X155866198Y-74461421D01*
X155944356Y-74461421D01*
X155944356Y-74555687D01*
X156022513Y-74555687D01*
X156022513Y-74649000D01*
X155866992Y-74649000D01*
X155866992Y-74555210D01*
X155788834Y-74555210D01*
X155788834Y-74461421D01*
X155710676Y-74461421D01*
X155710676Y-74367632D01*
X155555521Y-74367632D01*
X155555521Y-74649000D01*
X155400000Y-74649000D01*
G37*
G36*
X139894783Y-67488609D02*
G01*
X139972513Y-67488609D01*
X139972513Y-67955210D01*
X139894783Y-67955210D01*
X139894783Y-68049000D01*
X139350000Y-68049000D01*
X139350000Y-67955687D01*
X139505521Y-67955687D01*
X139816992Y-67955687D01*
X139816992Y-67488132D01*
X139505521Y-67488132D01*
X139505521Y-67955687D01*
X139350000Y-67955687D01*
X139350000Y-67394819D01*
X139894783Y-67394819D01*
X139894783Y-67488609D01*
G37*
G36*
X140595150Y-67488609D02*
G01*
X140672513Y-67488609D01*
X140672513Y-67676187D01*
X140595150Y-67676187D01*
X140595150Y-67767632D01*
X140672513Y-67767632D01*
X140672513Y-67955210D01*
X140595150Y-67955210D01*
X140595150Y-68049000D01*
X140128157Y-68049000D01*
X140128157Y-67955687D01*
X140205521Y-67955687D01*
X140516992Y-67955687D01*
X140516992Y-67767632D01*
X140205521Y-67767632D01*
X140205521Y-67955687D01*
X140128157Y-67955687D01*
X140128157Y-67955210D01*
X140050000Y-67955210D01*
X140050000Y-67767632D01*
X140128157Y-67767632D01*
X140128157Y-67676187D01*
X140205521Y-67676187D01*
X140516992Y-67676187D01*
X140516992Y-67488132D01*
X140205521Y-67488132D01*
X140205521Y-67676187D01*
X140128157Y-67676187D01*
X140050000Y-67676187D01*
X140050000Y-67488609D01*
X140128157Y-67488609D01*
X140128157Y-67394819D01*
X140595150Y-67394819D01*
X140595150Y-67488609D01*
G37*
G36*
X144099000Y-64121842D02*
G01*
X144005210Y-64121842D01*
X144005210Y-64200000D01*
X143911897Y-64200000D01*
X143911897Y-64044478D01*
X144005687Y-64044478D01*
X144005687Y-63733007D01*
X143817632Y-63733007D01*
X143817632Y-64121842D01*
X143726187Y-64121842D01*
X143726187Y-64200000D01*
X143538609Y-64200000D01*
X143538609Y-64121842D01*
X143444819Y-64121842D01*
X143444819Y-63654849D01*
X143538609Y-63654849D01*
X143538609Y-63577486D01*
X143631922Y-63577486D01*
X143631922Y-63733007D01*
X143538132Y-63733007D01*
X143538132Y-64044478D01*
X143726187Y-64044478D01*
X143726187Y-63654849D01*
X143817632Y-63654849D01*
X143817632Y-63577486D01*
X144005210Y-63577486D01*
X144005210Y-63654849D01*
X144099000Y-63654849D01*
X144099000Y-64121842D01*
G37*
G36*
X144099000Y-63421842D02*
G01*
X144005210Y-63421842D01*
X144005210Y-63500000D01*
X143911897Y-63500000D01*
X143911897Y-63344478D01*
X144005687Y-63344478D01*
X144005687Y-63033007D01*
X143817632Y-63033007D01*
X143817632Y-63421842D01*
X143726187Y-63421842D01*
X143726187Y-63500000D01*
X143538609Y-63500000D01*
X143538609Y-63421842D01*
X143444819Y-63421842D01*
X143444819Y-62954849D01*
X143538609Y-62954849D01*
X143538609Y-62877486D01*
X143631922Y-62877486D01*
X143631922Y-63033007D01*
X143538132Y-63033007D01*
X143538132Y-63344478D01*
X143726187Y-63344478D01*
X143726187Y-62954849D01*
X143817632Y-62954849D01*
X143817632Y-62877486D01*
X144005210Y-62877486D01*
X144005210Y-62954849D01*
X144099000Y-62954849D01*
X144099000Y-63421842D01*
G37*
G36*
X144099000Y-62800000D02*
G01*
X144005687Y-62800000D01*
X144005687Y-62566687D01*
X143538132Y-62566687D01*
X143538132Y-62644447D01*
X143444819Y-62644447D01*
X143444819Y-62411165D01*
X144005687Y-62411165D01*
X144005687Y-62178646D01*
X144099000Y-62178646D01*
X144099000Y-62800000D01*
G37*
G36*
X144005210Y-61555643D02*
G01*
X144099000Y-61555643D01*
X144099000Y-61711165D01*
X144005210Y-61711165D01*
X144005210Y-62100000D01*
X143819976Y-62100000D01*
X143819976Y-62021842D01*
X143725711Y-62021842D01*
X143725711Y-61944478D01*
X143632398Y-61944478D01*
X143632398Y-61866320D01*
X143538609Y-61866320D01*
X143538609Y-61789323D01*
X143632398Y-61789323D01*
X143725711Y-61789323D01*
X143725711Y-61866320D01*
X143819976Y-61866320D01*
X143819976Y-61944478D01*
X143911897Y-61944478D01*
X143911897Y-61711165D01*
X143632398Y-61711165D01*
X143632398Y-61789323D01*
X143538609Y-61789323D01*
X143444819Y-61789323D01*
X143444819Y-61555643D01*
X143911897Y-61555643D01*
X143911897Y-61477669D01*
X144005210Y-61477669D01*
X144005210Y-61555643D01*
G37*
D10*
G36*
X177645150Y-81499000D02*
G01*
X177645150Y-81405687D01*
X177721353Y-81405687D01*
X177721353Y-81499000D01*
X177645150Y-81499000D01*
G37*
G36*
X177566992Y-81405210D02*
G01*
X177566992Y-81311897D01*
X177645150Y-81311897D01*
X177645150Y-81405210D01*
X177566992Y-81405210D01*
G37*
G36*
X177488834Y-81311897D02*
G01*
X177488834Y-81219976D01*
X177566992Y-81219976D01*
X177566992Y-81311897D01*
X177488834Y-81311897D01*
G37*
G36*
X177410676Y-81219500D02*
G01*
X177410676Y-81126187D01*
X177488834Y-81126187D01*
X177488834Y-81219500D01*
X177410676Y-81219500D01*
G37*
G36*
X177178157Y-81499000D02*
G01*
X177178157Y-81405210D01*
X177100000Y-81405210D01*
X177100000Y-80939085D01*
X177178157Y-80939085D01*
X177178157Y-80844819D01*
X177645150Y-80844819D01*
X177645150Y-80939085D01*
X177721353Y-80939085D01*
X177721353Y-81311897D01*
X177645150Y-81311897D01*
X177645150Y-81219500D01*
X177566992Y-81219500D01*
X177566992Y-80938132D01*
X177255521Y-80938132D01*
X177255521Y-81405687D01*
X177566992Y-81405687D01*
X177566992Y-81499000D01*
X177178157Y-81499000D01*
G37*
G36*
X177878157Y-81499000D02*
G01*
X177878157Y-81405210D01*
X177800000Y-81405210D01*
X177800000Y-81311897D01*
X177955521Y-81311897D01*
X177955521Y-81405687D01*
X178266992Y-81405687D01*
X178266992Y-81125711D01*
X177878157Y-81125711D01*
X177878157Y-81032398D01*
X177800000Y-81032398D01*
X177800000Y-80844819D01*
X178422513Y-80844819D01*
X178422513Y-80938132D01*
X177955521Y-80938132D01*
X177955521Y-81032398D01*
X178345150Y-81032398D01*
X178345150Y-81126187D01*
X178422513Y-81126187D01*
X178422513Y-81405210D01*
X178345150Y-81405210D01*
X178345150Y-81499000D01*
X177878157Y-81499000D01*
G37*
D12*
G36*
X162196737Y-99086264D02*
G01*
X162274467Y-99086264D01*
X162274467Y-99555210D01*
X162196737Y-99555210D01*
X162196737Y-99649000D01*
X161650000Y-99649000D01*
X161650000Y-99553342D01*
X161807475Y-99553342D01*
X162116992Y-99553342D01*
X162116992Y-99088132D01*
X161807475Y-99088132D01*
X161807475Y-99553342D01*
X161650000Y-99553342D01*
X161650000Y-98992475D01*
X162196737Y-98992475D01*
X162196737Y-99086264D01*
G37*
G36*
X162350000Y-99649000D02*
G01*
X162350000Y-99553342D01*
X162583312Y-99553342D01*
X162583312Y-99088132D01*
X162505552Y-99088132D01*
X162505552Y-98992475D01*
X162740788Y-98992475D01*
X162740788Y-99553342D01*
X162973307Y-99553342D01*
X162973307Y-99649000D01*
X162350000Y-99649000D01*
G37*
D11*
G36*
X154978157Y-76249000D02*
G01*
X154978157Y-76155210D01*
X154900000Y-76155210D01*
X154900000Y-75689085D01*
X154978157Y-75689085D01*
X154978157Y-75594819D01*
X155445150Y-75594819D01*
X155445150Y-75689085D01*
X155522513Y-75689085D01*
X155522513Y-75782398D01*
X155366992Y-75782398D01*
X155366992Y-75688132D01*
X155055521Y-75688132D01*
X155055521Y-76155687D01*
X155366992Y-76155687D01*
X155366992Y-76061897D01*
X155522513Y-76061897D01*
X155522513Y-76155210D01*
X155445150Y-76155210D01*
X155445150Y-76249000D01*
X154978157Y-76249000D01*
G37*
G36*
X155678157Y-76249000D02*
G01*
X155678157Y-76155687D01*
X155755521Y-76155687D01*
X155755521Y-76062374D01*
X155833679Y-76062374D01*
X155833679Y-75967632D01*
X155910676Y-75967632D01*
X155910676Y-75876187D01*
X155988834Y-75876187D01*
X155988834Y-75782398D01*
X156066992Y-75782398D01*
X156066992Y-75688132D01*
X155755521Y-75688132D01*
X155755521Y-75782398D01*
X155600000Y-75782398D01*
X155600000Y-75594819D01*
X156222513Y-75594819D01*
X156222513Y-75782398D01*
X156144356Y-75782398D01*
X156144356Y-75876187D01*
X156066198Y-75876187D01*
X156066198Y-75969976D01*
X155988834Y-75969976D01*
X155988834Y-76062374D01*
X155910676Y-76062374D01*
X155910676Y-76155210D01*
X155833679Y-76155210D01*
X155833679Y-76249000D01*
X155678157Y-76249000D01*
G37*
G36*
X154777914Y-77149000D02*
G01*
X154777914Y-77055687D01*
X155011226Y-77055687D01*
X155011226Y-76588132D01*
X154933466Y-76588132D01*
X154933466Y-76494819D01*
X155166748Y-76494819D01*
X155166748Y-77055687D01*
X155399267Y-77055687D01*
X155399267Y-77149000D01*
X154777914Y-77149000D01*
G37*
G36*
X156023064Y-76588609D02*
G01*
X156100427Y-76588609D01*
X156100427Y-77055210D01*
X156023064Y-77055210D01*
X156023064Y-77149000D01*
X155556071Y-77149000D01*
X155556071Y-77055687D01*
X155633435Y-77055687D01*
X155944906Y-77055687D01*
X155944906Y-76588132D01*
X155633435Y-76588132D01*
X155633435Y-77055687D01*
X155556071Y-77055687D01*
X155556071Y-77055210D01*
X155477914Y-77055210D01*
X155477914Y-76588609D01*
X155556071Y-76588609D01*
X155556071Y-76494819D01*
X156023064Y-76494819D01*
X156023064Y-76588609D01*
G37*
G36*
X156256071Y-77149000D02*
G01*
X156256071Y-77055210D01*
X156177914Y-77055210D01*
X156177914Y-76682398D01*
X156333435Y-76682398D01*
X156333435Y-77055687D01*
X156488590Y-77055687D01*
X156488590Y-77149000D01*
X156256071Y-77149000D01*
G37*
G36*
X156566748Y-77149000D02*
G01*
X156566748Y-77055210D01*
X156488590Y-77055210D01*
X156488590Y-76682398D01*
X156644906Y-76682398D01*
X156644906Y-77149000D01*
X156566748Y-77149000D01*
G37*
G36*
X156722087Y-77149000D02*
G01*
X156722087Y-76494819D01*
X157343440Y-76494819D01*
X157343440Y-76682142D01*
X157266412Y-76682142D01*
X157266412Y-76588132D01*
X156877608Y-76588132D01*
X156877608Y-76776187D01*
X157266412Y-76776187D01*
X157266412Y-76869500D01*
X156877608Y-76869500D01*
X156877608Y-77149000D01*
X156722087Y-77149000D01*
G37*
%TO.C,A1*%
D13*
X149390000Y-105350000D02*
X149390000Y-104930000D01*
X149390000Y-107890000D02*
X149390000Y-107470000D01*
X149390000Y-110430000D02*
X149390000Y-110010000D01*
X149390000Y-112970000D02*
X149390000Y-112550000D01*
X149390000Y-115510000D02*
X149390000Y-115090000D01*
X149390000Y-118050000D02*
X149390000Y-117630000D01*
X149390000Y-120590000D02*
X149390000Y-120170000D01*
X149390000Y-123130000D02*
X149390000Y-122710000D01*
X149390000Y-125670000D02*
X149390000Y-125250000D01*
X149390000Y-128210000D02*
X149390000Y-127790000D01*
X149390000Y-130750000D02*
X149390000Y-130330000D01*
X149390000Y-133290000D02*
X149390000Y-132870000D01*
X149390000Y-135830000D02*
X149390000Y-135410000D01*
X149390000Y-138370000D02*
X149390000Y-137950000D01*
X149390000Y-140910000D02*
X149390000Y-140490000D01*
X149390000Y-143450000D02*
X149390000Y-143030000D01*
X149390000Y-145990000D02*
X149390000Y-145570000D01*
X149390000Y-148530000D02*
X149390000Y-148110000D01*
X149390000Y-151070000D02*
X149390000Y-150650000D01*
X153837939Y-102390000D02*
X150000000Y-102390000D01*
X154762061Y-102390000D02*
X156400000Y-102390000D01*
X163600000Y-102390000D02*
X165237939Y-102390000D01*
X170000000Y-102390000D02*
X166162061Y-102390000D01*
X170610000Y-105350000D02*
X170610000Y-104930000D01*
X170610000Y-107890000D02*
X170610000Y-107470000D01*
X170610000Y-110430000D02*
X170610000Y-110010000D01*
X170610000Y-112970000D02*
X170610000Y-112550000D01*
X170610000Y-115510000D02*
X170610000Y-115090000D01*
X170610000Y-118050000D02*
X170610000Y-117630000D01*
X170610000Y-120590000D02*
X170610000Y-120170000D01*
X170610000Y-123130000D02*
X170610000Y-122710000D01*
X170610000Y-125670000D02*
X170610000Y-125250000D01*
X170610000Y-128210000D02*
X170610000Y-127790000D01*
X170610000Y-130750000D02*
X170610000Y-130330000D01*
X170610000Y-133290000D02*
X170610000Y-132870000D01*
X170610000Y-135830000D02*
X170610000Y-135410000D01*
X170610000Y-138370000D02*
X170610000Y-137950000D01*
X170610000Y-140910000D02*
X170610000Y-140490000D01*
X170610000Y-143450000D02*
X170610000Y-143030000D01*
X170610000Y-145990000D02*
X170610000Y-145570000D01*
X170610000Y-148530000D02*
X170610000Y-148110000D01*
X170610000Y-151070000D02*
X170610000Y-150650000D01*
X170610000Y-151070000D02*
X171090000Y-151070000D01*
D12*
X156900000Y-148200000D02*
X158100000Y-148200000D01*
X158100000Y-149700000D01*
X156900000Y-149700000D01*
X156900000Y-148200000D01*
X156800000Y-102390000D02*
X158200000Y-102390000D01*
X158200000Y-104800000D01*
X156800000Y-104800000D01*
X156800000Y-102390000D01*
X157900000Y-131900000D02*
X160100000Y-131900000D01*
X160100000Y-134100000D01*
X157900000Y-134100000D01*
X157900000Y-131900000D01*
X159300000Y-148300000D02*
X160700000Y-148300000D01*
X160700000Y-149700000D01*
X159300000Y-149700000D01*
X159300000Y-148300000D01*
X159300000Y-102390000D02*
X160800000Y-102390000D01*
X160800000Y-104800000D01*
X159300000Y-104800000D01*
X159300000Y-102390000D01*
X161800000Y-139800000D02*
X163200000Y-139800000D01*
X163200000Y-141200000D01*
X161800000Y-141200000D01*
X161800000Y-139800000D01*
X161800000Y-142300000D02*
X163200000Y-142300000D01*
X163200000Y-143700000D01*
X161800000Y-143700000D01*
X161800000Y-142300000D01*
X161800000Y-144800000D02*
X163200000Y-144800000D01*
X163200000Y-146200000D01*
X161800000Y-146200000D01*
X161800000Y-144800000D01*
X161900000Y-148300000D02*
X163200000Y-148300000D01*
X163200000Y-149700000D01*
X161900000Y-149700000D01*
X161900000Y-148300000D01*
X161800000Y-102390000D02*
X163300000Y-102390000D01*
X163300000Y-104800000D01*
X161800000Y-104800000D01*
X161800000Y-102390000D01*
%TO.C,Q1*%
D13*
X163190000Y-85802500D02*
X163240000Y-85802500D01*
X163190000Y-87322500D02*
X163190000Y-85802500D01*
X164190000Y-87322500D02*
X163190000Y-87322500D01*
X164360000Y-85802500D02*
X165140000Y-85802500D01*
X166260000Y-85802500D02*
X166310000Y-85802500D01*
X166310000Y-85802500D02*
X166310000Y-87322500D01*
X166310000Y-87322500D02*
X165310000Y-87322500D01*
X165130000Y-85262500D02*
X164800000Y-85502500D01*
X164800000Y-85022500D01*
X165130000Y-85262500D01*
G36*
X165130000Y-85262500D02*
G01*
X164800000Y-85502500D01*
X164800000Y-85022500D01*
X165130000Y-85262500D01*
G37*
%TO.C,Q6*%
X147040000Y-72040000D02*
X148560000Y-72040000D01*
X147040000Y-73040000D02*
X147040000Y-72040000D01*
X147040000Y-75160000D02*
X147040000Y-74160000D01*
X148560000Y-72040000D02*
X148560000Y-72090000D01*
X148560000Y-73210000D02*
X148560000Y-73990000D01*
X148560000Y-75110000D02*
X148560000Y-75160000D01*
X148560000Y-75160000D02*
X147040000Y-75160000D01*
X149100000Y-73980000D02*
X148860000Y-73650000D01*
X149340000Y-73650000D01*
X149100000Y-73980000D01*
G36*
X149100000Y-73980000D02*
G01*
X148860000Y-73650000D01*
X149340000Y-73650000D01*
X149100000Y-73980000D01*
G37*
%TO.C,D2*%
X174300000Y-98400000D02*
X174300000Y-99200000D01*
X174340000Y-98400000D02*
X176700000Y-98400000D01*
X176700000Y-99200000D02*
X176700000Y-98400000D01*
%TO.C,R7*%
X143977064Y-82515000D02*
X143522936Y-82515000D01*
X143977064Y-83985000D02*
X143522936Y-83985000D01*
%TO.C,R11*%
X152772936Y-69265000D02*
X153227064Y-69265000D01*
X152772936Y-70735000D02*
X153227064Y-70735000D01*
%TO.C,TP1*%
X161800000Y-47100000D02*
G75*
G02*
X160400000Y-47100000I-700000J0D01*
G01*
X160400000Y-47100000D02*
G75*
G02*
X161800000Y-47100000I700000J0D01*
G01*
%TO.C,D7*%
X174940000Y-92250000D02*
X174940000Y-94250000D01*
X174940000Y-92250000D02*
X178950000Y-92250000D01*
X174940000Y-94250000D02*
X178950000Y-94250000D01*
%TO.C,R1*%
X153515000Y-92772936D02*
X153515000Y-93227064D01*
X154985000Y-92772936D02*
X154985000Y-93227064D01*
%TO.C,R2*%
X164515000Y-93227064D02*
X164515000Y-92772936D01*
X165985000Y-93227064D02*
X165985000Y-92772936D01*
%TO.C,D6*%
X141690000Y-88150000D02*
X141690000Y-90150000D01*
X141690000Y-88150000D02*
X145700000Y-88150000D01*
X141690000Y-90150000D02*
X145700000Y-90150000D01*
%TO.C,C5*%
X172390000Y-86615000D02*
X172390000Y-89300000D01*
X174310000Y-86615000D02*
X172390000Y-86615000D01*
X174310000Y-89300000D02*
X174310000Y-86615000D01*
%TO.C,SW1*%
X168850000Y-48550000D02*
X165350000Y-48550000D01*
X168850000Y-48550000D02*
X168850000Y-48510000D01*
X169650000Y-48510000D02*
X168850000Y-48510000D01*
%TO.C,R4*%
X162515000Y-93227064D02*
X162515000Y-92772936D01*
X163985000Y-93227064D02*
X163985000Y-92772936D01*
%TO.C,C3*%
X161400000Y-76335000D02*
X165285000Y-76335000D01*
X165285000Y-74065000D02*
X161400000Y-74065000D01*
X165285000Y-76335000D02*
X165285000Y-74065000D01*
%TO.C,C1*%
X158900000Y-83810000D02*
X161585000Y-83810000D01*
X161585000Y-81890000D02*
X158900000Y-81890000D01*
X161585000Y-83810000D02*
X161585000Y-81890000D01*
%TO.C,R9*%
X178265000Y-88477064D02*
X178265000Y-88022936D01*
X179735000Y-88477064D02*
X179735000Y-88022936D01*
%TO.C,D3*%
X153150000Y-102160000D02*
X153150000Y-99800000D01*
X153150000Y-102200000D02*
X153950000Y-102200000D01*
X153950000Y-99800000D02*
X153150000Y-99800000D01*
%TO.C,Q4*%
X142952500Y-84540000D02*
X144472500Y-84540000D01*
X142952500Y-84590000D02*
X142952500Y-84540000D01*
X142952500Y-86490000D02*
X142952500Y-85710000D01*
X142952500Y-87660000D02*
X142952500Y-87610000D01*
X144472500Y-84540000D02*
X144472500Y-85540000D01*
X144472500Y-86660000D02*
X144472500Y-87660000D01*
X144472500Y-87660000D02*
X142952500Y-87660000D01*
X142412500Y-85720000D02*
X142652500Y-86050000D01*
X142172500Y-86050000D01*
X142412500Y-85720000D01*
G36*
X142652500Y-86050000D02*
G01*
X142172500Y-86050000D01*
X142412500Y-85720000D01*
X142652500Y-86050000D01*
G37*
%TO.C,R6*%
X160515000Y-93227064D02*
X160515000Y-92772936D01*
X161985000Y-93227064D02*
X161985000Y-92772936D01*
%TO.C,C4*%
X143488748Y-91540000D02*
X144911252Y-91540000D01*
X143488748Y-93360000D02*
X144911252Y-93360000D01*
%TO.C,R5*%
X157515000Y-92772936D02*
X157515000Y-93227064D01*
X158985000Y-92772936D02*
X158985000Y-93227064D01*
%TO.C,C6*%
X143815000Y-126540000D02*
X143815000Y-128460000D01*
X143815000Y-128460000D02*
X146500000Y-128460000D01*
X146500000Y-126540000D02*
X143815000Y-126540000D01*
%TO.C,Q7*%
X147040000Y-68040000D02*
X148560000Y-68040000D01*
X147040000Y-69040000D02*
X147040000Y-68040000D01*
X147040000Y-71160000D02*
X147040000Y-70160000D01*
X148560000Y-68040000D02*
X148560000Y-68090000D01*
X148560000Y-69210000D02*
X148560000Y-69990000D01*
X148560000Y-71110000D02*
X148560000Y-71160000D01*
X148560000Y-71160000D02*
X147040000Y-71160000D01*
X149100000Y-69980000D02*
X148860000Y-69650000D01*
X149340000Y-69650000D01*
X149100000Y-69980000D01*
G36*
X149100000Y-69980000D02*
G01*
X148860000Y-69650000D01*
X149340000Y-69650000D01*
X149100000Y-69980000D01*
G37*
%TO.C,U1*%
D12*
X146000000Y-48500000D02*
X150400000Y-48500000D01*
X146000000Y-52500000D02*
X146000000Y-62000000D01*
X146000000Y-66100000D02*
X149200000Y-66100000D01*
X172200000Y-48500000D02*
X174000000Y-48500000D01*
X172200000Y-66100000D02*
X174000000Y-66100000D01*
X174000000Y-50300000D02*
X174000000Y-48500000D01*
X174000000Y-64300000D02*
X174000000Y-66100000D01*
%TO.C,Q2*%
D13*
X158440000Y-85802500D02*
X158490000Y-85802500D01*
X158440000Y-87322500D02*
X158440000Y-85802500D01*
X159440000Y-87322500D02*
X158440000Y-87322500D01*
X159610000Y-85802500D02*
X160390000Y-85802500D01*
X161510000Y-85802500D02*
X161560000Y-85802500D01*
X161560000Y-85802500D02*
X161560000Y-87322500D01*
X161560000Y-87322500D02*
X160560000Y-87322500D01*
X160380000Y-85262500D02*
X160050000Y-85502500D01*
X160050000Y-85022500D01*
X160380000Y-85262500D01*
G36*
X160380000Y-85262500D02*
G01*
X160050000Y-85502500D01*
X160050000Y-85022500D01*
X160380000Y-85262500D01*
G37*
%TO.C,C2*%
X162000000Y-73760000D02*
X164685000Y-73760000D01*
X164685000Y-71840000D02*
X162000000Y-71840000D01*
X164685000Y-73760000D02*
X164685000Y-71840000D01*
%TO.C,R8*%
X176065000Y-88477064D02*
X176065000Y-88022936D01*
X177535000Y-88477064D02*
X177535000Y-88022936D01*
%TO.C,R12*%
X153227064Y-71265000D02*
X152772936Y-71265000D01*
X153227064Y-72735000D02*
X152772936Y-72735000D01*
%TO.C,D4*%
X143300000Y-98400000D02*
X143300000Y-99200000D01*
X143340000Y-98400000D02*
X145700000Y-98400000D01*
X145700000Y-99200000D02*
X145700000Y-98400000D01*
%TO.C,Q3*%
X153690000Y-85802500D02*
X153740000Y-85802500D01*
X153690000Y-87322500D02*
X153690000Y-85802500D01*
X154690000Y-87322500D02*
X153690000Y-87322500D01*
X154860000Y-85802500D02*
X155640000Y-85802500D01*
X156760000Y-85802500D02*
X156810000Y-85802500D01*
X156810000Y-85802500D02*
X156810000Y-87322500D01*
X156810000Y-87322500D02*
X155810000Y-87322500D01*
X155630000Y-85262500D02*
X155300000Y-85502500D01*
X155300000Y-85022500D01*
X155630000Y-85262500D01*
G36*
X155630000Y-85262500D02*
G01*
X155300000Y-85502500D01*
X155300000Y-85022500D01*
X155630000Y-85262500D01*
G37*
%TO.C,TP3*%
X146450000Y-80150000D02*
G75*
G02*
X145050000Y-80150000I-700000J0D01*
G01*
X145050000Y-80150000D02*
G75*
G02*
X146450000Y-80150000I700000J0D01*
G01*
%TO.C,R3*%
X155515000Y-92772936D02*
X155515000Y-93227064D01*
X156985000Y-92772936D02*
X156985000Y-93227064D01*
%TO.C,R10*%
X152772936Y-73265000D02*
X153227064Y-73265000D01*
X152772936Y-74735000D02*
X153227064Y-74735000D01*
%TO.C,D8*%
X139600000Y-66310000D02*
X139600000Y-60800000D01*
X139600000Y-66310000D02*
X142900000Y-66310000D01*
X142900000Y-66310000D02*
X142900000Y-60800000D01*
%TO.C,Q5*%
X177040000Y-82090000D02*
X178560000Y-82090000D01*
X177040000Y-82140000D02*
X177040000Y-82090000D01*
X177040000Y-84040000D02*
X177040000Y-83260000D01*
X177040000Y-85210000D02*
X177040000Y-85160000D01*
X178560000Y-82090000D02*
X178560000Y-83090000D01*
X178560000Y-84210000D02*
X178560000Y-85210000D01*
X178560000Y-85210000D02*
X177040000Y-85210000D01*
X176500000Y-83270000D02*
X176740000Y-83600000D01*
X176260000Y-83600000D01*
X176500000Y-83270000D01*
G36*
X176740000Y-83600000D02*
G01*
X176260000Y-83600000D01*
X176500000Y-83270000D01*
X176740000Y-83600000D01*
G37*
%TO.C,D1*%
X161650000Y-102160000D02*
X161650000Y-99800000D01*
X161650000Y-102200000D02*
X162450000Y-102200000D01*
X162450000Y-99800000D02*
X161650000Y-99800000D01*
%TO.C,C7*%
X151415000Y-75690000D02*
X151415000Y-77610000D01*
X151415000Y-77610000D02*
X154100000Y-77610000D01*
X154100000Y-75690000D02*
X151415000Y-75690000D01*
%TD*%
M02*
