%TF.GenerationSoftware,KiCad,Pcbnew,10.0.5*%
%TF.CreationDate,2026-08-09T17:57:10+12:00*%
%TF.ProjectId,3310_pico,33333130-5f70-4696-936f-2e6b69636164,rev?*%
%TF.SameCoordinates,Original*%
%TF.FileFunction,Soldermask,Top*%
%TF.FilePolarity,Negative*%
%FSLAX46Y46*%
G04 Gerber Fmt 4.6, Leading zero omitted, Abs format (unit mm)*
G04 Created by KiCad (PCBNEW 10.0.5) date 2026-08-09 17:57:10*
%MOMM*%
%LPD*%
G01*
G04 APERTURE LIST*
G04 Aperture macros list*
%AMRoundRect*
0 Rectangle with rounded corners*
0 $1 Rounding radius*
0 $2 $3 $4 $5 $6 $7 $8 $9 X,Y pos of 4 corners*
0 Add a 4 corners polygon primitive as box body*
4,1,4,$2,$3,$4,$5,$6,$7,$8,$9,$2,$3,0*
0 Add four circle primitives for the rounded corners*
1,1,$1+$1,$2,$3*
1,1,$1+$1,$4,$5*
1,1,$1+$1,$6,$7*
1,1,$1+$1,$8,$9*
0 Add four rect primitives between the rounded corners*
20,1,$1+$1,$2,$3,$4,$5,0*
20,1,$1+$1,$4,$5,$6,$7,0*
20,1,$1+$1,$6,$7,$8,$9,0*
20,1,$1+$1,$8,$9,$2,$3,0*%
%AMOutline5P*
0 Free polygon, 5 corners , with rotation*
0 The origin of the aperture is its center*
0 number of corners: always 5*
0 $1 to $10 corner X, Y*
0 $11 Rotation angle, in degrees counterclockwise*
0 create outline with 5 corners*
4,1,5,$1,$2,$3,$4,$5,$6,$7,$8,$9,$10,$1,$2,$11*%
%AMOutline6P*
0 Free polygon, 6 corners , with rotation*
0 The origin of the aperture is its center*
0 number of corners: always 6*
0 $1 to $12 corner X, Y*
0 $13 Rotation angle, in degrees counterclockwise*
0 create outline with 6 corners*
4,1,6,$1,$2,$3,$4,$5,$6,$7,$8,$9,$10,$11,$12,$1,$2,$13*%
%AMOutline7P*
0 Free polygon, 7 corners , with rotation*
0 The origin of the aperture is its center*
0 number of corners: always 7*
0 $1 to $14 corner X, Y*
0 $15 Rotation angle, in degrees counterclockwise*
0 create outline with 7 corners*
4,1,7,$1,$2,$3,$4,$5,$6,$7,$8,$9,$10,$11,$12,$13,$14,$1,$2,$15*%
%AMOutline8P*
0 Free polygon, 8 corners , with rotation*
0 The origin of the aperture is its center*
0 number of corners: always 8*
0 $1 to $16 corner X, Y*
0 $17 Rotation angle, in degrees counterclockwise*
0 create outline with 8 corners*
4,1,8,$1,$2,$3,$4,$5,$6,$7,$8,$9,$10,$11,$12,$13,$14,$15,$16,$1,$2,$17*%
%AMFreePoly0*
4,1,15,0.452529,0.680902,0.488856,0.630902,0.488856,0.569098,0.487383,0.564888,0.343750,0.181866,0.343750,-0.181866,0.487383,-0.564888,0.490139,-0.626630,0.456078,-0.678200,0.398210,-0.699901,0.393750,-0.700000,-0.343750,-0.700000,-0.343750,0.700000,0.393750,0.700000,0.452529,0.680902,0.452529,0.680902,$1*%
%AMFreePoly1*
4,1,16,0.343750,-0.700000,-0.343750,-0.700000,-0.393750,-0.700000,-0.452529,-0.680902,-0.488856,-0.630902,-0.488856,-0.569098,-0.487383,-0.564888,-0.343750,-0.181866,-0.343750,0.181866,-0.487383,0.564888,-0.490139,0.626630,-0.456078,0.678200,-0.398210,0.699901,-0.393750,0.700000,0.343750,0.700000,0.343750,-0.700000,0.343750,-0.700000,$1*%
%AMFreePoly2*
4,1,37,0.800000,0.796148,0.878414,0.796148,1.032228,0.765552,1.177117,0.705537,1.307515,0.618408,1.418408,0.507515,1.505537,0.377117,1.565552,0.232228,1.596148,0.078414,1.596148,-0.078414,1.565552,-0.232228,1.505537,-0.377117,1.418408,-0.507515,1.307515,-0.618408,1.177117,-0.705537,1.032228,-0.765552,0.878414,-0.796148,0.800000,-0.796148,0.800000,-0.800000,-1.400000,-0.800000,
-1.403843,-0.796157,-1.439018,-0.796157,-1.511114,-0.766294,-1.566294,-0.711114,-1.596157,-0.639018,-1.596157,-0.603843,-1.600000,-0.600000,-1.600000,0.600000,-1.596157,0.603843,-1.596157,0.639018,-1.566294,0.711114,-1.511114,0.766294,-1.439018,0.796157,-1.403843,0.796157,-1.400000,0.800000,0.800000,0.800000,0.800000,0.796148,0.800000,0.796148,$1*%
%AMFreePoly3*
4,1,37,1.403843,0.796157,1.439018,0.796157,1.511114,0.766294,1.566294,0.711114,1.596157,0.639018,1.596157,0.603843,1.600000,0.600000,1.600000,-0.600000,1.596157,-0.603843,1.596157,-0.639018,1.566294,-0.711114,1.511114,-0.766294,1.439018,-0.796157,1.403843,-0.796157,1.400000,-0.800000,-0.800000,-0.800000,-0.800000,-0.796148,-0.878414,-0.796148,-1.032228,-0.765552,-1.177117,-0.705537,
-1.307515,-0.618408,-1.418408,-0.507515,-1.505537,-0.377117,-1.565552,-0.232228,-1.596148,-0.078414,-1.596148,0.078414,-1.565552,0.232228,-1.505537,0.377117,-1.418408,0.507515,-1.307515,0.618408,-1.177117,0.705537,-1.032228,0.765552,-0.878414,0.796148,-0.800000,0.796148,-0.800000,0.800000,1.400000,0.800000,1.403843,0.796157,1.403843,0.796157,$1*%
G04 Aperture macros list end*
%ADD10C,1.000000*%
%ADD11R,1.700000X1.700000*%
%ADD12C,1.700000*%
%ADD13C,2.200000*%
%ADD14FreePoly0,270.000000*%
%ADD15FreePoly1,270.000000*%
%ADD16C,2.800000*%
%ADD17Outline6P,-1.250000X1.250000X0.750000X1.250000X1.250000X0.750000X1.250000X-0.750000X0.750000X-1.250000X-1.250000X-1.250000X0.000000*%
%ADD18Outline6P,-1.250000X0.750000X-0.750000X1.250000X1.250000X1.250000X1.250000X-1.250000X-0.750000X-1.250000X-1.250000X-0.750000X0.000000*%
%ADD19RoundRect,0.800000X0.800000X0.000010X-0.800000X0.000010X-0.800000X-0.000010X0.800000X-0.000010X0*%
%ADD20FreePoly2,180.000000*%
%ADD21FreePoly3,180.000000*%
%ADD22RoundRect,0.250000X0.375000X0.625000X-0.375000X0.625000X-0.375000X-0.625000X0.375000X-0.625000X0*%
%ADD23RoundRect,0.250000X0.450000X-0.262500X0.450000X0.262500X-0.450000X0.262500X-0.450000X-0.262500X0*%
%ADD24RoundRect,0.250000X0.650000X0.650000X-0.650000X0.650000X-0.650000X-0.650000X0.650000X-0.650000X0*%
%ADD25C,1.800000*%
%ADD26C,2.500000*%
%ADD27R,1.500000X1.050000*%
%ADD28O,1.500000X1.050000*%
%ADD29RoundRect,0.243750X-0.456250X0.243750X-0.456250X-0.243750X0.456250X-0.243750X0.456250X0.243750X0*%
%ADD30RoundRect,0.243750X0.243750X0.456250X-0.243750X0.456250X-0.243750X-0.456250X0.243750X-0.456250X0*%
%ADD31R,1.050000X1.500000*%
%ADD32O,1.050000X1.500000*%
%ADD33RoundRect,0.300000X-0.700000X-1.200000X0.700000X-1.200000X0.700000X1.200000X-0.700000X1.200000X0*%
%ADD34RoundRect,0.240000X-0.560000X-1.760000X0.560000X-1.760000X0.560000X1.760000X-0.560000X1.760000X0*%
%ADD35RoundRect,0.250000X-0.650000X0.325000X-0.650000X-0.325000X0.650000X-0.325000X0.650000X0.325000X0*%
%ADD36RoundRect,0.243750X-0.243750X-0.456250X0.243750X-0.456250X0.243750X0.456250X-0.243750X0.456250X0*%
%ADD37RoundRect,0.250000X-0.650000X-0.650000X0.650000X-0.650000X0.650000X0.650000X-0.650000X0.650000X0*%
%ADD38C,2.600000*%
G04 APERTURE END LIST*
D10*
%TO.C,TP9*%
X174250000Y-110000000D03*
%TD*%
%TO.C,TP8*%
X166750000Y-77500000D03*
%TD*%
%TO.C,TP6*%
X159500000Y-75250000D03*
%TD*%
D11*
%TO.C,J6*%
X169750000Y-83940000D03*
D12*
X169750000Y-86480000D03*
X169750000Y-89020000D03*
X169750000Y-91560000D03*
%TD*%
D11*
%TO.C,J5*%
X152500000Y-77960000D03*
D12*
X152500000Y-80500000D03*
X152500000Y-83040000D03*
X152500000Y-85580000D03*
X152500000Y-88120000D03*
X152500000Y-90660000D03*
X152500000Y-93200000D03*
X152500000Y-95740000D03*
%TD*%
D11*
%TO.C,J4*%
X145500000Y-95790000D03*
D12*
X145500000Y-93250000D03*
X145500000Y-90710000D03*
X145500000Y-88170000D03*
X145500000Y-85630000D03*
X145500000Y-83090000D03*
X145500000Y-80550000D03*
X145500000Y-78010000D03*
%TD*%
D13*
%TO.C,D6*%
X164300000Y-101000000D03*
D14*
X164300000Y-99456250D03*
D15*
X164300000Y-102543750D03*
%TD*%
D13*
%TO.C,D7*%
X175500000Y-101000000D03*
D14*
X175500000Y-99456250D03*
D15*
X175500000Y-102543750D03*
%TD*%
D13*
%TO.C,D5*%
X155700000Y-101000000D03*
D14*
X155700000Y-99456250D03*
D15*
X155700000Y-102543750D03*
%TD*%
D13*
%TO.C,D4*%
X144500000Y-101000000D03*
D14*
X144500000Y-99456250D03*
D15*
X144500000Y-102543750D03*
%TD*%
D16*
%TO.C,*%
X177000000Y-50500000D03*
%TD*%
D17*
%TO.C,J2*%
X158000000Y-67500000D03*
D18*
X161000000Y-67500000D03*
D17*
X165000000Y-67500000D03*
D18*
X168000000Y-67500000D03*
%TD*%
D13*
%TO.C,*%
X148500000Y-47000000D03*
%TD*%
D19*
%TO.C,A1*%
X168690000Y-138390000D03*
X168690000Y-143470000D03*
X150600000Y-153630000D03*
D20*
X167200000Y-153630000D03*
D19*
X168690000Y-151090000D03*
D21*
X168690000Y-148550000D03*
D19*
X168690000Y-146010000D03*
X168690000Y-140930000D03*
D21*
X168690000Y-135850000D03*
D19*
X168690000Y-133310000D03*
X168690000Y-130770000D03*
X168690000Y-128230000D03*
X168690000Y-125690000D03*
D21*
X168690000Y-123150000D03*
D19*
X168690000Y-120610000D03*
X168690000Y-118070000D03*
X168690000Y-115530000D03*
X168690000Y-112990000D03*
D21*
X168690000Y-110450000D03*
D19*
X168690000Y-107910000D03*
X168690000Y-105370000D03*
X149310000Y-105370000D03*
X149310000Y-107910000D03*
D20*
X149310000Y-110450000D03*
D19*
X149310000Y-112990000D03*
X149310000Y-115530000D03*
X149310000Y-118070000D03*
X149310000Y-120610000D03*
D20*
X149310000Y-123150000D03*
D19*
X149310000Y-125690000D03*
X149310000Y-128230000D03*
X149310000Y-130770000D03*
X149310000Y-133310000D03*
D20*
X149310000Y-135850000D03*
D19*
X149310000Y-138390000D03*
X149310000Y-140930000D03*
X149310000Y-143470000D03*
X149310000Y-146010000D03*
D20*
X149310000Y-148550000D03*
D19*
X149310000Y-151090000D03*
%TD*%
D22*
%TO.C,C6*%
X163400000Y-58500000D03*
X160600000Y-58500000D03*
%TD*%
D23*
%TO.C,R3*%
X148000000Y-73662500D03*
X148000000Y-71837500D03*
%TD*%
D24*
%TO.C,D2*%
X178545000Y-63500000D03*
D25*
X176005000Y-63500000D03*
%TD*%
D23*
%TO.C,R4*%
X171000000Y-77912500D03*
X171000000Y-76087500D03*
%TD*%
D26*
%TO.C,*%
X153650000Y-66500000D03*
%TD*%
D27*
%TO.C,Q3*%
X171750000Y-51980000D03*
D28*
X171750000Y-53250000D03*
X171750000Y-54520000D03*
%TD*%
D23*
%TO.C,R5*%
X157000000Y-89825000D03*
X157000000Y-88000000D03*
%TD*%
D29*
%TO.C,C4*%
X178500000Y-76062500D03*
X178500000Y-77937500D03*
%TD*%
D16*
%TO.C,*%
X173900000Y-148500000D03*
%TD*%
D23*
%TO.C,R6*%
X159000000Y-89825000D03*
X159000000Y-88000000D03*
%TD*%
%TO.C,R8*%
X163000000Y-89825000D03*
X163000000Y-88000000D03*
%TD*%
D30*
%TO.C,C5*%
X160937500Y-97500000D03*
X159062500Y-97500000D03*
%TD*%
D16*
%TO.C,*%
X143000000Y-50500000D03*
%TD*%
D31*
%TO.C,Q2*%
X152520000Y-60000000D03*
D32*
X151250000Y-60000000D03*
X149980000Y-60000000D03*
%TD*%
D23*
%TO.C,R1*%
X176000000Y-77912500D03*
X176000000Y-76087500D03*
%TD*%
D33*
%TO.C,B1*%
X176750000Y-132750000D03*
X176250000Y-139250000D03*
%TD*%
D27*
%TO.C,Q1*%
X172500000Y-60000000D03*
D28*
X172500000Y-58730000D03*
X172500000Y-57460000D03*
%TD*%
D16*
%TO.C,*%
X178800000Y-129000000D03*
%TD*%
D34*
%TO.C,M1*%
X144500000Y-131000000D03*
X146500000Y-131000000D03*
%TD*%
D23*
%TO.C,R7*%
X161000000Y-89825000D03*
X161000000Y-88000000D03*
%TD*%
D35*
%TO.C,C3*%
X142500000Y-72525000D03*
X142500000Y-75475000D03*
%TD*%
D36*
%TO.C,C2*%
X144562500Y-127500000D03*
X146437500Y-127500000D03*
%TD*%
D16*
%TO.C,*%
X146100000Y-148500000D03*
%TD*%
D30*
%TO.C,C1*%
X162937500Y-61000000D03*
X161062500Y-61000000D03*
%TD*%
D23*
%TO.C,R2*%
X173500000Y-77912500D03*
X173500000Y-76087500D03*
%TD*%
D37*
%TO.C,D1*%
X147460000Y-65500000D03*
D25*
X150000000Y-65500000D03*
%TD*%
D16*
%TO.C,*%
X141200000Y-129000000D03*
%TD*%
D38*
%TO.C,*%
X142200000Y-135500000D03*
%TD*%
D24*
%TO.C,D3*%
X144000000Y-65500000D03*
D25*
X141460000Y-65500000D03*
%TD*%
M02*
