M48
; DRILL file KiCad 10.0.5 date 2026-08-09T17:57:14
; FORMAT={-:-/ absolute / metric / decimal}
; #@! TF.CreationDate,2026-08-09T17:57:14+12:00
; #@! TF.GenerationSoftware,Kicad,Pcbnew,10.0.5
; #@! TF.FileFunction,Plated,1,4,PTH
FMAT,2
METRIC
; #@! TA.AperFunction,Plated,PTH,ViaDrill
T1C0.300
; #@! TA.AperFunction,Plated,PTH,ComponentDrill
T2C0.750
; #@! TA.AperFunction,Plated,PTH,ComponentDrill
T3C0.900
; #@! TA.AperFunction,Plated,PTH,ComponentDrill
T4C1.000
; #@! TA.AperFunction,Plated,PTH,ComponentDrill
T5C2.200
%
G90
G05
T1
X140.5Y-96.0
X140.5Y-106.0
X140.5Y-116.25
X141.0Y-124.5
X141.5Y-132.5
X142.0Y-124.5
X142.5Y-72.525
X142.5Y-75.475
X142.5Y-80.5
X142.5Y-87.5
X142.5Y-141.5
X142.75Y-84.0
X142.75Y-91.5
X143.0Y-59.0
X143.0Y-124.5
X143.5Y-84.5
X143.5Y-150.0
X143.75Y-125.25
X144.0Y-112.5
X144.0Y-150.5
X144.59Y-151.09
X144.75Y-54.75
X145.25Y-102.75
X146.0Y-118.5
X146.0Y-138.5
X146.0Y-151.09
X146.25Y-114.4
X146.5Y-106.0
X146.75Y-102.5
X147.0Y-111.0
X147.0Y-134.5
X147.3Y-142.5
X147.35Y-98.75
X147.5Y-85.75
X147.5Y-126.7
X147.75Y-62.35
X148.25Y-88.25
X149.0Y-90.75
X149.15Y-99.5
X149.75Y-93.25
X150.0Y-99.5
X150.5Y-95.75
X151.0Y-102.8
X151.25Y-97.75
X151.75Y-107.25
X151.75Y-114.25
X152.25Y-142.75
X152.25Y-143.5
X152.25Y-144.25
X152.5Y-130.75
X152.75Y-116.5
X153.0Y-106.25
X153.0Y-110.5
X153.25Y-99.5
X153.25Y-120.5
X153.25Y-123.0
X153.5Y-52.0
X153.5Y-138.5
X153.5Y-142.75
X153.5Y-143.5
X153.5Y-144.25
X154.25Y-134.5
X154.5Y-64.5
X154.5Y-118.5
X154.5Y-136.0
X154.5Y-147.75
X155.0Y-80.25
X155.076Y-96.076
X155.6Y-95.0
X155.7Y-102.65
X156.0Y-113.5
X156.0Y-124.75
X156.25Y-118.75
X156.25Y-120.1
X156.25Y-126.0
X156.674Y-97.674
X156.75Y-132.25
X157.0Y-123.25
X157.318Y-97.2
X157.5Y-107.0
X158.0Y-83.0
X159.062Y-97.5
X160.0Y-99.25
X160.0Y-103.0
X160.0Y-112.0
X160.0Y-120.5
X160.0Y-128.5
X160.0Y-136.5
X160.0Y-144.5
X160.6Y-58.5
X160.938Y-97.5
X161.0Y-76.5
X161.062Y-61.0
X161.25Y-116.25
X161.75Y-62.25
X162.0Y-92.5
X162.25Y-75.0
X162.25Y-98.75
X162.25Y-100.5
X162.25Y-124.5
X162.5Y-48.0
X162.75Y-82.75
X162.938Y-61.0
X163.0Y-139.0
X163.4Y-58.5
X164.0Y-109.0
X164.0Y-110.75
X164.0Y-139.25
X164.25Y-140.75
X164.3Y-102.65
X164.5Y-113.5
X165.0Y-94.0
X165.0Y-98.25
X165.0Y-118.5
X165.0Y-142.75
X165.1Y-124.75
X165.1Y-133.25
X165.25Y-146.25
X165.5Y-104.5
X165.5Y-107.75
X165.75Y-125.69
X166.25Y-96.25
X166.25Y-143.5
X166.75Y-98.95
X167.0Y-93.75
X167.5Y-63.5
X168.0Y-57.5
X168.5Y-74.25
X169.0Y-102.8
X169.25Y-66.5
X169.25Y-67.5
X169.25Y-68.5
X170.8Y-112.5
X171.25Y-82.75
X172.2Y-107.5
X172.25Y-97.25
X172.25Y-99.0
X172.25Y-130.75
X172.5Y-138.5
X172.7Y-126.7
X172.7Y-142.5
X173.0Y-101.0
X173.0Y-134.5
X173.5Y-122.5
X174.0Y-118.5
X174.25Y-69.75
X174.5Y-112.5
X175.0Y-82.5
X175.0Y-95.5
X175.5Y-102.65
X176.0Y-145.25
X177.0Y-55.0
X177.0Y-59.0
X177.0Y-135.0
X177.0Y-136.0
X177.0Y-137.0
X178.0Y-69.0
X178.0Y-70.0
X178.0Y-71.0
X178.5Y-79.25
X178.5Y-80.25
X179.25Y-81.0
X179.75Y-125.75
X180.0Y-82.75
X180.0Y-89.25
X180.0Y-103.0
X180.0Y-113.25
T2
X149.98Y-60.0
X151.25Y-60.0
X152.52Y-60.0
X171.75Y-51.98
X171.75Y-53.25
X171.75Y-54.52
X172.5Y-57.46
X172.5Y-58.73
X172.5Y-60.0
T3
X141.46Y-65.5
X144.0Y-65.5
X147.46Y-65.5
X150.0Y-65.5
X176.005Y-63.5
X178.545Y-63.5
T4
X145.5Y-78.01
X145.5Y-80.55
X145.5Y-83.09
X145.5Y-85.63
X145.5Y-88.17
X145.5Y-90.71
X145.5Y-93.25
X145.5Y-95.79
X152.5Y-77.96
X152.5Y-80.5
X152.5Y-83.04
X152.5Y-85.58
X152.5Y-88.12
X152.5Y-90.66
X152.5Y-93.2
X152.5Y-95.74
X169.75Y-83.94
X169.75Y-86.48
X169.75Y-89.02
X169.75Y-91.56
T5
X141.2Y-129.0
X142.2Y-135.5
X143.0Y-50.5
X146.1Y-148.5
X153.65Y-66.5
X173.9Y-148.5
X177.0Y-50.5
X178.8Y-129.0
M30
