%TF.GenerationSoftware,KiCad,Pcbnew,10.0.5*%
%TF.CreationDate,2026-08-09T17:57:10+12:00*%
%TF.ProjectId,3310_pico,33333130-5f70-4696-936f-2e6b69636164,rev?*%
%TF.SameCoordinates,Original*%
%TF.FileFunction,Legend,Top*%
%TF.FilePolarity,Positive*%
%FSLAX46Y46*%
G04 Gerber Fmt 4.6, Leading zero omitted, Abs format (unit mm)*
G04 Created by KiCad (PCBNEW 10.0.5) date 2026-08-09 17:57:10*
%MOMM*%
%LPD*%
G01*
G04 APERTURE LIST*
%ADD10C,0.150000*%
%ADD11C,0.120000*%
%ADD12C,0.100000*%
G04 APERTURE END LIST*
D10*
X173492856Y-108221771D02*
X173835714Y-108221771D01*
X173664285Y-108821771D02*
X173664285Y-108221771D01*
X174035714Y-108821771D02*
X174035714Y-108221771D01*
X174035714Y-108221771D02*
X174264285Y-108221771D01*
X174264285Y-108221771D02*
X174321428Y-108250342D01*
X174321428Y-108250342D02*
X174349999Y-108278914D01*
X174349999Y-108278914D02*
X174378571Y-108336057D01*
X174378571Y-108336057D02*
X174378571Y-108421771D01*
X174378571Y-108421771D02*
X174349999Y-108478914D01*
X174349999Y-108478914D02*
X174321428Y-108507485D01*
X174321428Y-108507485D02*
X174264285Y-108536057D01*
X174264285Y-108536057D02*
X174035714Y-108536057D01*
X174664285Y-108821771D02*
X174778571Y-108821771D01*
X174778571Y-108821771D02*
X174835714Y-108793200D01*
X174835714Y-108793200D02*
X174864285Y-108764628D01*
X174864285Y-108764628D02*
X174921428Y-108678914D01*
X174921428Y-108678914D02*
X174949999Y-108564628D01*
X174949999Y-108564628D02*
X174949999Y-108336057D01*
X174949999Y-108336057D02*
X174921428Y-108278914D01*
X174921428Y-108278914D02*
X174892857Y-108250342D01*
X174892857Y-108250342D02*
X174835714Y-108221771D01*
X174835714Y-108221771D02*
X174721428Y-108221771D01*
X174721428Y-108221771D02*
X174664285Y-108250342D01*
X174664285Y-108250342D02*
X174635714Y-108278914D01*
X174635714Y-108278914D02*
X174607142Y-108336057D01*
X174607142Y-108336057D02*
X174607142Y-108478914D01*
X174607142Y-108478914D02*
X174635714Y-108536057D01*
X174635714Y-108536057D02*
X174664285Y-108564628D01*
X174664285Y-108564628D02*
X174721428Y-108593200D01*
X174721428Y-108593200D02*
X174835714Y-108593200D01*
X174835714Y-108593200D02*
X174892857Y-108564628D01*
X174892857Y-108564628D02*
X174921428Y-108536057D01*
X174921428Y-108536057D02*
X174949999Y-108478914D01*
X165992856Y-75721771D02*
X166335714Y-75721771D01*
X166164285Y-76321771D02*
X166164285Y-75721771D01*
X166535714Y-76321771D02*
X166535714Y-75721771D01*
X166535714Y-75721771D02*
X166764285Y-75721771D01*
X166764285Y-75721771D02*
X166821428Y-75750342D01*
X166821428Y-75750342D02*
X166849999Y-75778914D01*
X166849999Y-75778914D02*
X166878571Y-75836057D01*
X166878571Y-75836057D02*
X166878571Y-75921771D01*
X166878571Y-75921771D02*
X166849999Y-75978914D01*
X166849999Y-75978914D02*
X166821428Y-76007485D01*
X166821428Y-76007485D02*
X166764285Y-76036057D01*
X166764285Y-76036057D02*
X166535714Y-76036057D01*
X167221428Y-75978914D02*
X167164285Y-75950342D01*
X167164285Y-75950342D02*
X167135714Y-75921771D01*
X167135714Y-75921771D02*
X167107142Y-75864628D01*
X167107142Y-75864628D02*
X167107142Y-75836057D01*
X167107142Y-75836057D02*
X167135714Y-75778914D01*
X167135714Y-75778914D02*
X167164285Y-75750342D01*
X167164285Y-75750342D02*
X167221428Y-75721771D01*
X167221428Y-75721771D02*
X167335714Y-75721771D01*
X167335714Y-75721771D02*
X167392857Y-75750342D01*
X167392857Y-75750342D02*
X167421428Y-75778914D01*
X167421428Y-75778914D02*
X167449999Y-75836057D01*
X167449999Y-75836057D02*
X167449999Y-75864628D01*
X167449999Y-75864628D02*
X167421428Y-75921771D01*
X167421428Y-75921771D02*
X167392857Y-75950342D01*
X167392857Y-75950342D02*
X167335714Y-75978914D01*
X167335714Y-75978914D02*
X167221428Y-75978914D01*
X167221428Y-75978914D02*
X167164285Y-76007485D01*
X167164285Y-76007485D02*
X167135714Y-76036057D01*
X167135714Y-76036057D02*
X167107142Y-76093200D01*
X167107142Y-76093200D02*
X167107142Y-76207485D01*
X167107142Y-76207485D02*
X167135714Y-76264628D01*
X167135714Y-76264628D02*
X167164285Y-76293200D01*
X167164285Y-76293200D02*
X167221428Y-76321771D01*
X167221428Y-76321771D02*
X167335714Y-76321771D01*
X167335714Y-76321771D02*
X167392857Y-76293200D01*
X167392857Y-76293200D02*
X167421428Y-76264628D01*
X167421428Y-76264628D02*
X167449999Y-76207485D01*
X167449999Y-76207485D02*
X167449999Y-76093200D01*
X167449999Y-76093200D02*
X167421428Y-76036057D01*
X167421428Y-76036057D02*
X167392857Y-76007485D01*
X167392857Y-76007485D02*
X167335714Y-75978914D01*
X158742856Y-73471771D02*
X159085714Y-73471771D01*
X158914285Y-74071771D02*
X158914285Y-73471771D01*
X159285714Y-74071771D02*
X159285714Y-73471771D01*
X159285714Y-73471771D02*
X159514285Y-73471771D01*
X159514285Y-73471771D02*
X159571428Y-73500342D01*
X159571428Y-73500342D02*
X159599999Y-73528914D01*
X159599999Y-73528914D02*
X159628571Y-73586057D01*
X159628571Y-73586057D02*
X159628571Y-73671771D01*
X159628571Y-73671771D02*
X159599999Y-73728914D01*
X159599999Y-73728914D02*
X159571428Y-73757485D01*
X159571428Y-73757485D02*
X159514285Y-73786057D01*
X159514285Y-73786057D02*
X159285714Y-73786057D01*
X160142857Y-73471771D02*
X160028571Y-73471771D01*
X160028571Y-73471771D02*
X159971428Y-73500342D01*
X159971428Y-73500342D02*
X159942857Y-73528914D01*
X159942857Y-73528914D02*
X159885714Y-73614628D01*
X159885714Y-73614628D02*
X159857142Y-73728914D01*
X159857142Y-73728914D02*
X159857142Y-73957485D01*
X159857142Y-73957485D02*
X159885714Y-74014628D01*
X159885714Y-74014628D02*
X159914285Y-74043200D01*
X159914285Y-74043200D02*
X159971428Y-74071771D01*
X159971428Y-74071771D02*
X160085714Y-74071771D01*
X160085714Y-74071771D02*
X160142857Y-74043200D01*
X160142857Y-74043200D02*
X160171428Y-74014628D01*
X160171428Y-74014628D02*
X160199999Y-73957485D01*
X160199999Y-73957485D02*
X160199999Y-73814628D01*
X160199999Y-73814628D02*
X160171428Y-73757485D01*
X160171428Y-73757485D02*
X160142857Y-73728914D01*
X160142857Y-73728914D02*
X160085714Y-73700342D01*
X160085714Y-73700342D02*
X159971428Y-73700342D01*
X159971428Y-73700342D02*
X159914285Y-73728914D01*
X159914285Y-73728914D02*
X159885714Y-73757485D01*
X159885714Y-73757485D02*
X159857142Y-73814628D01*
X169549999Y-81229771D02*
X169549999Y-81658342D01*
X169549999Y-81658342D02*
X169521428Y-81744057D01*
X169521428Y-81744057D02*
X169464285Y-81801200D01*
X169464285Y-81801200D02*
X169378571Y-81829771D01*
X169378571Y-81829771D02*
X169321428Y-81829771D01*
X170092857Y-81229771D02*
X169978571Y-81229771D01*
X169978571Y-81229771D02*
X169921428Y-81258342D01*
X169921428Y-81258342D02*
X169892857Y-81286914D01*
X169892857Y-81286914D02*
X169835714Y-81372628D01*
X169835714Y-81372628D02*
X169807142Y-81486914D01*
X169807142Y-81486914D02*
X169807142Y-81715485D01*
X169807142Y-81715485D02*
X169835714Y-81772628D01*
X169835714Y-81772628D02*
X169864285Y-81801200D01*
X169864285Y-81801200D02*
X169921428Y-81829771D01*
X169921428Y-81829771D02*
X170035714Y-81829771D01*
X170035714Y-81829771D02*
X170092857Y-81801200D01*
X170092857Y-81801200D02*
X170121428Y-81772628D01*
X170121428Y-81772628D02*
X170149999Y-81715485D01*
X170149999Y-81715485D02*
X170149999Y-81572628D01*
X170149999Y-81572628D02*
X170121428Y-81515485D01*
X170121428Y-81515485D02*
X170092857Y-81486914D01*
X170092857Y-81486914D02*
X170035714Y-81458342D01*
X170035714Y-81458342D02*
X169921428Y-81458342D01*
X169921428Y-81458342D02*
X169864285Y-81486914D01*
X169864285Y-81486914D02*
X169835714Y-81515485D01*
X169835714Y-81515485D02*
X169807142Y-81572628D01*
X152299999Y-75249771D02*
X152299999Y-75678342D01*
X152299999Y-75678342D02*
X152271428Y-75764057D01*
X152271428Y-75764057D02*
X152214285Y-75821200D01*
X152214285Y-75821200D02*
X152128571Y-75849771D01*
X152128571Y-75849771D02*
X152071428Y-75849771D01*
X152871428Y-75249771D02*
X152585714Y-75249771D01*
X152585714Y-75249771D02*
X152557142Y-75535485D01*
X152557142Y-75535485D02*
X152585714Y-75506914D01*
X152585714Y-75506914D02*
X152642857Y-75478342D01*
X152642857Y-75478342D02*
X152785714Y-75478342D01*
X152785714Y-75478342D02*
X152842857Y-75506914D01*
X152842857Y-75506914D02*
X152871428Y-75535485D01*
X152871428Y-75535485D02*
X152899999Y-75592628D01*
X152899999Y-75592628D02*
X152899999Y-75735485D01*
X152899999Y-75735485D02*
X152871428Y-75792628D01*
X152871428Y-75792628D02*
X152842857Y-75821200D01*
X152842857Y-75821200D02*
X152785714Y-75849771D01*
X152785714Y-75849771D02*
X152642857Y-75849771D01*
X152642857Y-75849771D02*
X152585714Y-75821200D01*
X152585714Y-75821200D02*
X152557142Y-75792628D01*
X145299999Y-97839771D02*
X145299999Y-98268342D01*
X145299999Y-98268342D02*
X145271428Y-98354057D01*
X145271428Y-98354057D02*
X145214285Y-98411200D01*
X145214285Y-98411200D02*
X145128571Y-98439771D01*
X145128571Y-98439771D02*
X145071428Y-98439771D01*
X145842857Y-98039771D02*
X145842857Y-98439771D01*
X145699999Y-97811200D02*
X145557142Y-98239771D01*
X145557142Y-98239771D02*
X145928571Y-98239771D01*
X165430228Y-99657143D02*
X166030228Y-99657143D01*
X166030228Y-99657143D02*
X166030228Y-99800000D01*
X166030228Y-99800000D02*
X166001657Y-99885714D01*
X166001657Y-99885714D02*
X165944514Y-99942857D01*
X165944514Y-99942857D02*
X165887371Y-99971428D01*
X165887371Y-99971428D02*
X165773085Y-100000000D01*
X165773085Y-100000000D02*
X165687371Y-100000000D01*
X165687371Y-100000000D02*
X165573085Y-99971428D01*
X165573085Y-99971428D02*
X165515942Y-99942857D01*
X165515942Y-99942857D02*
X165458800Y-99885714D01*
X165458800Y-99885714D02*
X165430228Y-99800000D01*
X165430228Y-99800000D02*
X165430228Y-99657143D01*
X166030228Y-100514286D02*
X166030228Y-100400000D01*
X166030228Y-100400000D02*
X166001657Y-100342857D01*
X166001657Y-100342857D02*
X165973085Y-100314286D01*
X165973085Y-100314286D02*
X165887371Y-100257143D01*
X165887371Y-100257143D02*
X165773085Y-100228571D01*
X165773085Y-100228571D02*
X165544514Y-100228571D01*
X165544514Y-100228571D02*
X165487371Y-100257143D01*
X165487371Y-100257143D02*
X165458800Y-100285714D01*
X165458800Y-100285714D02*
X165430228Y-100342857D01*
X165430228Y-100342857D02*
X165430228Y-100457143D01*
X165430228Y-100457143D02*
X165458800Y-100514286D01*
X165458800Y-100514286D02*
X165487371Y-100542857D01*
X165487371Y-100542857D02*
X165544514Y-100571428D01*
X165544514Y-100571428D02*
X165687371Y-100571428D01*
X165687371Y-100571428D02*
X165744514Y-100542857D01*
X165744514Y-100542857D02*
X165773085Y-100514286D01*
X165773085Y-100514286D02*
X165801657Y-100457143D01*
X165801657Y-100457143D02*
X165801657Y-100342857D01*
X165801657Y-100342857D02*
X165773085Y-100285714D01*
X165773085Y-100285714D02*
X165744514Y-100257143D01*
X165744514Y-100257143D02*
X165687371Y-100228571D01*
X176630228Y-99657143D02*
X177230228Y-99657143D01*
X177230228Y-99657143D02*
X177230228Y-99800000D01*
X177230228Y-99800000D02*
X177201657Y-99885714D01*
X177201657Y-99885714D02*
X177144514Y-99942857D01*
X177144514Y-99942857D02*
X177087371Y-99971428D01*
X177087371Y-99971428D02*
X176973085Y-100000000D01*
X176973085Y-100000000D02*
X176887371Y-100000000D01*
X176887371Y-100000000D02*
X176773085Y-99971428D01*
X176773085Y-99971428D02*
X176715942Y-99942857D01*
X176715942Y-99942857D02*
X176658800Y-99885714D01*
X176658800Y-99885714D02*
X176630228Y-99800000D01*
X176630228Y-99800000D02*
X176630228Y-99657143D01*
X177230228Y-100200000D02*
X177230228Y-100600000D01*
X177230228Y-100600000D02*
X176630228Y-100342857D01*
X156830228Y-99307143D02*
X157430228Y-99307143D01*
X157430228Y-99307143D02*
X157430228Y-99450000D01*
X157430228Y-99450000D02*
X157401657Y-99535714D01*
X157401657Y-99535714D02*
X157344514Y-99592857D01*
X157344514Y-99592857D02*
X157287371Y-99621428D01*
X157287371Y-99621428D02*
X157173085Y-99650000D01*
X157173085Y-99650000D02*
X157087371Y-99650000D01*
X157087371Y-99650000D02*
X156973085Y-99621428D01*
X156973085Y-99621428D02*
X156915942Y-99592857D01*
X156915942Y-99592857D02*
X156858800Y-99535714D01*
X156858800Y-99535714D02*
X156830228Y-99450000D01*
X156830228Y-99450000D02*
X156830228Y-99307143D01*
X157430228Y-100192857D02*
X157430228Y-99907143D01*
X157430228Y-99907143D02*
X157144514Y-99878571D01*
X157144514Y-99878571D02*
X157173085Y-99907143D01*
X157173085Y-99907143D02*
X157201657Y-99964286D01*
X157201657Y-99964286D02*
X157201657Y-100107143D01*
X157201657Y-100107143D02*
X157173085Y-100164286D01*
X157173085Y-100164286D02*
X157144514Y-100192857D01*
X157144514Y-100192857D02*
X157087371Y-100221428D01*
X157087371Y-100221428D02*
X156944514Y-100221428D01*
X156944514Y-100221428D02*
X156887371Y-100192857D01*
X156887371Y-100192857D02*
X156858800Y-100164286D01*
X156858800Y-100164286D02*
X156830228Y-100107143D01*
X156830228Y-100107143D02*
X156830228Y-99964286D01*
X156830228Y-99964286D02*
X156858800Y-99907143D01*
X156858800Y-99907143D02*
X156887371Y-99878571D01*
X145630228Y-99657143D02*
X146230228Y-99657143D01*
X146230228Y-99657143D02*
X146230228Y-99800000D01*
X146230228Y-99800000D02*
X146201657Y-99885714D01*
X146201657Y-99885714D02*
X146144514Y-99942857D01*
X146144514Y-99942857D02*
X146087371Y-99971428D01*
X146087371Y-99971428D02*
X145973085Y-100000000D01*
X145973085Y-100000000D02*
X145887371Y-100000000D01*
X145887371Y-100000000D02*
X145773085Y-99971428D01*
X145773085Y-99971428D02*
X145715942Y-99942857D01*
X145715942Y-99942857D02*
X145658800Y-99885714D01*
X145658800Y-99885714D02*
X145630228Y-99800000D01*
X145630228Y-99800000D02*
X145630228Y-99657143D01*
X146030228Y-100514286D02*
X145630228Y-100514286D01*
X146258800Y-100371428D02*
X145830228Y-100228571D01*
X145830228Y-100228571D02*
X145830228Y-100600000D01*
X147039530Y-104636657D02*
X146753816Y-104636657D01*
X147096673Y-104465228D02*
X146896673Y-105065228D01*
X146896673Y-105065228D02*
X146696673Y-104465228D01*
X146182387Y-104465228D02*
X146525244Y-104465228D01*
X146353815Y-104465228D02*
X146353815Y-105065228D01*
X146353815Y-105065228D02*
X146410958Y-104979514D01*
X146410958Y-104979514D02*
X146468101Y-104922371D01*
X146468101Y-104922371D02*
X146525244Y-104893800D01*
X158900000Y-57712628D02*
X158871428Y-57741200D01*
X158871428Y-57741200D02*
X158785714Y-57769771D01*
X158785714Y-57769771D02*
X158728571Y-57769771D01*
X158728571Y-57769771D02*
X158642857Y-57741200D01*
X158642857Y-57741200D02*
X158585714Y-57684057D01*
X158585714Y-57684057D02*
X158557143Y-57626914D01*
X158557143Y-57626914D02*
X158528571Y-57512628D01*
X158528571Y-57512628D02*
X158528571Y-57426914D01*
X158528571Y-57426914D02*
X158557143Y-57312628D01*
X158557143Y-57312628D02*
X158585714Y-57255485D01*
X158585714Y-57255485D02*
X158642857Y-57198342D01*
X158642857Y-57198342D02*
X158728571Y-57169771D01*
X158728571Y-57169771D02*
X158785714Y-57169771D01*
X158785714Y-57169771D02*
X158871428Y-57198342D01*
X158871428Y-57198342D02*
X158900000Y-57226914D01*
X159414286Y-57169771D02*
X159300000Y-57169771D01*
X159300000Y-57169771D02*
X159242857Y-57198342D01*
X159242857Y-57198342D02*
X159214286Y-57226914D01*
X159214286Y-57226914D02*
X159157143Y-57312628D01*
X159157143Y-57312628D02*
X159128571Y-57426914D01*
X159128571Y-57426914D02*
X159128571Y-57655485D01*
X159128571Y-57655485D02*
X159157143Y-57712628D01*
X159157143Y-57712628D02*
X159185714Y-57741200D01*
X159185714Y-57741200D02*
X159242857Y-57769771D01*
X159242857Y-57769771D02*
X159357143Y-57769771D01*
X159357143Y-57769771D02*
X159414286Y-57741200D01*
X159414286Y-57741200D02*
X159442857Y-57712628D01*
X159442857Y-57712628D02*
X159471428Y-57655485D01*
X159471428Y-57655485D02*
X159471428Y-57512628D01*
X159471428Y-57512628D02*
X159442857Y-57455485D01*
X159442857Y-57455485D02*
X159414286Y-57426914D01*
X159414286Y-57426914D02*
X159357143Y-57398342D01*
X159357143Y-57398342D02*
X159242857Y-57398342D01*
X159242857Y-57398342D02*
X159185714Y-57426914D01*
X159185714Y-57426914D02*
X159157143Y-57455485D01*
X159157143Y-57455485D02*
X159128571Y-57512628D01*
X161357142Y-56939771D02*
X161014285Y-56939771D01*
X161185714Y-56939771D02*
X161185714Y-56339771D01*
X161185714Y-56339771D02*
X161128571Y-56425485D01*
X161128571Y-56425485D02*
X161071428Y-56482628D01*
X161071428Y-56482628D02*
X161014285Y-56511200D01*
X161728571Y-56339771D02*
X161785714Y-56339771D01*
X161785714Y-56339771D02*
X161842857Y-56368342D01*
X161842857Y-56368342D02*
X161871429Y-56396914D01*
X161871429Y-56396914D02*
X161900000Y-56454057D01*
X161900000Y-56454057D02*
X161928571Y-56568342D01*
X161928571Y-56568342D02*
X161928571Y-56711200D01*
X161928571Y-56711200D02*
X161900000Y-56825485D01*
X161900000Y-56825485D02*
X161871429Y-56882628D01*
X161871429Y-56882628D02*
X161842857Y-56911200D01*
X161842857Y-56911200D02*
X161785714Y-56939771D01*
X161785714Y-56939771D02*
X161728571Y-56939771D01*
X161728571Y-56939771D02*
X161671429Y-56911200D01*
X161671429Y-56911200D02*
X161642857Y-56882628D01*
X161642857Y-56882628D02*
X161614286Y-56825485D01*
X161614286Y-56825485D02*
X161585714Y-56711200D01*
X161585714Y-56711200D02*
X161585714Y-56568342D01*
X161585714Y-56568342D02*
X161614286Y-56454057D01*
X161614286Y-56454057D02*
X161642857Y-56396914D01*
X161642857Y-56396914D02*
X161671429Y-56368342D01*
X161671429Y-56368342D02*
X161728571Y-56339771D01*
X162442858Y-56539771D02*
X162442858Y-56939771D01*
X162185715Y-56539771D02*
X162185715Y-56854057D01*
X162185715Y-56854057D02*
X162214286Y-56911200D01*
X162214286Y-56911200D02*
X162271429Y-56939771D01*
X162271429Y-56939771D02*
X162357143Y-56939771D01*
X162357143Y-56939771D02*
X162414286Y-56911200D01*
X162414286Y-56911200D02*
X162442858Y-56882628D01*
X162928572Y-56625485D02*
X162728572Y-56625485D01*
X162728572Y-56939771D02*
X162728572Y-56339771D01*
X162728572Y-56339771D02*
X163014286Y-56339771D01*
X147900000Y-75107271D02*
X147700000Y-74821557D01*
X147557143Y-75107271D02*
X147557143Y-74507271D01*
X147557143Y-74507271D02*
X147785714Y-74507271D01*
X147785714Y-74507271D02*
X147842857Y-74535842D01*
X147842857Y-74535842D02*
X147871428Y-74564414D01*
X147871428Y-74564414D02*
X147900000Y-74621557D01*
X147900000Y-74621557D02*
X147900000Y-74707271D01*
X147900000Y-74707271D02*
X147871428Y-74764414D01*
X147871428Y-74764414D02*
X147842857Y-74792985D01*
X147842857Y-74792985D02*
X147785714Y-74821557D01*
X147785714Y-74821557D02*
X147557143Y-74821557D01*
X148100000Y-74507271D02*
X148471428Y-74507271D01*
X148471428Y-74507271D02*
X148271428Y-74735842D01*
X148271428Y-74735842D02*
X148357143Y-74735842D01*
X148357143Y-74735842D02*
X148414286Y-74764414D01*
X148414286Y-74764414D02*
X148442857Y-74792985D01*
X148442857Y-74792985D02*
X148471428Y-74850128D01*
X148471428Y-74850128D02*
X148471428Y-74992985D01*
X148471428Y-74992985D02*
X148442857Y-75050128D01*
X148442857Y-75050128D02*
X148414286Y-75078700D01*
X148414286Y-75078700D02*
X148357143Y-75107271D01*
X148357143Y-75107271D02*
X148185714Y-75107271D01*
X148185714Y-75107271D02*
X148128571Y-75078700D01*
X148128571Y-75078700D02*
X148100000Y-75050128D01*
X178307143Y-66019771D02*
X178307143Y-65419771D01*
X178307143Y-65419771D02*
X178450000Y-65419771D01*
X178450000Y-65419771D02*
X178535714Y-65448342D01*
X178535714Y-65448342D02*
X178592857Y-65505485D01*
X178592857Y-65505485D02*
X178621428Y-65562628D01*
X178621428Y-65562628D02*
X178650000Y-65676914D01*
X178650000Y-65676914D02*
X178650000Y-65762628D01*
X178650000Y-65762628D02*
X178621428Y-65876914D01*
X178621428Y-65876914D02*
X178592857Y-65934057D01*
X178592857Y-65934057D02*
X178535714Y-65991200D01*
X178535714Y-65991200D02*
X178450000Y-66019771D01*
X178450000Y-66019771D02*
X178307143Y-66019771D01*
X178878571Y-65476914D02*
X178907143Y-65448342D01*
X178907143Y-65448342D02*
X178964286Y-65419771D01*
X178964286Y-65419771D02*
X179107143Y-65419771D01*
X179107143Y-65419771D02*
X179164286Y-65448342D01*
X179164286Y-65448342D02*
X179192857Y-65476914D01*
X179192857Y-65476914D02*
X179221428Y-65534057D01*
X179221428Y-65534057D02*
X179221428Y-65591200D01*
X179221428Y-65591200D02*
X179192857Y-65676914D01*
X179192857Y-65676914D02*
X178850000Y-66019771D01*
X178850000Y-66019771D02*
X179221428Y-66019771D01*
X175107142Y-65098342D02*
X175392857Y-65098342D01*
X175049999Y-65269771D02*
X175249999Y-64669771D01*
X175249999Y-64669771D02*
X175449999Y-65269771D01*
X170900000Y-74769771D02*
X170700000Y-74484057D01*
X170557143Y-74769771D02*
X170557143Y-74169771D01*
X170557143Y-74169771D02*
X170785714Y-74169771D01*
X170785714Y-74169771D02*
X170842857Y-74198342D01*
X170842857Y-74198342D02*
X170871428Y-74226914D01*
X170871428Y-74226914D02*
X170900000Y-74284057D01*
X170900000Y-74284057D02*
X170900000Y-74369771D01*
X170900000Y-74369771D02*
X170871428Y-74426914D01*
X170871428Y-74426914D02*
X170842857Y-74455485D01*
X170842857Y-74455485D02*
X170785714Y-74484057D01*
X170785714Y-74484057D02*
X170557143Y-74484057D01*
X171414286Y-74369771D02*
X171414286Y-74769771D01*
X171271428Y-74141200D02*
X171128571Y-74569771D01*
X171128571Y-74569771D02*
X171500000Y-74569771D01*
X170371428Y-79769771D02*
X170028571Y-79769771D01*
X170200000Y-79769771D02*
X170200000Y-79169771D01*
X170200000Y-79169771D02*
X170142857Y-79255485D01*
X170142857Y-79255485D02*
X170085714Y-79312628D01*
X170085714Y-79312628D02*
X170028571Y-79341200D01*
X170628572Y-79769771D02*
X170628572Y-79169771D01*
X170971429Y-79769771D02*
X170714286Y-79426914D01*
X170971429Y-79169771D02*
X170628572Y-79512628D01*
X173552857Y-50806914D02*
X173495714Y-50778342D01*
X173495714Y-50778342D02*
X173438571Y-50721200D01*
X173438571Y-50721200D02*
X173352857Y-50635485D01*
X173352857Y-50635485D02*
X173295714Y-50606914D01*
X173295714Y-50606914D02*
X173238571Y-50606914D01*
X173267142Y-50749771D02*
X173210000Y-50721200D01*
X173210000Y-50721200D02*
X173152857Y-50664057D01*
X173152857Y-50664057D02*
X173124285Y-50549771D01*
X173124285Y-50549771D02*
X173124285Y-50349771D01*
X173124285Y-50349771D02*
X173152857Y-50235485D01*
X173152857Y-50235485D02*
X173210000Y-50178342D01*
X173210000Y-50178342D02*
X173267142Y-50149771D01*
X173267142Y-50149771D02*
X173381428Y-50149771D01*
X173381428Y-50149771D02*
X173438571Y-50178342D01*
X173438571Y-50178342D02*
X173495714Y-50235485D01*
X173495714Y-50235485D02*
X173524285Y-50349771D01*
X173524285Y-50349771D02*
X173524285Y-50549771D01*
X173524285Y-50549771D02*
X173495714Y-50664057D01*
X173495714Y-50664057D02*
X173438571Y-50721200D01*
X173438571Y-50721200D02*
X173381428Y-50749771D01*
X173381428Y-50749771D02*
X173267142Y-50749771D01*
X173724285Y-50149771D02*
X174095713Y-50149771D01*
X174095713Y-50149771D02*
X173895713Y-50378342D01*
X173895713Y-50378342D02*
X173981428Y-50378342D01*
X173981428Y-50378342D02*
X174038571Y-50406914D01*
X174038571Y-50406914D02*
X174067142Y-50435485D01*
X174067142Y-50435485D02*
X174095713Y-50492628D01*
X174095713Y-50492628D02*
X174095713Y-50635485D01*
X174095713Y-50635485D02*
X174067142Y-50692628D01*
X174067142Y-50692628D02*
X174038571Y-50721200D01*
X174038571Y-50721200D02*
X173981428Y-50749771D01*
X173981428Y-50749771D02*
X173809999Y-50749771D01*
X173809999Y-50749771D02*
X173752856Y-50721200D01*
X173752856Y-50721200D02*
X173724285Y-50692628D01*
X169121427Y-49706914D02*
X169149999Y-49678342D01*
X169149999Y-49678342D02*
X169207142Y-49649771D01*
X169207142Y-49649771D02*
X169349999Y-49649771D01*
X169349999Y-49649771D02*
X169407142Y-49678342D01*
X169407142Y-49678342D02*
X169435713Y-49706914D01*
X169435713Y-49706914D02*
X169464284Y-49764057D01*
X169464284Y-49764057D02*
X169464284Y-49821200D01*
X169464284Y-49821200D02*
X169435713Y-49906914D01*
X169435713Y-49906914D02*
X169092856Y-50249771D01*
X169092856Y-50249771D02*
X169464284Y-50249771D01*
X169721428Y-50249771D02*
X169721428Y-49649771D01*
X169721428Y-49649771D02*
X170064285Y-50249771D01*
X170064285Y-50249771D02*
X170064285Y-49649771D01*
X170292856Y-49649771D02*
X170664284Y-49649771D01*
X170664284Y-49649771D02*
X170464284Y-49878342D01*
X170464284Y-49878342D02*
X170549999Y-49878342D01*
X170549999Y-49878342D02*
X170607142Y-49906914D01*
X170607142Y-49906914D02*
X170635713Y-49935485D01*
X170635713Y-49935485D02*
X170664284Y-49992628D01*
X170664284Y-49992628D02*
X170664284Y-50135485D01*
X170664284Y-50135485D02*
X170635713Y-50192628D01*
X170635713Y-50192628D02*
X170607142Y-50221200D01*
X170607142Y-50221200D02*
X170549999Y-50249771D01*
X170549999Y-50249771D02*
X170378570Y-50249771D01*
X170378570Y-50249771D02*
X170321427Y-50221200D01*
X170321427Y-50221200D02*
X170292856Y-50192628D01*
X170949999Y-50249771D02*
X171064285Y-50249771D01*
X171064285Y-50249771D02*
X171121428Y-50221200D01*
X171121428Y-50221200D02*
X171149999Y-50192628D01*
X171149999Y-50192628D02*
X171207142Y-50106914D01*
X171207142Y-50106914D02*
X171235713Y-49992628D01*
X171235713Y-49992628D02*
X171235713Y-49764057D01*
X171235713Y-49764057D02*
X171207142Y-49706914D01*
X171207142Y-49706914D02*
X171178571Y-49678342D01*
X171178571Y-49678342D02*
X171121428Y-49649771D01*
X171121428Y-49649771D02*
X171007142Y-49649771D01*
X171007142Y-49649771D02*
X170949999Y-49678342D01*
X170949999Y-49678342D02*
X170921428Y-49706914D01*
X170921428Y-49706914D02*
X170892856Y-49764057D01*
X170892856Y-49764057D02*
X170892856Y-49906914D01*
X170892856Y-49906914D02*
X170921428Y-49964057D01*
X170921428Y-49964057D02*
X170949999Y-49992628D01*
X170949999Y-49992628D02*
X171007142Y-50021200D01*
X171007142Y-50021200D02*
X171121428Y-50021200D01*
X171121428Y-50021200D02*
X171178571Y-49992628D01*
X171178571Y-49992628D02*
X171207142Y-49964057D01*
X171207142Y-49964057D02*
X171235713Y-49906914D01*
X171607142Y-49649771D02*
X171664285Y-49649771D01*
X171664285Y-49649771D02*
X171721428Y-49678342D01*
X171721428Y-49678342D02*
X171750000Y-49706914D01*
X171750000Y-49706914D02*
X171778571Y-49764057D01*
X171778571Y-49764057D02*
X171807142Y-49878342D01*
X171807142Y-49878342D02*
X171807142Y-50021200D01*
X171807142Y-50021200D02*
X171778571Y-50135485D01*
X171778571Y-50135485D02*
X171750000Y-50192628D01*
X171750000Y-50192628D02*
X171721428Y-50221200D01*
X171721428Y-50221200D02*
X171664285Y-50249771D01*
X171664285Y-50249771D02*
X171607142Y-50249771D01*
X171607142Y-50249771D02*
X171550000Y-50221200D01*
X171550000Y-50221200D02*
X171521428Y-50192628D01*
X171521428Y-50192628D02*
X171492857Y-50135485D01*
X171492857Y-50135485D02*
X171464285Y-50021200D01*
X171464285Y-50021200D02*
X171464285Y-49878342D01*
X171464285Y-49878342D02*
X171492857Y-49764057D01*
X171492857Y-49764057D02*
X171521428Y-49706914D01*
X171521428Y-49706914D02*
X171550000Y-49678342D01*
X171550000Y-49678342D02*
X171607142Y-49649771D01*
X172321429Y-49849771D02*
X172321429Y-50249771D01*
X172178571Y-49621200D02*
X172035714Y-50049771D01*
X172035714Y-50049771D02*
X172407143Y-50049771D01*
X157169771Y-86599999D02*
X156884057Y-86799999D01*
X157169771Y-86942856D02*
X156569771Y-86942856D01*
X156569771Y-86942856D02*
X156569771Y-86714285D01*
X156569771Y-86714285D02*
X156598342Y-86657142D01*
X156598342Y-86657142D02*
X156626914Y-86628571D01*
X156626914Y-86628571D02*
X156684057Y-86599999D01*
X156684057Y-86599999D02*
X156769771Y-86599999D01*
X156769771Y-86599999D02*
X156826914Y-86628571D01*
X156826914Y-86628571D02*
X156855485Y-86657142D01*
X156855485Y-86657142D02*
X156884057Y-86714285D01*
X156884057Y-86714285D02*
X156884057Y-86942856D01*
X156569771Y-86057142D02*
X156569771Y-86342856D01*
X156569771Y-86342856D02*
X156855485Y-86371428D01*
X156855485Y-86371428D02*
X156826914Y-86342856D01*
X156826914Y-86342856D02*
X156798342Y-86285714D01*
X156798342Y-86285714D02*
X156798342Y-86142856D01*
X156798342Y-86142856D02*
X156826914Y-86085714D01*
X156826914Y-86085714D02*
X156855485Y-86057142D01*
X156855485Y-86057142D02*
X156912628Y-86028571D01*
X156912628Y-86028571D02*
X157055485Y-86028571D01*
X157055485Y-86028571D02*
X157112628Y-86057142D01*
X157112628Y-86057142D02*
X157141200Y-86085714D01*
X157141200Y-86085714D02*
X157169771Y-86142856D01*
X157169771Y-86142856D02*
X157169771Y-86285714D01*
X157169771Y-86285714D02*
X157141200Y-86342856D01*
X157141200Y-86342856D02*
X157112628Y-86371428D01*
X178400000Y-74712628D02*
X178371428Y-74741200D01*
X178371428Y-74741200D02*
X178285714Y-74769771D01*
X178285714Y-74769771D02*
X178228571Y-74769771D01*
X178228571Y-74769771D02*
X178142857Y-74741200D01*
X178142857Y-74741200D02*
X178085714Y-74684057D01*
X178085714Y-74684057D02*
X178057143Y-74626914D01*
X178057143Y-74626914D02*
X178028571Y-74512628D01*
X178028571Y-74512628D02*
X178028571Y-74426914D01*
X178028571Y-74426914D02*
X178057143Y-74312628D01*
X178057143Y-74312628D02*
X178085714Y-74255485D01*
X178085714Y-74255485D02*
X178142857Y-74198342D01*
X178142857Y-74198342D02*
X178228571Y-74169771D01*
X178228571Y-74169771D02*
X178285714Y-74169771D01*
X178285714Y-74169771D02*
X178371428Y-74198342D01*
X178371428Y-74198342D02*
X178400000Y-74226914D01*
X178914286Y-74369771D02*
X178914286Y-74769771D01*
X178771428Y-74141200D02*
X178628571Y-74569771D01*
X178628571Y-74569771D02*
X179000000Y-74569771D01*
X177571427Y-79769771D02*
X177228570Y-79769771D01*
X177399999Y-79769771D02*
X177399999Y-79169771D01*
X177399999Y-79169771D02*
X177342856Y-79255485D01*
X177342856Y-79255485D02*
X177285713Y-79312628D01*
X177285713Y-79312628D02*
X177228570Y-79341200D01*
X177942856Y-79169771D02*
X177999999Y-79169771D01*
X177999999Y-79169771D02*
X178057142Y-79198342D01*
X178057142Y-79198342D02*
X178085714Y-79226914D01*
X178085714Y-79226914D02*
X178114285Y-79284057D01*
X178114285Y-79284057D02*
X178142856Y-79398342D01*
X178142856Y-79398342D02*
X178142856Y-79541200D01*
X178142856Y-79541200D02*
X178114285Y-79655485D01*
X178114285Y-79655485D02*
X178085714Y-79712628D01*
X178085714Y-79712628D02*
X178057142Y-79741200D01*
X178057142Y-79741200D02*
X177999999Y-79769771D01*
X177999999Y-79769771D02*
X177942856Y-79769771D01*
X177942856Y-79769771D02*
X177885714Y-79741200D01*
X177885714Y-79741200D02*
X177857142Y-79712628D01*
X177857142Y-79712628D02*
X177828571Y-79655485D01*
X177828571Y-79655485D02*
X177799999Y-79541200D01*
X177799999Y-79541200D02*
X177799999Y-79398342D01*
X177799999Y-79398342D02*
X177828571Y-79284057D01*
X177828571Y-79284057D02*
X177857142Y-79226914D01*
X177857142Y-79226914D02*
X177885714Y-79198342D01*
X177885714Y-79198342D02*
X177942856Y-79169771D01*
X178514285Y-79169771D02*
X178571428Y-79169771D01*
X178571428Y-79169771D02*
X178628571Y-79198342D01*
X178628571Y-79198342D02*
X178657143Y-79226914D01*
X178657143Y-79226914D02*
X178685714Y-79284057D01*
X178685714Y-79284057D02*
X178714285Y-79398342D01*
X178714285Y-79398342D02*
X178714285Y-79541200D01*
X178714285Y-79541200D02*
X178685714Y-79655485D01*
X178685714Y-79655485D02*
X178657143Y-79712628D01*
X178657143Y-79712628D02*
X178628571Y-79741200D01*
X178628571Y-79741200D02*
X178571428Y-79769771D01*
X178571428Y-79769771D02*
X178514285Y-79769771D01*
X178514285Y-79769771D02*
X178457143Y-79741200D01*
X178457143Y-79741200D02*
X178428571Y-79712628D01*
X178428571Y-79712628D02*
X178400000Y-79655485D01*
X178400000Y-79655485D02*
X178371428Y-79541200D01*
X178371428Y-79541200D02*
X178371428Y-79398342D01*
X178371428Y-79398342D02*
X178400000Y-79284057D01*
X178400000Y-79284057D02*
X178428571Y-79226914D01*
X178428571Y-79226914D02*
X178457143Y-79198342D01*
X178457143Y-79198342D02*
X178514285Y-79169771D01*
X178971429Y-79369771D02*
X178971429Y-79769771D01*
X178971429Y-79426914D02*
X179000000Y-79398342D01*
X179000000Y-79398342D02*
X179057143Y-79369771D01*
X179057143Y-79369771D02*
X179142857Y-79369771D01*
X179142857Y-79369771D02*
X179200000Y-79398342D01*
X179200000Y-79398342D02*
X179228572Y-79455485D01*
X179228572Y-79455485D02*
X179228572Y-79769771D01*
X179714286Y-79455485D02*
X179514286Y-79455485D01*
X179514286Y-79769771D02*
X179514286Y-79169771D01*
X179514286Y-79169771D02*
X179800000Y-79169771D01*
X159219771Y-86599999D02*
X158934057Y-86799999D01*
X159219771Y-86942856D02*
X158619771Y-86942856D01*
X158619771Y-86942856D02*
X158619771Y-86714285D01*
X158619771Y-86714285D02*
X158648342Y-86657142D01*
X158648342Y-86657142D02*
X158676914Y-86628571D01*
X158676914Y-86628571D02*
X158734057Y-86599999D01*
X158734057Y-86599999D02*
X158819771Y-86599999D01*
X158819771Y-86599999D02*
X158876914Y-86628571D01*
X158876914Y-86628571D02*
X158905485Y-86657142D01*
X158905485Y-86657142D02*
X158934057Y-86714285D01*
X158934057Y-86714285D02*
X158934057Y-86942856D01*
X158619771Y-86085714D02*
X158619771Y-86199999D01*
X158619771Y-86199999D02*
X158648342Y-86257142D01*
X158648342Y-86257142D02*
X158676914Y-86285714D01*
X158676914Y-86285714D02*
X158762628Y-86342856D01*
X158762628Y-86342856D02*
X158876914Y-86371428D01*
X158876914Y-86371428D02*
X159105485Y-86371428D01*
X159105485Y-86371428D02*
X159162628Y-86342856D01*
X159162628Y-86342856D02*
X159191200Y-86314285D01*
X159191200Y-86314285D02*
X159219771Y-86257142D01*
X159219771Y-86257142D02*
X159219771Y-86142856D01*
X159219771Y-86142856D02*
X159191200Y-86085714D01*
X159191200Y-86085714D02*
X159162628Y-86057142D01*
X159162628Y-86057142D02*
X159105485Y-86028571D01*
X159105485Y-86028571D02*
X158962628Y-86028571D01*
X158962628Y-86028571D02*
X158905485Y-86057142D01*
X158905485Y-86057142D02*
X158876914Y-86085714D01*
X158876914Y-86085714D02*
X158848342Y-86142856D01*
X158848342Y-86142856D02*
X158848342Y-86257142D01*
X158848342Y-86257142D02*
X158876914Y-86314285D01*
X158876914Y-86314285D02*
X158905485Y-86342856D01*
X158905485Y-86342856D02*
X158962628Y-86371428D01*
X163319771Y-86599999D02*
X163034057Y-86799999D01*
X163319771Y-86942856D02*
X162719771Y-86942856D01*
X162719771Y-86942856D02*
X162719771Y-86714285D01*
X162719771Y-86714285D02*
X162748342Y-86657142D01*
X162748342Y-86657142D02*
X162776914Y-86628571D01*
X162776914Y-86628571D02*
X162834057Y-86599999D01*
X162834057Y-86599999D02*
X162919771Y-86599999D01*
X162919771Y-86599999D02*
X162976914Y-86628571D01*
X162976914Y-86628571D02*
X163005485Y-86657142D01*
X163005485Y-86657142D02*
X163034057Y-86714285D01*
X163034057Y-86714285D02*
X163034057Y-86942856D01*
X162976914Y-86257142D02*
X162948342Y-86314285D01*
X162948342Y-86314285D02*
X162919771Y-86342856D01*
X162919771Y-86342856D02*
X162862628Y-86371428D01*
X162862628Y-86371428D02*
X162834057Y-86371428D01*
X162834057Y-86371428D02*
X162776914Y-86342856D01*
X162776914Y-86342856D02*
X162748342Y-86314285D01*
X162748342Y-86314285D02*
X162719771Y-86257142D01*
X162719771Y-86257142D02*
X162719771Y-86142856D01*
X162719771Y-86142856D02*
X162748342Y-86085714D01*
X162748342Y-86085714D02*
X162776914Y-86057142D01*
X162776914Y-86057142D02*
X162834057Y-86028571D01*
X162834057Y-86028571D02*
X162862628Y-86028571D01*
X162862628Y-86028571D02*
X162919771Y-86057142D01*
X162919771Y-86057142D02*
X162948342Y-86085714D01*
X162948342Y-86085714D02*
X162976914Y-86142856D01*
X162976914Y-86142856D02*
X162976914Y-86257142D01*
X162976914Y-86257142D02*
X163005485Y-86314285D01*
X163005485Y-86314285D02*
X163034057Y-86342856D01*
X163034057Y-86342856D02*
X163091200Y-86371428D01*
X163091200Y-86371428D02*
X163205485Y-86371428D01*
X163205485Y-86371428D02*
X163262628Y-86342856D01*
X163262628Y-86342856D02*
X163291200Y-86314285D01*
X163291200Y-86314285D02*
X163319771Y-86257142D01*
X163319771Y-86257142D02*
X163319771Y-86142856D01*
X163319771Y-86142856D02*
X163291200Y-86085714D01*
X163291200Y-86085714D02*
X163262628Y-86057142D01*
X163262628Y-86057142D02*
X163205485Y-86028571D01*
X163205485Y-86028571D02*
X163091200Y-86028571D01*
X163091200Y-86028571D02*
X163034057Y-86057142D01*
X163034057Y-86057142D02*
X163005485Y-86085714D01*
X163005485Y-86085714D02*
X162976914Y-86142856D01*
X164919771Y-89612500D02*
X164919771Y-89955357D01*
X164919771Y-89783928D02*
X164319771Y-89783928D01*
X164319771Y-89783928D02*
X164405485Y-89841071D01*
X164405485Y-89841071D02*
X164462628Y-89898214D01*
X164462628Y-89898214D02*
X164491200Y-89955357D01*
X164319771Y-89241071D02*
X164319771Y-89183928D01*
X164319771Y-89183928D02*
X164348342Y-89126785D01*
X164348342Y-89126785D02*
X164376914Y-89098214D01*
X164376914Y-89098214D02*
X164434057Y-89069642D01*
X164434057Y-89069642D02*
X164548342Y-89041071D01*
X164548342Y-89041071D02*
X164691200Y-89041071D01*
X164691200Y-89041071D02*
X164805485Y-89069642D01*
X164805485Y-89069642D02*
X164862628Y-89098214D01*
X164862628Y-89098214D02*
X164891200Y-89126785D01*
X164891200Y-89126785D02*
X164919771Y-89183928D01*
X164919771Y-89183928D02*
X164919771Y-89241071D01*
X164919771Y-89241071D02*
X164891200Y-89298214D01*
X164891200Y-89298214D02*
X164862628Y-89326785D01*
X164862628Y-89326785D02*
X164805485Y-89355356D01*
X164805485Y-89355356D02*
X164691200Y-89383928D01*
X164691200Y-89383928D02*
X164548342Y-89383928D01*
X164548342Y-89383928D02*
X164434057Y-89355356D01*
X164434057Y-89355356D02*
X164376914Y-89326785D01*
X164376914Y-89326785D02*
X164348342Y-89298214D01*
X164348342Y-89298214D02*
X164319771Y-89241071D01*
X164319771Y-88669642D02*
X164319771Y-88612499D01*
X164319771Y-88612499D02*
X164348342Y-88555356D01*
X164348342Y-88555356D02*
X164376914Y-88526785D01*
X164376914Y-88526785D02*
X164434057Y-88498213D01*
X164434057Y-88498213D02*
X164548342Y-88469642D01*
X164548342Y-88469642D02*
X164691200Y-88469642D01*
X164691200Y-88469642D02*
X164805485Y-88498213D01*
X164805485Y-88498213D02*
X164862628Y-88526785D01*
X164862628Y-88526785D02*
X164891200Y-88555356D01*
X164891200Y-88555356D02*
X164919771Y-88612499D01*
X164919771Y-88612499D02*
X164919771Y-88669642D01*
X164919771Y-88669642D02*
X164891200Y-88726785D01*
X164891200Y-88726785D02*
X164862628Y-88755356D01*
X164862628Y-88755356D02*
X164805485Y-88783927D01*
X164805485Y-88783927D02*
X164691200Y-88812499D01*
X164691200Y-88812499D02*
X164548342Y-88812499D01*
X164548342Y-88812499D02*
X164434057Y-88783927D01*
X164434057Y-88783927D02*
X164376914Y-88755356D01*
X164376914Y-88755356D02*
X164348342Y-88726785D01*
X164348342Y-88726785D02*
X164319771Y-88669642D01*
X164919771Y-87869641D02*
X164634057Y-88069641D01*
X164919771Y-88212498D02*
X164319771Y-88212498D01*
X164319771Y-88212498D02*
X164319771Y-87983927D01*
X164319771Y-87983927D02*
X164348342Y-87926784D01*
X164348342Y-87926784D02*
X164376914Y-87898213D01*
X164376914Y-87898213D02*
X164434057Y-87869641D01*
X164434057Y-87869641D02*
X164519771Y-87869641D01*
X164519771Y-87869641D02*
X164576914Y-87898213D01*
X164576914Y-87898213D02*
X164605485Y-87926784D01*
X164605485Y-87926784D02*
X164634057Y-87983927D01*
X164634057Y-87983927D02*
X164634057Y-88212498D01*
X159900000Y-96212628D02*
X159871428Y-96241200D01*
X159871428Y-96241200D02*
X159785714Y-96269771D01*
X159785714Y-96269771D02*
X159728571Y-96269771D01*
X159728571Y-96269771D02*
X159642857Y-96241200D01*
X159642857Y-96241200D02*
X159585714Y-96184057D01*
X159585714Y-96184057D02*
X159557143Y-96126914D01*
X159557143Y-96126914D02*
X159528571Y-96012628D01*
X159528571Y-96012628D02*
X159528571Y-95926914D01*
X159528571Y-95926914D02*
X159557143Y-95812628D01*
X159557143Y-95812628D02*
X159585714Y-95755485D01*
X159585714Y-95755485D02*
X159642857Y-95698342D01*
X159642857Y-95698342D02*
X159728571Y-95669771D01*
X159728571Y-95669771D02*
X159785714Y-95669771D01*
X159785714Y-95669771D02*
X159871428Y-95698342D01*
X159871428Y-95698342D02*
X159900000Y-95726914D01*
X160442857Y-95669771D02*
X160157143Y-95669771D01*
X160157143Y-95669771D02*
X160128571Y-95955485D01*
X160128571Y-95955485D02*
X160157143Y-95926914D01*
X160157143Y-95926914D02*
X160214286Y-95898342D01*
X160214286Y-95898342D02*
X160357143Y-95898342D01*
X160357143Y-95898342D02*
X160414286Y-95926914D01*
X160414286Y-95926914D02*
X160442857Y-95955485D01*
X160442857Y-95955485D02*
X160471428Y-96012628D01*
X160471428Y-96012628D02*
X160471428Y-96155485D01*
X160471428Y-96155485D02*
X160442857Y-96212628D01*
X160442857Y-96212628D02*
X160414286Y-96241200D01*
X160414286Y-96241200D02*
X160357143Y-96269771D01*
X160357143Y-96269771D02*
X160214286Y-96269771D01*
X160214286Y-96269771D02*
X160157143Y-96241200D01*
X160157143Y-96241200D02*
X160128571Y-96212628D01*
X153942857Y-62826914D02*
X153885714Y-62798342D01*
X153885714Y-62798342D02*
X153828571Y-62741200D01*
X153828571Y-62741200D02*
X153742857Y-62655485D01*
X153742857Y-62655485D02*
X153685714Y-62626914D01*
X153685714Y-62626914D02*
X153628571Y-62626914D01*
X153657142Y-62769771D02*
X153600000Y-62741200D01*
X153600000Y-62741200D02*
X153542857Y-62684057D01*
X153542857Y-62684057D02*
X153514285Y-62569771D01*
X153514285Y-62569771D02*
X153514285Y-62369771D01*
X153514285Y-62369771D02*
X153542857Y-62255485D01*
X153542857Y-62255485D02*
X153600000Y-62198342D01*
X153600000Y-62198342D02*
X153657142Y-62169771D01*
X153657142Y-62169771D02*
X153771428Y-62169771D01*
X153771428Y-62169771D02*
X153828571Y-62198342D01*
X153828571Y-62198342D02*
X153885714Y-62255485D01*
X153885714Y-62255485D02*
X153914285Y-62369771D01*
X153914285Y-62369771D02*
X153914285Y-62569771D01*
X153914285Y-62569771D02*
X153885714Y-62684057D01*
X153885714Y-62684057D02*
X153828571Y-62741200D01*
X153828571Y-62741200D02*
X153771428Y-62769771D01*
X153771428Y-62769771D02*
X153657142Y-62769771D01*
X154142856Y-62226914D02*
X154171428Y-62198342D01*
X154171428Y-62198342D02*
X154228571Y-62169771D01*
X154228571Y-62169771D02*
X154371428Y-62169771D01*
X154371428Y-62169771D02*
X154428571Y-62198342D01*
X154428571Y-62198342D02*
X154457142Y-62226914D01*
X154457142Y-62226914D02*
X154485713Y-62284057D01*
X154485713Y-62284057D02*
X154485713Y-62341200D01*
X154485713Y-62341200D02*
X154457142Y-62426914D01*
X154457142Y-62426914D02*
X154114285Y-62769771D01*
X154114285Y-62769771D02*
X154485713Y-62769771D01*
X175900000Y-74769771D02*
X175700000Y-74484057D01*
X175557143Y-74769771D02*
X175557143Y-74169771D01*
X175557143Y-74169771D02*
X175785714Y-74169771D01*
X175785714Y-74169771D02*
X175842857Y-74198342D01*
X175842857Y-74198342D02*
X175871428Y-74226914D01*
X175871428Y-74226914D02*
X175900000Y-74284057D01*
X175900000Y-74284057D02*
X175900000Y-74369771D01*
X175900000Y-74369771D02*
X175871428Y-74426914D01*
X175871428Y-74426914D02*
X175842857Y-74455485D01*
X175842857Y-74455485D02*
X175785714Y-74484057D01*
X175785714Y-74484057D02*
X175557143Y-74484057D01*
X176471428Y-74769771D02*
X176128571Y-74769771D01*
X176300000Y-74769771D02*
X176300000Y-74169771D01*
X176300000Y-74169771D02*
X176242857Y-74255485D01*
X176242857Y-74255485D02*
X176185714Y-74312628D01*
X176185714Y-74312628D02*
X176128571Y-74341200D01*
X175028571Y-79369771D02*
X175028571Y-79769771D01*
X174885713Y-79141200D02*
X174742856Y-79569771D01*
X174742856Y-79569771D02*
X175114285Y-79569771D01*
X175285714Y-79169771D02*
X175685714Y-79169771D01*
X175685714Y-79169771D02*
X175428571Y-79769771D01*
X176257143Y-79769771D02*
X176057143Y-79484057D01*
X175914286Y-79769771D02*
X175914286Y-79169771D01*
X175914286Y-79169771D02*
X176142857Y-79169771D01*
X176142857Y-79169771D02*
X176200000Y-79198342D01*
X176200000Y-79198342D02*
X176228571Y-79226914D01*
X176228571Y-79226914D02*
X176257143Y-79284057D01*
X176257143Y-79284057D02*
X176257143Y-79369771D01*
X176257143Y-79369771D02*
X176228571Y-79426914D01*
X176228571Y-79426914D02*
X176200000Y-79455485D01*
X176200000Y-79455485D02*
X176142857Y-79484057D01*
X176142857Y-79484057D02*
X175914286Y-79484057D01*
X170192857Y-56576914D02*
X170135714Y-56548342D01*
X170135714Y-56548342D02*
X170078571Y-56491200D01*
X170078571Y-56491200D02*
X169992857Y-56405485D01*
X169992857Y-56405485D02*
X169935714Y-56376914D01*
X169935714Y-56376914D02*
X169878571Y-56376914D01*
X169907142Y-56519771D02*
X169850000Y-56491200D01*
X169850000Y-56491200D02*
X169792857Y-56434057D01*
X169792857Y-56434057D02*
X169764285Y-56319771D01*
X169764285Y-56319771D02*
X169764285Y-56119771D01*
X169764285Y-56119771D02*
X169792857Y-56005485D01*
X169792857Y-56005485D02*
X169850000Y-55948342D01*
X169850000Y-55948342D02*
X169907142Y-55919771D01*
X169907142Y-55919771D02*
X170021428Y-55919771D01*
X170021428Y-55919771D02*
X170078571Y-55948342D01*
X170078571Y-55948342D02*
X170135714Y-56005485D01*
X170135714Y-56005485D02*
X170164285Y-56119771D01*
X170164285Y-56119771D02*
X170164285Y-56319771D01*
X170164285Y-56319771D02*
X170135714Y-56434057D01*
X170135714Y-56434057D02*
X170078571Y-56491200D01*
X170078571Y-56491200D02*
X170021428Y-56519771D01*
X170021428Y-56519771D02*
X169907142Y-56519771D01*
X170735713Y-56519771D02*
X170392856Y-56519771D01*
X170564285Y-56519771D02*
X170564285Y-55919771D01*
X170564285Y-55919771D02*
X170507142Y-56005485D01*
X170507142Y-56005485D02*
X170449999Y-56062628D01*
X170449999Y-56062628D02*
X170392856Y-56091200D01*
X170871427Y-61726914D02*
X170899999Y-61698342D01*
X170899999Y-61698342D02*
X170957142Y-61669771D01*
X170957142Y-61669771D02*
X171099999Y-61669771D01*
X171099999Y-61669771D02*
X171157142Y-61698342D01*
X171157142Y-61698342D02*
X171185713Y-61726914D01*
X171185713Y-61726914D02*
X171214284Y-61784057D01*
X171214284Y-61784057D02*
X171214284Y-61841200D01*
X171214284Y-61841200D02*
X171185713Y-61926914D01*
X171185713Y-61926914D02*
X170842856Y-62269771D01*
X170842856Y-62269771D02*
X171214284Y-62269771D01*
X171471428Y-62269771D02*
X171471428Y-61669771D01*
X171471428Y-61669771D02*
X171814285Y-62269771D01*
X171814285Y-62269771D02*
X171814285Y-61669771D01*
X172042856Y-61669771D02*
X172414284Y-61669771D01*
X172414284Y-61669771D02*
X172214284Y-61898342D01*
X172214284Y-61898342D02*
X172299999Y-61898342D01*
X172299999Y-61898342D02*
X172357142Y-61926914D01*
X172357142Y-61926914D02*
X172385713Y-61955485D01*
X172385713Y-61955485D02*
X172414284Y-62012628D01*
X172414284Y-62012628D02*
X172414284Y-62155485D01*
X172414284Y-62155485D02*
X172385713Y-62212628D01*
X172385713Y-62212628D02*
X172357142Y-62241200D01*
X172357142Y-62241200D02*
X172299999Y-62269771D01*
X172299999Y-62269771D02*
X172128570Y-62269771D01*
X172128570Y-62269771D02*
X172071427Y-62241200D01*
X172071427Y-62241200D02*
X172042856Y-62212628D01*
X172699999Y-62269771D02*
X172814285Y-62269771D01*
X172814285Y-62269771D02*
X172871428Y-62241200D01*
X172871428Y-62241200D02*
X172899999Y-62212628D01*
X172899999Y-62212628D02*
X172957142Y-62126914D01*
X172957142Y-62126914D02*
X172985713Y-62012628D01*
X172985713Y-62012628D02*
X172985713Y-61784057D01*
X172985713Y-61784057D02*
X172957142Y-61726914D01*
X172957142Y-61726914D02*
X172928571Y-61698342D01*
X172928571Y-61698342D02*
X172871428Y-61669771D01*
X172871428Y-61669771D02*
X172757142Y-61669771D01*
X172757142Y-61669771D02*
X172699999Y-61698342D01*
X172699999Y-61698342D02*
X172671428Y-61726914D01*
X172671428Y-61726914D02*
X172642856Y-61784057D01*
X172642856Y-61784057D02*
X172642856Y-61926914D01*
X172642856Y-61926914D02*
X172671428Y-61984057D01*
X172671428Y-61984057D02*
X172699999Y-62012628D01*
X172699999Y-62012628D02*
X172757142Y-62041200D01*
X172757142Y-62041200D02*
X172871428Y-62041200D01*
X172871428Y-62041200D02*
X172928571Y-62012628D01*
X172928571Y-62012628D02*
X172957142Y-61984057D01*
X172957142Y-61984057D02*
X172985713Y-61926914D01*
X173357142Y-61669771D02*
X173414285Y-61669771D01*
X173414285Y-61669771D02*
X173471428Y-61698342D01*
X173471428Y-61698342D02*
X173500000Y-61726914D01*
X173500000Y-61726914D02*
X173528571Y-61784057D01*
X173528571Y-61784057D02*
X173557142Y-61898342D01*
X173557142Y-61898342D02*
X173557142Y-62041200D01*
X173557142Y-62041200D02*
X173528571Y-62155485D01*
X173528571Y-62155485D02*
X173500000Y-62212628D01*
X173500000Y-62212628D02*
X173471428Y-62241200D01*
X173471428Y-62241200D02*
X173414285Y-62269771D01*
X173414285Y-62269771D02*
X173357142Y-62269771D01*
X173357142Y-62269771D02*
X173300000Y-62241200D01*
X173300000Y-62241200D02*
X173271428Y-62212628D01*
X173271428Y-62212628D02*
X173242857Y-62155485D01*
X173242857Y-62155485D02*
X173214285Y-62041200D01*
X173214285Y-62041200D02*
X173214285Y-61898342D01*
X173214285Y-61898342D02*
X173242857Y-61784057D01*
X173242857Y-61784057D02*
X173271428Y-61726914D01*
X173271428Y-61726914D02*
X173300000Y-61698342D01*
X173300000Y-61698342D02*
X173357142Y-61669771D01*
X174071429Y-61869771D02*
X174071429Y-62269771D01*
X173928571Y-61641200D02*
X173785714Y-62069771D01*
X173785714Y-62069771D02*
X174157143Y-62069771D01*
X161269771Y-86599999D02*
X160984057Y-86799999D01*
X161269771Y-86942856D02*
X160669771Y-86942856D01*
X160669771Y-86942856D02*
X160669771Y-86714285D01*
X160669771Y-86714285D02*
X160698342Y-86657142D01*
X160698342Y-86657142D02*
X160726914Y-86628571D01*
X160726914Y-86628571D02*
X160784057Y-86599999D01*
X160784057Y-86599999D02*
X160869771Y-86599999D01*
X160869771Y-86599999D02*
X160926914Y-86628571D01*
X160926914Y-86628571D02*
X160955485Y-86657142D01*
X160955485Y-86657142D02*
X160984057Y-86714285D01*
X160984057Y-86714285D02*
X160984057Y-86942856D01*
X160669771Y-86399999D02*
X160669771Y-85999999D01*
X160669771Y-85999999D02*
X161269771Y-86257142D01*
X141900000Y-71212628D02*
X141871428Y-71241200D01*
X141871428Y-71241200D02*
X141785714Y-71269771D01*
X141785714Y-71269771D02*
X141728571Y-71269771D01*
X141728571Y-71269771D02*
X141642857Y-71241200D01*
X141642857Y-71241200D02*
X141585714Y-71184057D01*
X141585714Y-71184057D02*
X141557143Y-71126914D01*
X141557143Y-71126914D02*
X141528571Y-71012628D01*
X141528571Y-71012628D02*
X141528571Y-70926914D01*
X141528571Y-70926914D02*
X141557143Y-70812628D01*
X141557143Y-70812628D02*
X141585714Y-70755485D01*
X141585714Y-70755485D02*
X141642857Y-70698342D01*
X141642857Y-70698342D02*
X141728571Y-70669771D01*
X141728571Y-70669771D02*
X141785714Y-70669771D01*
X141785714Y-70669771D02*
X141871428Y-70698342D01*
X141871428Y-70698342D02*
X141900000Y-70726914D01*
X142100000Y-70669771D02*
X142471428Y-70669771D01*
X142471428Y-70669771D02*
X142271428Y-70898342D01*
X142271428Y-70898342D02*
X142357143Y-70898342D01*
X142357143Y-70898342D02*
X142414286Y-70926914D01*
X142414286Y-70926914D02*
X142442857Y-70955485D01*
X142442857Y-70955485D02*
X142471428Y-71012628D01*
X142471428Y-71012628D02*
X142471428Y-71155485D01*
X142471428Y-71155485D02*
X142442857Y-71212628D01*
X142442857Y-71212628D02*
X142414286Y-71241200D01*
X142414286Y-71241200D02*
X142357143Y-71269771D01*
X142357143Y-71269771D02*
X142185714Y-71269771D01*
X142185714Y-71269771D02*
X142128571Y-71241200D01*
X142128571Y-71241200D02*
X142100000Y-71212628D01*
X141800000Y-76869771D02*
X141800000Y-77269771D01*
X141657142Y-76641200D02*
X141514285Y-77069771D01*
X141514285Y-77069771D02*
X141885714Y-77069771D01*
X142057143Y-76669771D02*
X142457143Y-76669771D01*
X142457143Y-76669771D02*
X142200000Y-77269771D01*
X142942858Y-76869771D02*
X142942858Y-77269771D01*
X142685715Y-76869771D02*
X142685715Y-77184057D01*
X142685715Y-77184057D02*
X142714286Y-77241200D01*
X142714286Y-77241200D02*
X142771429Y-77269771D01*
X142771429Y-77269771D02*
X142857143Y-77269771D01*
X142857143Y-77269771D02*
X142914286Y-77241200D01*
X142914286Y-77241200D02*
X142942858Y-77212628D01*
X143428572Y-76955485D02*
X143228572Y-76955485D01*
X143228572Y-77269771D02*
X143228572Y-76669771D01*
X143228572Y-76669771D02*
X143514286Y-76669771D01*
X145400000Y-126062628D02*
X145371428Y-126091200D01*
X145371428Y-126091200D02*
X145285714Y-126119771D01*
X145285714Y-126119771D02*
X145228571Y-126119771D01*
X145228571Y-126119771D02*
X145142857Y-126091200D01*
X145142857Y-126091200D02*
X145085714Y-126034057D01*
X145085714Y-126034057D02*
X145057143Y-125976914D01*
X145057143Y-125976914D02*
X145028571Y-125862628D01*
X145028571Y-125862628D02*
X145028571Y-125776914D01*
X145028571Y-125776914D02*
X145057143Y-125662628D01*
X145057143Y-125662628D02*
X145085714Y-125605485D01*
X145085714Y-125605485D02*
X145142857Y-125548342D01*
X145142857Y-125548342D02*
X145228571Y-125519771D01*
X145228571Y-125519771D02*
X145285714Y-125519771D01*
X145285714Y-125519771D02*
X145371428Y-125548342D01*
X145371428Y-125548342D02*
X145400000Y-125576914D01*
X145628571Y-125576914D02*
X145657143Y-125548342D01*
X145657143Y-125548342D02*
X145714286Y-125519771D01*
X145714286Y-125519771D02*
X145857143Y-125519771D01*
X145857143Y-125519771D02*
X145914286Y-125548342D01*
X145914286Y-125548342D02*
X145942857Y-125576914D01*
X145942857Y-125576914D02*
X145971428Y-125634057D01*
X145971428Y-125634057D02*
X145971428Y-125691200D01*
X145971428Y-125691200D02*
X145942857Y-125776914D01*
X145942857Y-125776914D02*
X145600000Y-126119771D01*
X145600000Y-126119771D02*
X145971428Y-126119771D01*
X159400000Y-60712628D02*
X159371428Y-60741200D01*
X159371428Y-60741200D02*
X159285714Y-60769771D01*
X159285714Y-60769771D02*
X159228571Y-60769771D01*
X159228571Y-60769771D02*
X159142857Y-60741200D01*
X159142857Y-60741200D02*
X159085714Y-60684057D01*
X159085714Y-60684057D02*
X159057143Y-60626914D01*
X159057143Y-60626914D02*
X159028571Y-60512628D01*
X159028571Y-60512628D02*
X159028571Y-60426914D01*
X159028571Y-60426914D02*
X159057143Y-60312628D01*
X159057143Y-60312628D02*
X159085714Y-60255485D01*
X159085714Y-60255485D02*
X159142857Y-60198342D01*
X159142857Y-60198342D02*
X159228571Y-60169771D01*
X159228571Y-60169771D02*
X159285714Y-60169771D01*
X159285714Y-60169771D02*
X159371428Y-60198342D01*
X159371428Y-60198342D02*
X159400000Y-60226914D01*
X159971428Y-60769771D02*
X159628571Y-60769771D01*
X159800000Y-60769771D02*
X159800000Y-60169771D01*
X159800000Y-60169771D02*
X159742857Y-60255485D01*
X159742857Y-60255485D02*
X159685714Y-60312628D01*
X159685714Y-60312628D02*
X159628571Y-60341200D01*
X173400000Y-74769771D02*
X173200000Y-74484057D01*
X173057143Y-74769771D02*
X173057143Y-74169771D01*
X173057143Y-74169771D02*
X173285714Y-74169771D01*
X173285714Y-74169771D02*
X173342857Y-74198342D01*
X173342857Y-74198342D02*
X173371428Y-74226914D01*
X173371428Y-74226914D02*
X173400000Y-74284057D01*
X173400000Y-74284057D02*
X173400000Y-74369771D01*
X173400000Y-74369771D02*
X173371428Y-74426914D01*
X173371428Y-74426914D02*
X173342857Y-74455485D01*
X173342857Y-74455485D02*
X173285714Y-74484057D01*
X173285714Y-74484057D02*
X173057143Y-74484057D01*
X173628571Y-74226914D02*
X173657143Y-74198342D01*
X173657143Y-74198342D02*
X173714286Y-74169771D01*
X173714286Y-74169771D02*
X173857143Y-74169771D01*
X173857143Y-74169771D02*
X173914286Y-74198342D01*
X173914286Y-74198342D02*
X173942857Y-74226914D01*
X173942857Y-74226914D02*
X173971428Y-74284057D01*
X173971428Y-74284057D02*
X173971428Y-74341200D01*
X173971428Y-74341200D02*
X173942857Y-74426914D01*
X173942857Y-74426914D02*
X173600000Y-74769771D01*
X173600000Y-74769771D02*
X173971428Y-74769771D01*
X172871428Y-79769771D02*
X172528571Y-79769771D01*
X172700000Y-79769771D02*
X172700000Y-79169771D01*
X172700000Y-79169771D02*
X172642857Y-79255485D01*
X172642857Y-79255485D02*
X172585714Y-79312628D01*
X172585714Y-79312628D02*
X172528571Y-79341200D01*
X173128572Y-79769771D02*
X173128572Y-79169771D01*
X173471429Y-79769771D02*
X173214286Y-79426914D01*
X173471429Y-79169771D02*
X173128572Y-79512628D01*
X146057143Y-63769771D02*
X146057143Y-63169771D01*
X146057143Y-63169771D02*
X146200000Y-63169771D01*
X146200000Y-63169771D02*
X146285714Y-63198342D01*
X146285714Y-63198342D02*
X146342857Y-63255485D01*
X146342857Y-63255485D02*
X146371428Y-63312628D01*
X146371428Y-63312628D02*
X146400000Y-63426914D01*
X146400000Y-63426914D02*
X146400000Y-63512628D01*
X146400000Y-63512628D02*
X146371428Y-63626914D01*
X146371428Y-63626914D02*
X146342857Y-63684057D01*
X146342857Y-63684057D02*
X146285714Y-63741200D01*
X146285714Y-63741200D02*
X146200000Y-63769771D01*
X146200000Y-63769771D02*
X146057143Y-63769771D01*
X146971428Y-63769771D02*
X146628571Y-63769771D01*
X146800000Y-63769771D02*
X146800000Y-63169771D01*
X146800000Y-63169771D02*
X146742857Y-63255485D01*
X146742857Y-63255485D02*
X146685714Y-63312628D01*
X146685714Y-63312628D02*
X146628571Y-63341200D01*
X150857142Y-66848342D02*
X151142857Y-66848342D01*
X150799999Y-67019771D02*
X150999999Y-66419771D01*
X150999999Y-66419771D02*
X151199999Y-67019771D01*
X144307143Y-63769771D02*
X144307143Y-63169771D01*
X144307143Y-63169771D02*
X144450000Y-63169771D01*
X144450000Y-63169771D02*
X144535714Y-63198342D01*
X144535714Y-63198342D02*
X144592857Y-63255485D01*
X144592857Y-63255485D02*
X144621428Y-63312628D01*
X144621428Y-63312628D02*
X144650000Y-63426914D01*
X144650000Y-63426914D02*
X144650000Y-63512628D01*
X144650000Y-63512628D02*
X144621428Y-63626914D01*
X144621428Y-63626914D02*
X144592857Y-63684057D01*
X144592857Y-63684057D02*
X144535714Y-63741200D01*
X144535714Y-63741200D02*
X144450000Y-63769771D01*
X144450000Y-63769771D02*
X144307143Y-63769771D01*
X144850000Y-63169771D02*
X145221428Y-63169771D01*
X145221428Y-63169771D02*
X145021428Y-63398342D01*
X145021428Y-63398342D02*
X145107143Y-63398342D01*
X145107143Y-63398342D02*
X145164286Y-63426914D01*
X145164286Y-63426914D02*
X145192857Y-63455485D01*
X145192857Y-63455485D02*
X145221428Y-63512628D01*
X145221428Y-63512628D02*
X145221428Y-63655485D01*
X145221428Y-63655485D02*
X145192857Y-63712628D01*
X145192857Y-63712628D02*
X145164286Y-63741200D01*
X145164286Y-63741200D02*
X145107143Y-63769771D01*
X145107143Y-63769771D02*
X144935714Y-63769771D01*
X144935714Y-63769771D02*
X144878571Y-63741200D01*
X144878571Y-63741200D02*
X144850000Y-63712628D01*
X140357142Y-64348342D02*
X140642857Y-64348342D01*
X140299999Y-64519771D02*
X140499999Y-63919771D01*
X140499999Y-63919771D02*
X140699999Y-64519771D01*
%TO.C,TP9*%
D11*
X174950000Y-110000000D02*
G75*
G02*
X173550000Y-110000000I-700000J0D01*
G01*
X173550000Y-110000000D02*
G75*
G02*
X174950000Y-110000000I700000J0D01*
G01*
%TO.C,TP8*%
X167450000Y-77500000D02*
G75*
G02*
X166050000Y-77500000I-700000J0D01*
G01*
X166050000Y-77500000D02*
G75*
G02*
X167450000Y-77500000I700000J0D01*
G01*
%TO.C,TP6*%
X160200000Y-75250000D02*
G75*
G02*
X158800000Y-75250000I-700000J0D01*
G01*
X158800000Y-75250000D02*
G75*
G02*
X160200000Y-75250000I700000J0D01*
G01*
%TO.C,J6*%
X168370000Y-82560000D02*
X169750000Y-82560000D01*
X168370000Y-83940000D02*
X168370000Y-82560000D01*
X168370000Y-85210000D02*
X168370000Y-92940000D01*
X168370000Y-85210000D02*
X171130000Y-85210000D01*
X168370000Y-92940000D02*
X171130000Y-92940000D01*
X171130000Y-85210000D02*
X171130000Y-92940000D01*
%TO.C,J5*%
X151120000Y-76580000D02*
X152500000Y-76580000D01*
X151120000Y-77960000D02*
X151120000Y-76580000D01*
X151120000Y-79230000D02*
X151120000Y-97120000D01*
X151120000Y-79230000D02*
X153880000Y-79230000D01*
X151120000Y-97120000D02*
X153880000Y-97120000D01*
X153880000Y-79230000D02*
X153880000Y-97120000D01*
%TO.C,J4*%
X146880000Y-97170000D02*
X145500000Y-97170000D01*
X146880000Y-95790000D02*
X146880000Y-97170000D01*
X146880000Y-94520000D02*
X146880000Y-76630000D01*
X146880000Y-94520000D02*
X144120000Y-94520000D01*
X146880000Y-76630000D02*
X144120000Y-76630000D01*
X144120000Y-94520000D02*
X144120000Y-76630000D01*
%TO.C,D6*%
X165260000Y-99000000D02*
X163340000Y-99000000D01*
X163340000Y-99000000D02*
X163340000Y-99800000D01*
X165260000Y-99800000D02*
X165260000Y-99000000D01*
%TO.C,D7*%
X176460000Y-99000000D02*
X174540000Y-99000000D01*
X174540000Y-99000000D02*
X174540000Y-99800000D01*
X176460000Y-99800000D02*
X176460000Y-99000000D01*
%TO.C,D5*%
X156660000Y-99000000D02*
X154740000Y-99000000D01*
X154740000Y-99000000D02*
X154740000Y-99800000D01*
X156660000Y-99800000D02*
X156660000Y-99000000D01*
%TO.C,D4*%
X145460000Y-99000000D02*
X143540000Y-99000000D01*
X143540000Y-99000000D02*
X143540000Y-99800000D01*
X145460000Y-99800000D02*
X145460000Y-99000000D01*
%TO.C,A1*%
X169610000Y-152570000D02*
X170090000Y-152570000D01*
X169610000Y-152570000D02*
X169610000Y-152150000D01*
X169610000Y-150030000D02*
X169610000Y-149610000D01*
X169610000Y-147490000D02*
X169610000Y-147070000D01*
X169610000Y-144950000D02*
X169610000Y-144530000D01*
X169610000Y-142410000D02*
X169610000Y-141990000D01*
X169610000Y-139870000D02*
X169610000Y-139450000D01*
X169610000Y-137330000D02*
X169610000Y-136910000D01*
X169610000Y-134790000D02*
X169610000Y-134370000D01*
X169610000Y-132250000D02*
X169610000Y-131830000D01*
X169610000Y-129710000D02*
X169610000Y-129290000D01*
X169610000Y-127170000D02*
X169610000Y-126750000D01*
X169610000Y-124630000D02*
X169610000Y-124210000D01*
X169610000Y-122090000D02*
X169610000Y-121670000D01*
X169610000Y-119550000D02*
X169610000Y-119130000D01*
X169610000Y-117010000D02*
X169610000Y-116590000D01*
X169610000Y-114470000D02*
X169610000Y-114050000D01*
X169610000Y-111930000D02*
X169610000Y-111510000D01*
X169610000Y-109390000D02*
X169610000Y-108970000D01*
X169610000Y-106850000D02*
X169610000Y-106430000D01*
X169000000Y-103890000D02*
X165162061Y-103890000D01*
X162600000Y-103890000D02*
X164237939Y-103890000D01*
X153762061Y-103890000D02*
X155400000Y-103890000D01*
X152837939Y-103890000D02*
X149000000Y-103890000D01*
X148390000Y-152570000D02*
X148390000Y-152150000D01*
X148390000Y-150030000D02*
X148390000Y-149610000D01*
X148390000Y-147490000D02*
X148390000Y-147070000D01*
X148390000Y-144950000D02*
X148390000Y-144530000D01*
X148390000Y-142410000D02*
X148390000Y-141990000D01*
X148390000Y-139870000D02*
X148390000Y-139450000D01*
X148390000Y-137330000D02*
X148390000Y-136910000D01*
X148390000Y-134790000D02*
X148390000Y-134370000D01*
X148390000Y-132250000D02*
X148390000Y-131830000D01*
X148390000Y-129710000D02*
X148390000Y-129290000D01*
X148390000Y-127170000D02*
X148390000Y-126750000D01*
X148390000Y-124630000D02*
X148390000Y-124210000D01*
X148390000Y-122090000D02*
X148390000Y-121670000D01*
X148390000Y-119550000D02*
X148390000Y-119130000D01*
X148390000Y-117010000D02*
X148390000Y-116590000D01*
X148390000Y-114470000D02*
X148390000Y-114050000D01*
X148390000Y-111930000D02*
X148390000Y-111510000D01*
X148390000Y-109390000D02*
X148390000Y-108970000D01*
X148390000Y-106850000D02*
X148390000Y-106430000D01*
D12*
X160800000Y-103890000D02*
X162300000Y-103890000D01*
X162300000Y-106300000D01*
X160800000Y-106300000D01*
X160800000Y-103890000D01*
X155600000Y-152500000D02*
X162200000Y-152500000D01*
X162200000Y-154600000D01*
X155600000Y-154600000D01*
X155600000Y-152500000D01*
X160900000Y-149800000D02*
X162200000Y-149800000D01*
X162200000Y-151200000D01*
X160900000Y-151200000D01*
X160900000Y-149800000D01*
X160800000Y-146300000D02*
X162200000Y-146300000D01*
X162200000Y-147700000D01*
X160800000Y-147700000D01*
X160800000Y-146300000D01*
X160800000Y-143800000D02*
X162200000Y-143800000D01*
X162200000Y-145200000D01*
X160800000Y-145200000D01*
X160800000Y-143800000D01*
X160800000Y-141300000D02*
X162200000Y-141300000D01*
X162200000Y-142700000D01*
X160800000Y-142700000D01*
X160800000Y-141300000D01*
X158300000Y-103890000D02*
X159800000Y-103890000D01*
X159800000Y-106300000D01*
X158300000Y-106300000D01*
X158300000Y-103890000D01*
X158300000Y-149800000D02*
X159700000Y-149800000D01*
X159700000Y-151200000D01*
X158300000Y-151200000D01*
X158300000Y-149800000D01*
X156900000Y-133400000D02*
X159100000Y-133400000D01*
X159100000Y-135600000D01*
X156900000Y-135600000D01*
X156900000Y-133400000D01*
X155800000Y-103890000D02*
X157200000Y-103890000D01*
X157200000Y-106300000D01*
X155800000Y-106300000D01*
X155800000Y-103890000D01*
X155900000Y-149700000D02*
X157100000Y-149700000D01*
X157100000Y-151200000D01*
X155900000Y-151200000D01*
X155900000Y-149700000D01*
%TO.C,C6*%
D11*
X164285000Y-59635000D02*
X164285000Y-57365000D01*
X164285000Y-57365000D02*
X160400000Y-57365000D01*
X160400000Y-59635000D02*
X164285000Y-59635000D01*
%TO.C,R3*%
X147265000Y-72977064D02*
X147265000Y-72522936D01*
X148735000Y-72977064D02*
X148735000Y-72522936D01*
%TO.C,D2*%
X177486463Y-62480000D02*
G75*
G02*
X177486463Y-64520000I1058537J-1020000D01*
G01*
%TO.C,R4*%
X170265000Y-77227064D02*
X170265000Y-76772936D01*
X171735000Y-77227064D02*
X171735000Y-76772936D01*
%TO.C,Q3*%
X169900000Y-51450000D02*
X169900000Y-55050000D01*
X169911522Y-51411522D02*
G75*
G02*
X174350001Y-53250000I1838478J-1838478D01*
G01*
X174350000Y-53250000D02*
G75*
G02*
X169911522Y-55088478I-2600000J0D01*
G01*
%TO.C,R5*%
X156265000Y-89139564D02*
X156265000Y-88685436D01*
X157735000Y-89139564D02*
X157735000Y-88685436D01*
%TO.C,C4*%
X179460000Y-75315000D02*
X177540000Y-75315000D01*
X177540000Y-75315000D02*
X177540000Y-78000000D01*
X179460000Y-78000000D02*
X179460000Y-75315000D01*
%TO.C,R6*%
X158265000Y-89139564D02*
X158265000Y-88685436D01*
X159735000Y-89139564D02*
X159735000Y-88685436D01*
%TO.C,R8*%
X162265000Y-89139564D02*
X162265000Y-88685436D01*
X163735000Y-89139564D02*
X163735000Y-88685436D01*
%TO.C,C5*%
X159000000Y-98460000D02*
X161685000Y-98460000D01*
X161685000Y-96540000D02*
X159000000Y-96540000D01*
X161685000Y-98460000D02*
X161685000Y-96540000D01*
%TO.C,Q2*%
X153050000Y-58150000D02*
X149450000Y-58150000D01*
X153088478Y-58161522D02*
G75*
G02*
X151250000Y-62600001I-1838478J-1838478D01*
G01*
X151250000Y-62600000D02*
G75*
G02*
X149411522Y-58161522I0J2600000D01*
G01*
%TO.C,R1*%
X175265000Y-77227064D02*
X175265000Y-76772936D01*
X176735000Y-77227064D02*
X176735000Y-76772936D01*
%TO.C,Q1*%
X174350000Y-60530000D02*
X174350000Y-56930000D01*
X174338478Y-60568478D02*
G75*
G02*
X169899999Y-58730000I-1838478J1838478D01*
G01*
X169900000Y-58730000D02*
G75*
G02*
X174338478Y-56891522I2600000J0D01*
G01*
%TO.C,R7*%
X160265000Y-89139564D02*
X160265000Y-88685436D01*
X161735000Y-89139564D02*
X161735000Y-88685436D01*
%TO.C,C3*%
X143410000Y-73288748D02*
X143410000Y-74711252D01*
X141590000Y-73288748D02*
X141590000Y-74711252D01*
%TO.C,C2*%
X143815000Y-126540000D02*
X143815000Y-128460000D01*
X143815000Y-128460000D02*
X146500000Y-128460000D01*
X146500000Y-126540000D02*
X143815000Y-126540000D01*
%TO.C,C1*%
X161000000Y-61960000D02*
X163685000Y-61960000D01*
X163685000Y-60040000D02*
X161000000Y-60040000D01*
X163685000Y-61960000D02*
X163685000Y-60040000D01*
%TO.C,R2*%
X172765000Y-77227064D02*
X172765000Y-76772936D01*
X174235000Y-77227064D02*
X174235000Y-76772936D01*
%TO.C,D1*%
X148518537Y-66520000D02*
G75*
G02*
X148518537Y-64480000I-1058537J1020000D01*
G01*
%TO.C,D3*%
X142941463Y-64480000D02*
G75*
G02*
X142941463Y-66520000I1058537J-1020000D01*
G01*
%TD*%
M02*
