%TF.GenerationSoftware,KiCad,Pcbnew,10.0.5*%
%TF.CreationDate,2026-09-12T21:28:26+12:00*%
%TF.ProjectId,3310_pico,33333130-5f70-4696-936f-2e6b69636164,rev?*%
%TF.SameCoordinates,Original*%
%TF.FileFunction,Soldermask,Top*%
%TF.FilePolarity,Negative*%
%FSLAX46Y46*%
G04 Gerber Fmt 4.6, Leading zero omitted, Abs format (unit mm)*
G04 Created by KiCad (PCBNEW 10.0.5) date 2026-09-12 21:28:26*
%MOMM*%
%LPD*%
G01*
G04 APERTURE LIST*
G04 Aperture macros list*
%AMRoundRect*
0 Rectangle with rounded corners*
0 $1 Rounding radius*
0 $2 $3 $4 $5 $6 $7 $8 $9 X,Y pos of 4 corners*
0 Add a 4 corners polygon primitive as box body*
4,1,4,$2,$3,$4,$5,$6,$7,$8,$9,$2,$3,0*
0 Add four circle primitives for the rounded corners*
1,1,$1+$1,$2,$3*
1,1,$1+$1,$4,$5*
1,1,$1+$1,$6,$7*
1,1,$1+$1,$8,$9*
0 Add four rect primitives between the rounded corners*
20,1,$1+$1,$2,$3,$4,$5,0*
20,1,$1+$1,$4,$5,$6,$7,0*
20,1,$1+$1,$6,$7,$8,$9,0*
20,1,$1+$1,$8,$9,$2,$3,0*%
%AMOutline5P*
0 Free polygon, 5 corners , with rotation*
0 The origin of the aperture is its center*
0 number of corners: always 5*
0 $1 to $10 corner X, Y*
0 $11 Rotation angle, in degrees counterclockwise*
0 create outline with 5 corners*
4,1,5,$1,$2,$3,$4,$5,$6,$7,$8,$9,$10,$1,$2,$11*%
%AMOutline6P*
0 Free polygon, 6 corners , with rotation*
0 The origin of the aperture is its center*
0 number of corners: always 6*
0 $1 to $12 corner X, Y*
0 $13 Rotation angle, in degrees counterclockwise*
0 create outline with 6 corners*
4,1,6,$1,$2,$3,$4,$5,$6,$7,$8,$9,$10,$11,$12,$1,$2,$13*%
%AMOutline7P*
0 Free polygon, 7 corners , with rotation*
0 The origin of the aperture is its center*
0 number of corners: always 7*
0 $1 to $14 corner X, Y*
0 $15 Rotation angle, in degrees counterclockwise*
0 create outline with 7 corners*
4,1,7,$1,$2,$3,$4,$5,$6,$7,$8,$9,$10,$11,$12,$13,$14,$1,$2,$15*%
%AMOutline8P*
0 Free polygon, 8 corners , with rotation*
0 The origin of the aperture is its center*
0 number of corners: always 8*
0 $1 to $16 corner X, Y*
0 $17 Rotation angle, in degrees counterclockwise*
0 create outline with 8 corners*
4,1,8,$1,$2,$3,$4,$5,$6,$7,$8,$9,$10,$11,$12,$13,$14,$15,$16,$1,$2,$17*%
%AMFreePoly0*
4,1,37,1.403843,0.796157,1.439018,0.796157,1.511114,0.766294,1.566294,0.711114,1.596157,0.639018,1.596157,0.603843,1.600000,0.600000,1.600000,-0.600000,1.596157,-0.603843,1.596157,-0.639018,1.566294,-0.711114,1.511114,-0.766294,1.439018,-0.796157,1.403843,-0.796157,1.400000,-0.800000,-0.800000,-0.800000,-0.800000,-0.796148,-0.878414,-0.796148,-1.032228,-0.765552,-1.177117,-0.705537,
-1.307515,-0.618408,-1.418408,-0.507515,-1.505537,-0.377117,-1.565552,-0.232228,-1.596148,-0.078414,-1.596148,0.078414,-1.565552,0.232228,-1.505537,0.377117,-1.418408,0.507515,-1.307515,0.618408,-1.177117,0.705537,-1.032228,0.765552,-0.878414,0.796148,-0.800000,0.796148,-0.800000,0.800000,1.400000,0.800000,1.403843,0.796157,1.403843,0.796157,$1*%
%AMFreePoly1*
4,1,37,0.800000,0.796148,0.878414,0.796148,1.032228,0.765552,1.177117,0.705537,1.307515,0.618408,1.418408,0.507515,1.505537,0.377117,1.565552,0.232228,1.596148,0.078414,1.596148,-0.078414,1.565552,-0.232228,1.505537,-0.377117,1.418408,-0.507515,1.307515,-0.618408,1.177117,-0.705537,1.032228,-0.765552,0.878414,-0.796148,0.800000,-0.796148,0.800000,-0.800000,-1.400000,-0.800000,
-1.403843,-0.796157,-1.439018,-0.796157,-1.511114,-0.766294,-1.566294,-0.711114,-1.596157,-0.639018,-1.596157,-0.603843,-1.600000,-0.600000,-1.600000,0.600000,-1.596157,0.603843,-1.596157,0.639018,-1.566294,0.711114,-1.511114,0.766294,-1.439018,0.796157,-1.403843,0.796157,-1.400000,0.800000,0.800000,0.800000,0.800000,0.796148,0.800000,0.796148,$1*%
G04 Aperture macros list end*
%ADD10RoundRect,0.800000X0.800000X0.000010X-0.800000X0.000010X-0.800000X-0.000010X0.800000X-0.000010X0*%
%ADD11FreePoly0,180.000000*%
%ADD12FreePoly1,180.000000*%
%ADD13RoundRect,0.150000X-0.150000X0.587500X-0.150000X-0.587500X0.150000X-0.587500X0.150000X0.587500X0*%
%ADD14RoundRect,0.150000X0.587500X0.150000X-0.587500X0.150000X-0.587500X-0.150000X0.587500X-0.150000X0*%
%ADD15C,2.200000*%
%ADD16RoundRect,0.150000X0.250000X-0.350000X0.250000X0.350000X-0.250000X0.350000X-0.250000X-0.350000X0*%
%ADD17RoundRect,0.400000X0.000010X-0.200000X0.000010X0.200000X-0.000010X0.200000X-0.000010X-0.200000X0*%
%ADD18RoundRect,0.250000X0.262500X0.450000X-0.262500X0.450000X-0.262500X-0.450000X0.262500X-0.450000X0*%
%ADD19RoundRect,0.250000X-0.262500X-0.450000X0.262500X-0.450000X0.262500X0.450000X-0.262500X0.450000X0*%
%ADD20C,1.000000*%
%ADD21C,2.500000*%
%ADD22RoundRect,0.225000X-0.225000X-0.375000X0.225000X-0.375000X0.225000X0.375000X-0.225000X0.375000X0*%
%ADD23RoundRect,0.250000X-0.450000X0.262500X-0.450000X-0.262500X0.450000X-0.262500X0.450000X0.262500X0*%
%ADD24C,2.800000*%
%ADD25RoundRect,0.250000X0.450000X-0.262500X0.450000X0.262500X-0.450000X0.262500X-0.450000X-0.262500X0*%
%ADD26RoundRect,0.243750X-0.456250X0.243750X-0.456250X-0.243750X0.456250X-0.243750X0.456250X0.243750X0*%
%ADD27RoundRect,0.250000X0.450000X0.275000X-0.450000X0.275000X-0.450000X-0.275000X0.450000X-0.275000X0*%
%ADD28RoundRect,0.250000X0.375000X0.625000X-0.375000X0.625000X-0.375000X-0.625000X0.375000X-0.625000X0*%
%ADD29RoundRect,0.243750X0.243750X0.456250X-0.243750X0.456250X-0.243750X-0.456250X0.243750X-0.456250X0*%
%ADD30C,2.600000*%
%ADD31RoundRect,0.300000X-0.700000X-1.200000X0.700000X-1.200000X0.700000X1.200000X-0.700000X1.200000X0*%
%ADD32RoundRect,0.150000X0.350000X0.250000X-0.350000X0.250000X-0.350000X-0.250000X0.350000X-0.250000X0*%
%ADD33RoundRect,0.400000X0.200000X0.000010X-0.200000X0.000010X-0.200000X-0.000010X0.200000X-0.000010X0*%
%ADD34RoundRect,0.150000X-0.587500X-0.150000X0.587500X-0.150000X0.587500X0.150000X-0.587500X0.150000X0*%
%ADD35RoundRect,0.240000X-0.560000X-1.760000X0.560000X-1.760000X0.560000X1.760000X-0.560000X1.760000X0*%
%ADD36RoundRect,0.250000X-0.325000X-0.650000X0.325000X-0.650000X0.325000X0.650000X-0.325000X0.650000X0*%
%ADD37RoundRect,0.243750X-0.243750X-0.456250X0.243750X-0.456250X0.243750X0.456250X-0.243750X0.456250X0*%
%ADD38RoundRect,0.384000X-2.176000X-0.896000X2.176000X-0.896000X2.176000X0.896000X-2.176000X0.896000X0*%
%ADD39Outline6P,-1.250000X1.250000X0.750000X1.250000X1.250000X0.750000X1.250000X-0.750000X0.750000X-1.250000X-1.250000X-1.250000X0.000000*%
%ADD40Outline6P,-1.250000X0.750000X-0.750000X1.250000X1.250000X1.250000X1.250000X-1.250000X-0.750000X-1.250000X-1.250000X-0.750000X0.000000*%
%ADD41RoundRect,0.250000X0.650000X-1.000000X0.650000X1.000000X-0.650000X1.000000X-0.650000X-1.000000X0*%
G04 APERTURE END LIST*
D10*
%TO.C,A1*%
X169600000Y-152000000D03*
X169690000Y-149590000D03*
D11*
X169690000Y-147050000D03*
D10*
X169690000Y-144510000D03*
X169690000Y-141970000D03*
X169690000Y-139430000D03*
X169690000Y-136890000D03*
D11*
X169690000Y-134350000D03*
D10*
X169690000Y-131810000D03*
X169690000Y-129270000D03*
X169690000Y-126730000D03*
X169690000Y-124190000D03*
D11*
X169690000Y-121650000D03*
D10*
X169690000Y-119110000D03*
X169690000Y-116570000D03*
X169690000Y-114030000D03*
X169690000Y-111490000D03*
D11*
X169690000Y-108950000D03*
D10*
X169690000Y-106410000D03*
X169690000Y-103870000D03*
X150310000Y-103870000D03*
X150310000Y-106410000D03*
D12*
X150310000Y-108950000D03*
D10*
X150310000Y-111490000D03*
X150310000Y-114030000D03*
X150310000Y-116570000D03*
X150310000Y-119110000D03*
D12*
X150310000Y-121650000D03*
D10*
X150310000Y-124190000D03*
X150310000Y-126730000D03*
X150310000Y-129270000D03*
X150310000Y-131810000D03*
D12*
X150310000Y-134350000D03*
D10*
X150310000Y-136890000D03*
X150310000Y-139430000D03*
X150310000Y-141970000D03*
X150310000Y-144510000D03*
D12*
X150310000Y-147050000D03*
D10*
X150310000Y-149590000D03*
X150400000Y-152000000D03*
%TD*%
D13*
%TO.C,Q1*%
X165700000Y-85625000D03*
X163800000Y-85625000D03*
X164750000Y-87500000D03*
%TD*%
D14*
%TO.C,Q6*%
X148737500Y-74550000D03*
X148737500Y-72650000D03*
X146862500Y-73600000D03*
%TD*%
D15*
%TO.C,D2*%
X175500000Y-101000000D03*
D16*
X176100000Y-99100000D03*
D17*
X176100000Y-102900000D03*
X174900000Y-102900000D03*
X174900000Y-99100000D03*
%TD*%
D18*
%TO.C,R7*%
X144662500Y-83250000D03*
X142837500Y-83250000D03*
%TD*%
D19*
%TO.C,R11*%
X152087500Y-70000000D03*
X153912500Y-70000000D03*
%TD*%
D20*
%TO.C,TP1*%
X161100000Y-47100000D03*
%TD*%
D21*
%TO.C,*%
X153650000Y-66500000D03*
%TD*%
D22*
%TO.C,D7*%
X175650000Y-93250000D03*
X178950000Y-93250000D03*
%TD*%
D23*
%TO.C,R1*%
X154250000Y-92087500D03*
X154250000Y-93912500D03*
%TD*%
D24*
%TO.C,*%
X143000000Y-50500000D03*
%TD*%
D25*
%TO.C,R2*%
X165250000Y-93912500D03*
X165250000Y-92087500D03*
%TD*%
D22*
%TO.C,D6*%
X142400000Y-89150000D03*
X145700000Y-89150000D03*
%TD*%
D26*
%TO.C,C5*%
X173350000Y-87362500D03*
X173350000Y-89237500D03*
%TD*%
D27*
%TO.C,SW1*%
X168900000Y-47720000D03*
X165300000Y-47720000D03*
X168900000Y-46280000D03*
X165300000Y-46280000D03*
%TD*%
D24*
%TO.C,*%
X178800000Y-129000000D03*
%TD*%
%TO.C,*%
X141200000Y-129000000D03*
%TD*%
D25*
%TO.C,R4*%
X163250000Y-93912500D03*
X163250000Y-92087500D03*
%TD*%
D28*
%TO.C,C3*%
X164400000Y-75200000D03*
X161600000Y-75200000D03*
%TD*%
D29*
%TO.C,C1*%
X160837500Y-82850000D03*
X158962500Y-82850000D03*
%TD*%
D30*
%TO.C,*%
X142200000Y-135500000D03*
%TD*%
D25*
%TO.C,R9*%
X179000000Y-89162500D03*
X179000000Y-87337500D03*
%TD*%
D31*
%TO.C,B1*%
X176750000Y-132750000D03*
X176250000Y-139250000D03*
%TD*%
D15*
%TO.C,D3*%
X155750000Y-101000000D03*
D32*
X153850000Y-100400000D03*
D33*
X157650000Y-100400000D03*
X157650000Y-101600000D03*
X153850000Y-101600000D03*
%TD*%
D34*
%TO.C,Q4*%
X142775000Y-85150000D03*
X142775000Y-87050000D03*
X144650000Y-86100000D03*
%TD*%
D35*
%TO.C,M1*%
X144500000Y-131000000D03*
X146500000Y-131000000D03*
%TD*%
D24*
%TO.C,*%
X177000000Y-50500000D03*
%TD*%
D25*
%TO.C,R6*%
X161250000Y-93912500D03*
X161250000Y-92087500D03*
%TD*%
D24*
%TO.C,*%
X146100000Y-148500000D03*
%TD*%
D36*
%TO.C,C4*%
X142725000Y-92450000D03*
X145675000Y-92450000D03*
%TD*%
D23*
%TO.C,R5*%
X158250000Y-92087500D03*
X158250000Y-93912500D03*
%TD*%
D37*
%TO.C,C6*%
X144562500Y-127500000D03*
X146437500Y-127500000D03*
%TD*%
D14*
%TO.C,Q7*%
X148737500Y-70550000D03*
X148737500Y-68650000D03*
X146862500Y-69600000D03*
%TD*%
D38*
%TO.C,U1*%
X147500000Y-50000000D03*
X147500000Y-64500000D03*
X170500000Y-50000000D03*
X170500000Y-54000000D03*
X170500000Y-60500000D03*
X170500000Y-64500000D03*
%TD*%
D13*
%TO.C,Q2*%
X160950000Y-85625000D03*
X159050000Y-85625000D03*
X160000000Y-87500000D03*
%TD*%
D29*
%TO.C,C2*%
X163937500Y-72800000D03*
X162062500Y-72800000D03*
%TD*%
D25*
%TO.C,R8*%
X176800000Y-89162500D03*
X176800000Y-87337500D03*
%TD*%
D15*
%TO.C,*%
X148500000Y-47000000D03*
%TD*%
D18*
%TO.C,R12*%
X153912500Y-72000000D03*
X152087500Y-72000000D03*
%TD*%
D15*
%TO.C,D4*%
X144500000Y-101000000D03*
D16*
X145100000Y-99100000D03*
D17*
X145100000Y-102900000D03*
X143900000Y-102900000D03*
X143900000Y-99100000D03*
%TD*%
D13*
%TO.C,Q3*%
X156200000Y-85625000D03*
X154300000Y-85625000D03*
X155250000Y-87500000D03*
%TD*%
D20*
%TO.C,TP3*%
X145750000Y-80150000D03*
%TD*%
D23*
%TO.C,R3*%
X156250000Y-92087500D03*
X156250000Y-93912500D03*
%TD*%
D39*
%TO.C,J6*%
X158000000Y-67500000D03*
D40*
X161000000Y-67500000D03*
D39*
X165000000Y-67500000D03*
D40*
X168000000Y-67500000D03*
%TD*%
D19*
%TO.C,R10*%
X152087500Y-74000000D03*
X153912500Y-74000000D03*
%TD*%
D41*
%TO.C,D8*%
X141250000Y-64800000D03*
X141250000Y-60800000D03*
%TD*%
D34*
%TO.C,Q5*%
X176862500Y-82700000D03*
X176862500Y-84600000D03*
X178737500Y-83650000D03*
%TD*%
D15*
%TO.C,D1*%
X164250000Y-101000000D03*
D32*
X162350000Y-100400000D03*
D33*
X166150000Y-100400000D03*
X166150000Y-101600000D03*
X162350000Y-101600000D03*
%TD*%
D37*
%TO.C,C7*%
X152162500Y-76650000D03*
X154037500Y-76650000D03*
%TD*%
D24*
%TO.C,*%
X173900000Y-148500000D03*
%TD*%
M02*
