%TF.GenerationSoftware,KiCad,Pcbnew,10.0.5*%
%TF.CreationDate,2026-09-12T21:28:26+12:00*%
%TF.ProjectId,3310_pico,33333130-5f70-4696-936f-2e6b69636164,rev?*%
%TF.SameCoordinates,Original*%
%TF.FileFunction,Soldermask,Bot*%
%TF.FilePolarity,Negative*%
%FSLAX46Y46*%
G04 Gerber Fmt 4.6, Leading zero omitted, Abs format (unit mm)*
G04 Created by KiCad (PCBNEW 10.0.5) date 2026-09-12 21:28:26*
%MOMM*%
%LPD*%
G01*
G04 APERTURE LIST*
G04 Aperture macros list*
%AMRoundRect*
0 Rectangle with rounded corners*
0 $1 Rounding radius*
0 $2 $3 $4 $5 $6 $7 $8 $9 X,Y pos of 4 corners*
0 Add a 4 corners polygon primitive as box body*
4,1,4,$2,$3,$4,$5,$6,$7,$8,$9,$2,$3,0*
0 Add four circle primitives for the rounded corners*
1,1,$1+$1,$2,$3*
1,1,$1+$1,$4,$5*
1,1,$1+$1,$6,$7*
1,1,$1+$1,$8,$9*
0 Add four rect primitives between the rounded corners*
20,1,$1+$1,$2,$3,$4,$5,0*
20,1,$1+$1,$4,$5,$6,$7,0*
20,1,$1+$1,$6,$7,$8,$9,0*
20,1,$1+$1,$8,$9,$2,$3,0*%
%AMFreePoly0*
4,1,108,0.491631,5.193531,0.812512,5.120292,1.123176,5.011586,1.419715,4.868781,1.698400,4.693671,1.955727,4.488460,2.188460,4.255727,2.393671,3.998400,2.568781,3.719715,2.711586,3.423176,2.820292,3.112512,2.893531,2.791631,2.930383,2.464567,2.930383,2.135433,2.893531,1.808369,2.820292,1.487488,2.711586,1.176824,2.568781,0.880285,2.393671,0.601600,2.188460,0.344273,
1.955727,0.111540,1.698400,-0.093671,1.419715,-0.268781,1.123176,-0.411586,0.812512,-0.520292,0.491631,-0.593531,0.164567,-0.630383,-0.164567,-0.630383,-0.491631,-0.593531,-0.812512,-0.520292,-1.123176,-0.411586,-1.419715,-0.268781,-1.698400,-0.093671,-1.955727,0.111540,-2.188460,0.344273,-2.393671,0.601600,-2.568781,0.880285,-2.711586,1.176824,-2.820292,1.487488,-2.893531,1.808369,
-2.930383,2.135433,-2.930383,2.409130,-1.665000,2.409130,-1.665000,2.190870,-1.636512,1.974478,-1.580022,1.763655,-1.496498,1.562009,-1.387368,1.372991,-1.254500,1.199833,-1.100167,1.045500,-0.927009,0.912632,-0.737991,0.803502,-0.536345,0.719978,-0.325522,0.663488,-0.109130,0.635000,0.109130,0.635000,0.325522,0.663488,0.536345,0.719978,0.737991,0.803502,0.927009,0.912632,
1.100167,1.045500,1.254500,1.199833,1.387368,1.372991,1.496498,1.562009,1.580022,1.763655,1.636512,1.974478,1.665000,2.190870,1.665000,2.409130,1.636512,2.625522,1.580022,2.836345,1.496498,3.037991,1.387368,3.227009,1.254500,3.400167,1.100167,3.554500,0.927009,3.687368,0.737991,3.796498,0.536345,3.880022,0.325522,3.936512,0.109130,3.965000,-0.109130,3.965000,
-0.325522,3.936512,-0.536345,3.880022,-0.737991,3.796498,-0.927009,3.687368,-1.100167,3.554500,-1.254500,3.400167,-1.387368,3.227009,-1.496498,3.037991,-1.580022,2.836345,-1.636512,2.625522,-1.665000,2.409130,-2.930383,2.409130,-2.930383,2.464567,-2.893531,2.791631,-2.820292,3.112512,-2.711586,3.423176,-2.568781,3.719715,-2.393671,3.998400,-2.188460,4.255727,-1.955727,4.488460,
-1.698400,4.693671,-1.419715,4.868781,-1.123176,5.011586,-0.812512,5.120292,-0.491631,5.193531,-0.164567,5.230383,0.164567,5.230383,0.491631,5.193531,0.491631,5.193531,$1*%
G04 Aperture macros list end*
%ADD10C,2.200000*%
%ADD11C,2.500000*%
%ADD12C,2.800000*%
%ADD13C,2.600000*%
%ADD14C,2.540000*%
%ADD15FreePoly0,180.000000*%
%ADD16RoundRect,0.240000X0.560000X1.260000X-0.560000X1.260000X-0.560000X-1.260000X0.560000X-1.260000X0*%
%ADD17RoundRect,0.150000X0.350000X1.350000X-0.350000X1.350000X-0.350000X-1.350000X0.350000X-1.350000X0*%
G04 APERTURE END LIST*
D10*
%TO.C,D2*%
X175500000Y-101000000D03*
%TD*%
D11*
%TO.C,*%
X153650000Y-66500000D03*
%TD*%
D12*
%TO.C,*%
X143000000Y-50500000D03*
%TD*%
%TO.C,*%
X178800000Y-129000000D03*
%TD*%
%TO.C,*%
X141200000Y-129000000D03*
%TD*%
D13*
%TO.C,*%
X142200000Y-135500000D03*
%TD*%
D10*
%TO.C,D3*%
X155750000Y-101000000D03*
%TD*%
D12*
%TO.C,*%
X177000000Y-50500000D03*
%TD*%
%TO.C,*%
X146100000Y-148500000D03*
%TD*%
D10*
%TO.C,*%
X148500000Y-47000000D03*
%TD*%
%TO.C,D4*%
X144500000Y-101000000D03*
%TD*%
%TO.C,D1*%
X164250000Y-101000000D03*
%TD*%
D12*
%TO.C,*%
X173900000Y-148500000D03*
%TD*%
D14*
%TO.C,J4*%
X174000000Y-118500000D03*
X172200000Y-107500000D03*
X170000000Y-112500000D03*
X169000000Y-102800000D03*
X160000000Y-120500000D03*
X146000000Y-118500000D03*
X172700000Y-126700000D03*
X160000000Y-128500000D03*
X160000000Y-112000000D03*
X160000000Y-103500000D03*
X147300000Y-126700000D03*
X173000000Y-134500000D03*
X160000000Y-136500000D03*
X151000000Y-102800000D03*
X147000000Y-134500000D03*
X146500000Y-106000000D03*
X172700000Y-142500000D03*
X160000000Y-144500000D03*
X153000000Y-110500000D03*
X148000000Y-111000000D03*
X147300000Y-142500000D03*
D15*
X174000000Y-116200000D03*
X173000000Y-132200000D03*
X172700000Y-140200000D03*
X172700000Y-124400000D03*
X160000000Y-142200000D03*
X160000000Y-134200000D03*
X160000000Y-126200000D03*
X160000000Y-118200000D03*
X147300000Y-140200000D03*
X147300000Y-124400000D03*
X147000000Y-132200000D03*
X146000000Y-116200000D03*
X172200000Y-105200000D03*
X170000000Y-110200000D03*
X169000000Y-100500000D03*
X160000000Y-109700000D03*
X160000000Y-101200000D03*
X153000000Y-108200000D03*
X151000000Y-100500000D03*
X148000000Y-108700000D03*
X146500000Y-103700000D03*
%TD*%
D16*
%TO.C,J1*%
X164500000Y-64500000D03*
D17*
X163000000Y-64500000D03*
X161800000Y-64500000D03*
X160600000Y-64500000D03*
X159400000Y-64500000D03*
X158200000Y-64500000D03*
X157000000Y-64500000D03*
X155800000Y-64500000D03*
%TD*%
M02*
