%TF.GenerationSoftware,KiCad,Pcbnew,10.0.5*%
%TF.CreationDate,2026-09-12T21:28:26+12:00*%
%TF.ProjectId,3310_pico,33333130-5f70-4696-936f-2e6b69636164,rev?*%
%TF.SameCoordinates,Original*%
%TF.FileFunction,Copper,L4,Bot*%
%TF.FilePolarity,Positive*%
%FSLAX46Y46*%
G04 Gerber Fmt 4.6, Leading zero omitted, Abs format (unit mm)*
G04 Created by KiCad (PCBNEW 10.0.5) date 2026-09-12 21:28:26*
%MOMM*%
%LPD*%
G01*
G04 APERTURE LIST*
G04 Aperture macros list*
%AMRoundRect*
0 Rectangle with rounded corners*
0 $1 Rounding radius*
0 $2 $3 $4 $5 $6 $7 $8 $9 X,Y pos of 4 corners*
0 Add a 4 corners polygon primitive as box body*
4,1,4,$2,$3,$4,$5,$6,$7,$8,$9,$2,$3,0*
0 Add four circle primitives for the rounded corners*
1,1,$1+$1,$2,$3*
1,1,$1+$1,$4,$5*
1,1,$1+$1,$6,$7*
1,1,$1+$1,$8,$9*
0 Add four rect primitives between the rounded corners*
20,1,$1+$1,$2,$3,$4,$5,0*
20,1,$1+$1,$4,$5,$6,$7,0*
20,1,$1+$1,$6,$7,$8,$9,0*
20,1,$1+$1,$8,$9,$2,$3,0*%
%AMFreePoly0*
4,1,108,0.491631,5.193531,0.812512,5.120292,1.123176,5.011586,1.419715,4.868781,1.698400,4.693671,1.955727,4.488460,2.188460,4.255727,2.393671,3.998400,2.568781,3.719715,2.711586,3.423176,2.820292,3.112512,2.893531,2.791631,2.930383,2.464567,2.930383,2.135433,2.893531,1.808369,2.820292,1.487488,2.711586,1.176824,2.568781,0.880285,2.393671,0.601600,2.188460,0.344273,
1.955727,0.111540,1.698400,-0.093671,1.419715,-0.268781,1.123176,-0.411586,0.812512,-0.520292,0.491631,-0.593531,0.164567,-0.630383,-0.164567,-0.630383,-0.491631,-0.593531,-0.812512,-0.520292,-1.123176,-0.411586,-1.419715,-0.268781,-1.698400,-0.093671,-1.955727,0.111540,-2.188460,0.344273,-2.393671,0.601600,-2.568781,0.880285,-2.711586,1.176824,-2.820292,1.487488,-2.893531,1.808369,
-2.930383,2.135433,-2.930383,2.409130,-1.665000,2.409130,-1.665000,2.190870,-1.636512,1.974478,-1.580022,1.763655,-1.496498,1.562009,-1.387368,1.372991,-1.254500,1.199833,-1.100167,1.045500,-0.927009,0.912632,-0.737991,0.803502,-0.536345,0.719978,-0.325522,0.663488,-0.109130,0.635000,0.109130,0.635000,0.325522,0.663488,0.536345,0.719978,0.737991,0.803502,0.927009,0.912632,
1.100167,1.045500,1.254500,1.199833,1.387368,1.372991,1.496498,1.562009,1.580022,1.763655,1.636512,1.974478,1.665000,2.190870,1.665000,2.409130,1.636512,2.625522,1.580022,2.836345,1.496498,3.037991,1.387368,3.227009,1.254500,3.400167,1.100167,3.554500,0.927009,3.687368,0.737991,3.796498,0.536345,3.880022,0.325522,3.936512,0.109130,3.965000,-0.109130,3.965000,
-0.325522,3.936512,-0.536345,3.880022,-0.737991,3.796498,-0.927009,3.687368,-1.100167,3.554500,-1.254500,3.400167,-1.387368,3.227009,-1.496498,3.037991,-1.580022,2.836345,-1.636512,2.625522,-1.665000,2.409130,-2.930383,2.409130,-2.930383,2.464567,-2.893531,2.791631,-2.820292,3.112512,-2.711586,3.423176,-2.568781,3.719715,-2.393671,3.998400,-2.188460,4.255727,-1.955727,4.488460,
-1.698400,4.693671,-1.419715,4.868781,-1.123176,5.011586,-0.812512,5.120292,-0.491631,5.193531,-0.164567,5.230383,0.164567,5.230383,0.491631,5.193531,0.491631,5.193531,$1*%
G04 Aperture macros list end*
%TA.AperFunction,ComponentPad*%
%ADD10C,2.500000*%
%TD*%
%TA.AperFunction,ComponentPad*%
%ADD11C,2.800000*%
%TD*%
%TA.AperFunction,ComponentPad*%
%ADD12C,2.600000*%
%TD*%
%TA.AperFunction,SMDPad,CuDef*%
%ADD13C,2.540000*%
%TD*%
%TA.AperFunction,SMDPad,CuDef*%
%ADD14FreePoly0,180.000000*%
%TD*%
%TA.AperFunction,SMDPad,CuDef*%
%ADD15RoundRect,0.240000X0.560000X1.260000X-0.560000X1.260000X-0.560000X-1.260000X0.560000X-1.260000X0*%
%TD*%
%TA.AperFunction,SMDPad,CuDef*%
%ADD16RoundRect,0.150000X0.350000X1.350000X-0.350000X1.350000X-0.350000X-1.350000X0.350000X-1.350000X0*%
%TD*%
%TA.AperFunction,ViaPad*%
%ADD17C,0.600000*%
%TD*%
%TA.AperFunction,Conductor*%
%ADD18C,0.200000*%
%TD*%
%TA.AperFunction,Conductor*%
%ADD19C,0.500000*%
%TD*%
G04 APERTURE END LIST*
D10*
%TO.P,,1*%
%TO.N,GND*%
X153650000Y-66500000D03*
%TD*%
D11*
%TO.P,,1*%
%TO.N,N/C*%
X143000000Y-50500000D03*
%TD*%
%TO.P,,1*%
%TO.N,GND*%
X178800000Y-129000000D03*
%TD*%
%TO.P,,1*%
%TO.N,GND*%
X141200000Y-129000000D03*
%TD*%
D12*
%TO.P,,1*%
%TO.N,GND*%
X142200000Y-135500000D03*
%TD*%
D11*
%TO.P,,1*%
%TO.N,N/C*%
X177000000Y-50500000D03*
%TD*%
%TO.P,,1*%
%TO.N,GND*%
X146100000Y-148500000D03*
%TD*%
%TO.P,,1*%
%TO.N,GND*%
X173900000Y-148500000D03*
%TD*%
D13*
%TO.P,J4,1,Row1_1*%
%TO.N,/Row1*%
X174000000Y-118500000D03*
X172200000Y-107500000D03*
X170000000Y-112500000D03*
X169000000Y-102800000D03*
X160000000Y-120500000D03*
X146000000Y-118500000D03*
%TO.P,J4,2,Row2_2*%
%TO.N,/Row2*%
X172700000Y-126700000D03*
X160000000Y-128500000D03*
X160000000Y-112000000D03*
X160000000Y-103500000D03*
X147300000Y-126700000D03*
%TO.P,J4,3,Row3_3*%
%TO.N,/Row3*%
X173000000Y-134500000D03*
X160000000Y-136500000D03*
X151000000Y-102800000D03*
X147000000Y-134500000D03*
X146500000Y-106000000D03*
%TO.P,J4,4,Row4_4*%
%TO.N,/Row4*%
X172700000Y-142500000D03*
X160000000Y-144500000D03*
X153000000Y-110500000D03*
X148000000Y-111000000D03*
X147300000Y-142500000D03*
D14*
%TO.P,J4,5,Col1_5*%
%TO.N,/Col1*%
X174000000Y-116200000D03*
X173000000Y-132200000D03*
X172700000Y-140200000D03*
X172700000Y-124400000D03*
%TO.P,J4,6,Col2_6*%
%TO.N,/Col2*%
X160000000Y-142200000D03*
X160000000Y-134200000D03*
X160000000Y-126200000D03*
X160000000Y-118200000D03*
%TO.P,J4,7,Col3_7*%
%TO.N,/Col3*%
X147300000Y-140200000D03*
X147300000Y-124400000D03*
X147000000Y-132200000D03*
X146000000Y-116200000D03*
%TO.P,J4,8,Col4_8*%
%TO.N,/Col4*%
X172200000Y-105200000D03*
X170000000Y-110200000D03*
X169000000Y-100500000D03*
X160000000Y-109700000D03*
X160000000Y-101200000D03*
X153000000Y-108200000D03*
X151000000Y-100500000D03*
X148000000Y-108700000D03*
X146500000Y-103700000D03*
%TD*%
D15*
%TO.P,J1,1,nRST_1*%
%TO.N,/PcdRst*%
X164500000Y-64500000D03*
D16*
%TO.P,J1,2,Vout_2*%
%TO.N,Net-(J1-Vout)*%
X163000000Y-64500000D03*
%TO.P,J1,3,GND_3*%
%TO.N,GND*%
X161800000Y-64500000D03*
%TO.P,J1,4,CE_4*%
%TO.N,/PcdCE*%
X160600000Y-64500000D03*
%TO.P,J1,5,DC_5*%
%TO.N,/PcdDC*%
X159400000Y-64500000D03*
%TO.P,J1,6,DIN_6*%
%TO.N,/PcdDin*%
X158200000Y-64500000D03*
%TO.P,J1,7,CLK_7*%
%TO.N,/PcdCLK*%
X157000000Y-64500000D03*
%TO.P,J1,8,VCC_8*%
%TO.N,+3.3V*%
X155800000Y-64500000D03*
%TD*%
D17*
%TO.N,GND*%
X158550000Y-58250000D03*
X164550000Y-60050000D03*
X153600000Y-78850000D03*
X157700000Y-74550000D03*
X165300000Y-134400000D03*
X147700000Y-146100000D03*
X147650000Y-122250000D03*
X175650000Y-112700000D03*
X162250000Y-78950000D03*
X154350000Y-60200000D03*
X148500000Y-54600000D03*
X143300000Y-56200000D03*
X169400000Y-79800000D03*
X177050000Y-75500000D03*
X177700000Y-61200000D03*
X154850000Y-47450000D03*
X163800000Y-85625000D03*
X148500000Y-77650000D03*
X145850000Y-71700000D03*
X150310000Y-121650000D03*
X173500000Y-122500000D03*
X169722043Y-65309030D03*
X154250000Y-93912500D03*
X170472043Y-65309030D03*
X169722043Y-63809030D03*
X158500000Y-107100000D03*
X146622043Y-63859030D03*
X165250000Y-146250000D03*
X154800000Y-106300000D03*
X144550000Y-87150000D03*
X171222043Y-65309030D03*
X146622043Y-64609030D03*
X154500000Y-147750000D03*
X166950000Y-108950000D03*
X170472043Y-63809030D03*
X147372043Y-65359030D03*
X146100000Y-114200000D03*
X171222043Y-64559030D03*
X162150000Y-132200000D03*
X145600000Y-95300000D03*
X159050000Y-85625000D03*
X144662500Y-83250000D03*
X161250000Y-116250000D03*
X148122043Y-65359030D03*
X172250000Y-130750000D03*
X147350000Y-64600000D03*
X153050000Y-89400000D03*
X180000000Y-103000000D03*
X146622043Y-65359030D03*
X171550000Y-74450000D03*
X147372043Y-63859030D03*
X161700000Y-107550000D03*
X148122043Y-64609030D03*
X169722043Y-64559030D03*
X171222043Y-63809030D03*
X170450000Y-64550000D03*
X170000000Y-90900000D03*
X179750000Y-125750000D03*
X148122043Y-63859030D03*
X154300000Y-85625000D03*
X180000000Y-113250000D03*
X159750000Y-90850000D03*
X176000000Y-145250000D03*
X176800000Y-87337500D03*
X172500000Y-138500000D03*
%TO.N,/Col4*%
X168500000Y-144500000D03*
%TO.N,/Col1*%
X170600000Y-141950000D03*
%TO.N,/Col2*%
X164000000Y-139450000D03*
%TO.N,/Col3*%
X154500000Y-136000000D03*
%TO.N,/Row1*%
X153400000Y-122850000D03*
X167900000Y-102650000D03*
X146650000Y-119100000D03*
X156175735Y-122974265D03*
X165700000Y-131810000D03*
X160000000Y-120500000D03*
X171300000Y-107700000D03*
X171139373Y-112705392D03*
X174000000Y-118500000D03*
X165600000Y-120500000D03*
%TO.N,/Row2*%
X172700000Y-126700000D03*
X160000000Y-128500000D03*
X160000000Y-104400000D03*
X156250000Y-119750000D03*
X147500000Y-126700000D03*
X160000000Y-112000000D03*
X156350000Y-130500000D03*
%TO.N,/Row3*%
X164850000Y-126750000D03*
X155875000Y-135375000D03*
X150041106Y-102150000D03*
X147200000Y-105300000D03*
X144550000Y-109100000D03*
X164800000Y-131400000D03*
X160000000Y-135400000D03*
X147000000Y-134500000D03*
X172900000Y-135500000D03*
%TO.N,/Row4*%
X147300000Y-142500000D03*
X153850000Y-110500000D03*
X159700000Y-143600000D03*
X172750000Y-143400000D03*
X151848838Y-110384154D03*
X153850000Y-114450000D03*
X166500000Y-124250000D03*
X148610000Y-110390000D03*
X156450000Y-124250000D03*
X164850000Y-143600000D03*
%TO.N,/Vibe*%
X168200000Y-96850000D03*
X146450000Y-85200000D03*
%TO.N,/Buzzer*%
X167500000Y-97450000D03*
X174950000Y-89150000D03*
%TO.N,/PcdCE*%
X147075735Y-92774265D03*
%TO.N,/PcdCLK*%
X147500000Y-91100000D03*
%TO.N,/PcdDin*%
X148250000Y-90400000D03*
%TO.N,/PcdDC*%
X149000000Y-89800000D03*
%TO.N,/PcdRst*%
X150500000Y-89800000D03*
%TO.N,+3.3V*%
X177300000Y-132750000D03*
X176150000Y-131900000D03*
X175650000Y-93250000D03*
X152500000Y-142000000D03*
X145100000Y-102800000D03*
X155800000Y-64500000D03*
X160837500Y-82850000D03*
X173350000Y-87362500D03*
X153750000Y-142750000D03*
X166050000Y-100400000D03*
X152500000Y-141250000D03*
X157550000Y-100400000D03*
X152500000Y-142750000D03*
X153750000Y-142000000D03*
X176100000Y-102800000D03*
X176150000Y-132750000D03*
X177300000Y-131900000D03*
X177300000Y-133650000D03*
X153750000Y-141250000D03*
%TO.N,VBUS*%
X148200000Y-50700000D03*
X148200000Y-49200000D03*
X153000000Y-152000000D03*
X147450000Y-49950000D03*
X147450000Y-49200000D03*
X148000000Y-152000000D03*
X147450000Y-50700000D03*
X148200000Y-49950000D03*
X146700000Y-49950000D03*
X146700000Y-50700000D03*
X146700000Y-49200000D03*
%TO.N,/BacklightR*%
X168850000Y-96350000D03*
X154250000Y-90050000D03*
%TO.N,Net-(D1-RK)*%
X155099999Y-97350000D03*
X147150000Y-99200000D03*
X153900000Y-98550000D03*
X161000000Y-97400000D03*
%TO.N,Net-(D1-BK)*%
X166350000Y-98400000D03*
X158500000Y-98350000D03*
X146950000Y-97150000D03*
X171200000Y-98400000D03*
X161250000Y-95250000D03*
%TO.N,Net-(D1-GK)*%
X155250000Y-96300000D03*
X148025000Y-99175000D03*
X161000000Y-99000000D03*
X174600000Y-97950000D03*
X154600000Y-102650000D03*
X161900000Y-96250000D03*
X153350000Y-99250000D03*
%TO.N,Net-(D6-A)*%
X144700000Y-122900000D03*
X146400000Y-87400000D03*
%TO.N,Net-(J1-Vout)*%
X163050000Y-72800000D03*
X163000000Y-64500000D03*
X163000000Y-75200000D03*
%TO.N,/BacklightB*%
X170350000Y-96350000D03*
X158250000Y-90000000D03*
%TO.N,/BacklightG*%
X156250000Y-89950000D03*
X169650000Y-96850000D03*
%TD*%
%TO.N,/Col4*%
D18*
X164600000Y-109950000D02*
X167350000Y-112700000D01*
X153000000Y-108200000D02*
X158500000Y-108200000D01*
X167350000Y-112700000D02*
X167350000Y-144050000D01*
X161650000Y-99550000D02*
X168050000Y-99550000D01*
X167350000Y-144050000D02*
X167800000Y-144500000D01*
X167800000Y-144500000D02*
X168500000Y-144500000D01*
X168050000Y-99550000D02*
X169000000Y-100500000D01*
X170000000Y-110200000D02*
X169850000Y-110200000D01*
X160000000Y-109700000D02*
X160250000Y-109950000D01*
X158500000Y-108200000D02*
X160000000Y-109700000D01*
X169850000Y-110200000D02*
X167350000Y-112700000D01*
X160250000Y-109950000D02*
X164600000Y-109950000D01*
X169750000Y-109950000D02*
X170000000Y-110200000D01*
X160000000Y-101200000D02*
X161650000Y-99550000D01*
%TO.N,/Col1*%
X174850000Y-120700000D02*
X176000000Y-119550000D01*
X174100000Y-140200000D02*
X174850000Y-139450000D01*
X174850000Y-139450000D02*
X174850000Y-120700000D01*
X172700000Y-140200000D02*
X174100000Y-140200000D01*
%TO.N,/Col2*%
X164000000Y-126250000D02*
X164000000Y-125750000D01*
X160000000Y-126200000D02*
X163950000Y-126200000D01*
X164000000Y-119500000D02*
X164000000Y-125750000D01*
X160000000Y-118200000D02*
X162700000Y-118200000D01*
X163950000Y-126200000D02*
X164000000Y-126250000D01*
X160000000Y-139060000D02*
X160910000Y-138150000D01*
X164000000Y-138150000D02*
X164000000Y-126250000D01*
X160000000Y-142200000D02*
X160000000Y-139060000D01*
X164000000Y-138150000D02*
X164000000Y-139450000D01*
X160910000Y-138150000D02*
X164000000Y-138150000D01*
X162700000Y-118200000D02*
X164000000Y-119500000D01*
%TO.N,/Col3*%
X151400000Y-124400000D02*
X151500000Y-124500000D01*
X151500000Y-124500000D02*
X151500000Y-124350000D01*
X147300000Y-124400000D02*
X151400000Y-124400000D01*
X151500000Y-136000000D02*
X151500000Y-132000000D01*
X147300000Y-140200000D02*
X151500000Y-136000000D01*
X151500000Y-132000000D02*
X151500000Y-124500000D01*
X154500000Y-136000000D02*
X151500000Y-136000000D01*
X147000000Y-132200000D02*
X151300000Y-132200000D01*
X151300000Y-132200000D02*
X151500000Y-132000000D01*
X151500000Y-124350000D02*
X147400000Y-120250000D01*
%TO.N,/Row1*%
X156698529Y-124850000D02*
X155400000Y-124850000D01*
X157050000Y-124498529D02*
X156698529Y-124850000D01*
X165600000Y-131710000D02*
X165700000Y-131810000D01*
X165600000Y-120500000D02*
X165600000Y-131710000D01*
X156175735Y-122974265D02*
X157050000Y-123848530D01*
X155400000Y-124850000D02*
X153400000Y-122850000D01*
X157050000Y-123848530D02*
X157050000Y-124498529D01*
%TO.N,/Row2*%
X157700000Y-123650000D02*
X157700000Y-125150000D01*
X157700000Y-125150000D02*
X156350000Y-126500000D01*
X156350000Y-126500000D02*
X156350000Y-130500000D01*
X156250000Y-122200000D02*
X157700000Y-123650000D01*
X156250000Y-119750000D02*
X156250000Y-122200000D01*
%TO.N,/Row3*%
X154250000Y-133750000D02*
X155875000Y-135375000D01*
X164800000Y-126800000D02*
X164850000Y-126750000D01*
X145600000Y-115250000D02*
X150000000Y-115250000D01*
X144550000Y-109100000D02*
X144550000Y-114200000D01*
X150000000Y-115250000D02*
X152500000Y-117750000D01*
X154250000Y-126250000D02*
X154250000Y-133750000D01*
X164800000Y-131400000D02*
X164800000Y-126800000D01*
X152500000Y-117750000D02*
X152500000Y-124500000D01*
X152500000Y-124500000D02*
X154250000Y-126250000D01*
X144550000Y-114200000D02*
X145600000Y-115250000D01*
%TO.N,/Row4*%
X156450000Y-124250000D02*
X153850000Y-121650000D01*
X153850000Y-121650000D02*
X153850000Y-114450000D01*
X166450000Y-124250000D02*
X166500000Y-124300000D01*
X166500000Y-141950000D02*
X164850000Y-143600000D01*
X166500000Y-124250000D02*
X166450000Y-124250000D01*
X166500000Y-124300000D02*
X166500000Y-141950000D01*
%TO.N,/Vibe*%
X146250000Y-89850000D02*
X147000000Y-89100000D01*
X168200000Y-96850000D02*
X166000000Y-94650000D01*
X166000000Y-94650000D02*
X147250000Y-94650000D01*
X147000000Y-89100000D02*
X147000000Y-85750000D01*
X147250000Y-94650000D02*
X146250000Y-93650000D01*
X147000000Y-85750000D02*
X146450000Y-85200000D01*
X146250000Y-93650000D02*
X146250000Y-89850000D01*
%TO.N,/Buzzer*%
X172850000Y-97450000D02*
X173550000Y-96750000D01*
X173550000Y-96750000D02*
X173550000Y-90550000D01*
X167500000Y-97450000D02*
X172850000Y-97450000D01*
X173550000Y-90550000D02*
X174950000Y-89150000D01*
%TO.N,/PcdCE*%
X149750000Y-80947058D02*
X160600000Y-70097058D01*
X147075735Y-92774265D02*
X149750000Y-90100000D01*
X160600000Y-70097058D02*
X160600000Y-64500000D01*
X149750000Y-90100000D02*
X149750000Y-80947058D01*
%TO.N,/PcdCLK*%
X147500000Y-81500000D02*
X147500000Y-91100000D01*
X157000000Y-72000000D02*
X147500000Y-81500000D01*
X157000000Y-64500000D02*
X157000000Y-72000000D01*
%TO.N,/PcdDin*%
X158200000Y-71365686D02*
X158200000Y-64500000D01*
X148250000Y-90400000D02*
X148250000Y-81315686D01*
X148250000Y-81315686D02*
X158200000Y-71365686D01*
%TO.N,/PcdDC*%
X149000000Y-89800000D02*
X149000000Y-81131372D01*
X149000000Y-81131372D02*
X159400000Y-70731372D01*
X159400000Y-70731372D02*
X159400000Y-64500000D01*
%TO.N,/PcdRst*%
X164500000Y-64500000D02*
X164500000Y-69500000D01*
X164500000Y-69500000D02*
X150500000Y-83500000D01*
X150500000Y-83500000D02*
X150500000Y-89800000D01*
%TO.N,/BacklightR*%
X155200000Y-94000000D02*
X154250000Y-93050000D01*
X154250000Y-93050000D02*
X154250000Y-90050000D01*
X168850000Y-96350000D02*
X166500000Y-94000000D01*
X166500000Y-94000000D02*
X155200000Y-94000000D01*
%TO.N,Net-(D1-RK)*%
X147800000Y-98550000D02*
X147150000Y-99200000D01*
X155149999Y-97400000D02*
X155099999Y-97350000D01*
X153900000Y-98550000D02*
X147800000Y-98550000D01*
X161000000Y-97400000D02*
X155149999Y-97400000D01*
%TO.N,Net-(D1-BK)*%
X162700000Y-95250000D02*
X161250000Y-95250000D01*
X161250000Y-95250000D02*
X148850000Y-95250000D01*
X165850000Y-98400000D02*
X162700000Y-95250000D01*
X166800000Y-98400000D02*
X166350000Y-98400000D01*
X158100000Y-97950000D02*
X158500000Y-98350000D01*
X146950000Y-97150000D02*
X147750000Y-97950000D01*
X147750000Y-97950000D02*
X158100000Y-97950000D01*
X166350000Y-98400000D02*
X165850000Y-98400000D01*
X148850000Y-95250000D02*
X146950000Y-97150000D01*
X171200000Y-98400000D02*
X166800000Y-98400000D01*
%TO.N,Net-(D1-GK)*%
X153275000Y-99175000D02*
X153350000Y-99250000D01*
X154600000Y-101817946D02*
X153316027Y-100533973D01*
X161900000Y-99000000D02*
X173550000Y-99000000D01*
X154600000Y-102650000D02*
X154600000Y-101817946D01*
X151957054Y-99175000D02*
X148025000Y-99175000D01*
X161000000Y-99000000D02*
X161900000Y-99000000D01*
X155250000Y-96300000D02*
X161850000Y-96300000D01*
X173550000Y-99000000D02*
X174600000Y-97950000D01*
X161850000Y-96300000D02*
X161900000Y-96250000D01*
X151957054Y-99175000D02*
X153275000Y-99175000D01*
X161850000Y-96300000D02*
X161850000Y-98150000D01*
X153316027Y-100533973D02*
X151957054Y-99175000D01*
X161850000Y-98150000D02*
X161000000Y-99000000D01*
%TO.N,Net-(D6-A)*%
D19*
X146400000Y-87400000D02*
X142050000Y-91750000D01*
X143400000Y-122900000D02*
X144700000Y-122900000D01*
X142050000Y-91750000D02*
X142050000Y-121550000D01*
X142050000Y-121550000D02*
X143400000Y-122900000D01*
%TO.N,Net-(J1-Vout)*%
X163000000Y-72800000D02*
X163050000Y-72800000D01*
X163000000Y-72800000D02*
X163000000Y-75200000D01*
%TO.N,/BacklightB*%
D18*
X158250000Y-92200000D02*
X159200000Y-93150000D01*
X159200000Y-93150000D02*
X167150000Y-93150000D01*
X167150000Y-93150000D02*
X170350000Y-96350000D01*
X158250000Y-90000000D02*
X158250000Y-92200000D01*
%TO.N,/BacklightG*%
X156250000Y-89950000D02*
X156250000Y-93050000D01*
X156250000Y-93050000D02*
X156800000Y-93600000D01*
X166948529Y-93600000D02*
X169650000Y-96301471D01*
X169650000Y-96301471D02*
X169650000Y-96850000D01*
X156800000Y-93600000D02*
X166948529Y-93600000D01*
%TD*%
%TA.AperFunction,Conductor*%
%TO.N,GND*%
G36*
X153248667Y-123636080D02*
G01*
X153309012Y-123648084D01*
X153321851Y-123650638D01*
X153383761Y-123683024D01*
X153385339Y-123684574D01*
X154915139Y-125214374D01*
X154915149Y-125214385D01*
X154919479Y-125218715D01*
X154919480Y-125218716D01*
X155031284Y-125330520D01*
X155092757Y-125366011D01*
X155168215Y-125409577D01*
X155320943Y-125450500D01*
X155479057Y-125450500D01*
X156250903Y-125450500D01*
X156317942Y-125470185D01*
X156363697Y-125522989D01*
X156373641Y-125592147D01*
X156344616Y-125655703D01*
X156338589Y-125662175D01*
X156119482Y-125881282D01*
X155981286Y-126019478D01*
X155869481Y-126131282D01*
X155869479Y-126131284D01*
X155841797Y-126179232D01*
X155830096Y-126199500D01*
X155790423Y-126268215D01*
X155749499Y-126420943D01*
X155749499Y-126420945D01*
X155749499Y-126589046D01*
X155749500Y-126589059D01*
X155749500Y-129920234D01*
X155729815Y-129987273D01*
X155728602Y-129989125D01*
X155640609Y-130120814D01*
X155640602Y-130120827D01*
X155580264Y-130266498D01*
X155580261Y-130266510D01*
X155549500Y-130421153D01*
X155549500Y-130578846D01*
X155580261Y-130733489D01*
X155580264Y-130733501D01*
X155640602Y-130879172D01*
X155640609Y-130879185D01*
X155728210Y-131010288D01*
X155728213Y-131010292D01*
X155839707Y-131121786D01*
X155839711Y-131121789D01*
X155970814Y-131209390D01*
X155970827Y-131209397D01*
X156045063Y-131240146D01*
X156116503Y-131269737D01*
X156271153Y-131300499D01*
X156271156Y-131300500D01*
X156271158Y-131300500D01*
X156428844Y-131300500D01*
X156428845Y-131300499D01*
X156583497Y-131269737D01*
X156729179Y-131209394D01*
X156860289Y-131121789D01*
X156971789Y-131010289D01*
X157059394Y-130879179D01*
X157119737Y-130733497D01*
X157119738Y-130733489D01*
X157121506Y-130727665D01*
X157122634Y-130728007D01*
X157152099Y-130671669D01*
X157212811Y-130637089D01*
X157282581Y-130640822D01*
X157338285Y-130680449D01*
X157412877Y-130773984D01*
X157412880Y-130773987D01*
X157450657Y-130816259D01*
X157683740Y-131049342D01*
X157683749Y-131049350D01*
X157726016Y-131087123D01*
X157965548Y-131278144D01*
X157983752Y-131292661D01*
X158029976Y-131325459D01*
X158309107Y-131500849D01*
X158358703Y-131528260D01*
X158358712Y-131528264D01*
X158358720Y-131528269D01*
X158358732Y-131528275D01*
X158358760Y-131528289D01*
X158655689Y-131671282D01*
X158655705Y-131671289D01*
X158655726Y-131671299D01*
X158708097Y-131692992D01*
X158708104Y-131692994D01*
X158708115Y-131692999D01*
X158950039Y-131777652D01*
X159019250Y-131801870D01*
X159019253Y-131801871D01*
X159019265Y-131801875D01*
X159073712Y-131817560D01*
X159073715Y-131817560D01*
X159073724Y-131817563D01*
X159395112Y-131890917D01*
X159450997Y-131900413D01*
X159451015Y-131900415D01*
X159451021Y-131900416D01*
X159778537Y-131937318D01*
X159778544Y-131937318D01*
X159778576Y-131937322D01*
X159835174Y-131940500D01*
X159835192Y-131940500D01*
X160164808Y-131940500D01*
X160164826Y-131940500D01*
X160221424Y-131937322D01*
X160221456Y-131937318D01*
X160221462Y-131937318D01*
X160548978Y-131900416D01*
X160548981Y-131900415D01*
X160549003Y-131900413D01*
X160604888Y-131890917D01*
X160926276Y-131817563D01*
X160926285Y-131817560D01*
X160926287Y-131817560D01*
X160980734Y-131801875D01*
X160980740Y-131801872D01*
X160980750Y-131801870D01*
X161170638Y-131735424D01*
X161291884Y-131692999D01*
X161291889Y-131692996D01*
X161291903Y-131692992D01*
X161344274Y-131671299D01*
X161344303Y-131671284D01*
X161344310Y-131671282D01*
X161641239Y-131528289D01*
X161641248Y-131528284D01*
X161641280Y-131528269D01*
X161690894Y-131500848D01*
X161970019Y-131325462D01*
X162016252Y-131292658D01*
X162273984Y-131087123D01*
X162316251Y-131049350D01*
X162549350Y-130816251D01*
X162587123Y-130773984D01*
X162792658Y-130516252D01*
X162825462Y-130470019D01*
X163000848Y-130190894D01*
X163028269Y-130141280D01*
X163038119Y-130120827D01*
X163163780Y-129859889D01*
X163210602Y-129808029D01*
X163278029Y-129789716D01*
X163344653Y-129810764D01*
X163389322Y-129864490D01*
X163399500Y-129913690D01*
X163399500Y-135086309D01*
X163379815Y-135153348D01*
X163327011Y-135199103D01*
X163257853Y-135209047D01*
X163194297Y-135180022D01*
X163163780Y-135140110D01*
X163028289Y-134858760D01*
X163028260Y-134858703D01*
X163000849Y-134809107D01*
X162825459Y-134529976D01*
X162792661Y-134483752D01*
X162792658Y-134483748D01*
X162587123Y-134226016D01*
X162549350Y-134183749D01*
X162549342Y-134183740D01*
X162316259Y-133950657D01*
X162273987Y-133912880D01*
X162273984Y-133912877D01*
X162016252Y-133707342D01*
X162016247Y-133707338D01*
X161970023Y-133674540D01*
X161690892Y-133499150D01*
X161641296Y-133471739D01*
X161641239Y-133471710D01*
X161344310Y-133328717D01*
X161344282Y-133328705D01*
X161344274Y-133328701D01*
X161291903Y-133307008D01*
X161291905Y-133307008D01*
X161291884Y-133307000D01*
X160980757Y-133198132D01*
X160980734Y-133198124D01*
X160926287Y-133182439D01*
X160926281Y-133182438D01*
X160604903Y-133109086D01*
X160604895Y-133109084D01*
X160604888Y-133109083D01*
X160549003Y-133099587D01*
X160548998Y-133099586D01*
X160548978Y-133099583D01*
X160221462Y-133062681D01*
X160221436Y-133062679D01*
X160221424Y-133062678D01*
X160164826Y-133059500D01*
X159835174Y-133059500D01*
X159778576Y-133062678D01*
X159778564Y-133062679D01*
X159778537Y-133062681D01*
X159451021Y-133099583D01*
X159450998Y-133099586D01*
X159450997Y-133099587D01*
X159395112Y-133109083D01*
X159395107Y-133109084D01*
X159395096Y-133109086D01*
X159073718Y-133182438D01*
X159073712Y-133182439D01*
X159019265Y-133198124D01*
X159019242Y-133198132D01*
X158708115Y-133307000D01*
X158655726Y-133328701D01*
X158655689Y-133328717D01*
X158358760Y-133471710D01*
X158358703Y-133471739D01*
X158309107Y-133499150D01*
X158029976Y-133674540D01*
X157983752Y-133707338D01*
X157726012Y-133912880D01*
X157683740Y-133950657D01*
X157450657Y-134183740D01*
X157412880Y-134226012D01*
X157207338Y-134483752D01*
X157174540Y-134529976D01*
X156999150Y-134809107D01*
X156971739Y-134858703D01*
X156971717Y-134858746D01*
X156853203Y-135104844D01*
X156806381Y-135156703D01*
X156738953Y-135175016D01*
X156672330Y-135153968D01*
X156627661Y-135100242D01*
X156626922Y-135098494D01*
X156606422Y-135049003D01*
X156584394Y-134995821D01*
X156584392Y-134995818D01*
X156584390Y-134995814D01*
X156496789Y-134864711D01*
X156496786Y-134864707D01*
X156385292Y-134753213D01*
X156385288Y-134753210D01*
X156254185Y-134665609D01*
X156254172Y-134665602D01*
X156108501Y-134605264D01*
X156108491Y-134605261D01*
X155953149Y-134574361D01*
X155891238Y-134541976D01*
X155889660Y-134540425D01*
X154886819Y-133537584D01*
X154853334Y-133476261D01*
X154850500Y-133449903D01*
X154850500Y-126339060D01*
X154850501Y-126339047D01*
X154850501Y-126170944D01*
X154839874Y-126131284D01*
X154809577Y-126018216D01*
X154778018Y-125963554D01*
X154730524Y-125881290D01*
X154730518Y-125881282D01*
X153136819Y-124287583D01*
X153103334Y-124226260D01*
X153100500Y-124199902D01*
X153100500Y-123757702D01*
X153120185Y-123690663D01*
X153172989Y-123644908D01*
X153242147Y-123634964D01*
X153248667Y-123636080D01*
G37*
%TD.AperFunction*%
%TA.AperFunction,Conductor*%
G36*
X149766942Y-115870185D02*
G01*
X149787584Y-115886819D01*
X151863181Y-117962416D01*
X151896666Y-118023739D01*
X151899500Y-118050097D01*
X151899500Y-123600902D01*
X151879815Y-123667941D01*
X151827011Y-123713696D01*
X151757853Y-123723640D01*
X151694297Y-123694615D01*
X151687819Y-123688583D01*
X148748043Y-120748808D01*
X148714558Y-120687485D01*
X148719542Y-120617793D01*
X148738773Y-120583820D01*
X148792658Y-120516252D01*
X148825462Y-120470019D01*
X149000848Y-120190894D01*
X149028269Y-120141280D01*
X149038119Y-120120827D01*
X149171282Y-119844310D01*
X149171284Y-119844303D01*
X149171299Y-119844274D01*
X149192992Y-119791903D01*
X149193448Y-119790602D01*
X149267470Y-119579058D01*
X149301870Y-119480750D01*
X149317563Y-119426276D01*
X149390917Y-119104888D01*
X149400413Y-119049003D01*
X149408158Y-118980263D01*
X149437318Y-118721462D01*
X149437318Y-118721456D01*
X149437322Y-118721424D01*
X149440500Y-118664826D01*
X149440500Y-118335174D01*
X149437322Y-118278576D01*
X149400413Y-117950997D01*
X149390917Y-117895112D01*
X149317563Y-117573724D01*
X149317560Y-117573712D01*
X149301875Y-117519265D01*
X149301867Y-117519242D01*
X149192999Y-117208115D01*
X149188863Y-117198130D01*
X149171299Y-117155726D01*
X149171289Y-117155705D01*
X149171282Y-117155689D01*
X149028289Y-116858760D01*
X149028260Y-116858703D01*
X149000849Y-116809107D01*
X148825459Y-116529976D01*
X148792661Y-116483752D01*
X148792658Y-116483748D01*
X148587123Y-116226016D01*
X148549350Y-116183749D01*
X148549342Y-116183740D01*
X148427783Y-116062181D01*
X148394298Y-116000858D01*
X148399282Y-115931166D01*
X148441154Y-115875233D01*
X148506618Y-115850816D01*
X148515464Y-115850500D01*
X149699903Y-115850500D01*
X149766942Y-115870185D01*
G37*
%TD.AperFunction*%
%TA.AperFunction,Conductor*%
G36*
X158261884Y-108820185D02*
G01*
X158307639Y-108872989D01*
X158317583Y-108942147D01*
X158288558Y-109005703D01*
X158260817Y-109029494D01*
X158029976Y-109174540D01*
X157983752Y-109207338D01*
X157726015Y-109412878D01*
X157683740Y-109450657D01*
X157450657Y-109683740D01*
X157412880Y-109726012D01*
X157207338Y-109983752D01*
X157174540Y-110029976D01*
X156999150Y-110309107D01*
X156971739Y-110358703D01*
X156971710Y-110358760D01*
X156828717Y-110655689D01*
X156828701Y-110655726D01*
X156807000Y-110708115D01*
X156698132Y-111019242D01*
X156698124Y-111019265D01*
X156682439Y-111073712D01*
X156682438Y-111073718D01*
X156609086Y-111395096D01*
X156599583Y-111451021D01*
X156562681Y-111778537D01*
X156562679Y-111778564D01*
X156562678Y-111778576D01*
X156559500Y-111835174D01*
X156559500Y-111924234D01*
X156559500Y-112164826D01*
X156562678Y-112221424D01*
X156562679Y-112221436D01*
X156562681Y-112221462D01*
X156599583Y-112548978D01*
X156609086Y-112604903D01*
X156682438Y-112926281D01*
X156682439Y-112926287D01*
X156698124Y-112980734D01*
X156698132Y-112980757D01*
X156807000Y-113291884D01*
X156807008Y-113291903D01*
X156820907Y-113325459D01*
X156828701Y-113344273D01*
X156828717Y-113344310D01*
X156971710Y-113641239D01*
X156971739Y-113641296D01*
X156999150Y-113690892D01*
X157174540Y-113970023D01*
X157207338Y-114016247D01*
X157207342Y-114016252D01*
X157412877Y-114273984D01*
X157412880Y-114273987D01*
X157450657Y-114316259D01*
X157683740Y-114549342D01*
X157683749Y-114549350D01*
X157726016Y-114587123D01*
X157983748Y-114792658D01*
X157983752Y-114792661D01*
X158029976Y-114825459D01*
X158309107Y-115000849D01*
X158358703Y-115028260D01*
X158358712Y-115028264D01*
X158358720Y-115028269D01*
X158358732Y-115028275D01*
X158358760Y-115028289D01*
X158655689Y-115171282D01*
X158655705Y-115171289D01*
X158655726Y-115171299D01*
X158708097Y-115192992D01*
X158708104Y-115192994D01*
X158708115Y-115192999D01*
X158917149Y-115266143D01*
X159019250Y-115301870D01*
X159019253Y-115301871D01*
X159019265Y-115301875D01*
X159073712Y-115317560D01*
X159073715Y-115317560D01*
X159073724Y-115317563D01*
X159395112Y-115390917D01*
X159450997Y-115400413D01*
X159451015Y-115400415D01*
X159451021Y-115400416D01*
X159778537Y-115437318D01*
X159778544Y-115437318D01*
X159778576Y-115437322D01*
X159835174Y-115440500D01*
X159835192Y-115440500D01*
X160164808Y-115440500D01*
X160164826Y-115440500D01*
X160221424Y-115437322D01*
X160221456Y-115437318D01*
X160221462Y-115437318D01*
X160548978Y-115400416D01*
X160548981Y-115400415D01*
X160549003Y-115400413D01*
X160604888Y-115390917D01*
X160926276Y-115317563D01*
X160926285Y-115317560D01*
X160926287Y-115317560D01*
X160980734Y-115301875D01*
X160980740Y-115301872D01*
X160980750Y-115301870D01*
X161243369Y-115209975D01*
X161291884Y-115192999D01*
X161291889Y-115192996D01*
X161291903Y-115192992D01*
X161344274Y-115171299D01*
X161344303Y-115171284D01*
X161344310Y-115171282D01*
X161641239Y-115028289D01*
X161641248Y-115028284D01*
X161641280Y-115028269D01*
X161690894Y-115000848D01*
X161970019Y-114825462D01*
X162016252Y-114792658D01*
X162273984Y-114587123D01*
X162316251Y-114549350D01*
X162549350Y-114316251D01*
X162587123Y-114273984D01*
X162792658Y-114016252D01*
X162825462Y-113970019D01*
X163000848Y-113690894D01*
X163028269Y-113641280D01*
X163054350Y-113587123D01*
X163171282Y-113344310D01*
X163171284Y-113344303D01*
X163171299Y-113344274D01*
X163192992Y-113291903D01*
X163199261Y-113273989D01*
X163235868Y-113169371D01*
X163301870Y-112980750D01*
X163304962Y-112970019D01*
X163317560Y-112926287D01*
X163317560Y-112926285D01*
X163317563Y-112926276D01*
X163390917Y-112604888D01*
X163400413Y-112549003D01*
X163437322Y-112221424D01*
X163440500Y-112164826D01*
X163440500Y-111835174D01*
X163437322Y-111778576D01*
X163414240Y-111573718D01*
X163400416Y-111451021D01*
X163400415Y-111451015D01*
X163400413Y-111450997D01*
X163390917Y-111395112D01*
X163317563Y-111073724D01*
X163317560Y-111073712D01*
X163301875Y-111019265D01*
X163301867Y-111019242D01*
X163195567Y-110715455D01*
X163192005Y-110645676D01*
X163226733Y-110585049D01*
X163288727Y-110552821D01*
X163312608Y-110550500D01*
X164299903Y-110550500D01*
X164366942Y-110570185D01*
X164387584Y-110586819D01*
X166537137Y-112736372D01*
X166570622Y-112797695D01*
X166572676Y-112810169D01*
X166599583Y-113048980D01*
X166599587Y-113049003D01*
X166606064Y-113087123D01*
X166609086Y-113104903D01*
X166682438Y-113426281D01*
X166682439Y-113426287D01*
X166698124Y-113480734D01*
X166698128Y-113480746D01*
X166705163Y-113500849D01*
X166742541Y-113607669D01*
X166749500Y-113648622D01*
X166749500Y-123332351D01*
X166729815Y-123399390D01*
X166677011Y-123445145D01*
X166607853Y-123455089D01*
X166601310Y-123453969D01*
X166578842Y-123449500D01*
X166421158Y-123449500D01*
X166421155Y-123449500D01*
X166348691Y-123463914D01*
X166279100Y-123457687D01*
X166223922Y-123414824D01*
X166200678Y-123348934D01*
X166200500Y-123342297D01*
X166200500Y-121079765D01*
X166220185Y-121012726D01*
X166221398Y-121010874D01*
X166309390Y-120879185D01*
X166309390Y-120879184D01*
X166309394Y-120879179D01*
X166369737Y-120733497D01*
X166400500Y-120578842D01*
X166400500Y-120421158D01*
X166400500Y-120421155D01*
X166400499Y-120421153D01*
X166369737Y-120266503D01*
X166360938Y-120245261D01*
X166309397Y-120120827D01*
X166309390Y-120120814D01*
X166221789Y-119989711D01*
X166221786Y-119989707D01*
X166110292Y-119878213D01*
X166110288Y-119878210D01*
X165979185Y-119790609D01*
X165979172Y-119790602D01*
X165833501Y-119730264D01*
X165833489Y-119730261D01*
X165678845Y-119699500D01*
X165678842Y-119699500D01*
X165521158Y-119699500D01*
X165521155Y-119699500D01*
X165366510Y-119730261D01*
X165366498Y-119730264D01*
X165220827Y-119790602D01*
X165220814Y-119790609D01*
X165089711Y-119878210D01*
X165089707Y-119878213D01*
X164978213Y-119989707D01*
X164978210Y-119989711D01*
X164890609Y-120120814D01*
X164890602Y-120120827D01*
X164839061Y-120245261D01*
X164795220Y-120299665D01*
X164728926Y-120321730D01*
X164661227Y-120304451D01*
X164613616Y-120253314D01*
X164600500Y-120197809D01*
X164600500Y-119589060D01*
X164600501Y-119589047D01*
X164600501Y-119420944D01*
X164587072Y-119370827D01*
X164559577Y-119268216D01*
X164543120Y-119239711D01*
X164480524Y-119131290D01*
X164480518Y-119131282D01*
X163879212Y-118529976D01*
X163187589Y-117838354D01*
X163187588Y-117838352D01*
X163068717Y-117719481D01*
X163068716Y-117719480D01*
X162981904Y-117669360D01*
X162981904Y-117669359D01*
X162981900Y-117669358D01*
X162931785Y-117640423D01*
X162779057Y-117599499D01*
X162620943Y-117599499D01*
X162613347Y-117599499D01*
X162613331Y-117599500D01*
X161886321Y-117599500D01*
X161820349Y-117580494D01*
X161809565Y-117573718D01*
X161690894Y-117499152D01*
X161690890Y-117499149D01*
X161690884Y-117499146D01*
X161641296Y-117471739D01*
X161641239Y-117471710D01*
X161344310Y-117328717D01*
X161344282Y-117328705D01*
X161344274Y-117328701D01*
X161291903Y-117307008D01*
X161291905Y-117307008D01*
X161291884Y-117307000D01*
X160980757Y-117198132D01*
X160980734Y-117198124D01*
X160926287Y-117182439D01*
X160926281Y-117182438D01*
X160604903Y-117109086D01*
X160604895Y-117109084D01*
X160604888Y-117109083D01*
X160549003Y-117099587D01*
X160548998Y-117099586D01*
X160548978Y-117099583D01*
X160221462Y-117062681D01*
X160221436Y-117062679D01*
X160221424Y-117062678D01*
X160164826Y-117059500D01*
X159835174Y-117059500D01*
X159778576Y-117062678D01*
X159778564Y-117062679D01*
X159778537Y-117062681D01*
X159451021Y-117099583D01*
X159450998Y-117099586D01*
X159450997Y-117099587D01*
X159395112Y-117109083D01*
X159395107Y-117109084D01*
X159395096Y-117109086D01*
X159073718Y-117182438D01*
X159073712Y-117182439D01*
X159019265Y-117198124D01*
X159019242Y-117198132D01*
X158708115Y-117307000D01*
X158655726Y-117328701D01*
X158655689Y-117328717D01*
X158358760Y-117471710D01*
X158358703Y-117471739D01*
X158309107Y-117499150D01*
X158029976Y-117674540D01*
X157983752Y-117707338D01*
X157726012Y-117912880D01*
X157683740Y-117950657D01*
X157450657Y-118183740D01*
X157412880Y-118226012D01*
X157207338Y-118483752D01*
X157174540Y-118529976D01*
X156999150Y-118809107D01*
X156971739Y-118858703D01*
X156971717Y-118858746D01*
X156884001Y-119040892D01*
X156837179Y-119092751D01*
X156769752Y-119111064D01*
X156703390Y-119090192D01*
X156629185Y-119040609D01*
X156629172Y-119040602D01*
X156483501Y-118980264D01*
X156483489Y-118980261D01*
X156328845Y-118949500D01*
X156328842Y-118949500D01*
X156171158Y-118949500D01*
X156171155Y-118949500D01*
X156016510Y-118980261D01*
X156016498Y-118980264D01*
X155870827Y-119040602D01*
X155870814Y-119040609D01*
X155739711Y-119128210D01*
X155739707Y-119128213D01*
X155628213Y-119239707D01*
X155628210Y-119239711D01*
X155540609Y-119370814D01*
X155540602Y-119370827D01*
X155480264Y-119516498D01*
X155480261Y-119516510D01*
X155449500Y-119671153D01*
X155449500Y-119828846D01*
X155480261Y-119983489D01*
X155480264Y-119983501D01*
X155540602Y-120129172D01*
X155540609Y-120129185D01*
X155628602Y-120260874D01*
X155649480Y-120327551D01*
X155649500Y-120329765D01*
X155649500Y-122113330D01*
X155649499Y-122113348D01*
X155649499Y-122279057D01*
X155650518Y-122286800D01*
X155639749Y-122355835D01*
X155593368Y-122408089D01*
X155526098Y-122426972D01*
X155459298Y-122406489D01*
X155439897Y-122390662D01*
X154486819Y-121437584D01*
X154453334Y-121376261D01*
X154450500Y-121349903D01*
X154450500Y-115029765D01*
X154470185Y-114962726D01*
X154471398Y-114960874D01*
X154524579Y-114881284D01*
X154559394Y-114829179D01*
X154619737Y-114683497D01*
X154650500Y-114528842D01*
X154650500Y-114371158D01*
X154650500Y-114371155D01*
X154650499Y-114371153D01*
X154639839Y-114317561D01*
X154619737Y-114216503D01*
X154619735Y-114216498D01*
X154559397Y-114070827D01*
X154559390Y-114070814D01*
X154471789Y-113939711D01*
X154471786Y-113939707D01*
X154372750Y-113840671D01*
X154339265Y-113779348D01*
X154344249Y-113709656D01*
X154386121Y-113653723D01*
X154406630Y-113641270D01*
X154641239Y-113528289D01*
X154641248Y-113528284D01*
X154641280Y-113528269D01*
X154690894Y-113500848D01*
X154970019Y-113325462D01*
X155016252Y-113292658D01*
X155273984Y-113087123D01*
X155316251Y-113049350D01*
X155549350Y-112816251D01*
X155587123Y-112773984D01*
X155792658Y-112516252D01*
X155825462Y-112470019D01*
X156000848Y-112190894D01*
X156028269Y-112141280D01*
X156119904Y-111950997D01*
X156171282Y-111844310D01*
X156171284Y-111844303D01*
X156171299Y-111844274D01*
X156192992Y-111791903D01*
X156197653Y-111778585D01*
X156235424Y-111670638D01*
X156301870Y-111480750D01*
X156310435Y-111451021D01*
X156317560Y-111426287D01*
X156317560Y-111426285D01*
X156317563Y-111426276D01*
X156390917Y-111104888D01*
X156400413Y-111049003D01*
X156403764Y-111019265D01*
X156437318Y-110721462D01*
X156437318Y-110721456D01*
X156437322Y-110721424D01*
X156440500Y-110664826D01*
X156440500Y-110335174D01*
X156437322Y-110278576D01*
X156409312Y-110029981D01*
X156400416Y-109951021D01*
X156400415Y-109951015D01*
X156400413Y-109950997D01*
X156390917Y-109895112D01*
X156317563Y-109573724D01*
X156317560Y-109573712D01*
X156301875Y-109519265D01*
X156301867Y-109519242D01*
X156287850Y-109479185D01*
X156256791Y-109390423D01*
X156192999Y-109208115D01*
X156192679Y-109207342D01*
X156171299Y-109155726D01*
X156171289Y-109155705D01*
X156171282Y-109155689D01*
X156085857Y-108978301D01*
X156074505Y-108909360D01*
X156102227Y-108845226D01*
X156160223Y-108806260D01*
X156197577Y-108800500D01*
X158194845Y-108800500D01*
X158261884Y-108820185D01*
G37*
%TD.AperFunction*%
%TA.AperFunction,Conductor*%
G36*
X146318834Y-88645048D02*
G01*
X146374767Y-88686920D01*
X146399184Y-88752384D01*
X146399500Y-88761230D01*
X146399500Y-88799902D01*
X146379815Y-88866941D01*
X146363181Y-88887583D01*
X145769481Y-89481282D01*
X145769479Y-89481285D01*
X145745409Y-89522976D01*
X145721338Y-89564669D01*
X145690423Y-89618215D01*
X145649499Y-89770943D01*
X145649499Y-89770945D01*
X145649499Y-89939046D01*
X145649500Y-89939059D01*
X145649500Y-93563330D01*
X145649499Y-93563348D01*
X145649499Y-93729054D01*
X145649498Y-93729054D01*
X145690424Y-93881789D01*
X145690425Y-93881790D01*
X145713030Y-93920942D01*
X145713031Y-93920944D01*
X145769475Y-94018709D01*
X145769481Y-94018717D01*
X145888349Y-94137585D01*
X145888354Y-94137589D01*
X146881284Y-95130520D01*
X146881286Y-95130521D01*
X146881290Y-95130524D01*
X147018209Y-95209573D01*
X147018216Y-95209577D01*
X147170943Y-95250501D01*
X147170945Y-95250501D01*
X147336654Y-95250501D01*
X147336670Y-95250500D01*
X147700902Y-95250500D01*
X147767941Y-95270185D01*
X147813696Y-95322989D01*
X147823640Y-95392147D01*
X147794615Y-95455703D01*
X147788583Y-95462181D01*
X146935339Y-96315425D01*
X146874016Y-96348910D01*
X146871850Y-96349361D01*
X146716508Y-96380261D01*
X146716498Y-96380264D01*
X146570827Y-96440602D01*
X146570814Y-96440609D01*
X146439711Y-96528210D01*
X146439707Y-96528213D01*
X146328213Y-96639707D01*
X146328210Y-96639711D01*
X146240609Y-96770814D01*
X146240602Y-96770827D01*
X146180264Y-96916498D01*
X146180261Y-96916510D01*
X146149500Y-97071153D01*
X146149500Y-97228846D01*
X146180261Y-97383489D01*
X146180264Y-97383501D01*
X146240602Y-97529172D01*
X146240609Y-97529185D01*
X146328210Y-97660288D01*
X146328213Y-97660292D01*
X146439707Y-97771786D01*
X146439711Y-97771789D01*
X146570814Y-97859390D01*
X146570827Y-97859397D01*
X146671907Y-97901265D01*
X146716503Y-97919737D01*
X146781147Y-97932595D01*
X146871849Y-97950638D01*
X146933760Y-97983023D01*
X146935339Y-97984574D01*
X147138084Y-98187319D01*
X147171569Y-98248642D01*
X147166585Y-98318334D01*
X147138068Y-98362697D01*
X147135323Y-98365441D01*
X147073994Y-98398915D01*
X147071850Y-98399361D01*
X146916508Y-98430261D01*
X146916498Y-98430264D01*
X146770827Y-98490602D01*
X146770814Y-98490609D01*
X146639711Y-98578210D01*
X146639707Y-98578213D01*
X146528213Y-98689707D01*
X146528210Y-98689711D01*
X146440609Y-98820814D01*
X146440602Y-98820827D01*
X146380264Y-98966498D01*
X146380261Y-98966510D01*
X146349500Y-99121153D01*
X146349500Y-99278846D01*
X146380261Y-99433489D01*
X146380264Y-99433501D01*
X146440602Y-99579172D01*
X146440609Y-99579185D01*
X146528210Y-99710288D01*
X146528213Y-99710292D01*
X146639707Y-99821786D01*
X146639711Y-99821789D01*
X146770814Y-99909390D01*
X146770827Y-99909397D01*
X146916498Y-99969735D01*
X146916503Y-99969737D01*
X147068433Y-99999958D01*
X147071153Y-100000499D01*
X147071156Y-100000500D01*
X147071158Y-100000500D01*
X147228844Y-100000500D01*
X147228845Y-100000499D01*
X147383497Y-99969737D01*
X147529179Y-99909394D01*
X147541804Y-99900957D01*
X147608478Y-99880080D01*
X147658144Y-99889498D01*
X147791503Y-99944737D01*
X147917176Y-99969735D01*
X147946153Y-99975499D01*
X147946156Y-99975500D01*
X147946158Y-99975500D01*
X148103844Y-99975500D01*
X148103845Y-99975499D01*
X148258497Y-99944737D01*
X148404179Y-99884394D01*
X148486343Y-99829494D01*
X148535875Y-99796398D01*
X148602553Y-99775520D01*
X148604766Y-99775500D01*
X148921453Y-99775500D01*
X148988492Y-99795185D01*
X149034247Y-99847989D01*
X149044191Y-99917147D01*
X149015166Y-99980703D01*
X148993208Y-100000630D01*
X148983754Y-100007338D01*
X148983748Y-100007342D01*
X148914671Y-100062429D01*
X148726012Y-100212880D01*
X148683740Y-100250657D01*
X148450657Y-100483740D01*
X148412880Y-100526012D01*
X148207338Y-100783752D01*
X148174540Y-100829976D01*
X147999150Y-101109107D01*
X147971739Y-101158703D01*
X147971710Y-101158760D01*
X147828717Y-101455689D01*
X147828701Y-101455726D01*
X147807000Y-101508115D01*
X147698132Y-101819242D01*
X147698124Y-101819265D01*
X147682439Y-101873712D01*
X147682438Y-101873718D01*
X147609086Y-102195096D01*
X147609084Y-102195107D01*
X147609083Y-102195112D01*
X147604163Y-102224062D01*
X147599583Y-102251019D01*
X147563384Y-102572302D01*
X147536318Y-102636716D01*
X147478723Y-102676271D01*
X147412572Y-102679309D01*
X147104903Y-102609086D01*
X147104895Y-102609084D01*
X147104888Y-102609083D01*
X147049003Y-102599587D01*
X147048998Y-102599586D01*
X147048978Y-102599583D01*
X146721462Y-102562681D01*
X146721436Y-102562679D01*
X146721424Y-102562678D01*
X146664826Y-102559500D01*
X146335174Y-102559500D01*
X146278576Y-102562678D01*
X146278564Y-102562679D01*
X146278537Y-102562681D01*
X145979185Y-102596410D01*
X145910363Y-102584355D01*
X145858984Y-102537006D01*
X145850741Y-102520642D01*
X145809397Y-102420827D01*
X145809390Y-102420814D01*
X145721789Y-102289711D01*
X145721786Y-102289707D01*
X145610292Y-102178213D01*
X145610288Y-102178210D01*
X145479185Y-102090609D01*
X145479180Y-102090607D01*
X145479179Y-102090606D01*
X145460993Y-102083073D01*
X145437571Y-102073371D01*
X145383168Y-102029529D01*
X145361104Y-101963234D01*
X145378384Y-101895535D01*
X145397337Y-101871136D01*
X145453828Y-101814646D01*
X145569524Y-101655405D01*
X145658884Y-101480025D01*
X145719709Y-101292826D01*
X145735281Y-101194508D01*
X145750500Y-101098422D01*
X145750500Y-100901577D01*
X145719709Y-100707173D01*
X145691487Y-100620317D01*
X145658884Y-100519975D01*
X145658882Y-100519972D01*
X145658882Y-100519970D01*
X145600890Y-100406154D01*
X145569524Y-100344595D01*
X145453828Y-100185354D01*
X145314646Y-100046172D01*
X145155405Y-99930476D01*
X144980029Y-99841117D01*
X144792826Y-99780290D01*
X144598422Y-99749500D01*
X144598417Y-99749500D01*
X144401583Y-99749500D01*
X144401578Y-99749500D01*
X144207173Y-99780290D01*
X144019970Y-99841117D01*
X143844594Y-99930476D01*
X143782625Y-99975500D01*
X143685354Y-100046172D01*
X143685352Y-100046174D01*
X143685351Y-100046174D01*
X143546174Y-100185351D01*
X143546174Y-100185352D01*
X143546172Y-100185354D01*
X143498731Y-100250650D01*
X143430476Y-100344594D01*
X143341117Y-100519970D01*
X143280290Y-100707173D01*
X143249500Y-100901577D01*
X143249500Y-101098422D01*
X143280290Y-101292826D01*
X143341117Y-101480029D01*
X143423736Y-101642177D01*
X143430476Y-101655405D01*
X143546172Y-101814646D01*
X143685354Y-101953828D01*
X143844595Y-102069524D01*
X143885977Y-102090609D01*
X144019970Y-102158882D01*
X144019972Y-102158882D01*
X144019975Y-102158884D01*
X144120317Y-102191487D01*
X144207173Y-102219709D01*
X144303295Y-102234933D01*
X144366430Y-102264862D01*
X144403362Y-102324173D01*
X144402364Y-102394036D01*
X144393263Y-102415846D01*
X144390608Y-102420814D01*
X144330264Y-102566498D01*
X144330261Y-102566510D01*
X144299500Y-102721153D01*
X144299500Y-102878846D01*
X144330261Y-103033489D01*
X144330264Y-103033501D01*
X144386790Y-103169968D01*
X144394259Y-103239437D01*
X144362983Y-103301916D01*
X144349543Y-103314366D01*
X144226014Y-103412878D01*
X144183740Y-103450657D01*
X143950657Y-103683740D01*
X143912880Y-103726012D01*
X143707338Y-103983752D01*
X143674540Y-104029976D01*
X143499150Y-104309107D01*
X143471739Y-104358703D01*
X143471710Y-104358760D01*
X143328717Y-104655689D01*
X143328701Y-104655726D01*
X143307000Y-104708115D01*
X143198132Y-105019242D01*
X143198124Y-105019265D01*
X143182439Y-105073712D01*
X143182438Y-105073718D01*
X143109086Y-105395096D01*
X143099583Y-105451021D01*
X143062681Y-105778537D01*
X143062679Y-105778564D01*
X143062678Y-105778576D01*
X143059500Y-105835174D01*
X143059500Y-105924234D01*
X143059500Y-106164826D01*
X143062678Y-106221424D01*
X143062679Y-106221436D01*
X143062681Y-106221462D01*
X143099583Y-106548978D01*
X143109086Y-106604903D01*
X143182438Y-106926281D01*
X143182439Y-106926287D01*
X143198124Y-106980734D01*
X143198132Y-106980757D01*
X143307000Y-107291884D01*
X143307008Y-107291903D01*
X143322250Y-107328701D01*
X143328701Y-107344273D01*
X143328717Y-107344310D01*
X143471710Y-107641239D01*
X143471739Y-107641296D01*
X143499150Y-107690892D01*
X143674540Y-107970023D01*
X143707338Y-108016247D01*
X143707342Y-108016252D01*
X143912877Y-108273984D01*
X143912880Y-108273987D01*
X143950657Y-108316259D01*
X143988478Y-108354080D01*
X144021963Y-108415403D01*
X144016979Y-108485095D01*
X143988479Y-108529442D01*
X143928210Y-108589711D01*
X143840609Y-108720814D01*
X143840602Y-108720827D01*
X143780264Y-108866498D01*
X143780261Y-108866510D01*
X143749500Y-109021153D01*
X143749500Y-109178846D01*
X143780261Y-109333489D01*
X143780264Y-109333501D01*
X143840602Y-109479172D01*
X143840609Y-109479185D01*
X143928602Y-109610874D01*
X143949480Y-109677551D01*
X143949500Y-109679765D01*
X143949500Y-114113330D01*
X143949499Y-114113348D01*
X143949499Y-114279054D01*
X143949498Y-114279054D01*
X143990423Y-114431786D01*
X143993614Y-114437311D01*
X143993617Y-114437323D01*
X143993620Y-114437322D01*
X144069477Y-114568712D01*
X144069481Y-114568717D01*
X144188349Y-114687585D01*
X144188355Y-114687590D01*
X144649417Y-115148652D01*
X144682902Y-115209975D01*
X144677918Y-115279667D01*
X144636046Y-115335600D01*
X144615538Y-115348053D01*
X144358746Y-115471717D01*
X144358703Y-115471739D01*
X144309107Y-115499150D01*
X144029976Y-115674540D01*
X143983752Y-115707338D01*
X143726012Y-115912880D01*
X143683740Y-115950657D01*
X143450657Y-116183740D01*
X143412880Y-116226012D01*
X143207338Y-116483752D01*
X143174540Y-116529976D01*
X143029494Y-116760817D01*
X142977159Y-116807108D01*
X142908106Y-116817756D01*
X142844257Y-116789381D01*
X142805885Y-116730991D01*
X142800500Y-116694845D01*
X142800500Y-92112230D01*
X142820185Y-92045191D01*
X142836819Y-92024549D01*
X146187819Y-88673549D01*
X146249142Y-88640064D01*
X146318834Y-88645048D01*
G37*
%TD.AperFunction*%
%TA.AperFunction,Conductor*%
G36*
X145355703Y-113205631D02*
G01*
X145371439Y-113222023D01*
X145412877Y-113273984D01*
X145428874Y-113291884D01*
X145450657Y-113316259D01*
X145683740Y-113549342D01*
X145683749Y-113549350D01*
X145726016Y-113587123D01*
X145983748Y-113792658D01*
X145983752Y-113792661D01*
X146029976Y-113825459D01*
X146309107Y-114000849D01*
X146358703Y-114028260D01*
X146358712Y-114028264D01*
X146358720Y-114028269D01*
X146358732Y-114028275D01*
X146358760Y-114028289D01*
X146655689Y-114171282D01*
X146655705Y-114171289D01*
X146655726Y-114171299D01*
X146708097Y-114192992D01*
X146708104Y-114192994D01*
X146708115Y-114192999D01*
X146939557Y-114273984D01*
X147019250Y-114301870D01*
X147019253Y-114301871D01*
X147019265Y-114301875D01*
X147073712Y-114317560D01*
X147073715Y-114317560D01*
X147073724Y-114317563D01*
X147395112Y-114390917D01*
X147450997Y-114400413D01*
X147451009Y-114400414D01*
X147451019Y-114400416D01*
X147467561Y-114402280D01*
X147531974Y-114429346D01*
X147571530Y-114486941D01*
X147573667Y-114556778D01*
X147537709Y-114616685D01*
X147475071Y-114647640D01*
X147453677Y-114649500D01*
X145900097Y-114649500D01*
X145833058Y-114629815D01*
X145812416Y-114613181D01*
X145186819Y-113987584D01*
X145153334Y-113926261D01*
X145150500Y-113899903D01*
X145150500Y-113299344D01*
X145170185Y-113232305D01*
X145222989Y-113186550D01*
X145292147Y-113176606D01*
X145355703Y-113205631D01*
G37*
%TD.AperFunction*%
%TA.AperFunction,Conductor*%
G36*
X165644036Y-101097635D02*
G01*
X165665854Y-101106740D01*
X165670812Y-101109389D01*
X165670815Y-101109390D01*
X165670821Y-101109394D01*
X165816503Y-101169737D01*
X165816511Y-101169738D01*
X165820317Y-101171315D01*
X165874720Y-101215156D01*
X165896786Y-101281450D01*
X165884586Y-101339678D01*
X165828699Y-101455729D01*
X165807000Y-101508115D01*
X165698132Y-101819242D01*
X165698124Y-101819265D01*
X165682439Y-101873712D01*
X165682438Y-101873718D01*
X165609086Y-102195096D01*
X165609084Y-102195107D01*
X165609083Y-102195112D01*
X165599587Y-102250997D01*
X165599583Y-102251021D01*
X165562681Y-102578537D01*
X165562679Y-102578564D01*
X165562678Y-102578576D01*
X165559500Y-102635174D01*
X165559500Y-102724234D01*
X165559500Y-102964826D01*
X165562678Y-103021424D01*
X165562679Y-103021436D01*
X165562681Y-103021462D01*
X165599583Y-103348978D01*
X165609086Y-103404903D01*
X165682438Y-103726281D01*
X165682439Y-103726287D01*
X165698124Y-103780734D01*
X165698132Y-103780757D01*
X165807000Y-104091884D01*
X165828701Y-104144273D01*
X165828717Y-104144310D01*
X165971710Y-104441239D01*
X165971739Y-104441296D01*
X165999150Y-104490892D01*
X166174540Y-104770023D01*
X166190065Y-104791903D01*
X166207342Y-104816252D01*
X166412877Y-105073984D01*
X166412880Y-105073987D01*
X166450657Y-105116259D01*
X166683740Y-105349342D01*
X166683749Y-105349350D01*
X166726016Y-105387123D01*
X166905154Y-105529981D01*
X166983752Y-105592661D01*
X167029976Y-105625459D01*
X167309107Y-105800849D01*
X167358703Y-105828260D01*
X167358712Y-105828264D01*
X167358720Y-105828269D01*
X167358732Y-105828275D01*
X167358760Y-105828289D01*
X167655689Y-105971282D01*
X167655705Y-105971289D01*
X167655726Y-105971299D01*
X167708097Y-105992992D01*
X167708104Y-105992994D01*
X167708115Y-105992999D01*
X167940497Y-106074313D01*
X168019250Y-106101870D01*
X168019253Y-106101871D01*
X168019265Y-106101875D01*
X168073712Y-106117560D01*
X168073715Y-106117560D01*
X168073724Y-106117563D01*
X168395112Y-106190917D01*
X168450997Y-106200413D01*
X168451015Y-106200415D01*
X168451021Y-106200416D01*
X168778537Y-106237318D01*
X168778549Y-106237319D01*
X168778576Y-106237322D01*
X168828068Y-106240101D01*
X168893896Y-106263511D01*
X168936619Y-106318797D01*
X168942671Y-106388404D01*
X168938157Y-106404859D01*
X168898125Y-106519262D01*
X168898124Y-106519265D01*
X168882439Y-106573712D01*
X168882438Y-106573718D01*
X168809086Y-106895096D01*
X168809084Y-106895107D01*
X168809083Y-106895112D01*
X168808182Y-106900416D01*
X168799583Y-106951021D01*
X168762681Y-107278537D01*
X168762679Y-107278564D01*
X168762678Y-107278576D01*
X168759500Y-107335174D01*
X168759500Y-107424234D01*
X168759500Y-107664826D01*
X168762678Y-107721424D01*
X168762679Y-107721436D01*
X168762681Y-107721462D01*
X168799583Y-108048978D01*
X168809086Y-108104903D01*
X168882438Y-108426281D01*
X168882439Y-108426287D01*
X168898124Y-108480734D01*
X168898132Y-108480757D01*
X169007000Y-108791884D01*
X169007008Y-108791903D01*
X169022250Y-108828701D01*
X169028701Y-108844273D01*
X169028717Y-108844310D01*
X169113481Y-109020324D01*
X169124833Y-109089265D01*
X169097111Y-109153399D01*
X169039115Y-109192365D01*
X169036087Y-109193279D01*
X169019265Y-109198124D01*
X169019242Y-109198132D01*
X168708115Y-109307000D01*
X168655726Y-109328701D01*
X168655689Y-109328717D01*
X168358760Y-109471710D01*
X168358703Y-109471739D01*
X168309107Y-109499150D01*
X168029976Y-109674540D01*
X167983752Y-109707338D01*
X167726012Y-109912880D01*
X167683740Y-109950657D01*
X167450657Y-110183740D01*
X167412880Y-110226012D01*
X167207338Y-110483752D01*
X167174540Y-110529976D01*
X166999150Y-110809107D01*
X166971739Y-110858703D01*
X166971717Y-110858746D01*
X166848053Y-111115538D01*
X166801231Y-111167397D01*
X166733803Y-111185710D01*
X166667179Y-111164662D01*
X166648652Y-111149417D01*
X165087590Y-109588355D01*
X165087588Y-109588352D01*
X164968717Y-109469481D01*
X164968716Y-109469480D01*
X164870676Y-109412877D01*
X164831785Y-109390423D01*
X164679057Y-109349499D01*
X164520943Y-109349499D01*
X164513347Y-109349499D01*
X164513331Y-109349500D01*
X162237902Y-109349500D01*
X162170863Y-109329815D01*
X162160589Y-109322447D01*
X162016247Y-109207338D01*
X161970023Y-109174540D01*
X161690892Y-108999150D01*
X161641296Y-108971739D01*
X161641239Y-108971710D01*
X161344310Y-108828717D01*
X161344282Y-108828705D01*
X161344274Y-108828701D01*
X161291903Y-108807008D01*
X161291905Y-108807008D01*
X161291884Y-108807000D01*
X160980757Y-108698132D01*
X160980734Y-108698124D01*
X160926287Y-108682439D01*
X160926281Y-108682438D01*
X160604903Y-108609086D01*
X160604895Y-108609084D01*
X160604888Y-108609083D01*
X160549003Y-108599587D01*
X160548998Y-108599586D01*
X160548978Y-108599583D01*
X160221462Y-108562681D01*
X160221436Y-108562679D01*
X160221424Y-108562678D01*
X160164826Y-108559500D01*
X159835174Y-108559500D01*
X159778576Y-108562678D01*
X159778574Y-108562678D01*
X159778560Y-108562679D01*
X159777977Y-108562745D01*
X159777913Y-108562733D01*
X159776832Y-108562825D01*
X159776807Y-108562539D01*
X159709158Y-108550676D01*
X159676438Y-108527203D01*
X158987590Y-107838355D01*
X158987588Y-107838352D01*
X158868717Y-107719481D01*
X158868709Y-107719475D01*
X158774053Y-107664826D01*
X158774051Y-107664825D01*
X158731790Y-107640425D01*
X158731789Y-107640424D01*
X158719263Y-107637067D01*
X158579057Y-107599499D01*
X158420943Y-107599499D01*
X158413347Y-107599499D01*
X158413331Y-107599500D01*
X154886321Y-107599500D01*
X154820349Y-107580494D01*
X154690884Y-107499146D01*
X154641296Y-107471739D01*
X154641239Y-107471710D01*
X154344310Y-107328717D01*
X154344282Y-107328705D01*
X154344274Y-107328701D01*
X154291903Y-107307008D01*
X154291905Y-107307008D01*
X154291884Y-107307000D01*
X153980757Y-107198132D01*
X153980734Y-107198124D01*
X153926287Y-107182439D01*
X153926281Y-107182438D01*
X153604903Y-107109086D01*
X153604895Y-107109084D01*
X153604888Y-107109083D01*
X153549003Y-107099587D01*
X153548998Y-107099586D01*
X153548978Y-107099583D01*
X153221462Y-107062681D01*
X153221436Y-107062679D01*
X153221424Y-107062678D01*
X153164826Y-107059500D01*
X152835174Y-107059500D01*
X152778576Y-107062678D01*
X152778564Y-107062679D01*
X152778537Y-107062681D01*
X152451021Y-107099583D01*
X152450998Y-107099586D01*
X152450997Y-107099587D01*
X152395112Y-107109083D01*
X152395107Y-107109084D01*
X152395096Y-107109086D01*
X152073718Y-107182438D01*
X152073712Y-107182439D01*
X152019265Y-107198124D01*
X152019242Y-107198132D01*
X151708115Y-107307000D01*
X151655726Y-107328701D01*
X151655689Y-107328717D01*
X151358760Y-107471710D01*
X151358703Y-107471739D01*
X151309107Y-107499150D01*
X151029976Y-107674540D01*
X150983752Y-107707338D01*
X150726012Y-107912880D01*
X150683740Y-107950657D01*
X150450657Y-108183740D01*
X150412878Y-108226014D01*
X150345107Y-108310995D01*
X150287918Y-108351135D01*
X150218107Y-108353984D01*
X150170849Y-108330628D01*
X150016261Y-108207348D01*
X150016252Y-108207342D01*
X149970023Y-108174540D01*
X149690892Y-107999150D01*
X149641296Y-107971739D01*
X149641253Y-107971717D01*
X149523015Y-107914777D01*
X149471156Y-107867955D01*
X149452843Y-107800528D01*
X149471825Y-107737083D01*
X149481641Y-107721462D01*
X149500848Y-107690894D01*
X149528269Y-107641280D01*
X149596717Y-107499146D01*
X149671282Y-107344310D01*
X149671284Y-107344303D01*
X149671299Y-107344274D01*
X149692992Y-107291903D01*
X149697653Y-107278585D01*
X149774314Y-107059500D01*
X149801870Y-106980750D01*
X149810435Y-106951021D01*
X149817560Y-106926287D01*
X149817560Y-106926285D01*
X149817563Y-106926276D01*
X149890917Y-106604888D01*
X149900413Y-106549003D01*
X149936615Y-106227697D01*
X149963681Y-106163284D01*
X150021276Y-106123729D01*
X150087425Y-106120690D01*
X150395112Y-106190917D01*
X150450997Y-106200413D01*
X150451015Y-106200415D01*
X150451021Y-106200416D01*
X150778537Y-106237318D01*
X150778544Y-106237318D01*
X150778576Y-106237322D01*
X150835174Y-106240500D01*
X150835192Y-106240500D01*
X151164808Y-106240500D01*
X151164826Y-106240500D01*
X151221424Y-106237322D01*
X151221456Y-106237318D01*
X151221462Y-106237318D01*
X151548978Y-106200416D01*
X151548981Y-106200415D01*
X151549003Y-106200413D01*
X151604888Y-106190917D01*
X151926276Y-106117563D01*
X151926285Y-106117560D01*
X151926287Y-106117560D01*
X151980734Y-106101875D01*
X151980740Y-106101872D01*
X151980750Y-106101870D01*
X152170638Y-106035424D01*
X152291884Y-105992999D01*
X152291889Y-105992996D01*
X152291903Y-105992992D01*
X152344274Y-105971299D01*
X152344303Y-105971284D01*
X152344310Y-105971282D01*
X152641239Y-105828289D01*
X152641248Y-105828284D01*
X152641280Y-105828269D01*
X152690894Y-105800848D01*
X152970019Y-105625462D01*
X153016252Y-105592658D01*
X153273984Y-105387123D01*
X153316251Y-105349350D01*
X153549350Y-105116251D01*
X153587123Y-105073984D01*
X153792658Y-104816252D01*
X153825462Y-104770019D01*
X154000848Y-104490894D01*
X154028269Y-104441280D01*
X154035495Y-104426276D01*
X154171282Y-104144310D01*
X154171284Y-104144303D01*
X154171299Y-104144274D01*
X154192992Y-104091903D01*
X154203218Y-104062681D01*
X154261843Y-103895139D01*
X154301870Y-103780750D01*
X154317563Y-103726276D01*
X154359785Y-103541283D01*
X154393892Y-103480307D01*
X154455553Y-103447448D01*
X154504866Y-103447260D01*
X154521153Y-103450499D01*
X154521156Y-103450500D01*
X154521158Y-103450500D01*
X154678844Y-103450500D01*
X154678845Y-103450499D01*
X154833497Y-103419737D01*
X154979179Y-103359394D01*
X155110289Y-103271789D01*
X155221789Y-103160289D01*
X155309394Y-103029179D01*
X155312591Y-103021462D01*
X155364926Y-102895112D01*
X155369737Y-102883497D01*
X155400500Y-102728842D01*
X155400500Y-102571158D01*
X155400500Y-102571155D01*
X155400499Y-102571153D01*
X155370596Y-102420821D01*
X155369737Y-102416503D01*
X155361092Y-102395633D01*
X155353623Y-102326167D01*
X155384896Y-102263687D01*
X155444985Y-102228033D01*
X155495051Y-102225708D01*
X155651578Y-102250500D01*
X155651583Y-102250500D01*
X155848422Y-102250500D01*
X156042826Y-102219709D01*
X156078508Y-102208115D01*
X156230025Y-102158884D01*
X156405405Y-102069524D01*
X156564646Y-101953828D01*
X156703828Y-101814646D01*
X156751519Y-101749005D01*
X156806848Y-101706340D01*
X156876461Y-101700361D01*
X156938256Y-101732966D01*
X156972613Y-101793805D01*
X156968625Y-101863561D01*
X156963556Y-101875692D01*
X156828717Y-102155689D01*
X156828701Y-102155726D01*
X156807000Y-102208115D01*
X156698132Y-102519242D01*
X156698124Y-102519265D01*
X156682439Y-102573712D01*
X156682438Y-102573718D01*
X156609086Y-102895096D01*
X156599583Y-102951021D01*
X156562681Y-103278537D01*
X156562679Y-103278564D01*
X156562678Y-103278576D01*
X156559500Y-103335174D01*
X156559500Y-103424234D01*
X156559500Y-103664826D01*
X156562678Y-103721424D01*
X156562679Y-103721436D01*
X156562681Y-103721462D01*
X156599583Y-104048978D01*
X156599586Y-104048998D01*
X156599587Y-104049003D01*
X156608182Y-104099587D01*
X156609086Y-104104903D01*
X156682438Y-104426281D01*
X156682439Y-104426287D01*
X156698124Y-104480734D01*
X156698132Y-104480757D01*
X156807000Y-104791884D01*
X156828701Y-104844273D01*
X156828717Y-104844310D01*
X156971710Y-105141239D01*
X156971739Y-105141296D01*
X156999150Y-105190892D01*
X157174540Y-105470023D01*
X157207338Y-105516247D01*
X157207342Y-105516252D01*
X157412877Y-105773984D01*
X157412880Y-105773987D01*
X157450657Y-105816259D01*
X157683740Y-106049342D01*
X157683749Y-106049350D01*
X157726016Y-106087123D01*
X157947199Y-106263511D01*
X157983752Y-106292661D01*
X158029976Y-106325459D01*
X158309107Y-106500849D01*
X158358703Y-106528260D01*
X158358712Y-106528264D01*
X158358720Y-106528269D01*
X158358732Y-106528275D01*
X158358760Y-106528289D01*
X158655689Y-106671282D01*
X158655705Y-106671289D01*
X158655726Y-106671299D01*
X158708097Y-106692992D01*
X158708104Y-106692994D01*
X158708115Y-106692999D01*
X158950039Y-106777652D01*
X159019250Y-106801870D01*
X159019253Y-106801871D01*
X159019265Y-106801875D01*
X159073712Y-106817560D01*
X159073715Y-106817560D01*
X159073724Y-106817563D01*
X159395112Y-106890917D01*
X159450997Y-106900413D01*
X159451015Y-106900415D01*
X159451021Y-106900416D01*
X159778537Y-106937318D01*
X159778544Y-106937318D01*
X159778576Y-106937322D01*
X159835174Y-106940500D01*
X159835192Y-106940500D01*
X160164808Y-106940500D01*
X160164826Y-106940500D01*
X160221424Y-106937322D01*
X160221456Y-106937318D01*
X160221462Y-106937318D01*
X160548978Y-106900416D01*
X160548981Y-106900415D01*
X160549003Y-106900413D01*
X160604888Y-106890917D01*
X160926276Y-106817563D01*
X160926285Y-106817560D01*
X160926287Y-106817560D01*
X160980734Y-106801875D01*
X160980740Y-106801872D01*
X160980750Y-106801870D01*
X161170638Y-106735424D01*
X161291884Y-106692999D01*
X161291889Y-106692996D01*
X161291903Y-106692992D01*
X161344274Y-106671299D01*
X161344303Y-106671284D01*
X161344310Y-106671282D01*
X161641239Y-106528289D01*
X161641248Y-106528284D01*
X161641280Y-106528269D01*
X161690894Y-106500848D01*
X161970019Y-106325462D01*
X162016252Y-106292658D01*
X162273984Y-106087123D01*
X162316251Y-106049350D01*
X162549350Y-105816251D01*
X162587123Y-105773984D01*
X162792658Y-105516252D01*
X162825462Y-105470019D01*
X163000848Y-105190894D01*
X163028269Y-105141280D01*
X163028289Y-105141239D01*
X163171282Y-104844310D01*
X163171284Y-104844303D01*
X163171299Y-104844274D01*
X163192992Y-104791903D01*
X163222582Y-104707342D01*
X163240656Y-104655689D01*
X163301870Y-104480750D01*
X163304469Y-104471731D01*
X163317560Y-104426287D01*
X163317560Y-104426285D01*
X163317563Y-104426276D01*
X163390917Y-104104888D01*
X163400413Y-104049003D01*
X163400416Y-104048978D01*
X163437318Y-103721462D01*
X163437318Y-103721456D01*
X163437322Y-103721424D01*
X163440500Y-103664826D01*
X163440500Y-103335174D01*
X163437322Y-103278576D01*
X163436557Y-103271789D01*
X163400416Y-102951021D01*
X163400415Y-102951015D01*
X163400413Y-102950997D01*
X163390917Y-102895112D01*
X163317563Y-102573724D01*
X163317560Y-102573712D01*
X163301875Y-102519265D01*
X163301867Y-102519242D01*
X163192999Y-102208115D01*
X163187613Y-102195112D01*
X163171299Y-102155726D01*
X163171289Y-102155705D01*
X163171282Y-102155689D01*
X163036443Y-101875692D01*
X163025091Y-101806751D01*
X163052813Y-101742617D01*
X163110809Y-101703651D01*
X163180664Y-101702226D01*
X163240200Y-101738794D01*
X163248478Y-101749002D01*
X163296172Y-101814646D01*
X163435354Y-101953828D01*
X163594595Y-102069524D01*
X163635977Y-102090609D01*
X163769970Y-102158882D01*
X163769972Y-102158882D01*
X163769975Y-102158884D01*
X163870317Y-102191487D01*
X163957173Y-102219709D01*
X164151578Y-102250500D01*
X164151583Y-102250500D01*
X164348422Y-102250500D01*
X164542826Y-102219709D01*
X164578508Y-102208115D01*
X164730025Y-102158884D01*
X164905405Y-102069524D01*
X165064646Y-101953828D01*
X165203828Y-101814646D01*
X165319524Y-101655405D01*
X165408884Y-101480025D01*
X165469709Y-101292826D01*
X165484933Y-101196703D01*
X165514862Y-101133569D01*
X165574173Y-101096637D01*
X165644036Y-101097635D01*
G37*
%TD.AperFunction*%
%TA.AperFunction,Conductor*%
G36*
X164395741Y-45196130D02*
G01*
X164416375Y-45212755D01*
X164656441Y-45452774D01*
X164656461Y-45452798D01*
X164689632Y-45485960D01*
X164689647Y-45485974D01*
X164697067Y-45493392D01*
X164697068Y-45493394D01*
X164697069Y-45493394D01*
X164717865Y-45514185D01*
X164717871Y-45514190D01*
X164734949Y-45531262D01*
X164841480Y-45602425D01*
X164927922Y-45638225D01*
X164959841Y-45651445D01*
X164959843Y-45651446D01*
X165001727Y-45659778D01*
X165085495Y-45676442D01*
X165105184Y-45676442D01*
X165105201Y-45676445D01*
X165119629Y-45676445D01*
X165149551Y-45676445D01*
X165149554Y-45676445D01*
X165183903Y-45676448D01*
X165183904Y-45676447D01*
X165198315Y-45676448D01*
X165198350Y-45676445D01*
X170789880Y-45676445D01*
X170789884Y-45676444D01*
X170799354Y-45676444D01*
X170883894Y-45659626D01*
X170925025Y-45651445D01*
X171043407Y-45602409D01*
X171097403Y-45566330D01*
X171149942Y-45531227D01*
X171149942Y-45531226D01*
X171149949Y-45531222D01*
X171163878Y-45517292D01*
X171163883Y-45517289D01*
X171174085Y-45507086D01*
X171174087Y-45507086D01*
X171468408Y-45212763D01*
X171529731Y-45179279D01*
X171556089Y-45176445D01*
X173667888Y-45176445D01*
X173734927Y-45196130D01*
X173780682Y-45248934D01*
X173791888Y-45300445D01*
X173791888Y-47626603D01*
X173826845Y-47824855D01*
X173872592Y-47950545D01*
X173884767Y-47983996D01*
X173895695Y-48014019D01*
X173895699Y-48014029D01*
X173996350Y-48188362D01*
X173996355Y-48188369D01*
X174033201Y-48232279D01*
X174125754Y-48342579D01*
X174230249Y-48430261D01*
X174276676Y-48469219D01*
X174279967Y-48471980D01*
X174454308Y-48572636D01*
X174643479Y-48641488D01*
X174841732Y-48676445D01*
X174912452Y-48676445D01*
X175894714Y-48676445D01*
X175961753Y-48696130D01*
X176007508Y-48748934D01*
X176017452Y-48818092D01*
X175988427Y-48881648D01*
X175956715Y-48907832D01*
X175941870Y-48916402D01*
X175744225Y-49068060D01*
X175744218Y-49068066D01*
X175568066Y-49244218D01*
X175568060Y-49244225D01*
X175416400Y-49441873D01*
X175291837Y-49657623D01*
X175291830Y-49657638D01*
X175196498Y-49887792D01*
X175132017Y-50128438D01*
X175099501Y-50375424D01*
X175099500Y-50375441D01*
X175099500Y-50624558D01*
X175099501Y-50624575D01*
X175132017Y-50871561D01*
X175196498Y-51112207D01*
X175291830Y-51342361D01*
X175291837Y-51342376D01*
X175416400Y-51558126D01*
X175568060Y-51755774D01*
X175568066Y-51755781D01*
X175744218Y-51931933D01*
X175744225Y-51931939D01*
X175941873Y-52083599D01*
X176157623Y-52208162D01*
X176157638Y-52208169D01*
X176256825Y-52249253D01*
X176387793Y-52303502D01*
X176628435Y-52367982D01*
X176875435Y-52400500D01*
X176875442Y-52400500D01*
X177124558Y-52400500D01*
X177124565Y-52400500D01*
X177371565Y-52367982D01*
X177612207Y-52303502D01*
X177842373Y-52208164D01*
X178058127Y-52083599D01*
X178255776Y-51931938D01*
X178431938Y-51755776D01*
X178583599Y-51558127D01*
X178700790Y-51355145D01*
X178751354Y-51306932D01*
X178819961Y-51293708D01*
X178884826Y-51319676D01*
X178925355Y-51376590D01*
X178929181Y-51390065D01*
X179155326Y-52400498D01*
X180631465Y-58996009D01*
X180638894Y-59029200D01*
X180641888Y-59056282D01*
X180641888Y-127609624D01*
X180641014Y-127624320D01*
X178819798Y-142883142D01*
X178792307Y-142947376D01*
X178734453Y-142986550D01*
X178714615Y-142991141D01*
X178584803Y-143010124D01*
X178584786Y-143010128D01*
X178354757Y-143078870D01*
X178137095Y-143180175D01*
X178137093Y-143180177D01*
X177936383Y-143311905D01*
X177936376Y-143311911D01*
X177756840Y-143471293D01*
X177602241Y-143654990D01*
X177602238Y-143654994D01*
X177475865Y-143859097D01*
X177475859Y-143859109D01*
X177380335Y-144079377D01*
X177317692Y-144311130D01*
X177317689Y-144311141D01*
X177303525Y-144430292D01*
X177303520Y-144430338D01*
X177302853Y-144435931D01*
X177302851Y-144435943D01*
X176704632Y-149448055D01*
X176704632Y-149448056D01*
X176700917Y-149479178D01*
X176700062Y-149485117D01*
X176639571Y-149843538D01*
X176637004Y-149855258D01*
X176542946Y-150203234D01*
X176539259Y-150214652D01*
X176412003Y-150551926D01*
X176407229Y-150562934D01*
X176247973Y-150886326D01*
X176242157Y-150896821D01*
X176052399Y-151203293D01*
X176045597Y-151213177D01*
X175827096Y-151499890D01*
X175819370Y-151509070D01*
X175574185Y-151773319D01*
X175565613Y-151781704D01*
X175444939Y-151888831D01*
X175296038Y-152021018D01*
X175286690Y-152028540D01*
X174995240Y-152240684D01*
X174985209Y-152247267D01*
X174674627Y-152430246D01*
X174664006Y-152435829D01*
X174337203Y-152587929D01*
X174326093Y-152592460D01*
X173986109Y-152712266D01*
X173974613Y-152715702D01*
X173624635Y-152802090D01*
X173612861Y-152804398D01*
X173256187Y-152856554D01*
X173244244Y-152857714D01*
X172881184Y-152875300D01*
X172875185Y-152875445D01*
X153539440Y-152875445D01*
X153472401Y-152855760D01*
X153426646Y-152802956D01*
X153416702Y-152733798D01*
X153445727Y-152670242D01*
X153470549Y-152648343D01*
X153488508Y-152636342D01*
X153510289Y-152621789D01*
X153621789Y-152510289D01*
X153709394Y-152379179D01*
X153769737Y-152233497D01*
X153800500Y-152078842D01*
X153800500Y-151921158D01*
X153800500Y-151921155D01*
X153800499Y-151921153D01*
X153772762Y-151781710D01*
X153769737Y-151766503D01*
X153754614Y-151729993D01*
X153709397Y-151620827D01*
X153709390Y-151620814D01*
X153621789Y-151489711D01*
X153621786Y-151489707D01*
X153510292Y-151378213D01*
X153510288Y-151378210D01*
X153379185Y-151290609D01*
X153379172Y-151290602D01*
X153233501Y-151230264D01*
X153233489Y-151230261D01*
X153078845Y-151199500D01*
X153078842Y-151199500D01*
X152921158Y-151199500D01*
X152921155Y-151199500D01*
X152766510Y-151230261D01*
X152766498Y-151230264D01*
X152620827Y-151290602D01*
X152620814Y-151290609D01*
X152489711Y-151378210D01*
X152489707Y-151378213D01*
X152378213Y-151489707D01*
X152378210Y-151489711D01*
X152290609Y-151620814D01*
X152290602Y-151620827D01*
X152230264Y-151766498D01*
X152230261Y-151766510D01*
X152199500Y-151921153D01*
X152199500Y-152078846D01*
X152230261Y-152233489D01*
X152230264Y-152233501D01*
X152290602Y-152379172D01*
X152290609Y-152379185D01*
X152378210Y-152510288D01*
X152378213Y-152510292D01*
X152489707Y-152621786D01*
X152489711Y-152621789D01*
X152529451Y-152648343D01*
X152574256Y-152701955D01*
X152582963Y-152771280D01*
X152552808Y-152834308D01*
X152493365Y-152871027D01*
X152460560Y-152875445D01*
X148539440Y-152875445D01*
X148472401Y-152855760D01*
X148426646Y-152802956D01*
X148416702Y-152733798D01*
X148445727Y-152670242D01*
X148470549Y-152648343D01*
X148488508Y-152636342D01*
X148510289Y-152621789D01*
X148621789Y-152510289D01*
X148709394Y-152379179D01*
X148769737Y-152233497D01*
X148800500Y-152078842D01*
X148800500Y-151921158D01*
X148800500Y-151921155D01*
X148800499Y-151921153D01*
X148772762Y-151781710D01*
X148769737Y-151766503D01*
X148754614Y-151729993D01*
X148709397Y-151620827D01*
X148709390Y-151620814D01*
X148621789Y-151489711D01*
X148621786Y-151489707D01*
X148510292Y-151378213D01*
X148510288Y-151378210D01*
X148379185Y-151290609D01*
X148379172Y-151290602D01*
X148233501Y-151230264D01*
X148233489Y-151230261D01*
X148078845Y-151199500D01*
X148078842Y-151199500D01*
X147921158Y-151199500D01*
X147921155Y-151199500D01*
X147766510Y-151230261D01*
X147766498Y-151230264D01*
X147620827Y-151290602D01*
X147620814Y-151290609D01*
X147489711Y-151378210D01*
X147489707Y-151378213D01*
X147378213Y-151489707D01*
X147378210Y-151489711D01*
X147290609Y-151620814D01*
X147290602Y-151620827D01*
X147230264Y-151766498D01*
X147230261Y-151766510D01*
X147199500Y-151921153D01*
X147199500Y-152078846D01*
X147230261Y-152233489D01*
X147230264Y-152233501D01*
X147290602Y-152379172D01*
X147290609Y-152379185D01*
X147378210Y-152510288D01*
X147378213Y-152510292D01*
X147489707Y-152621786D01*
X147489711Y-152621789D01*
X147529451Y-152648343D01*
X147574256Y-152701955D01*
X147582963Y-152771280D01*
X147552808Y-152834308D01*
X147493365Y-152871027D01*
X147460560Y-152875445D01*
X147009591Y-152875445D01*
X147003592Y-152875300D01*
X146640531Y-152857714D01*
X146628588Y-152856554D01*
X146271914Y-152804397D01*
X146260140Y-152802089D01*
X145910162Y-152715702D01*
X145898666Y-152712266D01*
X145558682Y-152592459D01*
X145547572Y-152587928D01*
X145220769Y-152435828D01*
X145210148Y-152430245D01*
X144899566Y-152247266D01*
X144889535Y-152240683D01*
X144598091Y-152028544D01*
X144588743Y-152021022D01*
X144319162Y-151781704D01*
X144310585Y-151773313D01*
X144065406Y-151509069D01*
X144057680Y-151499889D01*
X143839179Y-151213177D01*
X143832377Y-151203293D01*
X143642619Y-150896821D01*
X143642613Y-150896811D01*
X143636803Y-150886326D01*
X143477547Y-150562933D01*
X143472773Y-150551925D01*
X143345517Y-150214652D01*
X143341830Y-150203234D01*
X143247771Y-149855258D01*
X143245204Y-149843538D01*
X143184713Y-149485117D01*
X143183859Y-149479185D01*
X143180144Y-149448055D01*
X142581081Y-144428866D01*
X142574052Y-144369737D01*
X142567086Y-144311141D01*
X142567085Y-144311139D01*
X142567085Y-144311135D01*
X142504438Y-144079370D01*
X142408916Y-143859108D01*
X142393058Y-143833497D01*
X142282536Y-143654995D01*
X142282528Y-143654983D01*
X142248592Y-143614660D01*
X142127938Y-143471296D01*
X142077237Y-143426287D01*
X141948398Y-143311911D01*
X141948396Y-143311910D01*
X141948395Y-143311909D01*
X141747680Y-143180176D01*
X141733349Y-143173506D01*
X141530019Y-143078872D01*
X141390924Y-143037304D01*
X141299986Y-143010127D01*
X141299983Y-143010126D01*
X141299978Y-143010125D01*
X141299980Y-143010125D01*
X141170160Y-142991142D01*
X141106674Y-142961965D01*
X141069041Y-142903096D01*
X141064976Y-142883143D01*
X141060912Y-142849097D01*
X139706242Y-131499146D01*
X139243762Y-127624313D01*
X139242888Y-127609617D01*
X139242888Y-121623920D01*
X141299499Y-121623920D01*
X141328340Y-121768907D01*
X141328343Y-121768917D01*
X141384914Y-121905492D01*
X141384915Y-121905494D01*
X141384916Y-121905495D01*
X141406179Y-121937318D01*
X141406181Y-121937320D01*
X141406182Y-121937323D01*
X141467046Y-122028414D01*
X141467052Y-122028421D01*
X142921580Y-123482948D01*
X142921584Y-123482951D01*
X143044498Y-123565080D01*
X143044511Y-123565087D01*
X143130977Y-123600902D01*
X143181087Y-123621658D01*
X143181091Y-123621658D01*
X143181092Y-123621659D01*
X143326079Y-123650500D01*
X143326082Y-123650500D01*
X143473917Y-123650500D01*
X144395396Y-123650500D01*
X144442844Y-123659937D01*
X144466503Y-123669737D01*
X144466508Y-123669738D01*
X144466511Y-123669739D01*
X144621153Y-123700499D01*
X144621156Y-123700500D01*
X144621158Y-123700500D01*
X144778844Y-123700500D01*
X144778845Y-123700499D01*
X144933497Y-123669737D01*
X145079179Y-123609394D01*
X145210289Y-123521789D01*
X145321789Y-123410289D01*
X145409394Y-123279179D01*
X145469737Y-123133497D01*
X145500500Y-122978842D01*
X145500500Y-122821158D01*
X145500500Y-122821155D01*
X145500499Y-122821153D01*
X145469738Y-122666510D01*
X145469737Y-122666503D01*
X145469735Y-122666498D01*
X145409397Y-122520827D01*
X145409390Y-122520814D01*
X145321789Y-122389711D01*
X145321786Y-122389707D01*
X145210292Y-122278213D01*
X145210288Y-122278210D01*
X145079185Y-122190609D01*
X145079172Y-122190602D01*
X144933501Y-122130264D01*
X144933489Y-122130261D01*
X144778845Y-122099500D01*
X144778842Y-122099500D01*
X144621158Y-122099500D01*
X144621155Y-122099500D01*
X144466511Y-122130260D01*
X144466506Y-122130262D01*
X144466504Y-122130262D01*
X144466503Y-122130263D01*
X144442844Y-122140062D01*
X144395396Y-122149500D01*
X143762229Y-122149500D01*
X143695190Y-122129815D01*
X143674548Y-122113181D01*
X142836819Y-121275451D01*
X142803334Y-121214128D01*
X142800500Y-121187770D01*
X142800500Y-120305154D01*
X142820185Y-120238115D01*
X142872989Y-120192360D01*
X142942147Y-120182416D01*
X143005703Y-120211441D01*
X143029491Y-120239179D01*
X143086411Y-120329765D01*
X143174540Y-120470023D01*
X143207338Y-120516247D01*
X143207342Y-120516252D01*
X143412877Y-120773984D01*
X143412880Y-120773987D01*
X143450657Y-120816259D01*
X143683740Y-121049342D01*
X143683749Y-121049350D01*
X143726016Y-121087123D01*
X143885275Y-121214128D01*
X143983752Y-121292661D01*
X144029976Y-121325459D01*
X144309107Y-121500849D01*
X144358703Y-121528260D01*
X144358707Y-121528262D01*
X144358720Y-121528269D01*
X144358732Y-121528275D01*
X144358760Y-121528289D01*
X144655689Y-121671282D01*
X144655705Y-121671289D01*
X144655726Y-121671299D01*
X144708097Y-121692992D01*
X144708104Y-121692994D01*
X144708115Y-121692999D01*
X144925048Y-121768907D01*
X145019250Y-121801870D01*
X145019253Y-121801871D01*
X145019265Y-121801875D01*
X145073712Y-121817560D01*
X145073715Y-121817560D01*
X145073724Y-121817563D01*
X145395112Y-121890917D01*
X145450997Y-121900413D01*
X145451015Y-121900415D01*
X145451021Y-121900416D01*
X145778537Y-121937318D01*
X145778544Y-121937318D01*
X145778576Y-121937322D01*
X145835174Y-121940500D01*
X145835192Y-121940500D01*
X146164808Y-121940500D01*
X146164826Y-121940500D01*
X146221424Y-121937322D01*
X146221456Y-121937318D01*
X146221462Y-121937318D01*
X146548978Y-121900416D01*
X146548981Y-121900415D01*
X146549003Y-121900413D01*
X146604888Y-121890917D01*
X146926276Y-121817563D01*
X146926285Y-121817560D01*
X146926287Y-121817560D01*
X146980734Y-121801875D01*
X146980740Y-121801872D01*
X146980750Y-121801870D01*
X147188836Y-121729057D01*
X147291884Y-121692999D01*
X147291889Y-121692996D01*
X147291903Y-121692992D01*
X147344274Y-121671299D01*
X147344303Y-121671284D01*
X147344310Y-121671282D01*
X147641239Y-121528289D01*
X147641248Y-121528284D01*
X147641280Y-121528269D01*
X147680525Y-121506578D01*
X147748719Y-121491377D01*
X147814308Y-121515458D01*
X147828188Y-121527424D01*
X149888583Y-123587819D01*
X149922068Y-123649142D01*
X149917084Y-123718834D01*
X149875212Y-123774767D01*
X149809748Y-123799184D01*
X149800902Y-123799500D01*
X149186321Y-123799500D01*
X149120349Y-123780494D01*
X149054407Y-123739060D01*
X148990894Y-123699152D01*
X148990890Y-123699149D01*
X148990884Y-123699146D01*
X148941296Y-123671739D01*
X148941239Y-123671710D01*
X148644310Y-123528717D01*
X148644282Y-123528705D01*
X148644274Y-123528701D01*
X148591903Y-123507008D01*
X148591905Y-123507008D01*
X148591884Y-123507000D01*
X148280757Y-123398132D01*
X148280734Y-123398124D01*
X148226287Y-123382439D01*
X148226281Y-123382438D01*
X147904903Y-123309086D01*
X147904895Y-123309084D01*
X147904888Y-123309083D01*
X147849003Y-123299587D01*
X147848998Y-123299586D01*
X147848978Y-123299583D01*
X147521462Y-123262681D01*
X147521436Y-123262679D01*
X147521424Y-123262678D01*
X147464826Y-123259500D01*
X147135174Y-123259500D01*
X147078576Y-123262678D01*
X147078564Y-123262679D01*
X147078537Y-123262681D01*
X146751021Y-123299583D01*
X146750998Y-123299586D01*
X146750997Y-123299587D01*
X146695112Y-123309083D01*
X146695107Y-123309084D01*
X146695096Y-123309086D01*
X146373718Y-123382438D01*
X146373712Y-123382439D01*
X146319265Y-123398124D01*
X146319242Y-123398132D01*
X146008115Y-123507000D01*
X145955726Y-123528701D01*
X145955689Y-123528717D01*
X145658760Y-123671710D01*
X145658703Y-123671739D01*
X145609107Y-123699150D01*
X145329976Y-123874540D01*
X145283752Y-123907338D01*
X145026012Y-124112880D01*
X144983740Y-124150657D01*
X144750657Y-124383740D01*
X144712880Y-124426012D01*
X144507338Y-124683752D01*
X144474540Y-124729976D01*
X144299150Y-125009107D01*
X144271739Y-125058703D01*
X144271710Y-125058760D01*
X144128717Y-125355689D01*
X144128701Y-125355726D01*
X144107000Y-125408115D01*
X143998132Y-125719242D01*
X143998124Y-125719265D01*
X143982439Y-125773712D01*
X143982438Y-125773718D01*
X143909086Y-126095096D01*
X143899583Y-126151021D01*
X143862681Y-126478537D01*
X143862679Y-126478564D01*
X143862678Y-126478576D01*
X143859500Y-126535174D01*
X143859500Y-126624234D01*
X143859500Y-126864826D01*
X143862678Y-126921424D01*
X143862679Y-126921436D01*
X143862681Y-126921462D01*
X143899583Y-127248978D01*
X143909086Y-127304903D01*
X143982438Y-127626281D01*
X143982439Y-127626287D01*
X143998124Y-127680734D01*
X143998132Y-127680757D01*
X144107000Y-127991884D01*
X144128701Y-128044273D01*
X144128717Y-128044310D01*
X144271710Y-128341239D01*
X144271739Y-128341296D01*
X144299150Y-128390892D01*
X144474540Y-128670023D01*
X144507338Y-128716247D01*
X144507342Y-128716252D01*
X144712877Y-128973984D01*
X144712880Y-128973987D01*
X144750657Y-129016259D01*
X144983740Y-129249342D01*
X144983749Y-129249350D01*
X145026016Y-129287123D01*
X145200508Y-129426276D01*
X145283752Y-129492661D01*
X145329976Y-129525459D01*
X145609107Y-129700849D01*
X145658703Y-129728260D01*
X145658712Y-129728264D01*
X145658720Y-129728269D01*
X145658732Y-129728275D01*
X145658760Y-129728289D01*
X145955689Y-129871282D01*
X145955703Y-129871288D01*
X145955726Y-129871299D01*
X146008097Y-129892992D01*
X146008104Y-129892994D01*
X146008115Y-129892999D01*
X146223662Y-129968422D01*
X146319250Y-130001870D01*
X146319253Y-130001871D01*
X146319265Y-130001875D01*
X146373712Y-130017560D01*
X146373715Y-130017560D01*
X146373724Y-130017563D01*
X146695112Y-130090917D01*
X146750997Y-130100413D01*
X146751015Y-130100415D01*
X146751021Y-130100416D01*
X147078537Y-130137318D01*
X147078544Y-130137318D01*
X147078576Y-130137322D01*
X147135174Y-130140500D01*
X147135192Y-130140500D01*
X147464808Y-130140500D01*
X147464826Y-130140500D01*
X147521424Y-130137322D01*
X147521456Y-130137318D01*
X147521462Y-130137318D01*
X147848978Y-130100416D01*
X147848981Y-130100415D01*
X147849003Y-130100413D01*
X147904888Y-130090917D01*
X148226276Y-130017563D01*
X148226285Y-130017560D01*
X148226287Y-130017560D01*
X148280734Y-130001875D01*
X148280740Y-130001872D01*
X148280750Y-130001870D01*
X148479125Y-129932455D01*
X148591884Y-129892999D01*
X148591889Y-129892996D01*
X148591903Y-129892992D01*
X148644274Y-129871299D01*
X148644303Y-129871284D01*
X148644310Y-129871282D01*
X148941239Y-129728289D01*
X148941248Y-129728284D01*
X148941280Y-129728269D01*
X148990894Y-129700848D01*
X149270019Y-129525462D01*
X149316252Y-129492658D01*
X149573984Y-129287123D01*
X149616251Y-129249350D01*
X149849350Y-129016251D01*
X149887123Y-128973984D01*
X150092658Y-128716252D01*
X150125462Y-128670019D01*
X150300848Y-128390894D01*
X150328269Y-128341280D01*
X150471299Y-128044274D01*
X150492992Y-127991903D01*
X150601870Y-127680750D01*
X150609035Y-127655881D01*
X150617560Y-127626287D01*
X150617560Y-127626285D01*
X150617563Y-127626276D01*
X150654609Y-127463964D01*
X150688717Y-127402986D01*
X150750379Y-127370128D01*
X150820016Y-127375823D01*
X150875520Y-127418263D01*
X150899268Y-127483973D01*
X150899500Y-127491557D01*
X150899500Y-131475500D01*
X150879815Y-131542539D01*
X150827011Y-131588294D01*
X150775500Y-131599500D01*
X148886321Y-131599500D01*
X148820349Y-131580494D01*
X148737219Y-131528260D01*
X148690894Y-131499152D01*
X148690890Y-131499149D01*
X148690884Y-131499146D01*
X148641296Y-131471739D01*
X148641239Y-131471710D01*
X148344310Y-131328717D01*
X148344282Y-131328705D01*
X148344274Y-131328701D01*
X148291903Y-131307008D01*
X148291905Y-131307008D01*
X148291884Y-131307000D01*
X147980757Y-131198132D01*
X147980734Y-131198124D01*
X147926287Y-131182439D01*
X147926281Y-131182438D01*
X147604903Y-131109086D01*
X147604895Y-131109084D01*
X147604888Y-131109083D01*
X147549003Y-131099587D01*
X147548998Y-131099586D01*
X147548978Y-131099583D01*
X147221462Y-131062681D01*
X147221436Y-131062679D01*
X147221424Y-131062678D01*
X147164826Y-131059500D01*
X146835174Y-131059500D01*
X146778576Y-131062678D01*
X146778564Y-131062679D01*
X146778537Y-131062681D01*
X146451021Y-131099583D01*
X146450998Y-131099586D01*
X146450997Y-131099587D01*
X146395112Y-131109083D01*
X146395107Y-131109084D01*
X146395096Y-131109086D01*
X146073718Y-131182438D01*
X146073712Y-131182439D01*
X146019265Y-131198124D01*
X146019242Y-131198132D01*
X145708115Y-131307000D01*
X145655726Y-131328701D01*
X145655689Y-131328717D01*
X145358760Y-131471710D01*
X145358703Y-131471739D01*
X145309107Y-131499150D01*
X145029976Y-131674540D01*
X144983752Y-131707338D01*
X144726012Y-131912880D01*
X144683740Y-131950657D01*
X144450657Y-132183740D01*
X144412880Y-132226012D01*
X144207338Y-132483752D01*
X144174540Y-132529976D01*
X143999150Y-132809107D01*
X143971739Y-132858703D01*
X143971710Y-132858760D01*
X143828717Y-133155689D01*
X143828701Y-133155726D01*
X143807000Y-133208115D01*
X143698132Y-133519242D01*
X143698124Y-133519265D01*
X143682439Y-133573712D01*
X143682438Y-133573718D01*
X143609086Y-133895096D01*
X143609084Y-133895107D01*
X143609083Y-133895112D01*
X143606064Y-133912880D01*
X143599583Y-133951021D01*
X143562681Y-134278537D01*
X143562679Y-134278564D01*
X143562678Y-134278576D01*
X143559500Y-134335174D01*
X143559500Y-134424234D01*
X143559500Y-134664826D01*
X143562678Y-134721424D01*
X143562679Y-134721436D01*
X143562681Y-134721462D01*
X143599583Y-135048978D01*
X143609086Y-135104903D01*
X143682438Y-135426281D01*
X143682439Y-135426287D01*
X143698124Y-135480734D01*
X143698132Y-135480757D01*
X143807000Y-135791884D01*
X143828701Y-135844273D01*
X143828717Y-135844310D01*
X143971710Y-136141239D01*
X143971739Y-136141296D01*
X143999150Y-136190892D01*
X144174540Y-136470023D01*
X144200474Y-136506573D01*
X144207342Y-136516252D01*
X144412877Y-136773984D01*
X144412880Y-136773987D01*
X144450657Y-136816259D01*
X144683740Y-137049342D01*
X144683749Y-137049350D01*
X144726016Y-137087123D01*
X144974814Y-137285533D01*
X144983752Y-137292661D01*
X145029976Y-137325459D01*
X145309107Y-137500849D01*
X145358703Y-137528260D01*
X145358712Y-137528264D01*
X145358720Y-137528269D01*
X145358732Y-137528275D01*
X145358760Y-137528289D01*
X145655689Y-137671282D01*
X145655705Y-137671289D01*
X145655726Y-137671299D01*
X145708097Y-137692992D01*
X145708104Y-137692994D01*
X145708115Y-137692999D01*
X145915454Y-137765550D01*
X146019250Y-137801870D01*
X146019253Y-137801871D01*
X146019265Y-137801875D01*
X146073712Y-137817560D01*
X146073715Y-137817560D01*
X146073724Y-137817563D01*
X146395112Y-137890917D01*
X146450997Y-137900413D01*
X146451015Y-137900415D01*
X146451021Y-137900416D01*
X146778537Y-137937318D01*
X146778544Y-137937318D01*
X146778576Y-137937322D01*
X146835174Y-137940500D01*
X146835192Y-137940500D01*
X147164808Y-137940500D01*
X147164826Y-137940500D01*
X147221424Y-137937322D01*
X147221456Y-137937318D01*
X147221462Y-137937318D01*
X147548978Y-137900416D01*
X147548981Y-137900415D01*
X147549003Y-137900413D01*
X147604888Y-137890917D01*
X147926276Y-137817563D01*
X147926285Y-137817560D01*
X147926287Y-137817560D01*
X147980734Y-137801875D01*
X147980740Y-137801872D01*
X147980750Y-137801870D01*
X148249502Y-137707829D01*
X148291884Y-137692999D01*
X148291889Y-137692996D01*
X148291903Y-137692992D01*
X148344274Y-137671299D01*
X148344303Y-137671284D01*
X148344310Y-137671282D01*
X148641239Y-137528289D01*
X148641248Y-137528284D01*
X148641280Y-137528269D01*
X148690894Y-137500848D01*
X148970019Y-137325462D01*
X148994243Y-137308273D01*
X149060305Y-137285533D01*
X149128178Y-137302118D01*
X149176309Y-137352766D01*
X149189418Y-137421395D01*
X149163342Y-137486216D01*
X149153680Y-137497083D01*
X147623560Y-139027203D01*
X147562237Y-139060688D01*
X147523179Y-139062684D01*
X147523168Y-139062825D01*
X147522131Y-139062737D01*
X147522009Y-139062743D01*
X147521940Y-139062736D01*
X147521430Y-139062678D01*
X147472911Y-139059954D01*
X147464826Y-139059500D01*
X147135174Y-139059500D01*
X147078576Y-139062678D01*
X147078564Y-139062679D01*
X147078537Y-139062681D01*
X146751021Y-139099583D01*
X146750998Y-139099586D01*
X146750997Y-139099587D01*
X146695112Y-139109083D01*
X146695107Y-139109084D01*
X146695096Y-139109086D01*
X146373718Y-139182438D01*
X146373712Y-139182439D01*
X146319265Y-139198124D01*
X146319242Y-139198132D01*
X146008115Y-139307000D01*
X145955726Y-139328701D01*
X145955689Y-139328717D01*
X145658760Y-139471710D01*
X145658703Y-139471739D01*
X145609107Y-139499150D01*
X145329976Y-139674540D01*
X145283752Y-139707338D01*
X145026012Y-139912880D01*
X144983740Y-139950657D01*
X144750657Y-140183740D01*
X144712880Y-140226012D01*
X144507338Y-140483752D01*
X144474540Y-140529976D01*
X144299150Y-140809107D01*
X144271739Y-140858703D01*
X144271710Y-140858760D01*
X144128717Y-141155689D01*
X144128701Y-141155726D01*
X144107000Y-141208115D01*
X143998132Y-141519242D01*
X143998124Y-141519265D01*
X143982439Y-141573712D01*
X143982438Y-141573718D01*
X143909086Y-141895096D01*
X143909084Y-141895107D01*
X143909083Y-141895112D01*
X143906064Y-141912880D01*
X143899583Y-141951021D01*
X143862681Y-142278537D01*
X143862679Y-142278564D01*
X143862678Y-142278576D01*
X143859500Y-142335174D01*
X143859500Y-142424234D01*
X143859500Y-142664826D01*
X143862678Y-142721424D01*
X143862679Y-142721436D01*
X143862681Y-142721462D01*
X143899583Y-143048978D01*
X143899586Y-143048998D01*
X143899587Y-143049003D01*
X143906504Y-143089711D01*
X143909086Y-143104903D01*
X143982438Y-143426281D01*
X143982439Y-143426287D01*
X143998124Y-143480734D01*
X143998132Y-143480757D01*
X144107000Y-143791884D01*
X144128701Y-143844273D01*
X144128717Y-143844310D01*
X144271710Y-144141239D01*
X144271739Y-144141296D01*
X144299150Y-144190892D01*
X144474540Y-144470023D01*
X144507338Y-144516247D01*
X144507342Y-144516252D01*
X144712877Y-144773984D01*
X144712880Y-144773987D01*
X144750657Y-144816259D01*
X144983740Y-145049342D01*
X144983749Y-145049350D01*
X145026016Y-145087123D01*
X145283748Y-145292658D01*
X145283752Y-145292661D01*
X145329976Y-145325459D01*
X145609107Y-145500849D01*
X145658703Y-145528260D01*
X145658712Y-145528264D01*
X145658720Y-145528269D01*
X145658732Y-145528275D01*
X145658760Y-145528289D01*
X145955689Y-145671282D01*
X145955705Y-145671289D01*
X145955726Y-145671299D01*
X146008097Y-145692992D01*
X146008104Y-145692994D01*
X146008115Y-145692999D01*
X146250039Y-145777652D01*
X146319250Y-145801870D01*
X146319253Y-145801871D01*
X146319265Y-145801875D01*
X146373712Y-145817560D01*
X146373715Y-145817560D01*
X146373724Y-145817563D01*
X146695112Y-145890917D01*
X146750997Y-145900413D01*
X146751015Y-145900415D01*
X146751021Y-145900416D01*
X147078537Y-145937318D01*
X147078544Y-145937318D01*
X147078576Y-145937322D01*
X147135174Y-145940500D01*
X147135192Y-145940500D01*
X147464808Y-145940500D01*
X147464826Y-145940500D01*
X147521424Y-145937322D01*
X147521456Y-145937318D01*
X147521462Y-145937318D01*
X147848978Y-145900416D01*
X147848981Y-145900415D01*
X147849003Y-145900413D01*
X147904888Y-145890917D01*
X148226276Y-145817563D01*
X148226285Y-145817560D01*
X148226287Y-145817560D01*
X148280734Y-145801875D01*
X148280740Y-145801872D01*
X148280750Y-145801870D01*
X148470638Y-145735424D01*
X148591884Y-145692999D01*
X148591889Y-145692996D01*
X148591903Y-145692992D01*
X148644274Y-145671299D01*
X148644303Y-145671284D01*
X148644310Y-145671282D01*
X148941239Y-145528289D01*
X148941248Y-145528284D01*
X148941280Y-145528269D01*
X148990894Y-145500848D01*
X149270019Y-145325462D01*
X149316252Y-145292658D01*
X149573984Y-145087123D01*
X149616251Y-145049350D01*
X149849350Y-144816251D01*
X149887123Y-144773984D01*
X150092658Y-144516252D01*
X150125462Y-144470019D01*
X150300848Y-144190894D01*
X150328269Y-144141280D01*
X150328289Y-144141239D01*
X150471282Y-143844310D01*
X150471284Y-143844303D01*
X150471299Y-143844274D01*
X150492992Y-143791903D01*
X150493448Y-143790602D01*
X150555012Y-143614660D01*
X150601870Y-143480750D01*
X150604595Y-143471293D01*
X150617560Y-143426287D01*
X150617560Y-143426285D01*
X150617563Y-143426276D01*
X150690917Y-143104888D01*
X150700413Y-143049003D01*
X150704793Y-143010127D01*
X150737318Y-142721462D01*
X150737318Y-142721456D01*
X150737322Y-142721424D01*
X150740500Y-142664826D01*
X150740500Y-142335174D01*
X150737322Y-142278576D01*
X150732243Y-142233501D01*
X150700416Y-141951021D01*
X150700415Y-141951015D01*
X150700413Y-141950997D01*
X150690917Y-141895112D01*
X150617563Y-141573724D01*
X150617560Y-141573712D01*
X150601875Y-141519265D01*
X150601867Y-141519242D01*
X150594836Y-141499150D01*
X150492992Y-141208097D01*
X150477689Y-141171153D01*
X151699500Y-141171153D01*
X151699500Y-141328846D01*
X151730261Y-141483489D01*
X151730264Y-141483501D01*
X151769219Y-141577548D01*
X151776688Y-141647018D01*
X151769219Y-141672452D01*
X151730264Y-141766498D01*
X151730261Y-141766510D01*
X151699500Y-141921153D01*
X151699500Y-142078846D01*
X151730261Y-142233489D01*
X151730264Y-142233501D01*
X151769219Y-142327548D01*
X151776688Y-142397018D01*
X151769219Y-142422452D01*
X151730264Y-142516498D01*
X151730261Y-142516510D01*
X151699500Y-142671153D01*
X151699500Y-142828846D01*
X151730261Y-142983489D01*
X151730264Y-142983501D01*
X151790602Y-143129172D01*
X151790609Y-143129185D01*
X151878210Y-143260288D01*
X151878213Y-143260292D01*
X151989707Y-143371786D01*
X151989711Y-143371789D01*
X152120814Y-143459390D01*
X152120827Y-143459397D01*
X152265308Y-143519242D01*
X152266503Y-143519737D01*
X152407740Y-143547831D01*
X152421153Y-143550499D01*
X152421156Y-143550500D01*
X152421158Y-143550500D01*
X152578844Y-143550500D01*
X152578845Y-143550499D01*
X152733497Y-143519737D01*
X152879179Y-143459394D01*
X153010289Y-143371789D01*
X153015580Y-143366498D01*
X153037319Y-143344760D01*
X153098642Y-143311275D01*
X153168334Y-143316259D01*
X153212681Y-143344760D01*
X153239707Y-143371786D01*
X153239711Y-143371789D01*
X153370814Y-143459390D01*
X153370827Y-143459397D01*
X153515308Y-143519242D01*
X153516503Y-143519737D01*
X153657740Y-143547831D01*
X153671153Y-143550499D01*
X153671156Y-143550500D01*
X153671158Y-143550500D01*
X153828844Y-143550500D01*
X153828845Y-143550499D01*
X153983497Y-143519737D01*
X154129179Y-143459394D01*
X154260289Y-143371789D01*
X154371789Y-143260289D01*
X154459394Y-143129179D01*
X154519737Y-142983497D01*
X154550500Y-142828842D01*
X154550500Y-142671158D01*
X154550500Y-142671155D01*
X154550499Y-142671153D01*
X154519738Y-142516510D01*
X154519737Y-142516503D01*
X154480778Y-142422449D01*
X154473310Y-142352984D01*
X154480775Y-142327556D01*
X154519737Y-142233497D01*
X154550500Y-142078842D01*
X154550500Y-141921158D01*
X154550500Y-141921155D01*
X154550499Y-141921153D01*
X154519738Y-141766510D01*
X154519737Y-141766503D01*
X154480778Y-141672449D01*
X154473310Y-141602984D01*
X154480775Y-141577556D01*
X154519737Y-141483497D01*
X154550500Y-141328842D01*
X154550500Y-141171158D01*
X154550500Y-141171155D01*
X154550499Y-141171153D01*
X154519738Y-141016510D01*
X154519737Y-141016503D01*
X154516710Y-141009194D01*
X154459397Y-140870827D01*
X154459390Y-140870814D01*
X154371789Y-140739711D01*
X154371786Y-140739707D01*
X154260292Y-140628213D01*
X154260288Y-140628210D01*
X154129185Y-140540609D01*
X154129172Y-140540602D01*
X153983501Y-140480264D01*
X153983489Y-140480261D01*
X153828845Y-140449500D01*
X153828842Y-140449500D01*
X153671158Y-140449500D01*
X153671155Y-140449500D01*
X153516510Y-140480261D01*
X153516498Y-140480264D01*
X153370827Y-140540602D01*
X153370814Y-140540609D01*
X153239711Y-140628210D01*
X153239707Y-140628213D01*
X153212681Y-140655240D01*
X153151358Y-140688725D01*
X153081666Y-140683741D01*
X153037319Y-140655240D01*
X153010292Y-140628213D01*
X153010288Y-140628210D01*
X152879185Y-140540609D01*
X152879172Y-140540602D01*
X152733501Y-140480264D01*
X152733489Y-140480261D01*
X152578845Y-140449500D01*
X152578842Y-140449500D01*
X152421158Y-140449500D01*
X152421155Y-140449500D01*
X152266510Y-140480261D01*
X152266498Y-140480264D01*
X152120827Y-140540602D01*
X152120814Y-140540609D01*
X151989711Y-140628210D01*
X151989707Y-140628213D01*
X151878213Y-140739707D01*
X151878210Y-140739711D01*
X151790609Y-140870814D01*
X151790602Y-140870827D01*
X151730264Y-141016498D01*
X151730261Y-141016510D01*
X151699500Y-141171153D01*
X150477689Y-141171153D01*
X150471299Y-141155726D01*
X150471289Y-141155705D01*
X150471282Y-141155689D01*
X150328289Y-140858760D01*
X150328260Y-140858703D01*
X150300849Y-140809107D01*
X150125459Y-140529976D01*
X150092661Y-140483752D01*
X150092658Y-140483748D01*
X149887123Y-140226016D01*
X149849350Y-140183749D01*
X149849342Y-140183740D01*
X149616259Y-139950657D01*
X149593726Y-139930520D01*
X149573984Y-139912877D01*
X149316252Y-139707342D01*
X149316247Y-139707338D01*
X149270022Y-139674540D01*
X149264862Y-139671298D01*
X149239089Y-139655103D01*
X149036076Y-139527541D01*
X148989785Y-139475206D01*
X148979137Y-139406152D01*
X149007512Y-139342304D01*
X149014354Y-139334879D01*
X151712416Y-136636819D01*
X151773739Y-136603334D01*
X151800097Y-136600500D01*
X153920234Y-136600500D01*
X153987273Y-136620185D01*
X153989125Y-136621398D01*
X154120814Y-136709390D01*
X154120827Y-136709397D01*
X154266498Y-136769735D01*
X154266503Y-136769737D01*
X154421153Y-136800499D01*
X154421156Y-136800500D01*
X154421158Y-136800500D01*
X154578844Y-136800500D01*
X154578845Y-136800499D01*
X154733497Y-136769737D01*
X154879179Y-136709394D01*
X155010289Y-136621789D01*
X155121789Y-136510289D01*
X155209394Y-136379179D01*
X155269737Y-136233497D01*
X155286235Y-136150558D01*
X155318620Y-136088647D01*
X155379335Y-136054073D01*
X155449105Y-136057812D01*
X155476743Y-136071647D01*
X155495814Y-136084390D01*
X155495827Y-136084397D01*
X155641498Y-136144735D01*
X155641503Y-136144737D01*
X155796153Y-136175499D01*
X155796156Y-136175500D01*
X155796158Y-136175500D01*
X155953844Y-136175500D01*
X155953845Y-136175499D01*
X156108497Y-136144737D01*
X156254179Y-136084394D01*
X156385289Y-135996789D01*
X156385289Y-135996788D01*
X156389448Y-135994010D01*
X156456125Y-135973132D01*
X156523505Y-135991616D01*
X156570196Y-136043595D01*
X156581559Y-136110995D01*
X156562681Y-136278537D01*
X156562679Y-136278564D01*
X156562678Y-136278576D01*
X156559500Y-136335174D01*
X156559500Y-136424234D01*
X156559500Y-136664826D01*
X156562678Y-136721424D01*
X156562679Y-136721436D01*
X156562681Y-136721462D01*
X156599583Y-137048978D01*
X156599586Y-137048998D01*
X156599587Y-137049003D01*
X156606064Y-137087123D01*
X156609086Y-137104903D01*
X156682438Y-137426281D01*
X156682439Y-137426287D01*
X156698124Y-137480734D01*
X156698132Y-137480757D01*
X156807000Y-137791884D01*
X156828701Y-137844273D01*
X156828717Y-137844310D01*
X156971710Y-138141239D01*
X156971739Y-138141296D01*
X156999150Y-138190892D01*
X157174540Y-138470023D01*
X157207338Y-138516247D01*
X157207342Y-138516252D01*
X157412877Y-138773984D01*
X157412880Y-138773987D01*
X157450657Y-138816259D01*
X157683740Y-139049342D01*
X157683749Y-139049350D01*
X157726016Y-139087123D01*
X157983748Y-139292658D01*
X157983752Y-139292661D01*
X158029976Y-139325459D01*
X158309107Y-139500849D01*
X158358703Y-139528260D01*
X158358712Y-139528264D01*
X158358720Y-139528269D01*
X158358732Y-139528275D01*
X158358760Y-139528289D01*
X158655689Y-139671282D01*
X158655705Y-139671289D01*
X158655726Y-139671299D01*
X158708097Y-139692992D01*
X158708104Y-139692994D01*
X158708115Y-139692999D01*
X158950039Y-139777652D01*
X159019250Y-139801870D01*
X159019253Y-139801871D01*
X159019265Y-139801875D01*
X159073712Y-139817560D01*
X159073715Y-139817560D01*
X159073724Y-139817563D01*
X159303092Y-139869914D01*
X159364071Y-139904022D01*
X159396929Y-139965684D01*
X159399500Y-139990805D01*
X159399500Y-141009194D01*
X159379815Y-141076233D01*
X159327011Y-141121988D01*
X159303093Y-141130085D01*
X159073711Y-141182439D01*
X159019265Y-141198124D01*
X159019242Y-141198132D01*
X158708115Y-141307000D01*
X158655726Y-141328701D01*
X158655689Y-141328717D01*
X158358760Y-141471710D01*
X158358703Y-141471739D01*
X158309107Y-141499150D01*
X158029976Y-141674540D01*
X157983752Y-141707338D01*
X157726012Y-141912880D01*
X157683740Y-141950657D01*
X157450657Y-142183740D01*
X157412880Y-142226012D01*
X157207338Y-142483752D01*
X157174540Y-142529976D01*
X156999150Y-142809107D01*
X156971739Y-142858703D01*
X156971710Y-142858760D01*
X156828717Y-143155689D01*
X156828701Y-143155726D01*
X156807000Y-143208115D01*
X156698132Y-143519242D01*
X156698124Y-143519265D01*
X156682439Y-143573712D01*
X156682438Y-143573718D01*
X156609086Y-143895096D01*
X156599583Y-143951021D01*
X156562681Y-144278537D01*
X156562679Y-144278564D01*
X156562678Y-144278576D01*
X156559500Y-144335174D01*
X156559500Y-144424234D01*
X156559500Y-144664826D01*
X156562678Y-144721424D01*
X156562679Y-144721436D01*
X156562681Y-144721462D01*
X156599583Y-145048978D01*
X156599586Y-145048998D01*
X156599587Y-145049003D01*
X156608337Y-145100500D01*
X156609086Y-145104903D01*
X156682438Y-145426281D01*
X156682439Y-145426287D01*
X156698124Y-145480734D01*
X156698132Y-145480757D01*
X156807000Y-145791884D01*
X156828701Y-145844273D01*
X156828717Y-145844310D01*
X156971710Y-146141239D01*
X156971739Y-146141296D01*
X156999150Y-146190892D01*
X157174540Y-146470023D01*
X157207338Y-146516247D01*
X157207342Y-146516252D01*
X157412877Y-146773984D01*
X157412880Y-146773987D01*
X157450657Y-146816259D01*
X157683740Y-147049342D01*
X157683749Y-147049350D01*
X157726016Y-147087123D01*
X157983748Y-147292658D01*
X157983752Y-147292661D01*
X158029976Y-147325459D01*
X158309107Y-147500849D01*
X158358703Y-147528260D01*
X158358712Y-147528264D01*
X158358720Y-147528269D01*
X158358732Y-147528275D01*
X158358760Y-147528289D01*
X158655689Y-147671282D01*
X158655705Y-147671289D01*
X158655726Y-147671299D01*
X158708097Y-147692992D01*
X158708104Y-147692994D01*
X158708115Y-147692999D01*
X158950039Y-147777652D01*
X159019250Y-147801870D01*
X159019253Y-147801871D01*
X159019265Y-147801875D01*
X159073712Y-147817560D01*
X159073715Y-147817560D01*
X159073724Y-147817563D01*
X159395112Y-147890917D01*
X159450997Y-147900413D01*
X159451015Y-147900415D01*
X159451021Y-147900416D01*
X159778537Y-147937318D01*
X159778544Y-147937318D01*
X159778576Y-147937322D01*
X159835174Y-147940500D01*
X159835192Y-147940500D01*
X160164808Y-147940500D01*
X160164826Y-147940500D01*
X160221424Y-147937322D01*
X160221456Y-147937318D01*
X160221462Y-147937318D01*
X160548978Y-147900416D01*
X160548981Y-147900415D01*
X160549003Y-147900413D01*
X160604888Y-147890917D01*
X160926276Y-147817563D01*
X160926285Y-147817560D01*
X160926287Y-147817560D01*
X160980734Y-147801875D01*
X160980740Y-147801872D01*
X160980750Y-147801870D01*
X161170638Y-147735424D01*
X161291884Y-147692999D01*
X161291889Y-147692996D01*
X161291903Y-147692992D01*
X161344274Y-147671299D01*
X161344303Y-147671284D01*
X161344310Y-147671282D01*
X161641239Y-147528289D01*
X161641248Y-147528284D01*
X161641280Y-147528269D01*
X161690894Y-147500848D01*
X161970019Y-147325462D01*
X162016252Y-147292658D01*
X162273984Y-147087123D01*
X162316251Y-147049350D01*
X162549350Y-146816251D01*
X162587123Y-146773984D01*
X162792658Y-146516252D01*
X162825462Y-146470019D01*
X163000848Y-146190894D01*
X163028269Y-146141280D01*
X163171299Y-145844274D01*
X163192992Y-145791903D01*
X163301870Y-145480750D01*
X163317563Y-145426276D01*
X163390917Y-145104888D01*
X163400413Y-145049003D01*
X163419547Y-144879185D01*
X163437318Y-144721462D01*
X163437318Y-144721456D01*
X163437322Y-144721424D01*
X163440500Y-144664826D01*
X163440500Y-144335174D01*
X163437322Y-144278576D01*
X163435962Y-144266510D01*
X163400416Y-143951021D01*
X163400415Y-143951015D01*
X163400413Y-143950997D01*
X163390917Y-143895112D01*
X163317563Y-143573724D01*
X163310873Y-143550500D01*
X163301875Y-143519265D01*
X163301867Y-143519242D01*
X163288392Y-143480734D01*
X163269341Y-143426287D01*
X163192999Y-143208115D01*
X163192992Y-143208097D01*
X163171299Y-143155726D01*
X163171289Y-143155705D01*
X163171282Y-143155689D01*
X163028289Y-142858760D01*
X163028260Y-142858703D01*
X163000849Y-142809107D01*
X162825459Y-142529976D01*
X162792661Y-142483752D01*
X162745197Y-142424234D01*
X162587123Y-142226016D01*
X162549350Y-142183749D01*
X162549342Y-142183740D01*
X162316259Y-141950657D01*
X162283247Y-141921155D01*
X162273984Y-141912877D01*
X162016252Y-141707342D01*
X162016247Y-141707338D01*
X161970023Y-141674540D01*
X161690892Y-141499150D01*
X161641296Y-141471739D01*
X161641239Y-141471710D01*
X161344310Y-141328717D01*
X161344282Y-141328705D01*
X161344274Y-141328701D01*
X161291903Y-141307008D01*
X161291905Y-141307008D01*
X161291884Y-141307000D01*
X160980757Y-141198132D01*
X160980734Y-141198124D01*
X160926288Y-141182439D01*
X160696907Y-141130085D01*
X160635929Y-141095976D01*
X160603071Y-141034315D01*
X160600500Y-141009194D01*
X160600500Y-139990805D01*
X160620185Y-139923766D01*
X160672989Y-139878011D01*
X160696905Y-139869914D01*
X160926276Y-139817563D01*
X160926285Y-139817560D01*
X160926287Y-139817560D01*
X160980734Y-139801875D01*
X160980740Y-139801872D01*
X160980750Y-139801870D01*
X161180700Y-139731904D01*
X161291884Y-139692999D01*
X161291889Y-139692996D01*
X161291903Y-139692992D01*
X161344274Y-139671299D01*
X161344303Y-139671284D01*
X161344310Y-139671282D01*
X161641239Y-139528289D01*
X161641248Y-139528284D01*
X161641280Y-139528269D01*
X161690894Y-139500848D01*
X161970019Y-139325462D01*
X162016252Y-139292658D01*
X162273984Y-139087123D01*
X162316251Y-139049350D01*
X162549350Y-138816251D01*
X162571137Y-138791872D01*
X162630487Y-138755002D01*
X162663596Y-138750500D01*
X163272650Y-138750500D01*
X163339689Y-138770185D01*
X163385444Y-138822989D01*
X163395388Y-138892147D01*
X163375752Y-138943391D01*
X163290609Y-139070814D01*
X163290602Y-139070827D01*
X163230264Y-139216498D01*
X163230261Y-139216510D01*
X163199500Y-139371153D01*
X163199500Y-139528846D01*
X163230261Y-139683489D01*
X163230264Y-139683501D01*
X163290602Y-139829172D01*
X163290609Y-139829185D01*
X163378210Y-139960288D01*
X163378213Y-139960292D01*
X163489707Y-140071786D01*
X163489711Y-140071789D01*
X163620814Y-140159390D01*
X163620827Y-140159397D01*
X163766498Y-140219735D01*
X163766503Y-140219737D01*
X163921153Y-140250499D01*
X163921156Y-140250500D01*
X163921158Y-140250500D01*
X164078844Y-140250500D01*
X164078845Y-140250499D01*
X164233497Y-140219737D01*
X164379179Y-140159394D01*
X164510289Y-140071789D01*
X164621789Y-139960289D01*
X164709394Y-139829179D01*
X164714206Y-139817563D01*
X164769735Y-139683501D01*
X164769737Y-139683497D01*
X164800500Y-139528842D01*
X164800500Y-139371158D01*
X164800500Y-139371155D01*
X164800499Y-139371153D01*
X164797084Y-139353985D01*
X164769737Y-139216503D01*
X164762124Y-139198124D01*
X164709397Y-139070827D01*
X164709390Y-139070814D01*
X164621398Y-138939125D01*
X164600520Y-138872447D01*
X164600500Y-138870234D01*
X164600500Y-132324500D01*
X164620185Y-132257461D01*
X164672989Y-132211706D01*
X164724500Y-132200500D01*
X164878843Y-132200500D01*
X164902907Y-132195713D01*
X164972499Y-132201940D01*
X165027677Y-132244802D01*
X165030202Y-132248439D01*
X165078210Y-132320288D01*
X165078213Y-132320292D01*
X165189707Y-132431786D01*
X165189711Y-132431789D01*
X165320814Y-132519390D01*
X165320827Y-132519397D01*
X165466498Y-132579735D01*
X165466503Y-132579737D01*
X165621153Y-132610499D01*
X165621156Y-132610500D01*
X165775500Y-132610500D01*
X165842539Y-132630185D01*
X165888294Y-132682989D01*
X165899500Y-132734500D01*
X165899500Y-141649903D01*
X165879815Y-141716942D01*
X165863181Y-141737584D01*
X164835339Y-142765425D01*
X164774016Y-142798910D01*
X164771850Y-142799361D01*
X164616508Y-142830261D01*
X164616498Y-142830264D01*
X164470827Y-142890602D01*
X164470814Y-142890609D01*
X164339711Y-142978210D01*
X164339707Y-142978213D01*
X164228213Y-143089707D01*
X164228210Y-143089711D01*
X164140609Y-143220814D01*
X164140602Y-143220827D01*
X164080264Y-143366498D01*
X164080261Y-143366510D01*
X164049500Y-143521153D01*
X164049500Y-143678846D01*
X164080261Y-143833489D01*
X164080264Y-143833501D01*
X164140602Y-143979172D01*
X164140609Y-143979185D01*
X164228210Y-144110288D01*
X164228213Y-144110292D01*
X164339707Y-144221786D01*
X164339711Y-144221789D01*
X164470814Y-144309390D01*
X164470827Y-144309397D01*
X164533103Y-144335192D01*
X164616503Y-144369737D01*
X164771153Y-144400499D01*
X164771156Y-144400500D01*
X164771158Y-144400500D01*
X164928844Y-144400500D01*
X164928845Y-144400499D01*
X165083497Y-144369737D01*
X165224387Y-144311379D01*
X165229172Y-144309397D01*
X165229172Y-144309396D01*
X165229179Y-144309394D01*
X165360289Y-144221789D01*
X165471789Y-144110289D01*
X165559394Y-143979179D01*
X165562806Y-143970943D01*
X165607477Y-143863096D01*
X165619737Y-143833497D01*
X165647840Y-143692215D01*
X165650638Y-143678150D01*
X165683023Y-143616239D01*
X165684518Y-143614716D01*
X166537819Y-142761416D01*
X166599142Y-142727931D01*
X166668834Y-142732915D01*
X166724767Y-142774787D01*
X166749184Y-142840251D01*
X166749500Y-142849097D01*
X166749500Y-143963330D01*
X166749499Y-143963348D01*
X166749499Y-144129054D01*
X166749498Y-144129054D01*
X166749499Y-144129057D01*
X166790423Y-144281785D01*
X166790424Y-144281787D01*
X166790423Y-144281787D01*
X166807509Y-144311379D01*
X166807511Y-144311381D01*
X166807512Y-144311383D01*
X166841201Y-144369735D01*
X166869479Y-144418715D01*
X166988349Y-144537585D01*
X166988355Y-144537590D01*
X167315139Y-144864374D01*
X167315149Y-144864385D01*
X167319479Y-144868715D01*
X167319480Y-144868716D01*
X167431284Y-144980520D01*
X167482845Y-145010288D01*
X167518095Y-145030639D01*
X167518097Y-145030641D01*
X167549858Y-145048978D01*
X167568215Y-145059577D01*
X167720943Y-145100500D01*
X167920234Y-145100500D01*
X167987273Y-145120185D01*
X167989125Y-145121398D01*
X168120814Y-145209390D01*
X168120827Y-145209397D01*
X168266498Y-145269735D01*
X168266503Y-145269737D01*
X168381734Y-145292658D01*
X168421153Y-145300499D01*
X168421156Y-145300500D01*
X168421158Y-145300500D01*
X168578844Y-145300500D01*
X168578845Y-145300499D01*
X168733497Y-145269737D01*
X168879179Y-145209394D01*
X169010289Y-145121789D01*
X169121789Y-145010289D01*
X169209394Y-144879179D01*
X169269737Y-144733497D01*
X169300500Y-144578842D01*
X169300500Y-144421158D01*
X169300500Y-144421155D01*
X169300499Y-144421153D01*
X169283400Y-144335192D01*
X169269737Y-144266503D01*
X169217875Y-144141296D01*
X169209397Y-144120827D01*
X169209390Y-144120814D01*
X169121789Y-143989711D01*
X169121786Y-143989707D01*
X169010292Y-143878213D01*
X169010288Y-143878210D01*
X168879185Y-143790609D01*
X168879172Y-143790602D01*
X168733501Y-143730264D01*
X168733489Y-143730261D01*
X168578845Y-143699500D01*
X168578842Y-143699500D01*
X168421158Y-143699500D01*
X168421155Y-143699500D01*
X168266510Y-143730261D01*
X168266498Y-143730264D01*
X168121952Y-143790137D01*
X168052483Y-143797606D01*
X167990004Y-143766331D01*
X167954352Y-143706241D01*
X167950500Y-143675576D01*
X167950500Y-126535174D01*
X169259500Y-126535174D01*
X169259500Y-126624234D01*
X169259500Y-126864826D01*
X169262678Y-126921424D01*
X169262679Y-126921436D01*
X169262681Y-126921462D01*
X169299583Y-127248978D01*
X169309086Y-127304903D01*
X169382438Y-127626281D01*
X169382439Y-127626287D01*
X169398124Y-127680734D01*
X169398132Y-127680757D01*
X169507000Y-127991884D01*
X169528701Y-128044273D01*
X169528717Y-128044310D01*
X169671710Y-128341239D01*
X169671739Y-128341296D01*
X169699150Y-128390892D01*
X169874540Y-128670023D01*
X169907338Y-128716247D01*
X169907342Y-128716252D01*
X170112877Y-128973984D01*
X170112880Y-128973987D01*
X170150657Y-129016259D01*
X170383740Y-129249342D01*
X170383749Y-129249350D01*
X170426016Y-129287123D01*
X170600508Y-129426276D01*
X170683752Y-129492661D01*
X170729976Y-129525459D01*
X171009107Y-129700849D01*
X171058703Y-129728260D01*
X171058712Y-129728264D01*
X171058720Y-129728269D01*
X171058732Y-129728275D01*
X171058760Y-129728289D01*
X171355689Y-129871282D01*
X171355703Y-129871288D01*
X171355726Y-129871299D01*
X171408097Y-129892992D01*
X171408104Y-129892994D01*
X171408115Y-129892999D01*
X171623662Y-129968422D01*
X171719250Y-130001870D01*
X171719253Y-130001871D01*
X171719265Y-130001875D01*
X171773712Y-130017560D01*
X171773715Y-130017560D01*
X171773724Y-130017563D01*
X172095112Y-130090917D01*
X172150997Y-130100413D01*
X172151015Y-130100415D01*
X172151021Y-130100416D01*
X172478537Y-130137318D01*
X172478544Y-130137318D01*
X172478576Y-130137322D01*
X172535174Y-130140500D01*
X172535192Y-130140500D01*
X172864808Y-130140500D01*
X172864826Y-130140500D01*
X172921424Y-130137322D01*
X172921456Y-130137318D01*
X172921462Y-130137318D01*
X173248978Y-130100416D01*
X173248981Y-130100415D01*
X173249003Y-130100413D01*
X173304888Y-130090917D01*
X173626276Y-130017563D01*
X173626285Y-130017560D01*
X173626287Y-130017560D01*
X173680734Y-130001875D01*
X173680740Y-130001872D01*
X173680750Y-130001870D01*
X173879125Y-129932455D01*
X173991884Y-129892999D01*
X173991889Y-129892996D01*
X173991903Y-129892992D01*
X174044274Y-129871299D01*
X174071696Y-129858092D01*
X174140637Y-129846739D01*
X174204772Y-129874461D01*
X174243739Y-129932455D01*
X174249500Y-129969812D01*
X174249500Y-131117408D01*
X174229815Y-131184447D01*
X174177011Y-131230202D01*
X174107853Y-131240146D01*
X174084549Y-131234451D01*
X173980750Y-131198130D01*
X173980730Y-131198123D01*
X173926287Y-131182439D01*
X173926281Y-131182438D01*
X173604903Y-131109086D01*
X173604895Y-131109084D01*
X173604888Y-131109083D01*
X173549003Y-131099587D01*
X173548998Y-131099586D01*
X173548978Y-131099583D01*
X173221462Y-131062681D01*
X173221436Y-131062679D01*
X173221424Y-131062678D01*
X173164826Y-131059500D01*
X172835174Y-131059500D01*
X172778576Y-131062678D01*
X172778564Y-131062679D01*
X172778537Y-131062681D01*
X172451021Y-131099583D01*
X172450998Y-131099586D01*
X172450997Y-131099587D01*
X172395112Y-131109083D01*
X172395107Y-131109084D01*
X172395096Y-131109086D01*
X172073718Y-131182438D01*
X172073712Y-131182439D01*
X172019265Y-131198124D01*
X172019242Y-131198132D01*
X171708115Y-131307000D01*
X171655726Y-131328701D01*
X171655689Y-131328717D01*
X171358760Y-131471710D01*
X171358703Y-131471739D01*
X171309107Y-131499150D01*
X171029976Y-131674540D01*
X170983752Y-131707338D01*
X170726012Y-131912880D01*
X170683740Y-131950657D01*
X170450657Y-132183740D01*
X170412880Y-132226012D01*
X170207338Y-132483752D01*
X170174540Y-132529976D01*
X169999150Y-132809107D01*
X169971739Y-132858703D01*
X169971710Y-132858760D01*
X169828717Y-133155689D01*
X169828701Y-133155726D01*
X169807000Y-133208115D01*
X169698132Y-133519242D01*
X169698124Y-133519265D01*
X169682439Y-133573712D01*
X169682438Y-133573718D01*
X169609086Y-133895096D01*
X169609084Y-133895107D01*
X169609083Y-133895112D01*
X169606064Y-133912880D01*
X169599583Y-133951021D01*
X169562681Y-134278537D01*
X169562679Y-134278564D01*
X169562678Y-134278576D01*
X169559500Y-134335174D01*
X169559500Y-134424234D01*
X169559500Y-134664826D01*
X169562678Y-134721424D01*
X169562679Y-134721436D01*
X169562681Y-134721462D01*
X169599583Y-135048978D01*
X169609086Y-135104903D01*
X169682438Y-135426281D01*
X169682439Y-135426287D01*
X169698124Y-135480734D01*
X169698132Y-135480757D01*
X169807000Y-135791884D01*
X169828701Y-135844273D01*
X169828717Y-135844310D01*
X169971710Y-136141239D01*
X169971739Y-136141296D01*
X169999150Y-136190892D01*
X170174540Y-136470023D01*
X170200474Y-136506573D01*
X170207342Y-136516252D01*
X170412877Y-136773984D01*
X170412880Y-136773987D01*
X170450657Y-136816259D01*
X170683740Y-137049342D01*
X170683749Y-137049350D01*
X170726016Y-137087123D01*
X170974814Y-137285533D01*
X170983752Y-137292661D01*
X171029976Y-137325459D01*
X171309107Y-137500849D01*
X171358703Y-137528260D01*
X171358712Y-137528264D01*
X171358720Y-137528269D01*
X171358732Y-137528275D01*
X171358760Y-137528289D01*
X171655689Y-137671282D01*
X171655705Y-137671289D01*
X171655726Y-137671299D01*
X171708097Y-137692992D01*
X171708104Y-137692994D01*
X171708115Y-137692999D01*
X171915454Y-137765550D01*
X172019250Y-137801870D01*
X172019253Y-137801871D01*
X172019265Y-137801875D01*
X172073712Y-137817560D01*
X172073715Y-137817560D01*
X172073724Y-137817563D01*
X172395112Y-137890917D01*
X172450997Y-137900413D01*
X172451015Y-137900415D01*
X172451021Y-137900416D01*
X172778537Y-137937318D01*
X172778544Y-137937318D01*
X172778576Y-137937322D01*
X172835174Y-137940500D01*
X172835192Y-137940500D01*
X173164808Y-137940500D01*
X173164826Y-137940500D01*
X173221424Y-137937322D01*
X173221456Y-137937318D01*
X173221462Y-137937318D01*
X173548978Y-137900416D01*
X173548981Y-137900415D01*
X173549003Y-137900413D01*
X173604888Y-137890917D01*
X173926276Y-137817563D01*
X173926285Y-137817560D01*
X173926287Y-137817560D01*
X173980734Y-137801875D01*
X173980742Y-137801872D01*
X173980750Y-137801870D01*
X174084545Y-137765549D01*
X174154323Y-137761987D01*
X174214951Y-137796716D01*
X174247178Y-137858709D01*
X174249500Y-137882591D01*
X174249500Y-139149901D01*
X174229815Y-139216940D01*
X174213180Y-139237583D01*
X174157864Y-139292898D01*
X174096541Y-139326382D01*
X174026849Y-139321397D01*
X174022734Y-139319778D01*
X174005951Y-139312827D01*
X173991903Y-139307008D01*
X173991893Y-139307004D01*
X173991887Y-139307002D01*
X173991889Y-139307002D01*
X173680757Y-139198132D01*
X173680734Y-139198124D01*
X173626287Y-139182439D01*
X173626281Y-139182438D01*
X173304903Y-139109086D01*
X173304895Y-139109084D01*
X173304888Y-139109083D01*
X173249003Y-139099587D01*
X173248998Y-139099586D01*
X173248978Y-139099583D01*
X172921462Y-139062681D01*
X172921436Y-139062679D01*
X172921424Y-139062678D01*
X172864826Y-139059500D01*
X172535174Y-139059500D01*
X172478576Y-139062678D01*
X172478564Y-139062679D01*
X172478537Y-139062681D01*
X172151021Y-139099583D01*
X172150998Y-139099586D01*
X172150997Y-139099587D01*
X172095112Y-139109083D01*
X172095107Y-139109084D01*
X172095096Y-139109086D01*
X171773718Y-139182438D01*
X171773712Y-139182439D01*
X171719265Y-139198124D01*
X171719242Y-139198132D01*
X171408115Y-139307000D01*
X171355726Y-139328701D01*
X171355689Y-139328717D01*
X171058760Y-139471710D01*
X171058703Y-139471739D01*
X171009107Y-139499150D01*
X170729976Y-139674540D01*
X170683752Y-139707338D01*
X170426012Y-139912880D01*
X170383740Y-139950657D01*
X170150657Y-140183740D01*
X170112880Y-140226012D01*
X169907338Y-140483752D01*
X169874540Y-140529976D01*
X169699150Y-140809107D01*
X169671739Y-140858703D01*
X169671710Y-140858760D01*
X169528717Y-141155689D01*
X169528701Y-141155726D01*
X169507000Y-141208115D01*
X169398132Y-141519242D01*
X169398124Y-141519265D01*
X169382439Y-141573712D01*
X169382438Y-141573718D01*
X169309086Y-141895096D01*
X169309084Y-141895107D01*
X169309083Y-141895112D01*
X169306064Y-141912880D01*
X169299583Y-141951021D01*
X169262681Y-142278537D01*
X169262679Y-142278564D01*
X169262678Y-142278576D01*
X169259500Y-142335174D01*
X169259500Y-142424234D01*
X169259500Y-142664826D01*
X169262678Y-142721424D01*
X169262679Y-142721436D01*
X169262681Y-142721462D01*
X169299583Y-143048978D01*
X169299586Y-143048998D01*
X169299587Y-143049003D01*
X169306504Y-143089711D01*
X169309086Y-143104903D01*
X169382438Y-143426281D01*
X169382439Y-143426287D01*
X169398124Y-143480734D01*
X169398132Y-143480757D01*
X169507000Y-143791884D01*
X169528701Y-143844273D01*
X169528717Y-143844310D01*
X169671710Y-144141239D01*
X169671739Y-144141296D01*
X169699150Y-144190892D01*
X169874540Y-144470023D01*
X169907338Y-144516247D01*
X169907342Y-144516252D01*
X170112877Y-144773984D01*
X170112880Y-144773987D01*
X170150657Y-144816259D01*
X170383740Y-145049342D01*
X170383749Y-145049350D01*
X170426016Y-145087123D01*
X170683748Y-145292658D01*
X170683752Y-145292661D01*
X170729976Y-145325459D01*
X171009107Y-145500849D01*
X171058703Y-145528260D01*
X171058712Y-145528264D01*
X171058720Y-145528269D01*
X171058732Y-145528275D01*
X171058760Y-145528289D01*
X171355689Y-145671282D01*
X171355705Y-145671289D01*
X171355726Y-145671299D01*
X171408097Y-145692992D01*
X171408104Y-145692994D01*
X171408115Y-145692999D01*
X171650039Y-145777652D01*
X171719250Y-145801870D01*
X171719253Y-145801871D01*
X171719265Y-145801875D01*
X171773712Y-145817560D01*
X171773715Y-145817560D01*
X171773724Y-145817563D01*
X172095112Y-145890917D01*
X172150997Y-145900413D01*
X172151015Y-145900415D01*
X172151021Y-145900416D01*
X172478537Y-145937318D01*
X172478544Y-145937318D01*
X172478576Y-145937322D01*
X172535174Y-145940500D01*
X172535192Y-145940500D01*
X172864808Y-145940500D01*
X172864826Y-145940500D01*
X172921424Y-145937322D01*
X172921456Y-145937318D01*
X172921462Y-145937318D01*
X173248978Y-145900416D01*
X173248981Y-145900415D01*
X173249003Y-145900413D01*
X173304888Y-145890917D01*
X173626276Y-145817563D01*
X173626285Y-145817560D01*
X173626287Y-145817560D01*
X173680734Y-145801875D01*
X173680740Y-145801872D01*
X173680750Y-145801870D01*
X173870638Y-145735424D01*
X173991884Y-145692999D01*
X173991889Y-145692996D01*
X173991903Y-145692992D01*
X174044274Y-145671299D01*
X174044303Y-145671284D01*
X174044310Y-145671282D01*
X174341239Y-145528289D01*
X174341248Y-145528284D01*
X174341280Y-145528269D01*
X174390894Y-145500848D01*
X174670019Y-145325462D01*
X174716252Y-145292658D01*
X174973984Y-145087123D01*
X175016251Y-145049350D01*
X175249350Y-144816251D01*
X175287123Y-144773984D01*
X175492658Y-144516252D01*
X175525462Y-144470019D01*
X175700848Y-144190894D01*
X175728269Y-144141280D01*
X175728289Y-144141239D01*
X175871282Y-143844310D01*
X175871284Y-143844303D01*
X175871299Y-143844274D01*
X175892992Y-143791903D01*
X175893448Y-143790602D01*
X175955012Y-143614660D01*
X176001870Y-143480750D01*
X176004595Y-143471293D01*
X176017560Y-143426287D01*
X176017560Y-143426285D01*
X176017563Y-143426276D01*
X176090917Y-143104888D01*
X176100413Y-143049003D01*
X176104793Y-143010127D01*
X176137318Y-142721462D01*
X176137318Y-142721456D01*
X176137322Y-142721424D01*
X176140500Y-142664826D01*
X176140500Y-142335174D01*
X176137322Y-142278576D01*
X176132243Y-142233501D01*
X176100416Y-141951021D01*
X176100415Y-141951015D01*
X176100413Y-141950997D01*
X176090917Y-141895112D01*
X176017563Y-141573724D01*
X176017560Y-141573712D01*
X176001875Y-141519265D01*
X176001867Y-141519242D01*
X175989356Y-141483489D01*
X175977652Y-141450039D01*
X175892999Y-141208115D01*
X175892992Y-141208097D01*
X175871299Y-141155726D01*
X175871289Y-141155705D01*
X175871282Y-141155689D01*
X175728289Y-140858760D01*
X175728260Y-140858703D01*
X175700849Y-140809107D01*
X175525459Y-140529976D01*
X175492661Y-140483752D01*
X175492658Y-140483748D01*
X175287123Y-140226016D01*
X175249350Y-140183749D01*
X175249342Y-140183740D01*
X175195099Y-140129497D01*
X175161614Y-140068174D01*
X175166598Y-139998482D01*
X175195099Y-139954135D01*
X175208506Y-139940728D01*
X175218713Y-139930520D01*
X175218716Y-139930520D01*
X175330520Y-139818716D01*
X175380639Y-139731904D01*
X175409577Y-139681785D01*
X175450500Y-139529057D01*
X175450500Y-139370943D01*
X175450500Y-136966463D01*
X175470185Y-136899424D01*
X175486814Y-136878786D01*
X175549350Y-136816251D01*
X175587123Y-136773984D01*
X175792658Y-136516252D01*
X175825462Y-136470019D01*
X176000848Y-136190894D01*
X176028269Y-136141280D01*
X176028289Y-136141239D01*
X176171282Y-135844310D01*
X176171284Y-135844303D01*
X176171299Y-135844274D01*
X176192992Y-135791903D01*
X176206193Y-135754179D01*
X176257169Y-135608497D01*
X176301870Y-135480750D01*
X176317563Y-135426276D01*
X176390917Y-135104888D01*
X176400413Y-135049003D01*
X176421853Y-134858720D01*
X176437318Y-134721462D01*
X176437318Y-134721456D01*
X176437322Y-134721424D01*
X176440500Y-134664826D01*
X176440500Y-134335174D01*
X176437322Y-134278576D01*
X176436557Y-134271789D01*
X176429555Y-134209638D01*
X176441610Y-134140816D01*
X176488959Y-134089437D01*
X176556569Y-134071813D01*
X176622975Y-134093540D01*
X176655877Y-134126865D01*
X176678207Y-134160284D01*
X176678213Y-134160292D01*
X176789707Y-134271786D01*
X176789711Y-134271789D01*
X176920814Y-134359390D01*
X176920827Y-134359397D01*
X177066498Y-134419735D01*
X177066503Y-134419737D01*
X177221153Y-134450499D01*
X177221156Y-134450500D01*
X177221158Y-134450500D01*
X177378844Y-134450500D01*
X177378845Y-134450499D01*
X177533497Y-134419737D01*
X177679179Y-134359394D01*
X177810289Y-134271789D01*
X177921789Y-134160289D01*
X178009394Y-134029179D01*
X178069737Y-133883497D01*
X178100500Y-133728842D01*
X178100500Y-133571158D01*
X178100500Y-133571155D01*
X178100499Y-133571153D01*
X178086177Y-133499152D01*
X178069737Y-133416503D01*
X178033375Y-133328717D01*
X178009397Y-133270827D01*
X178009395Y-133270824D01*
X178009394Y-133270821D01*
X178008103Y-133268889D01*
X178007737Y-133267723D01*
X178006525Y-133265454D01*
X178006955Y-133265223D01*
X177987226Y-133202214D01*
X178005710Y-133134834D01*
X178008077Y-133131149D01*
X178009394Y-133129179D01*
X178069737Y-132983497D01*
X178100500Y-132828842D01*
X178100500Y-132671158D01*
X178100500Y-132671155D01*
X178100499Y-132671153D01*
X178082315Y-132579737D01*
X178069737Y-132516503D01*
X178034648Y-132431789D01*
X178010070Y-132372452D01*
X178002601Y-132302983D01*
X178010070Y-132277548D01*
X178069735Y-132133501D01*
X178069737Y-132133497D01*
X178100500Y-131978842D01*
X178100500Y-131821158D01*
X178100500Y-131821155D01*
X178100499Y-131821153D01*
X178099785Y-131817563D01*
X178069737Y-131666503D01*
X178037342Y-131588294D01*
X178009397Y-131520827D01*
X178009390Y-131520814D01*
X177921789Y-131389711D01*
X177921786Y-131389707D01*
X177810292Y-131278213D01*
X177810288Y-131278210D01*
X177679185Y-131190609D01*
X177679172Y-131190602D01*
X177533501Y-131130264D01*
X177533489Y-131130261D01*
X177378845Y-131099500D01*
X177378842Y-131099500D01*
X177221158Y-131099500D01*
X177221155Y-131099500D01*
X177066510Y-131130261D01*
X177066498Y-131130264D01*
X176920827Y-131190602D01*
X176920814Y-131190609D01*
X176793891Y-131275417D01*
X176727213Y-131296295D01*
X176659833Y-131277810D01*
X176656109Y-131275417D01*
X176529185Y-131190609D01*
X176529172Y-131190602D01*
X176383501Y-131130264D01*
X176383489Y-131130261D01*
X176228845Y-131099500D01*
X176228842Y-131099500D01*
X176071158Y-131099500D01*
X176071155Y-131099500D01*
X175916510Y-131130261D01*
X175916498Y-131130264D01*
X175770827Y-131190602D01*
X175770814Y-131190609D01*
X175643391Y-131275751D01*
X175576713Y-131296629D01*
X175509333Y-131278144D01*
X175462643Y-131226165D01*
X175450500Y-131172649D01*
X175450500Y-128812505D01*
X175470185Y-128745466D01*
X175477549Y-128735197D01*
X175492658Y-128716252D01*
X175525462Y-128670019D01*
X175700848Y-128390894D01*
X175728269Y-128341280D01*
X175871299Y-128044274D01*
X175892992Y-127991903D01*
X176001870Y-127680750D01*
X176009035Y-127655881D01*
X176017560Y-127626287D01*
X176017560Y-127626285D01*
X176017563Y-127626276D01*
X176090917Y-127304888D01*
X176100413Y-127249003D01*
X176137322Y-126921424D01*
X176140500Y-126864826D01*
X176140500Y-126535174D01*
X176137322Y-126478576D01*
X176135501Y-126462416D01*
X176100416Y-126151021D01*
X176100415Y-126151015D01*
X176100413Y-126150997D01*
X176090917Y-126095112D01*
X176017563Y-125773724D01*
X176017560Y-125773712D01*
X176001875Y-125719265D01*
X176001867Y-125719242D01*
X175984966Y-125670943D01*
X175959967Y-125599500D01*
X175892999Y-125408115D01*
X175892215Y-125406222D01*
X175871299Y-125355726D01*
X175871289Y-125355705D01*
X175871282Y-125355689D01*
X175728289Y-125058760D01*
X175728260Y-125058703D01*
X175700849Y-125009107D01*
X175652380Y-124931970D01*
X175525462Y-124729981D01*
X175492658Y-124683748D01*
X175477552Y-124664805D01*
X175451144Y-124600118D01*
X175450500Y-124587493D01*
X175450500Y-121698057D01*
X175470185Y-121631018D01*
X175520695Y-121586338D01*
X175641280Y-121528269D01*
X175690894Y-121500848D01*
X175970019Y-121325462D01*
X176016252Y-121292658D01*
X176273984Y-121087123D01*
X176316251Y-121049350D01*
X176549350Y-120816251D01*
X176587123Y-120773984D01*
X176792658Y-120516252D01*
X176825462Y-120470019D01*
X177000848Y-120190894D01*
X177028269Y-120141280D01*
X177038119Y-120120827D01*
X177171282Y-119844310D01*
X177171284Y-119844303D01*
X177171299Y-119844274D01*
X177192992Y-119791903D01*
X177193448Y-119790602D01*
X177267470Y-119579058D01*
X177301870Y-119480750D01*
X177317563Y-119426276D01*
X177390917Y-119104888D01*
X177400413Y-119049003D01*
X177408158Y-118980263D01*
X177437318Y-118721462D01*
X177437318Y-118721456D01*
X177437322Y-118721424D01*
X177440500Y-118664826D01*
X177440500Y-118335174D01*
X177437322Y-118278576D01*
X177400413Y-117950997D01*
X177390917Y-117895112D01*
X177317563Y-117573724D01*
X177317560Y-117573712D01*
X177301875Y-117519265D01*
X177301867Y-117519242D01*
X177192999Y-117208115D01*
X177188863Y-117198130D01*
X177171299Y-117155726D01*
X177171289Y-117155705D01*
X177171282Y-117155689D01*
X177028289Y-116858760D01*
X177028260Y-116858703D01*
X177000849Y-116809107D01*
X176825459Y-116529976D01*
X176792661Y-116483752D01*
X176792658Y-116483748D01*
X176587123Y-116226016D01*
X176549350Y-116183749D01*
X176549342Y-116183740D01*
X176316259Y-115950657D01*
X176273987Y-115912880D01*
X176273984Y-115912877D01*
X176016252Y-115707342D01*
X176016247Y-115707338D01*
X175970023Y-115674540D01*
X175690892Y-115499150D01*
X175641296Y-115471739D01*
X175641239Y-115471710D01*
X175344310Y-115328717D01*
X175344282Y-115328705D01*
X175344274Y-115328701D01*
X175291903Y-115307008D01*
X175291905Y-115307008D01*
X175291884Y-115307000D01*
X174980757Y-115198132D01*
X174980734Y-115198124D01*
X174926287Y-115182439D01*
X174926281Y-115182438D01*
X174604903Y-115109086D01*
X174604895Y-115109084D01*
X174604888Y-115109083D01*
X174549003Y-115099587D01*
X174548998Y-115099586D01*
X174548978Y-115099583D01*
X174221462Y-115062681D01*
X174221436Y-115062679D01*
X174221424Y-115062678D01*
X174164826Y-115059500D01*
X173835174Y-115059500D01*
X173778576Y-115062678D01*
X173778564Y-115062679D01*
X173778537Y-115062681D01*
X173451021Y-115099583D01*
X173450998Y-115099586D01*
X173450997Y-115099587D01*
X173395112Y-115109083D01*
X173395107Y-115109084D01*
X173395096Y-115109086D01*
X173073718Y-115182438D01*
X173073712Y-115182439D01*
X173019265Y-115198124D01*
X173019242Y-115198132D01*
X172708115Y-115307000D01*
X172655726Y-115328701D01*
X172655689Y-115328717D01*
X172358760Y-115471710D01*
X172358703Y-115471739D01*
X172309107Y-115499150D01*
X172029976Y-115674540D01*
X171983752Y-115707338D01*
X171726012Y-115912880D01*
X171683740Y-115950657D01*
X171450657Y-116183740D01*
X171412880Y-116226012D01*
X171207338Y-116483752D01*
X171174540Y-116529976D01*
X170999150Y-116809107D01*
X170971739Y-116858703D01*
X170971710Y-116858760D01*
X170828717Y-117155689D01*
X170828701Y-117155726D01*
X170807000Y-117208115D01*
X170698132Y-117519242D01*
X170698124Y-117519265D01*
X170682439Y-117573712D01*
X170682438Y-117573718D01*
X170609086Y-117895096D01*
X170609084Y-117895107D01*
X170609083Y-117895112D01*
X170606064Y-117912880D01*
X170599583Y-117951021D01*
X170562681Y-118278537D01*
X170562679Y-118278564D01*
X170562678Y-118278576D01*
X170559500Y-118335174D01*
X170559500Y-118424234D01*
X170559500Y-118664826D01*
X170562678Y-118721424D01*
X170562679Y-118721436D01*
X170562681Y-118721462D01*
X170599583Y-119048978D01*
X170609086Y-119104903D01*
X170682438Y-119426281D01*
X170682439Y-119426287D01*
X170698124Y-119480734D01*
X170698132Y-119480757D01*
X170807000Y-119791884D01*
X170807008Y-119791903D01*
X170822310Y-119828846D01*
X170828701Y-119844273D01*
X170828717Y-119844310D01*
X170971710Y-120141239D01*
X170971739Y-120141296D01*
X170999150Y-120190892D01*
X171174540Y-120470023D01*
X171207338Y-120516247D01*
X171207342Y-120516252D01*
X171412877Y-120773984D01*
X171412880Y-120773987D01*
X171450657Y-120816259D01*
X171683740Y-121049342D01*
X171683749Y-121049350D01*
X171726016Y-121087123D01*
X171885275Y-121214128D01*
X171983752Y-121292661D01*
X172029976Y-121325459D01*
X172309107Y-121500849D01*
X172358703Y-121528260D01*
X172358707Y-121528262D01*
X172358720Y-121528269D01*
X172358732Y-121528275D01*
X172358760Y-121528289D01*
X172655689Y-121671282D01*
X172655705Y-121671289D01*
X172655726Y-121671299D01*
X172708097Y-121692992D01*
X172708104Y-121692994D01*
X172708115Y-121692999D01*
X172925048Y-121768907D01*
X173019250Y-121801870D01*
X173019253Y-121801871D01*
X173019265Y-121801875D01*
X173073712Y-121817560D01*
X173073715Y-121817560D01*
X173073724Y-121817563D01*
X173395112Y-121890917D01*
X173450997Y-121900413D01*
X173451015Y-121900415D01*
X173451021Y-121900416D01*
X173778537Y-121937318D01*
X173778544Y-121937318D01*
X173778576Y-121937322D01*
X173835174Y-121940500D01*
X173835192Y-121940500D01*
X174125500Y-121940500D01*
X174192539Y-121960185D01*
X174238294Y-122012989D01*
X174249500Y-122064500D01*
X174249500Y-123430187D01*
X174229815Y-123497226D01*
X174177011Y-123542981D01*
X174107853Y-123552925D01*
X174071701Y-123541908D01*
X174044297Y-123528711D01*
X174044272Y-123528700D01*
X173991884Y-123507000D01*
X173680757Y-123398132D01*
X173680734Y-123398124D01*
X173626287Y-123382439D01*
X173626281Y-123382438D01*
X173304903Y-123309086D01*
X173304895Y-123309084D01*
X173304888Y-123309083D01*
X173249003Y-123299587D01*
X173248998Y-123299586D01*
X173248978Y-123299583D01*
X172921462Y-123262681D01*
X172921436Y-123262679D01*
X172921424Y-123262678D01*
X172864826Y-123259500D01*
X172535174Y-123259500D01*
X172478576Y-123262678D01*
X172478564Y-123262679D01*
X172478537Y-123262681D01*
X172151021Y-123299583D01*
X172150998Y-123299586D01*
X172150997Y-123299587D01*
X172095112Y-123309083D01*
X172095107Y-123309084D01*
X172095096Y-123309086D01*
X171773718Y-123382438D01*
X171773712Y-123382439D01*
X171719265Y-123398124D01*
X171719242Y-123398132D01*
X171408115Y-123507000D01*
X171355726Y-123528701D01*
X171355689Y-123528717D01*
X171058760Y-123671710D01*
X171058703Y-123671739D01*
X171009107Y-123699150D01*
X170729976Y-123874540D01*
X170683752Y-123907338D01*
X170426012Y-124112880D01*
X170383740Y-124150657D01*
X170150657Y-124383740D01*
X170112880Y-124426012D01*
X169907338Y-124683752D01*
X169874540Y-124729976D01*
X169699150Y-125009107D01*
X169671739Y-125058703D01*
X169671710Y-125058760D01*
X169528717Y-125355689D01*
X169528701Y-125355726D01*
X169507000Y-125408115D01*
X169398132Y-125719242D01*
X169398124Y-125719265D01*
X169382439Y-125773712D01*
X169382438Y-125773718D01*
X169309086Y-126095096D01*
X169299583Y-126151021D01*
X169262681Y-126478537D01*
X169262679Y-126478564D01*
X169262678Y-126478576D01*
X169259500Y-126535174D01*
X167950500Y-126535174D01*
X167950500Y-115499881D01*
X167970185Y-115432842D01*
X168022989Y-115387087D01*
X168092147Y-115377143D01*
X168140470Y-115394886D01*
X168309106Y-115500848D01*
X168335423Y-115515393D01*
X168358703Y-115528260D01*
X168358712Y-115528264D01*
X168358720Y-115528269D01*
X168358732Y-115528275D01*
X168358760Y-115528289D01*
X168655689Y-115671282D01*
X168655705Y-115671289D01*
X168655726Y-115671299D01*
X168708097Y-115692992D01*
X168708104Y-115692994D01*
X168708115Y-115692999D01*
X168950039Y-115777652D01*
X169019250Y-115801870D01*
X169019253Y-115801871D01*
X169019265Y-115801875D01*
X169073712Y-115817560D01*
X169073715Y-115817560D01*
X169073724Y-115817563D01*
X169395112Y-115890917D01*
X169450997Y-115900413D01*
X169451015Y-115900415D01*
X169451021Y-115900416D01*
X169778537Y-115937318D01*
X169778544Y-115937318D01*
X169778576Y-115937322D01*
X169835174Y-115940500D01*
X169835192Y-115940500D01*
X170164808Y-115940500D01*
X170164826Y-115940500D01*
X170221424Y-115937322D01*
X170221456Y-115937318D01*
X170221462Y-115937318D01*
X170548978Y-115900416D01*
X170548981Y-115900415D01*
X170549003Y-115900413D01*
X170604888Y-115890917D01*
X170926276Y-115817563D01*
X170926285Y-115817560D01*
X170926287Y-115817560D01*
X170980734Y-115801875D01*
X170980740Y-115801872D01*
X170980750Y-115801870D01*
X171170638Y-115735424D01*
X171291884Y-115692999D01*
X171291889Y-115692996D01*
X171291903Y-115692992D01*
X171344274Y-115671299D01*
X171344303Y-115671284D01*
X171344310Y-115671282D01*
X171641239Y-115528289D01*
X171641248Y-115528284D01*
X171641280Y-115528269D01*
X171690894Y-115500848D01*
X171970019Y-115325462D01*
X172016252Y-115292658D01*
X172273984Y-115087123D01*
X172316251Y-115049350D01*
X172549350Y-114816251D01*
X172587123Y-114773984D01*
X172792658Y-114516252D01*
X172825462Y-114470019D01*
X173000848Y-114190894D01*
X173028269Y-114141280D01*
X173038065Y-114120939D01*
X173171282Y-113844310D01*
X173171284Y-113844303D01*
X173171299Y-113844274D01*
X173192992Y-113791903D01*
X173197386Y-113779348D01*
X173264648Y-113587123D01*
X173301870Y-113480750D01*
X173317563Y-113426276D01*
X173390917Y-113104888D01*
X173400413Y-113049003D01*
X173404103Y-113016252D01*
X173437318Y-112721462D01*
X173437318Y-112721456D01*
X173437322Y-112721424D01*
X173440500Y-112664826D01*
X173440500Y-112335174D01*
X173437322Y-112278576D01*
X173430881Y-112221414D01*
X173400416Y-111951021D01*
X173400415Y-111951015D01*
X173400413Y-111950997D01*
X173390917Y-111895112D01*
X173317563Y-111573724D01*
X173317560Y-111573712D01*
X173301875Y-111519265D01*
X173301867Y-111519242D01*
X173288392Y-111480734D01*
X173269341Y-111426287D01*
X173192999Y-111208115D01*
X173192992Y-111208097D01*
X173171299Y-111155726D01*
X173171289Y-111155705D01*
X173171282Y-111155689D01*
X173086519Y-110979676D01*
X173075167Y-110910735D01*
X173102889Y-110846601D01*
X173160885Y-110807635D01*
X173163913Y-110806721D01*
X173180734Y-110801875D01*
X173180740Y-110801872D01*
X173180750Y-110801870D01*
X173410650Y-110721424D01*
X173491884Y-110692999D01*
X173491889Y-110692996D01*
X173491903Y-110692992D01*
X173544274Y-110671299D01*
X173544303Y-110671284D01*
X173544310Y-110671282D01*
X173841239Y-110528289D01*
X173841248Y-110528284D01*
X173841280Y-110528269D01*
X173890894Y-110500848D01*
X174170019Y-110325462D01*
X174216252Y-110292658D01*
X174473984Y-110087123D01*
X174516251Y-110049350D01*
X174749350Y-109816251D01*
X174787123Y-109773984D01*
X174992658Y-109516252D01*
X175025462Y-109470019D01*
X175200848Y-109190894D01*
X175228269Y-109141280D01*
X175282102Y-109029494D01*
X175371282Y-108844310D01*
X175371284Y-108844303D01*
X175371299Y-108844274D01*
X175392992Y-108791903D01*
X175501870Y-108480750D01*
X175502602Y-108478211D01*
X175517560Y-108426287D01*
X175517560Y-108426285D01*
X175517563Y-108426276D01*
X175590917Y-108104888D01*
X175600413Y-108049003D01*
X175606030Y-107999150D01*
X175637318Y-107721462D01*
X175637318Y-107721456D01*
X175637322Y-107721424D01*
X175640500Y-107664826D01*
X175640500Y-107335174D01*
X175637322Y-107278576D01*
X175628258Y-107198132D01*
X175600416Y-106951021D01*
X175600415Y-106951015D01*
X175600413Y-106950997D01*
X175590917Y-106895112D01*
X175517563Y-106573724D01*
X175517560Y-106573712D01*
X175501875Y-106519265D01*
X175501867Y-106519242D01*
X175392999Y-106208115D01*
X175389809Y-106200413D01*
X175371299Y-106155726D01*
X175371289Y-106155705D01*
X175371282Y-106155689D01*
X175228289Y-105858760D01*
X175228260Y-105858703D01*
X175200849Y-105809107D01*
X175025459Y-105529976D01*
X174992661Y-105483752D01*
X174992658Y-105483748D01*
X174787123Y-105226016D01*
X174749350Y-105183749D01*
X174749342Y-105183740D01*
X174516259Y-104950657D01*
X174473987Y-104912880D01*
X174473984Y-104912877D01*
X174216252Y-104707342D01*
X174216247Y-104707338D01*
X174170023Y-104674540D01*
X173890892Y-104499150D01*
X173841296Y-104471739D01*
X173841239Y-104471710D01*
X173544310Y-104328717D01*
X173544282Y-104328705D01*
X173544274Y-104328701D01*
X173504388Y-104312179D01*
X173491884Y-104307000D01*
X173180757Y-104198132D01*
X173180734Y-104198124D01*
X173126287Y-104182439D01*
X173126281Y-104182438D01*
X172804903Y-104109086D01*
X172804895Y-104109084D01*
X172804888Y-104109083D01*
X172749003Y-104099587D01*
X172748998Y-104099586D01*
X172748978Y-104099583D01*
X172421462Y-104062681D01*
X172421434Y-104062679D01*
X172421424Y-104062678D01*
X172371930Y-104059898D01*
X172306101Y-104036486D01*
X172263379Y-103981200D01*
X172257329Y-103911593D01*
X172261843Y-103895139D01*
X172301870Y-103780750D01*
X172317563Y-103726276D01*
X172390917Y-103404888D01*
X172400413Y-103349003D01*
X172404775Y-103310288D01*
X172437318Y-103021462D01*
X172437318Y-103021456D01*
X172437322Y-103021424D01*
X172440500Y-102964826D01*
X172440500Y-102635174D01*
X172437322Y-102578576D01*
X172436775Y-102573724D01*
X172400416Y-102251021D01*
X172400415Y-102251015D01*
X172400413Y-102250997D01*
X172390917Y-102195112D01*
X172317563Y-101873724D01*
X172317560Y-101873712D01*
X172301875Y-101819265D01*
X172301867Y-101819242D01*
X172300259Y-101814648D01*
X172259833Y-101699115D01*
X172192999Y-101508115D01*
X172192992Y-101508097D01*
X172171299Y-101455726D01*
X172171289Y-101455705D01*
X172171282Y-101455689D01*
X172028289Y-101158760D01*
X172028260Y-101158703D01*
X172000849Y-101109107D01*
X171908844Y-100962683D01*
X171870452Y-100901583D01*
X171870448Y-100901577D01*
X174249500Y-100901577D01*
X174249500Y-101098422D01*
X174280290Y-101292826D01*
X174341117Y-101480029D01*
X174423736Y-101642177D01*
X174430476Y-101655405D01*
X174546172Y-101814646D01*
X174685354Y-101953828D01*
X174844595Y-102069524D01*
X174885977Y-102090609D01*
X175019970Y-102158882D01*
X175019972Y-102158882D01*
X175019975Y-102158884D01*
X175120317Y-102191487D01*
X175207173Y-102219709D01*
X175303295Y-102234933D01*
X175366430Y-102264862D01*
X175403362Y-102324173D01*
X175402364Y-102394036D01*
X175393263Y-102415846D01*
X175390608Y-102420814D01*
X175330264Y-102566498D01*
X175330261Y-102566510D01*
X175299500Y-102721153D01*
X175299500Y-102878846D01*
X175330261Y-103033489D01*
X175330264Y-103033501D01*
X175390602Y-103179172D01*
X175390609Y-103179185D01*
X175478210Y-103310288D01*
X175478213Y-103310292D01*
X175589707Y-103421786D01*
X175589711Y-103421789D01*
X175720814Y-103509390D01*
X175720827Y-103509397D01*
X175866498Y-103569735D01*
X175866503Y-103569737D01*
X176021153Y-103600499D01*
X176021156Y-103600500D01*
X176021158Y-103600500D01*
X176178844Y-103600500D01*
X176178845Y-103600499D01*
X176333497Y-103569737D01*
X176479179Y-103509394D01*
X176610289Y-103421789D01*
X176721789Y-103310289D01*
X176809394Y-103179179D01*
X176869737Y-103033497D01*
X176900500Y-102878842D01*
X176900500Y-102721158D01*
X176900500Y-102721155D01*
X176900499Y-102721153D01*
X176883400Y-102635192D01*
X176869737Y-102566503D01*
X176850171Y-102519265D01*
X176809397Y-102420827D01*
X176809390Y-102420814D01*
X176721789Y-102289711D01*
X176721786Y-102289707D01*
X176610292Y-102178213D01*
X176610288Y-102178210D01*
X176479185Y-102090609D01*
X176479180Y-102090607D01*
X176479179Y-102090606D01*
X176460993Y-102083073D01*
X176437571Y-102073371D01*
X176383168Y-102029529D01*
X176361104Y-101963234D01*
X176378384Y-101895535D01*
X176397337Y-101871136D01*
X176453828Y-101814646D01*
X176569524Y-101655405D01*
X176658884Y-101480025D01*
X176719709Y-101292826D01*
X176735281Y-101194508D01*
X176750500Y-101098422D01*
X176750500Y-100901577D01*
X176719709Y-100707173D01*
X176691487Y-100620317D01*
X176658884Y-100519975D01*
X176658882Y-100519972D01*
X176658882Y-100519970D01*
X176600890Y-100406154D01*
X176569524Y-100344595D01*
X176453828Y-100185354D01*
X176314646Y-100046172D01*
X176155405Y-99930476D01*
X175980029Y-99841117D01*
X175792826Y-99780290D01*
X175598422Y-99749500D01*
X175598417Y-99749500D01*
X175401583Y-99749500D01*
X175401578Y-99749500D01*
X175207173Y-99780290D01*
X175019970Y-99841117D01*
X174844594Y-99930476D01*
X174782625Y-99975500D01*
X174685354Y-100046172D01*
X174685352Y-100046174D01*
X174685351Y-100046174D01*
X174546174Y-100185351D01*
X174546174Y-100185352D01*
X174546172Y-100185354D01*
X174498731Y-100250650D01*
X174430476Y-100344594D01*
X174341117Y-100519970D01*
X174280290Y-100707173D01*
X174249500Y-100901577D01*
X171870448Y-100901577D01*
X171825462Y-100829981D01*
X171825459Y-100829976D01*
X171792661Y-100783752D01*
X171792658Y-100783748D01*
X171587123Y-100526016D01*
X171549350Y-100483749D01*
X171549342Y-100483740D01*
X171316259Y-100250657D01*
X171273987Y-100212880D01*
X171273984Y-100212877D01*
X171016252Y-100007342D01*
X171016248Y-100007339D01*
X171016247Y-100007338D01*
X170970023Y-99974540D01*
X170739183Y-99829494D01*
X170692892Y-99777159D01*
X170682244Y-99708106D01*
X170710619Y-99644257D01*
X170769009Y-99605885D01*
X170805155Y-99600500D01*
X173463331Y-99600500D01*
X173463347Y-99600501D01*
X173470943Y-99600501D01*
X173629054Y-99600501D01*
X173629057Y-99600501D01*
X173781785Y-99559577D01*
X173831904Y-99530639D01*
X173918716Y-99480520D01*
X174030520Y-99368716D01*
X174030520Y-99368714D01*
X174040728Y-99358507D01*
X174040729Y-99358504D01*
X174614662Y-98784572D01*
X174675983Y-98751089D01*
X174678150Y-98750638D01*
X174736085Y-98739113D01*
X174833497Y-98719737D01*
X174979179Y-98659394D01*
X175110289Y-98571789D01*
X175221789Y-98460289D01*
X175309394Y-98329179D01*
X175369737Y-98183497D01*
X175400500Y-98028842D01*
X175400500Y-97871158D01*
X175400500Y-97871155D01*
X175400499Y-97871153D01*
X175398159Y-97859390D01*
X175369737Y-97716503D01*
X175369735Y-97716498D01*
X175309397Y-97570827D01*
X175309390Y-97570814D01*
X175221789Y-97439711D01*
X175221786Y-97439707D01*
X175110292Y-97328213D01*
X175110288Y-97328210D01*
X174979185Y-97240609D01*
X174979172Y-97240602D01*
X174833501Y-97180264D01*
X174833489Y-97180261D01*
X174678845Y-97149500D01*
X174678842Y-97149500D01*
X174521158Y-97149500D01*
X174521155Y-97149500D01*
X174366510Y-97180261D01*
X174366498Y-97180264D01*
X174215698Y-97242727D01*
X174146229Y-97250196D01*
X174083750Y-97218920D01*
X174048098Y-97158831D01*
X174050592Y-97089006D01*
X174060859Y-97066166D01*
X174109577Y-96981784D01*
X174147066Y-96841873D01*
X174150500Y-96829058D01*
X174150500Y-96670943D01*
X174150500Y-93171153D01*
X174849500Y-93171153D01*
X174849500Y-93328843D01*
X174880261Y-93483489D01*
X174880264Y-93483501D01*
X174940602Y-93629172D01*
X174940609Y-93629185D01*
X175028210Y-93760288D01*
X175028213Y-93760292D01*
X175139707Y-93871786D01*
X175139711Y-93871789D01*
X175270814Y-93959390D01*
X175270827Y-93959397D01*
X175400675Y-94013181D01*
X175416503Y-94019737D01*
X175564542Y-94049184D01*
X175571153Y-94050499D01*
X175571156Y-94050500D01*
X175571158Y-94050500D01*
X175728844Y-94050500D01*
X175728845Y-94050499D01*
X175883497Y-94019737D01*
X176029179Y-93959394D01*
X176160289Y-93871789D01*
X176271789Y-93760289D01*
X176359394Y-93629179D01*
X176419737Y-93483497D01*
X176450500Y-93328842D01*
X176450500Y-93171158D01*
X176450500Y-93171155D01*
X176450499Y-93171153D01*
X176446975Y-93153437D01*
X176419737Y-93016503D01*
X176412563Y-92999184D01*
X176359397Y-92870827D01*
X176359390Y-92870814D01*
X176271789Y-92739711D01*
X176271786Y-92739707D01*
X176160292Y-92628213D01*
X176160288Y-92628210D01*
X176029185Y-92540609D01*
X176029172Y-92540602D01*
X175883501Y-92480264D01*
X175883489Y-92480261D01*
X175728845Y-92449500D01*
X175728842Y-92449500D01*
X175571158Y-92449500D01*
X175571155Y-92449500D01*
X175416510Y-92480261D01*
X175416498Y-92480264D01*
X175270827Y-92540602D01*
X175270814Y-92540609D01*
X175139711Y-92628210D01*
X175139707Y-92628213D01*
X175028213Y-92739707D01*
X175028210Y-92739711D01*
X174940609Y-92870814D01*
X174940602Y-92870827D01*
X174880264Y-93016498D01*
X174880261Y-93016510D01*
X174849500Y-93171153D01*
X174150500Y-93171153D01*
X174150500Y-90850097D01*
X174170185Y-90783058D01*
X174186819Y-90762416D01*
X174570063Y-90379172D01*
X174964662Y-89984572D01*
X175025983Y-89951089D01*
X175028150Y-89950638D01*
X175086425Y-89939046D01*
X175183497Y-89919737D01*
X175329179Y-89859394D01*
X175460289Y-89771789D01*
X175571789Y-89660289D01*
X175659394Y-89529179D01*
X175719737Y-89383497D01*
X175750500Y-89228842D01*
X175750500Y-89071158D01*
X175750500Y-89071155D01*
X175750499Y-89071153D01*
X175719738Y-88916510D01*
X175719738Y-88916508D01*
X175719737Y-88916503D01*
X175671440Y-88799902D01*
X175659397Y-88770827D01*
X175659390Y-88770814D01*
X175571789Y-88639711D01*
X175571786Y-88639707D01*
X175460292Y-88528213D01*
X175460288Y-88528210D01*
X175329185Y-88440609D01*
X175329172Y-88440602D01*
X175183501Y-88380264D01*
X175183489Y-88380261D01*
X175028845Y-88349500D01*
X175028842Y-88349500D01*
X174871158Y-88349500D01*
X174871155Y-88349500D01*
X174716510Y-88380261D01*
X174716498Y-88380264D01*
X174570827Y-88440602D01*
X174570814Y-88440609D01*
X174439711Y-88528210D01*
X174439707Y-88528213D01*
X174328213Y-88639707D01*
X174328210Y-88639711D01*
X174240609Y-88770814D01*
X174240602Y-88770827D01*
X174180264Y-88916498D01*
X174180261Y-88916508D01*
X174149361Y-89071850D01*
X174116976Y-89133761D01*
X174115425Y-89135339D01*
X173069481Y-90181282D01*
X173069480Y-90181284D01*
X173025115Y-90258127D01*
X172990423Y-90318215D01*
X172949499Y-90470943D01*
X172949499Y-90470945D01*
X172949499Y-90639046D01*
X172949500Y-90639059D01*
X172949500Y-96449903D01*
X172929815Y-96516942D01*
X172913181Y-96537584D01*
X172637584Y-96813181D01*
X172576261Y-96846666D01*
X172549903Y-96849500D01*
X171195134Y-96849500D01*
X171128095Y-96829815D01*
X171082340Y-96777011D01*
X171072396Y-96707853D01*
X171080573Y-96678047D01*
X171083516Y-96670943D01*
X171119737Y-96583497D01*
X171150500Y-96428842D01*
X171150500Y-96271158D01*
X171150500Y-96271155D01*
X171150499Y-96271153D01*
X171140553Y-96221153D01*
X171119737Y-96116503D01*
X171119735Y-96116498D01*
X171059397Y-95970827D01*
X171059390Y-95970814D01*
X170971789Y-95839711D01*
X170971786Y-95839707D01*
X170860292Y-95728213D01*
X170860288Y-95728210D01*
X170729185Y-95640609D01*
X170729172Y-95640602D01*
X170583501Y-95580264D01*
X170583491Y-95580261D01*
X170428149Y-95549361D01*
X170366238Y-95516976D01*
X170364660Y-95515425D01*
X167637590Y-92788355D01*
X167637588Y-92788352D01*
X167518717Y-92669481D01*
X167518716Y-92669480D01*
X167431904Y-92619360D01*
X167431904Y-92619359D01*
X167431900Y-92619358D01*
X167381785Y-92590423D01*
X167229057Y-92549499D01*
X167070943Y-92549499D01*
X167063347Y-92549499D01*
X167063331Y-92549500D01*
X159500097Y-92549500D01*
X159433058Y-92529815D01*
X159412416Y-92513181D01*
X158886819Y-91987584D01*
X158853334Y-91926261D01*
X158850500Y-91899903D01*
X158850500Y-90579765D01*
X158870185Y-90512726D01*
X158871398Y-90510874D01*
X158959390Y-90379185D01*
X158959390Y-90379184D01*
X158959394Y-90379179D01*
X159019737Y-90233497D01*
X159050500Y-90078842D01*
X159050500Y-89921158D01*
X159050500Y-89921155D01*
X159050499Y-89921153D01*
X159050217Y-89919735D01*
X159019737Y-89766503D01*
X159000955Y-89721158D01*
X158959397Y-89620827D01*
X158959390Y-89620814D01*
X158871789Y-89489711D01*
X158871786Y-89489707D01*
X158760292Y-89378213D01*
X158760288Y-89378210D01*
X158629185Y-89290609D01*
X158629172Y-89290602D01*
X158483501Y-89230264D01*
X158483489Y-89230261D01*
X158328845Y-89199500D01*
X158328842Y-89199500D01*
X158171158Y-89199500D01*
X158171155Y-89199500D01*
X158016510Y-89230261D01*
X158016498Y-89230264D01*
X157870827Y-89290602D01*
X157870814Y-89290609D01*
X157739711Y-89378210D01*
X157739707Y-89378213D01*
X157628213Y-89489707D01*
X157628210Y-89489711D01*
X157540609Y-89620814D01*
X157540602Y-89620827D01*
X157480264Y-89766498D01*
X157480261Y-89766510D01*
X157449500Y-89921153D01*
X157449500Y-90078846D01*
X157480261Y-90233489D01*
X157480264Y-90233501D01*
X157540602Y-90379172D01*
X157540609Y-90379185D01*
X157628602Y-90510874D01*
X157649480Y-90577551D01*
X157649500Y-90579765D01*
X157649500Y-92113330D01*
X157649499Y-92113348D01*
X157649499Y-92279054D01*
X157649498Y-92279054D01*
X157649499Y-92279057D01*
X157690423Y-92431785D01*
X157700651Y-92449500D01*
X157769477Y-92568712D01*
X157769481Y-92568717D01*
X157888349Y-92687585D01*
X157888355Y-92687590D01*
X157988584Y-92787819D01*
X158022069Y-92849142D01*
X158017085Y-92918834D01*
X157975213Y-92974767D01*
X157909749Y-92999184D01*
X157900903Y-92999500D01*
X157100097Y-92999500D01*
X157033058Y-92979815D01*
X157012416Y-92963181D01*
X156886819Y-92837584D01*
X156853334Y-92776261D01*
X156850500Y-92749903D01*
X156850500Y-90529765D01*
X156870185Y-90462726D01*
X156871398Y-90460874D01*
X156959390Y-90329185D01*
X156959390Y-90329184D01*
X156959394Y-90329179D01*
X157019737Y-90183497D01*
X157050500Y-90028842D01*
X157050500Y-89871158D01*
X157050500Y-89871155D01*
X157050499Y-89871153D01*
X157030734Y-89771789D01*
X157019737Y-89716503D01*
X156979025Y-89618215D01*
X156959397Y-89570827D01*
X156959390Y-89570814D01*
X156871789Y-89439711D01*
X156871786Y-89439707D01*
X156760292Y-89328213D01*
X156760288Y-89328210D01*
X156629185Y-89240609D01*
X156629172Y-89240602D01*
X156483501Y-89180264D01*
X156483489Y-89180261D01*
X156328845Y-89149500D01*
X156328842Y-89149500D01*
X156171158Y-89149500D01*
X156171155Y-89149500D01*
X156016510Y-89180261D01*
X156016498Y-89180264D01*
X155870827Y-89240602D01*
X155870814Y-89240609D01*
X155739711Y-89328210D01*
X155739707Y-89328213D01*
X155628213Y-89439707D01*
X155628210Y-89439711D01*
X155540609Y-89570814D01*
X155540602Y-89570827D01*
X155480264Y-89716498D01*
X155480261Y-89716510D01*
X155449500Y-89871153D01*
X155449500Y-90028846D01*
X155480261Y-90183489D01*
X155480264Y-90183501D01*
X155540602Y-90329172D01*
X155540609Y-90329185D01*
X155628602Y-90460874D01*
X155649480Y-90527551D01*
X155649500Y-90529765D01*
X155649500Y-92963330D01*
X155649499Y-92963348D01*
X155649499Y-93129054D01*
X155649498Y-93129054D01*
X155649499Y-93129057D01*
X155680139Y-93243408D01*
X155678477Y-93313256D01*
X155639315Y-93371118D01*
X155575087Y-93398623D01*
X155560365Y-93399500D01*
X155500097Y-93399500D01*
X155433058Y-93379815D01*
X155412416Y-93363181D01*
X154886819Y-92837584D01*
X154853334Y-92776261D01*
X154850500Y-92749903D01*
X154850500Y-90629765D01*
X154870185Y-90562726D01*
X154871398Y-90560874D01*
X154892185Y-90529765D01*
X154959394Y-90429179D01*
X155019737Y-90283497D01*
X155050500Y-90128842D01*
X155050500Y-89971158D01*
X155050500Y-89971155D01*
X155050499Y-89971153D01*
X155042126Y-89929060D01*
X155019737Y-89816503D01*
X155001215Y-89771786D01*
X154959397Y-89670827D01*
X154959390Y-89670814D01*
X154871789Y-89539711D01*
X154871786Y-89539707D01*
X154760292Y-89428213D01*
X154760288Y-89428210D01*
X154629185Y-89340609D01*
X154629172Y-89340602D01*
X154483501Y-89280264D01*
X154483489Y-89280261D01*
X154328845Y-89249500D01*
X154328842Y-89249500D01*
X154171158Y-89249500D01*
X154171155Y-89249500D01*
X154016510Y-89280261D01*
X154016498Y-89280264D01*
X153870827Y-89340602D01*
X153870814Y-89340609D01*
X153739711Y-89428210D01*
X153739707Y-89428213D01*
X153628213Y-89539707D01*
X153628210Y-89539711D01*
X153540609Y-89670814D01*
X153540602Y-89670827D01*
X153480264Y-89816498D01*
X153480261Y-89816510D01*
X153449500Y-89971153D01*
X153449500Y-90128846D01*
X153480261Y-90283489D01*
X153480264Y-90283501D01*
X153540602Y-90429172D01*
X153540609Y-90429185D01*
X153628602Y-90560874D01*
X153649480Y-90627551D01*
X153649500Y-90629765D01*
X153649500Y-92963330D01*
X153649499Y-92963348D01*
X153649499Y-93129054D01*
X153649498Y-93129054D01*
X153690423Y-93281784D01*
X153690424Y-93281788D01*
X153717591Y-93328843D01*
X153717592Y-93328843D01*
X153769477Y-93418712D01*
X153769481Y-93418717D01*
X153888349Y-93537585D01*
X153888355Y-93537590D01*
X154188584Y-93837819D01*
X154222069Y-93899142D01*
X154217085Y-93968834D01*
X154175213Y-94024767D01*
X154109749Y-94049184D01*
X154100903Y-94049500D01*
X147550098Y-94049500D01*
X147483059Y-94029815D01*
X147462417Y-94013181D01*
X147209704Y-93760468D01*
X147176219Y-93699145D01*
X147181203Y-93629453D01*
X147223075Y-93573520D01*
X147273191Y-93551170D01*
X147309232Y-93544002D01*
X147454914Y-93483659D01*
X147586024Y-93396054D01*
X147697524Y-93284554D01*
X147785129Y-93153444D01*
X147845472Y-93007762D01*
X147872710Y-92870827D01*
X147876373Y-92852415D01*
X147908758Y-92790504D01*
X147910254Y-92788980D01*
X150108505Y-90590728D01*
X150108510Y-90590725D01*
X150111022Y-90588213D01*
X150115046Y-90586014D01*
X150140727Y-90567505D01*
X150140735Y-90567501D01*
X150142494Y-90571019D01*
X150172339Y-90554716D01*
X150242032Y-90559687D01*
X150246136Y-90561300D01*
X150266503Y-90569737D01*
X150421153Y-90600499D01*
X150421156Y-90600500D01*
X150421158Y-90600500D01*
X150578844Y-90600500D01*
X150578845Y-90600499D01*
X150733497Y-90569737D01*
X150879179Y-90509394D01*
X151010289Y-90421789D01*
X151121789Y-90310289D01*
X151209394Y-90179179D01*
X151269737Y-90033497D01*
X151300500Y-89878842D01*
X151300500Y-89721158D01*
X151300500Y-89721155D01*
X151300499Y-89721153D01*
X151280543Y-89620827D01*
X151269737Y-89566503D01*
X151268977Y-89564668D01*
X151209397Y-89420827D01*
X151209390Y-89420814D01*
X151121398Y-89289125D01*
X151100520Y-89222447D01*
X151100500Y-89220234D01*
X151100500Y-87283653D01*
X172549500Y-87283653D01*
X172549500Y-87441346D01*
X172580261Y-87595989D01*
X172580264Y-87596001D01*
X172640602Y-87741672D01*
X172640609Y-87741685D01*
X172728210Y-87872788D01*
X172728213Y-87872792D01*
X172839707Y-87984286D01*
X172839711Y-87984289D01*
X172970814Y-88071890D01*
X172970827Y-88071897D01*
X173116498Y-88132235D01*
X173116503Y-88132237D01*
X173271153Y-88162999D01*
X173271156Y-88163000D01*
X173271158Y-88163000D01*
X173428844Y-88163000D01*
X173428845Y-88162999D01*
X173583497Y-88132237D01*
X173729179Y-88071894D01*
X173860289Y-87984289D01*
X173971789Y-87872789D01*
X174059394Y-87741679D01*
X174119737Y-87595997D01*
X174150500Y-87441342D01*
X174150500Y-87283658D01*
X174150500Y-87283655D01*
X174150499Y-87283653D01*
X174119738Y-87129010D01*
X174119737Y-87129003D01*
X174119735Y-87128998D01*
X174059397Y-86983327D01*
X174059390Y-86983314D01*
X173971789Y-86852211D01*
X173971786Y-86852207D01*
X173860292Y-86740713D01*
X173860288Y-86740710D01*
X173729185Y-86653109D01*
X173729172Y-86653102D01*
X173583501Y-86592764D01*
X173583489Y-86592761D01*
X173428845Y-86562000D01*
X173428842Y-86562000D01*
X173271158Y-86562000D01*
X173271155Y-86562000D01*
X173116510Y-86592761D01*
X173116498Y-86592764D01*
X172970827Y-86653102D01*
X172970814Y-86653109D01*
X172839711Y-86740710D01*
X172839707Y-86740713D01*
X172728213Y-86852207D01*
X172728210Y-86852211D01*
X172640609Y-86983314D01*
X172640602Y-86983327D01*
X172580264Y-87128998D01*
X172580261Y-87129010D01*
X172549500Y-87283653D01*
X151100500Y-87283653D01*
X151100500Y-83800096D01*
X151120185Y-83733057D01*
X151136814Y-83712420D01*
X152078081Y-82771153D01*
X160037000Y-82771153D01*
X160037000Y-82928846D01*
X160067761Y-83083489D01*
X160067764Y-83083501D01*
X160128102Y-83229172D01*
X160128109Y-83229185D01*
X160215710Y-83360288D01*
X160215713Y-83360292D01*
X160327207Y-83471786D01*
X160327211Y-83471789D01*
X160458314Y-83559390D01*
X160458327Y-83559397D01*
X160603998Y-83619735D01*
X160604003Y-83619737D01*
X160758653Y-83650499D01*
X160758656Y-83650500D01*
X160758658Y-83650500D01*
X160916344Y-83650500D01*
X160916345Y-83650499D01*
X161070997Y-83619737D01*
X161216679Y-83559394D01*
X161347789Y-83471789D01*
X161459289Y-83360289D01*
X161546894Y-83229179D01*
X161607237Y-83083497D01*
X161638000Y-82928842D01*
X161638000Y-82771158D01*
X161638000Y-82771155D01*
X161637999Y-82771153D01*
X161608344Y-82622069D01*
X161607237Y-82616503D01*
X161590134Y-82575213D01*
X161546897Y-82470827D01*
X161546890Y-82470814D01*
X161459289Y-82339711D01*
X161459286Y-82339707D01*
X161347792Y-82228213D01*
X161347788Y-82228210D01*
X161216685Y-82140609D01*
X161216672Y-82140602D01*
X161071001Y-82080264D01*
X161070989Y-82080261D01*
X160916345Y-82049500D01*
X160916342Y-82049500D01*
X160758658Y-82049500D01*
X160758655Y-82049500D01*
X160604010Y-82080261D01*
X160603998Y-82080264D01*
X160458327Y-82140602D01*
X160458314Y-82140609D01*
X160327211Y-82228210D01*
X160327207Y-82228213D01*
X160215713Y-82339707D01*
X160215710Y-82339711D01*
X160128109Y-82470814D01*
X160128102Y-82470827D01*
X160067764Y-82616498D01*
X160067761Y-82616510D01*
X160037000Y-82771153D01*
X152078081Y-82771153D01*
X162037819Y-72811414D01*
X162099142Y-72777930D01*
X162168834Y-72782914D01*
X162224767Y-72824786D01*
X162249184Y-72890250D01*
X162249500Y-72899096D01*
X162249500Y-74895396D01*
X162240062Y-74942844D01*
X162230263Y-74966503D01*
X162230262Y-74966506D01*
X162230260Y-74966511D01*
X162199500Y-75121153D01*
X162199500Y-75278846D01*
X162230261Y-75433489D01*
X162230264Y-75433501D01*
X162290602Y-75579172D01*
X162290609Y-75579185D01*
X162378210Y-75710288D01*
X162378213Y-75710292D01*
X162489707Y-75821786D01*
X162489711Y-75821789D01*
X162620814Y-75909390D01*
X162620827Y-75909397D01*
X162766498Y-75969735D01*
X162766503Y-75969737D01*
X162921153Y-76000499D01*
X162921156Y-76000500D01*
X162921158Y-76000500D01*
X163078844Y-76000500D01*
X163078845Y-76000499D01*
X163233497Y-75969737D01*
X163379179Y-75909394D01*
X163510289Y-75821789D01*
X163621789Y-75710289D01*
X163709394Y-75579179D01*
X163769737Y-75433497D01*
X163800500Y-75278842D01*
X163800500Y-75121158D01*
X163800500Y-75121155D01*
X163800499Y-75121153D01*
X163769739Y-74966511D01*
X163769738Y-74966508D01*
X163769737Y-74966503D01*
X163759937Y-74942844D01*
X163750500Y-74895396D01*
X163750500Y-73225316D01*
X163759939Y-73177864D01*
X163819735Y-73033501D01*
X163819737Y-73033497D01*
X163850500Y-72878842D01*
X163850500Y-72721158D01*
X163850500Y-72721155D01*
X163850499Y-72721153D01*
X163819738Y-72566510D01*
X163819737Y-72566503D01*
X163819735Y-72566498D01*
X163759397Y-72420827D01*
X163759390Y-72420814D01*
X163671789Y-72289711D01*
X163671786Y-72289707D01*
X163560292Y-72178213D01*
X163560288Y-72178210D01*
X163429185Y-72090609D01*
X163429172Y-72090602D01*
X163283501Y-72030264D01*
X163283491Y-72030261D01*
X163123570Y-71998450D01*
X163061659Y-71966065D01*
X163027085Y-71905349D01*
X163030826Y-71835579D01*
X163060079Y-71789154D01*
X164868713Y-69980521D01*
X164868716Y-69980520D01*
X164980520Y-69868716D01*
X165030639Y-69781904D01*
X165059577Y-69731785D01*
X165100501Y-69579057D01*
X165100501Y-69420943D01*
X165100501Y-69413348D01*
X165100500Y-69413330D01*
X165100500Y-66613380D01*
X165120185Y-66546341D01*
X165172989Y-66500586D01*
X165204261Y-66492097D01*
X165204145Y-66491555D01*
X165210755Y-66490139D01*
X165210761Y-66490139D01*
X165375079Y-66435690D01*
X165522411Y-66344814D01*
X165644814Y-66222411D01*
X165735690Y-66075079D01*
X165790139Y-65910761D01*
X165800500Y-65809343D01*
X165800499Y-63190658D01*
X165790139Y-63089239D01*
X165735690Y-62924921D01*
X165735686Y-62924915D01*
X165735685Y-62924912D01*
X165644816Y-62777592D01*
X165644813Y-62777588D01*
X165522411Y-62655186D01*
X165522407Y-62655183D01*
X165375087Y-62564314D01*
X165375081Y-62564311D01*
X165375079Y-62564310D01*
X165323595Y-62547250D01*
X165210762Y-62509861D01*
X165109344Y-62499500D01*
X163890664Y-62499500D01*
X163890647Y-62499501D01*
X163789239Y-62509860D01*
X163789232Y-62509862D01*
X163680536Y-62545880D01*
X163610708Y-62548281D01*
X163606938Y-62547250D01*
X163452573Y-62502402D01*
X163452567Y-62502401D01*
X163415701Y-62499500D01*
X163415694Y-62499500D01*
X162584306Y-62499500D01*
X162584298Y-62499500D01*
X162547432Y-62502401D01*
X162547426Y-62502402D01*
X162433698Y-62535444D01*
X162364508Y-62535444D01*
X162252495Y-62502900D01*
X162252489Y-62502899D01*
X162215649Y-62500000D01*
X162050000Y-62500000D01*
X162050000Y-62865950D01*
X162045076Y-62900545D01*
X162002402Y-63047426D01*
X162002401Y-63047432D01*
X161999500Y-63084298D01*
X161999500Y-65915701D01*
X162002401Y-65952567D01*
X162002402Y-65952573D01*
X162045076Y-66099455D01*
X162050000Y-66134050D01*
X162050000Y-66500000D01*
X162215634Y-66500000D01*
X162215649Y-66499999D01*
X162252489Y-66497100D01*
X162252492Y-66497099D01*
X162364507Y-66464555D01*
X162433697Y-66464555D01*
X162547431Y-66497598D01*
X162584306Y-66500500D01*
X162584314Y-66500500D01*
X163415686Y-66500500D01*
X163415694Y-66500500D01*
X163452569Y-66497598D01*
X163452571Y-66497597D01*
X163452573Y-66497597D01*
X163606940Y-66452749D01*
X163676809Y-66452948D01*
X163680523Y-66454114D01*
X163789239Y-66490139D01*
X163789249Y-66490140D01*
X163795863Y-66491557D01*
X163795540Y-66493061D01*
X163852779Y-66516406D01*
X163892939Y-66573580D01*
X163899500Y-66613380D01*
X163899500Y-69199903D01*
X163879815Y-69266942D01*
X163863181Y-69287584D01*
X150562181Y-82588584D01*
X150500858Y-82622069D01*
X150431166Y-82617085D01*
X150375233Y-82575213D01*
X150350816Y-82509749D01*
X150350500Y-82500903D01*
X150350500Y-81247154D01*
X150370185Y-81180115D01*
X150386814Y-81159478D01*
X160958506Y-70587785D01*
X160958511Y-70587782D01*
X160968714Y-70577578D01*
X160968716Y-70577578D01*
X161080520Y-70465774D01*
X161140055Y-70362656D01*
X161159577Y-70328843D01*
X161200500Y-70176115D01*
X161200500Y-70018001D01*
X161200500Y-66618948D01*
X161220185Y-66551909D01*
X161272989Y-66506154D01*
X161342147Y-66496210D01*
X161346797Y-66496969D01*
X161347518Y-66497100D01*
X161384350Y-66499999D01*
X161384366Y-66500000D01*
X161550000Y-66500000D01*
X161550000Y-66134050D01*
X161554924Y-66099455D01*
X161597597Y-65952573D01*
X161597598Y-65952567D01*
X161600499Y-65915701D01*
X161600500Y-65915694D01*
X161600500Y-63084306D01*
X161597598Y-63047431D01*
X161562006Y-62924923D01*
X161554924Y-62900545D01*
X161550000Y-62865950D01*
X161550000Y-62500000D01*
X161384350Y-62500000D01*
X161347515Y-62502899D01*
X161347512Y-62502899D01*
X161235490Y-62535445D01*
X161166300Y-62535444D01*
X161052573Y-62502402D01*
X161052567Y-62502401D01*
X161015701Y-62499500D01*
X161015694Y-62499500D01*
X160184306Y-62499500D01*
X160184298Y-62499500D01*
X160147432Y-62502401D01*
X160147426Y-62502402D01*
X160034595Y-62535184D01*
X159965405Y-62535184D01*
X159852573Y-62502402D01*
X159852567Y-62502401D01*
X159815701Y-62499500D01*
X159815694Y-62499500D01*
X158984306Y-62499500D01*
X158984298Y-62499500D01*
X158947432Y-62502401D01*
X158947426Y-62502402D01*
X158834595Y-62535184D01*
X158765405Y-62535184D01*
X158652573Y-62502402D01*
X158652567Y-62502401D01*
X158615701Y-62499500D01*
X158615694Y-62499500D01*
X157784306Y-62499500D01*
X157784298Y-62499500D01*
X157747432Y-62502401D01*
X157747426Y-62502402D01*
X157634595Y-62535184D01*
X157565405Y-62535184D01*
X157452573Y-62502402D01*
X157452567Y-62502401D01*
X157415701Y-62499500D01*
X157415694Y-62499500D01*
X156584306Y-62499500D01*
X156584298Y-62499500D01*
X156547432Y-62502401D01*
X156547426Y-62502402D01*
X156434595Y-62535184D01*
X156365405Y-62535184D01*
X156252573Y-62502402D01*
X156252567Y-62502401D01*
X156215701Y-62499500D01*
X156215694Y-62499500D01*
X155384306Y-62499500D01*
X155384298Y-62499500D01*
X155347432Y-62502401D01*
X155347426Y-62502402D01*
X155189606Y-62548254D01*
X155189603Y-62548255D01*
X155048137Y-62631917D01*
X155048129Y-62631923D01*
X154931923Y-62748129D01*
X154931917Y-62748137D01*
X154848255Y-62889603D01*
X154848254Y-62889606D01*
X154802402Y-63047426D01*
X154802401Y-63047432D01*
X154799500Y-63084298D01*
X154799500Y-65915701D01*
X154802401Y-65952567D01*
X154802402Y-65952573D01*
X154848254Y-66110393D01*
X154848255Y-66110396D01*
X154931917Y-66251862D01*
X154931923Y-66251870D01*
X155048129Y-66368076D01*
X155048133Y-66368079D01*
X155048135Y-66368081D01*
X155189602Y-66451744D01*
X155231224Y-66463836D01*
X155347426Y-66497597D01*
X155347429Y-66497597D01*
X155347431Y-66497598D01*
X155384306Y-66500500D01*
X155384314Y-66500500D01*
X156215686Y-66500500D01*
X156215694Y-66500500D01*
X156252569Y-66497598D01*
X156252570Y-66497597D01*
X156253215Y-66497480D01*
X156253580Y-66497518D01*
X156258886Y-66497101D01*
X156258963Y-66498085D01*
X156322701Y-66504796D01*
X156377201Y-66548517D01*
X156399411Y-66614763D01*
X156399500Y-66619461D01*
X156399500Y-71699902D01*
X156379815Y-71766941D01*
X156363181Y-71787583D01*
X147019481Y-81131282D01*
X147019480Y-81131284D01*
X146973786Y-81210429D01*
X146940423Y-81268215D01*
X146899499Y-81420943D01*
X146899499Y-81420945D01*
X146899499Y-81589046D01*
X146899500Y-81589059D01*
X146899500Y-84334155D01*
X146879815Y-84401194D01*
X146827011Y-84446949D01*
X146757853Y-84456893D01*
X146728048Y-84448716D01*
X146683501Y-84430264D01*
X146683489Y-84430261D01*
X146528845Y-84399500D01*
X146528842Y-84399500D01*
X146371158Y-84399500D01*
X146371155Y-84399500D01*
X146216510Y-84430261D01*
X146216498Y-84430264D01*
X146070827Y-84490602D01*
X146070814Y-84490609D01*
X145939711Y-84578210D01*
X145939707Y-84578213D01*
X145828213Y-84689707D01*
X145828210Y-84689711D01*
X145740609Y-84820814D01*
X145740602Y-84820827D01*
X145680264Y-84966498D01*
X145680261Y-84966510D01*
X145649500Y-85121153D01*
X145649500Y-85278846D01*
X145680261Y-85433489D01*
X145680264Y-85433501D01*
X145740602Y-85579172D01*
X145740609Y-85579185D01*
X145828210Y-85710288D01*
X145828213Y-85710292D01*
X145939707Y-85821786D01*
X145939711Y-85821789D01*
X146070814Y-85909390D01*
X146070827Y-85909397D01*
X146216498Y-85969735D01*
X146216503Y-85969737D01*
X146299693Y-85986284D01*
X146361602Y-86018668D01*
X146396176Y-86079384D01*
X146399500Y-86107901D01*
X146399500Y-86482152D01*
X146379815Y-86549191D01*
X146327011Y-86594946D01*
X146299692Y-86603769D01*
X146166508Y-86630261D01*
X146166498Y-86630264D01*
X146020827Y-86690602D01*
X146020814Y-86690609D01*
X145889711Y-86778210D01*
X145889707Y-86778213D01*
X145778213Y-86889707D01*
X145778207Y-86889715D01*
X145690607Y-87020818D01*
X145690606Y-87020819D01*
X145680805Y-87044480D01*
X145653927Y-87084703D01*
X141467048Y-91271583D01*
X141446870Y-91301783D01*
X141426825Y-91331784D01*
X141405870Y-91363144D01*
X141384916Y-91394504D01*
X141384912Y-91394511D01*
X141328343Y-91531082D01*
X141328340Y-91531092D01*
X141299500Y-91676079D01*
X141299500Y-91676082D01*
X141299500Y-121623918D01*
X141299500Y-121623920D01*
X141299499Y-121623920D01*
X139242888Y-121623920D01*
X139242888Y-59056282D01*
X139245882Y-59029200D01*
X139250334Y-59009308D01*
X140994879Y-51214531D01*
X141028729Y-51153412D01*
X141090251Y-51120294D01*
X141159912Y-51125696D01*
X141215594Y-51167901D01*
X141230445Y-51194163D01*
X141291832Y-51342366D01*
X141291837Y-51342376D01*
X141416400Y-51558126D01*
X141568060Y-51755774D01*
X141568066Y-51755781D01*
X141744218Y-51931933D01*
X141744225Y-51931939D01*
X141941873Y-52083599D01*
X142157623Y-52208162D01*
X142157638Y-52208169D01*
X142256825Y-52249253D01*
X142387793Y-52303502D01*
X142628435Y-52367982D01*
X142875435Y-52400500D01*
X142875442Y-52400500D01*
X143124558Y-52400500D01*
X143124565Y-52400500D01*
X143371565Y-52367982D01*
X143612207Y-52303502D01*
X143842373Y-52208164D01*
X144058127Y-52083599D01*
X144255776Y-51931938D01*
X144431938Y-51755776D01*
X144583599Y-51558127D01*
X144708164Y-51342373D01*
X144803502Y-51112207D01*
X144867982Y-50871565D01*
X144900500Y-50624565D01*
X144900500Y-50375435D01*
X144867982Y-50128435D01*
X144803502Y-49887793D01*
X144708164Y-49657627D01*
X144583599Y-49441873D01*
X144577166Y-49433489D01*
X144431939Y-49244225D01*
X144431933Y-49244218D01*
X144308868Y-49121153D01*
X145899500Y-49121153D01*
X145899500Y-49278846D01*
X145930261Y-49433489D01*
X145930264Y-49433501D01*
X145969219Y-49527548D01*
X145976688Y-49597018D01*
X145969219Y-49622452D01*
X145930264Y-49716498D01*
X145930261Y-49716510D01*
X145899500Y-49871153D01*
X145899500Y-50028846D01*
X145930261Y-50183489D01*
X145930264Y-50183501D01*
X145969219Y-50277548D01*
X145976688Y-50347018D01*
X145969219Y-50372452D01*
X145930264Y-50466498D01*
X145930261Y-50466510D01*
X145899500Y-50621153D01*
X145899500Y-50778846D01*
X145930261Y-50933489D01*
X145930264Y-50933501D01*
X145990602Y-51079172D01*
X145990609Y-51079185D01*
X146078210Y-51210288D01*
X146078213Y-51210292D01*
X146189707Y-51321786D01*
X146189711Y-51321789D01*
X146320814Y-51409390D01*
X146320827Y-51409397D01*
X146466498Y-51469735D01*
X146466503Y-51469737D01*
X146621153Y-51500499D01*
X146621156Y-51500500D01*
X146621158Y-51500500D01*
X146778844Y-51500500D01*
X146778845Y-51500499D01*
X146933497Y-51469737D01*
X147027550Y-51430778D01*
X147097016Y-51423310D01*
X147122443Y-51430775D01*
X147216503Y-51469737D01*
X147371153Y-51500499D01*
X147371156Y-51500500D01*
X147371158Y-51500500D01*
X147528844Y-51500500D01*
X147528845Y-51500499D01*
X147683497Y-51469737D01*
X147777550Y-51430778D01*
X147847016Y-51423310D01*
X147872443Y-51430775D01*
X147966503Y-51469737D01*
X148121153Y-51500499D01*
X148121156Y-51500500D01*
X148121158Y-51500500D01*
X148278844Y-51500500D01*
X148278845Y-51500499D01*
X148433497Y-51469737D01*
X148546166Y-51423067D01*
X148579172Y-51409397D01*
X148579172Y-51409396D01*
X148579179Y-51409394D01*
X148710289Y-51321789D01*
X148821789Y-51210289D01*
X148909394Y-51079179D01*
X148969737Y-50933497D01*
X149000500Y-50778842D01*
X149000500Y-50621158D01*
X149000500Y-50621155D01*
X149000499Y-50621153D01*
X148969738Y-50466510D01*
X148969737Y-50466503D01*
X148930778Y-50372449D01*
X148923310Y-50302984D01*
X148930775Y-50277556D01*
X148969737Y-50183497D01*
X149000500Y-50028842D01*
X149000500Y-49871158D01*
X149000500Y-49871155D01*
X149000499Y-49871153D01*
X148969738Y-49716510D01*
X148969737Y-49716503D01*
X148930778Y-49622449D01*
X148923310Y-49552984D01*
X148930775Y-49527556D01*
X148969737Y-49433497D01*
X149000500Y-49278842D01*
X149000500Y-49121158D01*
X149000500Y-49121155D01*
X149000499Y-49121153D01*
X148983116Y-49033764D01*
X148969737Y-48966503D01*
X148945435Y-48907832D01*
X148909397Y-48820827D01*
X148909390Y-48820814D01*
X148821789Y-48689711D01*
X148821786Y-48689707D01*
X148710292Y-48578213D01*
X148710288Y-48578210D01*
X148579185Y-48490609D01*
X148579172Y-48490602D01*
X148433501Y-48430264D01*
X148433489Y-48430261D01*
X148278845Y-48399500D01*
X148278842Y-48399500D01*
X148121158Y-48399500D01*
X148121155Y-48399500D01*
X147966510Y-48430261D01*
X147966498Y-48430264D01*
X147872452Y-48469219D01*
X147802982Y-48476688D01*
X147777548Y-48469219D01*
X147683501Y-48430264D01*
X147683489Y-48430261D01*
X147528845Y-48399500D01*
X147528842Y-48399500D01*
X147371158Y-48399500D01*
X147371155Y-48399500D01*
X147216510Y-48430261D01*
X147216498Y-48430264D01*
X147122452Y-48469219D01*
X147052982Y-48476688D01*
X147027548Y-48469219D01*
X146933501Y-48430264D01*
X146933489Y-48430261D01*
X146778845Y-48399500D01*
X146778842Y-48399500D01*
X146621158Y-48399500D01*
X146621155Y-48399500D01*
X146466510Y-48430261D01*
X146466498Y-48430264D01*
X146320827Y-48490602D01*
X146320814Y-48490609D01*
X146189711Y-48578210D01*
X146189707Y-48578213D01*
X146078213Y-48689707D01*
X146078210Y-48689711D01*
X145990609Y-48820814D01*
X145990602Y-48820827D01*
X145930264Y-48966498D01*
X145930261Y-48966510D01*
X145899500Y-49121153D01*
X144308868Y-49121153D01*
X144255781Y-49068066D01*
X144255774Y-49068060D01*
X144058129Y-48916402D01*
X144043285Y-48907832D01*
X143995070Y-48857264D01*
X143981848Y-48788657D01*
X144007816Y-48723793D01*
X144064730Y-48683265D01*
X144105286Y-48676445D01*
X145043042Y-48676445D01*
X145043044Y-48676445D01*
X145241297Y-48641488D01*
X145430468Y-48572636D01*
X145604809Y-48471980D01*
X145759022Y-48342579D01*
X145888423Y-48188366D01*
X145989079Y-48014025D01*
X146057931Y-47824854D01*
X146092888Y-47626601D01*
X146092888Y-47525945D01*
X146092888Y-47491594D01*
X146092888Y-46909448D01*
X147349500Y-46909448D01*
X147349500Y-47090551D01*
X147377829Y-47269410D01*
X147433787Y-47441636D01*
X147433788Y-47441639D01*
X147516006Y-47602997D01*
X147622441Y-47749494D01*
X147622445Y-47749499D01*
X147750500Y-47877554D01*
X147750505Y-47877558D01*
X147878287Y-47970396D01*
X147897006Y-47983996D01*
X148002484Y-48037740D01*
X148058360Y-48066211D01*
X148058363Y-48066212D01*
X148144476Y-48094191D01*
X148230591Y-48122171D01*
X148313429Y-48135291D01*
X148409449Y-48150500D01*
X148409454Y-48150500D01*
X148590551Y-48150500D01*
X148677259Y-48136765D01*
X148769409Y-48122171D01*
X148941639Y-48066211D01*
X149102994Y-47983996D01*
X149249501Y-47877553D01*
X149377553Y-47749501D01*
X149483996Y-47602994D01*
X149566211Y-47441639D01*
X149622171Y-47269409D01*
X149636765Y-47177259D01*
X149650500Y-47090551D01*
X149650500Y-46909448D01*
X149634019Y-46805397D01*
X149622171Y-46730591D01*
X149566211Y-46558361D01*
X149566211Y-46558360D01*
X149537740Y-46502484D01*
X149483996Y-46397006D01*
X149470396Y-46378287D01*
X149377558Y-46250505D01*
X149377554Y-46250500D01*
X149249499Y-46122445D01*
X149249494Y-46122441D01*
X149102997Y-46016006D01*
X149102996Y-46016005D01*
X149102994Y-46016004D01*
X149051300Y-45989664D01*
X148941639Y-45933788D01*
X148941636Y-45933787D01*
X148769410Y-45877829D01*
X148590551Y-45849500D01*
X148590546Y-45849500D01*
X148409454Y-45849500D01*
X148409449Y-45849500D01*
X148230589Y-45877829D01*
X148058363Y-45933787D01*
X148058360Y-45933788D01*
X147897002Y-46016006D01*
X147750505Y-46122441D01*
X147750500Y-46122445D01*
X147622445Y-46250500D01*
X147622441Y-46250505D01*
X147516006Y-46397002D01*
X147433788Y-46558360D01*
X147433787Y-46558363D01*
X147377829Y-46730589D01*
X147349500Y-46909448D01*
X146092888Y-46909448D01*
X146092888Y-45300445D01*
X146112573Y-45233406D01*
X146165377Y-45187651D01*
X146216888Y-45176445D01*
X159912452Y-45176445D01*
X164328702Y-45176445D01*
X164395741Y-45196130D01*
G37*
%TD.AperFunction*%
%TD*%
M02*
