M48
; DRILL file KiCad 10.0.5 date 2026-09-12T21:28:23
; FORMAT={-:-/ absolute / metric / decimal}
; #@! TF.CreationDate,2026-09-12T21:28:23+12:00
; #@! TF.GenerationSoftware,Kicad,Pcbnew,10.0.5
; #@! TF.FileFunction,Plated,1,4,PTH
FMAT,2
METRIC
; #@! TA.AperFunction,Plated,PTH,ViaDrill
T1C0.300
; #@! TA.AperFunction,Plated,PTH,ComponentDrill
T2C2.200
%
G90
G05
T1
X143.3Y-56.2
X144.55Y-87.15
X144.55Y-109.1
X144.662Y-83.25
X144.7Y-122.9
X145.1Y-102.8
X145.6Y-95.3
X145.85Y-71.7
X146.1Y-114.2
X146.4Y-87.4
X146.45Y-85.2
X146.622Y-63.859
X146.622Y-64.609
X146.622Y-65.359
X146.65Y-119.1
X146.7Y-49.2
X146.7Y-49.95
X146.7Y-50.7
X146.95Y-97.15
X147.0Y-134.5
X147.076Y-92.774
X147.15Y-99.2
X147.2Y-105.3
X147.3Y-142.5
X147.35Y-64.6
X147.372Y-63.859
X147.372Y-65.359
X147.45Y-49.2
X147.45Y-49.95
X147.45Y-50.7
X147.5Y-91.1
X147.5Y-126.7
X147.65Y-122.25
X147.7Y-146.1
X148.0Y-152.0
X148.025Y-99.175
X148.122Y-63.859
X148.122Y-64.609
X148.122Y-65.359
X148.2Y-49.2
X148.2Y-49.95
X148.2Y-50.7
X148.25Y-90.4
X148.5Y-54.6
X148.5Y-77.65
X148.61Y-110.39
X149.0Y-89.8
X150.041Y-102.15
X150.31Y-121.65
X150.5Y-89.8
X151.849Y-110.384
X152.5Y-141.25
X152.5Y-142.0
X152.5Y-142.75
X153.0Y-152.0
X153.05Y-89.4
X153.35Y-99.25
X153.4Y-122.85
X153.6Y-78.85
X153.75Y-141.25
X153.75Y-142.0
X153.75Y-142.75
X153.85Y-110.5
X153.85Y-114.45
X153.9Y-98.55
X154.25Y-90.05
X154.25Y-93.912
X154.3Y-85.625
X154.35Y-60.2
X154.5Y-136.0
X154.5Y-147.75
X154.6Y-102.65
X154.8Y-106.3
X154.85Y-47.45
X155.1Y-97.35
X155.25Y-96.3
X155.8Y-64.5
X155.875Y-135.375
X156.176Y-122.974
X156.25Y-89.95
X156.25Y-119.75
X156.35Y-130.5
X156.45Y-124.25
X157.55Y-100.4
X157.7Y-74.55
X158.25Y-90.0
X158.5Y-98.35
X158.5Y-107.1
X158.55Y-58.25
X159.05Y-85.625
X159.7Y-143.6
X159.75Y-90.85
X160.0Y-104.4
X160.0Y-112.0
X160.0Y-120.5
X160.0Y-128.5
X160.0Y-135.4
X160.838Y-82.85
X161.0Y-97.4
X161.0Y-99.0
X161.25Y-95.25
X161.25Y-116.25
X161.7Y-107.55
X161.9Y-96.25
X162.15Y-132.2
X162.25Y-78.95
X163.0Y-64.5
X163.0Y-75.2
X163.05Y-72.8
X163.8Y-85.625
X164.0Y-139.45
X164.55Y-60.05
X164.8Y-131.4
X164.85Y-126.75
X164.85Y-143.6
X165.25Y-146.25
X165.3Y-134.4
X165.6Y-120.5
X165.7Y-131.81
X166.05Y-100.4
X166.35Y-98.4
X166.5Y-124.25
X166.95Y-108.95
X167.5Y-97.45
X167.9Y-102.65
X168.2Y-96.85
X168.5Y-144.5
X168.85Y-96.35
X169.4Y-79.8
X169.65Y-96.85
X169.722Y-63.809
X169.722Y-64.559
X169.722Y-65.309
X170.0Y-90.9
X170.35Y-96.35
X170.45Y-64.55
X170.472Y-63.809
X170.472Y-65.309
X170.6Y-141.95
X171.139Y-112.705
X171.2Y-98.4
X171.222Y-63.809
X171.222Y-64.559
X171.222Y-65.309
X171.3Y-107.7
X171.55Y-74.45
X172.25Y-130.75
X172.5Y-138.5
X172.7Y-126.7
X172.75Y-143.4
X172.9Y-135.5
X173.35Y-87.362
X173.5Y-122.5
X174.0Y-118.5
X174.6Y-97.95
X174.95Y-89.15
X175.65Y-93.25
X175.65Y-112.7
X176.0Y-145.25
X176.1Y-102.8
X176.15Y-131.9
X176.15Y-132.75
X176.8Y-87.337
X177.05Y-75.5
X177.3Y-131.9
X177.3Y-132.75
X177.3Y-133.65
X177.7Y-61.2
X179.75Y-125.75
X180.0Y-103.0
X180.0Y-113.25
T2
X141.2Y-129.0
X142.2Y-135.5
X143.0Y-50.5
X146.1Y-148.5
X153.65Y-66.5
X173.9Y-148.5
X177.0Y-50.5
X178.8Y-129.0
M30
