%TF.GenerationSoftware,KiCad,Pcbnew,10.0.5*%
%TF.CreationDate,2026-08-09T17:57:10+12:00*%
%TF.ProjectId,3310_pico,33333130-5f70-4696-936f-2e6b69636164,rev?*%
%TF.SameCoordinates,Original*%
%TF.FileFunction,Copper,L2,Inr*%
%TF.FilePolarity,Positive*%
%FSLAX46Y46*%
G04 Gerber Fmt 4.6, Leading zero omitted, Abs format (unit mm)*
G04 Created by KiCad (PCBNEW 10.0.5) date 2026-08-09 17:57:10*
%MOMM*%
%LPD*%
G01*
G04 APERTURE LIST*
G04 Aperture macros list*
%AMRoundRect*
0 Rectangle with rounded corners*
0 $1 Rounding radius*
0 $2 $3 $4 $5 $6 $7 $8 $9 X,Y pos of 4 corners*
0 Add a 4 corners polygon primitive as box body*
4,1,4,$2,$3,$4,$5,$6,$7,$8,$9,$2,$3,0*
0 Add four circle primitives for the rounded corners*
1,1,$1+$1,$2,$3*
1,1,$1+$1,$4,$5*
1,1,$1+$1,$6,$7*
1,1,$1+$1,$8,$9*
0 Add four rect primitives between the rounded corners*
20,1,$1+$1,$2,$3,$4,$5,0*
20,1,$1+$1,$4,$5,$6,$7,0*
20,1,$1+$1,$6,$7,$8,$9,0*
20,1,$1+$1,$8,$9,$2,$3,0*%
G04 Aperture macros list end*
%TA.AperFunction,ComponentPad*%
%ADD10R,1.700000X1.700000*%
%TD*%
%TA.AperFunction,ComponentPad*%
%ADD11C,1.700000*%
%TD*%
%TA.AperFunction,ComponentPad*%
%ADD12C,2.800000*%
%TD*%
%TA.AperFunction,ComponentPad*%
%ADD13RoundRect,0.250000X0.650000X0.650000X-0.650000X0.650000X-0.650000X-0.650000X0.650000X-0.650000X0*%
%TD*%
%TA.AperFunction,ComponentPad*%
%ADD14C,1.800000*%
%TD*%
%TA.AperFunction,ComponentPad*%
%ADD15C,2.500000*%
%TD*%
%TA.AperFunction,ComponentPad*%
%ADD16R,1.500000X1.050000*%
%TD*%
%TA.AperFunction,ComponentPad*%
%ADD17O,1.500000X1.050000*%
%TD*%
%TA.AperFunction,ComponentPad*%
%ADD18R,1.050000X1.500000*%
%TD*%
%TA.AperFunction,ComponentPad*%
%ADD19O,1.050000X1.500000*%
%TD*%
%TA.AperFunction,ComponentPad*%
%ADD20RoundRect,0.250000X-0.650000X-0.650000X0.650000X-0.650000X0.650000X0.650000X-0.650000X0.650000X0*%
%TD*%
%TA.AperFunction,ComponentPad*%
%ADD21C,2.600000*%
%TD*%
%TA.AperFunction,ViaPad*%
%ADD22C,0.600000*%
%TD*%
G04 APERTURE END LIST*
D10*
%TO.N,+3.3V*%
%TO.C,J6*%
X169750000Y-83940000D03*
D11*
%TO.N,/BuzzerOut*%
X169750000Y-86480000D03*
%TO.N,/Buzzer*%
X169750000Y-89020000D03*
%TO.N,GND*%
X169750000Y-91560000D03*
%TD*%
D10*
%TO.N,/Col1*%
%TO.C,J5*%
X152500000Y-77960000D03*
D11*
%TO.N,/Col2*%
X152500000Y-80500000D03*
%TO.N,/Col3*%
X152500000Y-83040000D03*
%TO.N,/Col4*%
X152500000Y-85580000D03*
%TO.N,/Row1*%
X152500000Y-88120000D03*
%TO.N,/Row2*%
X152500000Y-90660000D03*
%TO.N,/Row3*%
X152500000Y-93200000D03*
%TO.N,/Row4*%
X152500000Y-95740000D03*
%TD*%
D10*
%TO.N,/PcdRst*%
%TO.C,J4*%
X145500000Y-95790000D03*
D11*
%TO.N,/PcdCE*%
X145500000Y-93250000D03*
%TO.N,/PcdDC*%
X145500000Y-90710000D03*
%TO.N,/PcdDin*%
X145500000Y-88170000D03*
%TO.N,/PcdCLK*%
X145500000Y-85630000D03*
%TO.N,+3.3V*%
X145500000Y-83090000D03*
%TO.N,/BacklightOut*%
X145500000Y-80550000D03*
%TO.N,GND*%
X145500000Y-78010000D03*
%TD*%
D12*
%TO.N,N/C*%
%TO.C,*%
X177000000Y-50500000D03*
%TD*%
D13*
%TO.N,+3.3V*%
%TO.C,D2*%
X178545000Y-63500000D03*
D14*
%TO.N,/BuzzerOut*%
X176005000Y-63500000D03*
%TD*%
D15*
%TO.N,GND*%
%TO.C,*%
X153650000Y-66500000D03*
%TD*%
D16*
%TO.N,GND*%
%TO.C,Q3*%
X171750000Y-51980000D03*
D17*
%TO.N,Net-(Q3-B)*%
X171750000Y-53250000D03*
%TO.N,/BacklightOut*%
X171750000Y-54520000D03*
%TD*%
D12*
%TO.N,GND*%
%TO.C,*%
X173900000Y-148500000D03*
%TD*%
%TO.N,GND*%
%TO.C,*%
X143000000Y-50500000D03*
%TD*%
D18*
%TO.N,GND*%
%TO.C,Q2*%
X152520000Y-60000000D03*
D19*
%TO.N,Net-(Q2-B)*%
X151250000Y-60000000D03*
%TO.N,Net-(D3-A)*%
X149980000Y-60000000D03*
%TD*%
D16*
%TO.N,GND*%
%TO.C,Q1*%
X172500000Y-60000000D03*
D17*
%TO.N,Net-(Q1-B)*%
X172500000Y-58730000D03*
%TO.N,Net-(Q1-C)*%
X172500000Y-57460000D03*
%TD*%
D12*
%TO.N,GND*%
%TO.C,*%
X178800000Y-129000000D03*
%TD*%
%TO.N,GND*%
%TO.C,*%
X146100000Y-148500000D03*
%TD*%
D20*
%TO.N,Vdrive*%
%TO.C,D1*%
X147460000Y-65500000D03*
D14*
%TO.N,+BATT*%
X150000000Y-65500000D03*
%TD*%
D12*
%TO.N,GND*%
%TO.C,*%
X141200000Y-129000000D03*
%TD*%
D21*
%TO.N,GND*%
%TO.C,*%
X142200000Y-135500000D03*
%TD*%
D13*
%TO.N,Vdrive*%
%TO.C,D3*%
X144000000Y-65500000D03*
D14*
%TO.N,Net-(D3-A)*%
X141460000Y-65500000D03*
%TD*%
D22*
%TO.N,GND*%
X160000000Y-99250000D03*
X156000000Y-113500000D03*
X161250000Y-116250000D03*
X155000000Y-80250000D03*
X158000000Y-83000000D03*
X165000000Y-98250000D03*
X162000000Y-92500000D03*
X152750000Y-116500000D03*
X153250000Y-123000000D03*
X157000000Y-123250000D03*
X162250000Y-124500000D03*
X156250000Y-126000000D03*
X172250000Y-130750000D03*
X156750000Y-132250000D03*
X152500000Y-130750000D03*
%TO.N,/Vibe*%
X161000000Y-76500000D03*
X166750000Y-98950000D03*
X166250000Y-96250000D03*
X167000000Y-93750000D03*
X165500000Y-104500000D03*
X165500000Y-107750000D03*
%TO.N,/Col2*%
X162250000Y-98750000D03*
X162250000Y-100500000D03*
X164000000Y-109000000D03*
X164000000Y-110750000D03*
%TO.N,/Col3*%
X143500000Y-84500000D03*
%TO.N,/Row1*%
X155600000Y-95000000D03*
X157318291Y-97199676D03*
%TO.N,/Row2*%
X156674265Y-97674265D03*
X155075735Y-96075735D03*
%TO.N,/Row3*%
X151250000Y-97750000D03*
%TO.N,/PcdDC*%
X149150000Y-99500000D03*
%TO.N,/PcdDin*%
X147350000Y-98750000D03*
%TO.N,/Row4*%
X153000000Y-106250000D03*
%TO.N,/PcdCLK*%
X147500000Y-85750000D03*
%TO.N,/PcdDin*%
X148250000Y-88250000D03*
%TO.N,/PcdDC*%
X149000000Y-90750000D03*
%TO.N,/PcdCE*%
X149750000Y-93250000D03*
%TO.N,/PcdRst*%
X150500000Y-95750000D03*
%TO.N,/Row3*%
X154250000Y-134500000D03*
X146250000Y-114400000D03*
%TO.N,/Col4*%
X165000000Y-142750000D03*
%TO.N,GND*%
X167500000Y-63500000D03*
X175000000Y-82500000D03*
X175000000Y-95500000D03*
X173000000Y-101000000D03*
X157500000Y-107000000D03*
X164500000Y-113500000D03*
X174500000Y-112500000D03*
X165000000Y-118500000D03*
X173500000Y-122500000D03*
X172500000Y-138500000D03*
X163000000Y-139000000D03*
X153500000Y-138500000D03*
X146000000Y-138500000D03*
X144000000Y-112500000D03*
X140500000Y-106000000D03*
X140500000Y-96000000D03*
X142500000Y-87500000D03*
X142500000Y-80500000D03*
X162250000Y-75000000D03*
X142750000Y-84000000D03*
X142750000Y-91500000D03*
X140500000Y-116250000D03*
X141500000Y-132500000D03*
X142500000Y-141500000D03*
X177000000Y-55000000D03*
X162500000Y-48000000D03*
X153500000Y-52000000D03*
X144750000Y-54750000D03*
X147750000Y-62350000D03*
X168000000Y-57500000D03*
X174250000Y-69750000D03*
X162750000Y-82750000D03*
X168500000Y-74250000D03*
X171250000Y-82750000D03*
X165000000Y-94000000D03*
X180000000Y-82750000D03*
X180000000Y-89250000D03*
X180000000Y-103000000D03*
X180000000Y-113250000D03*
X179750000Y-125750000D03*
X176000000Y-145250000D03*
X165250000Y-146250000D03*
X154500000Y-147750000D03*
%TO.N,+3.3V*%
X153500000Y-144250000D03*
X153500000Y-143500000D03*
X153500000Y-142750000D03*
X152250000Y-144250000D03*
X152250000Y-143500000D03*
X152250000Y-142750000D03*
%TO.N,/Row4*%
X164250000Y-140750000D03*
X165750000Y-125690000D03*
%TO.N,/Row2*%
X156250000Y-118750000D03*
X156250000Y-120100000D03*
%TO.N,/Row1*%
X165100000Y-133250000D03*
X165100000Y-124750000D03*
%TO.N,/Row4*%
X151750000Y-114250000D03*
X156000000Y-124750000D03*
%TO.N,/Col3*%
X154500000Y-136000000D03*
%TO.N,/Col2*%
X164000000Y-139250000D03*
%TO.N,/Col1*%
X166250000Y-143500000D03*
%TO.N,GND*%
X151750000Y-107250000D03*
X143000000Y-59000000D03*
X177000000Y-59000000D03*
X169250000Y-67500000D03*
X169250000Y-68500000D03*
X169250000Y-66500000D03*
X178500000Y-80250000D03*
X178500000Y-79250000D03*
X179250000Y-81000000D03*
X161750000Y-62250000D03*
%TO.N,+3.3V*%
X154500000Y-64500000D03*
%TO.N,/Buzzer*%
X172250000Y-99000000D03*
X172250000Y-97250000D03*
%TO.N,+3.3V*%
X175500000Y-102650000D03*
X145250000Y-102750000D03*
X155700000Y-102650000D03*
X164300000Y-102650000D03*
X160937500Y-97500000D03*
%TO.N,GND*%
X159062500Y-97500000D03*
X161062500Y-61000000D03*
X160600000Y-58500000D03*
%TO.N,Net-(J1-Vout)*%
X163400000Y-58500000D03*
X162937500Y-61000000D03*
%TO.N,/PcdRst*%
X153250000Y-120500000D03*
X154500000Y-118500000D03*
X153250000Y-99500000D03*
%TO.N,/PcdCLK*%
X146750000Y-102500000D03*
%TO.N,/PcdCE*%
X150000000Y-99500000D03*
%TO.N,GND*%
X142500000Y-75475000D03*
%TO.N,Vdrive*%
X142500000Y-72525000D03*
X143750000Y-125250000D03*
X143000000Y-124500000D03*
X142000000Y-124500000D03*
X141000000Y-124500000D03*
X144000000Y-150500000D03*
X143500000Y-150000000D03*
X144590000Y-151090000D03*
X146000000Y-151090000D03*
%TO.N,+3.3V*%
X177000000Y-137000000D03*
X177000000Y-136000000D03*
X177000000Y-135000000D03*
X178000000Y-71000000D03*
X178000000Y-69000000D03*
X178000000Y-70000000D03*
%TO.N,/Row1*%
X146000000Y-118500000D03*
X160000000Y-120500000D03*
X170800000Y-112500000D03*
X174000000Y-118500000D03*
X169000000Y-102800000D03*
X172200000Y-107500000D03*
%TO.N,/Row4*%
X147300000Y-142500000D03*
X160000000Y-144500000D03*
X147000000Y-111000000D03*
X153000000Y-110500000D03*
X172700000Y-142500000D03*
%TO.N,/Row3*%
X146500000Y-106000000D03*
X151000000Y-102800000D03*
X173000000Y-134500000D03*
X160000000Y-136500000D03*
X147000000Y-134500000D03*
%TO.N,/Row2*%
X172700000Y-126700000D03*
X160000000Y-128500000D03*
X160000000Y-103000000D03*
X147500000Y-126700000D03*
X160000000Y-112000000D03*
%TD*%
%TA.AperFunction,Conductor*%
%TO.N,GND*%
G36*
X173692539Y-45270185D02*
G01*
X173738294Y-45322989D01*
X173749500Y-45374500D01*
X173749500Y-47598421D01*
X173780290Y-47792826D01*
X173841117Y-47980029D01*
X173914060Y-48123187D01*
X173930476Y-48155405D01*
X174046172Y-48314646D01*
X174185354Y-48453828D01*
X174344595Y-48569524D01*
X174427455Y-48611743D01*
X174519970Y-48658882D01*
X174519972Y-48658882D01*
X174519975Y-48658884D01*
X174620317Y-48691487D01*
X174707173Y-48719709D01*
X174901579Y-48750500D01*
X174901584Y-48750500D01*
X174950172Y-48750500D01*
X175792787Y-48750500D01*
X175859826Y-48770185D01*
X175905581Y-48822989D01*
X175915525Y-48892147D01*
X175886500Y-48955703D01*
X175868273Y-48972876D01*
X175744225Y-49068060D01*
X175744218Y-49068066D01*
X175568066Y-49244218D01*
X175568060Y-49244225D01*
X175416400Y-49441873D01*
X175291837Y-49657623D01*
X175291830Y-49657638D01*
X175196498Y-49887792D01*
X175132017Y-50128438D01*
X175099501Y-50375424D01*
X175099500Y-50375435D01*
X175099500Y-50624565D01*
X175132018Y-50871565D01*
X175183182Y-51062512D01*
X175196498Y-51112207D01*
X175291830Y-51342361D01*
X175291837Y-51342376D01*
X175416400Y-51558126D01*
X175568060Y-51755774D01*
X175568066Y-51755781D01*
X175744218Y-51931933D01*
X175744225Y-51931939D01*
X175941873Y-52083599D01*
X176157623Y-52208162D01*
X176157638Y-52208169D01*
X176256825Y-52249253D01*
X176387793Y-52303502D01*
X176628435Y-52367982D01*
X176875435Y-52400500D01*
X176875442Y-52400500D01*
X177124558Y-52400500D01*
X177124565Y-52400500D01*
X177371565Y-52367982D01*
X177612207Y-52303502D01*
X177842373Y-52208164D01*
X178058127Y-52083599D01*
X178255776Y-51931938D01*
X178431938Y-51755776D01*
X178583599Y-51558127D01*
X178672644Y-51403894D01*
X178723209Y-51355681D01*
X178791816Y-51342457D01*
X178856681Y-51368425D01*
X178897210Y-51425339D01*
X178901036Y-51438814D01*
X180181688Y-57160872D01*
X180595073Y-59007913D01*
X180596506Y-59014313D01*
X180599500Y-59041395D01*
X180599500Y-127579686D01*
X180598772Y-127593101D01*
X178783096Y-144277683D01*
X178756275Y-144342199D01*
X178699416Y-144381777D01*
X178504275Y-144447525D01*
X178504271Y-144447526D01*
X178504268Y-144447528D01*
X178441935Y-144480572D01*
X178324357Y-144542905D01*
X178324357Y-144542906D01*
X178162247Y-144666131D01*
X178022200Y-144813966D01*
X177907926Y-144982491D01*
X177822409Y-145167307D01*
X177822408Y-145167310D01*
X177767926Y-145363495D01*
X177767924Y-145363502D01*
X177763599Y-145402994D01*
X177763508Y-145403429D01*
X177756896Y-145464181D01*
X177756897Y-145464182D01*
X177756848Y-145464635D01*
X177756839Y-145464715D01*
X177753317Y-145497079D01*
X177138652Y-151145358D01*
X177138652Y-151145361D01*
X177134319Y-151185169D01*
X177133156Y-151193324D01*
X177094873Y-151410012D01*
X177090936Y-151426008D01*
X177025521Y-151631768D01*
X177019498Y-151647101D01*
X176927386Y-151842373D01*
X176919384Y-151856772D01*
X176802200Y-152038112D01*
X176792360Y-152051323D01*
X176652174Y-152215528D01*
X176640670Y-152227318D01*
X176479956Y-152371491D01*
X176466990Y-152381653D01*
X176288581Y-152503253D01*
X176274382Y-152511606D01*
X176081427Y-152608484D01*
X176066248Y-152614881D01*
X175862159Y-152685327D01*
X175846264Y-152689656D01*
X175634632Y-152732427D01*
X175618305Y-152734610D01*
X175398757Y-152749226D01*
X175390520Y-152749500D01*
X171950170Y-152749500D01*
X171858102Y-152787636D01*
X171787636Y-152858102D01*
X171749500Y-152950170D01*
X171749500Y-153993907D01*
X171748923Y-153999833D01*
X171748903Y-154006061D01*
X171736296Y-154134064D01*
X171731553Y-154157906D01*
X171695991Y-154275137D01*
X171686689Y-154297594D01*
X171628944Y-154405628D01*
X171615439Y-154425840D01*
X171537724Y-154520536D01*
X171520536Y-154537724D01*
X171425840Y-154615439D01*
X171405628Y-154628944D01*
X171297594Y-154686689D01*
X171296703Y-154687006D01*
X171296352Y-154687344D01*
X171275137Y-154695991D01*
X171157906Y-154731553D01*
X171134064Y-154736296D01*
X171006062Y-154748903D01*
X170993908Y-154749500D01*
X149006092Y-154749500D01*
X148993938Y-154748903D01*
X148865935Y-154736296D01*
X148842093Y-154731553D01*
X148724862Y-154695991D01*
X148702405Y-154686689D01*
X148594371Y-154628944D01*
X148574159Y-154615439D01*
X148479463Y-154537724D01*
X148462275Y-154520536D01*
X148458756Y-154516248D01*
X148384559Y-154425838D01*
X148371055Y-154405628D01*
X148313310Y-154297594D01*
X148312992Y-154296703D01*
X148312655Y-154296352D01*
X148304008Y-154275137D01*
X148268446Y-154157906D01*
X148263704Y-154134069D01*
X148251097Y-154006060D01*
X148250500Y-153993907D01*
X148250500Y-152950173D01*
X148250499Y-152950170D01*
X148239658Y-152923997D01*
X148212364Y-152858103D01*
X148141897Y-152787636D01*
X148091696Y-152766842D01*
X148049829Y-152749500D01*
X148049828Y-152749500D01*
X144609480Y-152749500D01*
X144601243Y-152749226D01*
X144381694Y-152734610D01*
X144365367Y-152732427D01*
X144153735Y-152689656D01*
X144137840Y-152685327D01*
X143933751Y-152614881D01*
X143918572Y-152608484D01*
X143725617Y-152511606D01*
X143711418Y-152503253D01*
X143533009Y-152381653D01*
X143520043Y-152371491D01*
X143359329Y-152227318D01*
X143347825Y-152215528D01*
X143207639Y-152051323D01*
X143197799Y-152038112D01*
X143111807Y-151905041D01*
X143080613Y-151856770D01*
X143072613Y-151842373D01*
X143052337Y-151799390D01*
X142980501Y-151647101D01*
X142974478Y-151631768D01*
X142922786Y-151469172D01*
X142909060Y-151425997D01*
X142905128Y-151410021D01*
X142866841Y-151193316D01*
X142865681Y-151185180D01*
X142861348Y-151145359D01*
X142861347Y-151145358D01*
X142818579Y-150752356D01*
X142830895Y-150683583D01*
X142878439Y-150632384D01*
X142946116Y-150615017D01*
X143010742Y-150635842D01*
X143120814Y-150709390D01*
X143120816Y-150709391D01*
X143120821Y-150709394D01*
X143193426Y-150739467D01*
X143247826Y-150783306D01*
X143260532Y-150806574D01*
X143290604Y-150879176D01*
X143290609Y-150879185D01*
X143378210Y-151010288D01*
X143378213Y-151010292D01*
X143489707Y-151121786D01*
X143489711Y-151121789D01*
X143620814Y-151209390D01*
X143620821Y-151209394D01*
X143757065Y-151265827D01*
X143811466Y-151309666D01*
X143824172Y-151332935D01*
X143880602Y-151469172D01*
X143880609Y-151469185D01*
X143968210Y-151600288D01*
X143968213Y-151600292D01*
X144079707Y-151711786D01*
X144079711Y-151711789D01*
X144210814Y-151799390D01*
X144210827Y-151799397D01*
X144314582Y-151842373D01*
X144356503Y-151859737D01*
X144511153Y-151890499D01*
X144511156Y-151890500D01*
X144511158Y-151890500D01*
X144668844Y-151890500D01*
X144668845Y-151890499D01*
X144823497Y-151859737D01*
X144969179Y-151799394D01*
X145100289Y-151711789D01*
X145100292Y-151711786D01*
X145207319Y-151604760D01*
X145268642Y-151571275D01*
X145338334Y-151576259D01*
X145382681Y-151604760D01*
X145489707Y-151711786D01*
X145489711Y-151711789D01*
X145620814Y-151799390D01*
X145620827Y-151799397D01*
X145724582Y-151842373D01*
X145766503Y-151859737D01*
X145921153Y-151890499D01*
X145921156Y-151890500D01*
X145921158Y-151890500D01*
X146078844Y-151890500D01*
X146078845Y-151890499D01*
X146233497Y-151859737D01*
X146379179Y-151799394D01*
X146510289Y-151711789D01*
X146621789Y-151600289D01*
X146709394Y-151469179D01*
X146769737Y-151323497D01*
X146800500Y-151168842D01*
X146800500Y-151011158D01*
X146800500Y-151011155D01*
X146800499Y-151011153D01*
X146800327Y-151010288D01*
X146769737Y-150856503D01*
X146729401Y-150759122D01*
X146709397Y-150710827D01*
X146709390Y-150710814D01*
X146621789Y-150579711D01*
X146621786Y-150579707D01*
X146510292Y-150468213D01*
X146510288Y-150468210D01*
X146379185Y-150380609D01*
X146379172Y-150380602D01*
X146233501Y-150320264D01*
X146233489Y-150320261D01*
X146078845Y-150289500D01*
X146078842Y-150289500D01*
X145921158Y-150289500D01*
X145921155Y-150289500D01*
X145766510Y-150320261D01*
X145766498Y-150320264D01*
X145620827Y-150380602D01*
X145620814Y-150380609D01*
X145489711Y-150468210D01*
X145489707Y-150468213D01*
X145382681Y-150575240D01*
X145321358Y-150608725D01*
X145251666Y-150603741D01*
X145207319Y-150575240D01*
X145100292Y-150468213D01*
X145100288Y-150468210D01*
X144969185Y-150380609D01*
X144969172Y-150380602D01*
X144832935Y-150324172D01*
X144778531Y-150280331D01*
X144765830Y-150257072D01*
X144709394Y-150120821D01*
X144709390Y-150120814D01*
X144621789Y-149989711D01*
X144621786Y-149989707D01*
X144510292Y-149878213D01*
X144510288Y-149878210D01*
X144379185Y-149790609D01*
X144379176Y-149790604D01*
X144306574Y-149760532D01*
X144252171Y-149716691D01*
X144239470Y-149693432D01*
X144209394Y-149620821D01*
X144209391Y-149620816D01*
X144209390Y-149620814D01*
X144121789Y-149489711D01*
X144121786Y-149489707D01*
X144010292Y-149378213D01*
X144010288Y-149378210D01*
X143879185Y-149290609D01*
X143879172Y-149290602D01*
X143733501Y-149230264D01*
X143733489Y-149230261D01*
X143578845Y-149199500D01*
X143578842Y-149199500D01*
X143421158Y-149199500D01*
X143421155Y-149199500D01*
X143266510Y-149230261D01*
X143266498Y-149230264D01*
X143120827Y-149290602D01*
X143120814Y-149290609D01*
X142989711Y-149378210D01*
X142883472Y-149484449D01*
X142822149Y-149517933D01*
X142752457Y-149512949D01*
X142696524Y-149471077D01*
X142672520Y-149410184D01*
X142246682Y-145497079D01*
X142243161Y-145464715D01*
X142243110Y-145464255D01*
X142237770Y-145415179D01*
X142237769Y-145415177D01*
X142236457Y-145403118D01*
X142236367Y-145402691D01*
X142232076Y-145363506D01*
X142232076Y-145363504D01*
X142177591Y-145167310D01*
X142177590Y-145167307D01*
X142177588Y-145167302D01*
X142092077Y-144982497D01*
X142076411Y-144959394D01*
X141977799Y-144813966D01*
X141977796Y-144813963D01*
X141977795Y-144813961D01*
X141837754Y-144666132D01*
X141675643Y-144542906D01*
X141675642Y-144542905D01*
X141618131Y-144512416D01*
X141495732Y-144447528D01*
X141302761Y-144382512D01*
X141302760Y-144382511D01*
X141300582Y-144381778D01*
X141243337Y-144341718D01*
X141216902Y-144277683D01*
X141014868Y-142421153D01*
X146499500Y-142421153D01*
X146499500Y-142578846D01*
X146530261Y-142733489D01*
X146530264Y-142733501D01*
X146590602Y-142879172D01*
X146590609Y-142879185D01*
X146678210Y-143010288D01*
X146678213Y-143010292D01*
X146789707Y-143121786D01*
X146789711Y-143121789D01*
X146920814Y-143209390D01*
X146920827Y-143209397D01*
X147058712Y-143266510D01*
X147066503Y-143269737D01*
X147221153Y-143300499D01*
X147221156Y-143300500D01*
X147221158Y-143300500D01*
X147378844Y-143300500D01*
X147378845Y-143300499D01*
X147533497Y-143269737D01*
X147679179Y-143209394D01*
X147810289Y-143121789D01*
X147921789Y-143010289D01*
X148009394Y-142879179D01*
X148069737Y-142733497D01*
X148082138Y-142671153D01*
X151449500Y-142671153D01*
X151449500Y-142828846D01*
X151480261Y-142983489D01*
X151480264Y-142983501D01*
X151519219Y-143077548D01*
X151526688Y-143147018D01*
X151519219Y-143172452D01*
X151480264Y-143266498D01*
X151480261Y-143266510D01*
X151449500Y-143421153D01*
X151449500Y-143578846D01*
X151480261Y-143733489D01*
X151480264Y-143733501D01*
X151519219Y-143827548D01*
X151526688Y-143897018D01*
X151519219Y-143922452D01*
X151480264Y-144016498D01*
X151480261Y-144016510D01*
X151449500Y-144171153D01*
X151449500Y-144328846D01*
X151480261Y-144483489D01*
X151480264Y-144483501D01*
X151540602Y-144629172D01*
X151540609Y-144629185D01*
X151628210Y-144760288D01*
X151628213Y-144760292D01*
X151739707Y-144871786D01*
X151739711Y-144871789D01*
X151870814Y-144959390D01*
X151870827Y-144959397D01*
X152016498Y-145019735D01*
X152016503Y-145019737D01*
X152171153Y-145050499D01*
X152171156Y-145050500D01*
X152171158Y-145050500D01*
X152328844Y-145050500D01*
X152328845Y-145050499D01*
X152483497Y-145019737D01*
X152629179Y-144959394D01*
X152760289Y-144871789D01*
X152765281Y-144866797D01*
X152787319Y-144844760D01*
X152848642Y-144811275D01*
X152918334Y-144816259D01*
X152962681Y-144844760D01*
X152989707Y-144871786D01*
X152989711Y-144871789D01*
X153120814Y-144959390D01*
X153120827Y-144959397D01*
X153266498Y-145019735D01*
X153266503Y-145019737D01*
X153421153Y-145050499D01*
X153421156Y-145050500D01*
X153421158Y-145050500D01*
X153578844Y-145050500D01*
X153578845Y-145050499D01*
X153733497Y-145019737D01*
X153879179Y-144959394D01*
X154010289Y-144871789D01*
X154121789Y-144760289D01*
X154209394Y-144629179D01*
X154269737Y-144483497D01*
X154282138Y-144421153D01*
X159199500Y-144421153D01*
X159199500Y-144578846D01*
X159230261Y-144733489D01*
X159230264Y-144733501D01*
X159290602Y-144879172D01*
X159290609Y-144879185D01*
X159378210Y-145010288D01*
X159378213Y-145010292D01*
X159489707Y-145121786D01*
X159489711Y-145121789D01*
X159620814Y-145209390D01*
X159620827Y-145209397D01*
X159766498Y-145269735D01*
X159766503Y-145269737D01*
X159921153Y-145300499D01*
X159921156Y-145300500D01*
X159921158Y-145300500D01*
X160078844Y-145300500D01*
X160078845Y-145300499D01*
X160233497Y-145269737D01*
X160379179Y-145209394D01*
X160510289Y-145121789D01*
X160621789Y-145010289D01*
X160709394Y-144879179D01*
X160769737Y-144733497D01*
X160800500Y-144578842D01*
X160800500Y-144421158D01*
X160800500Y-144421155D01*
X160800499Y-144421153D01*
X160792667Y-144381778D01*
X160769737Y-144266503D01*
X160709794Y-144121786D01*
X160709397Y-144120827D01*
X160709390Y-144120814D01*
X160621789Y-143989711D01*
X160621786Y-143989707D01*
X160510292Y-143878213D01*
X160510288Y-143878210D01*
X160379185Y-143790609D01*
X160379172Y-143790602D01*
X160233501Y-143730264D01*
X160233489Y-143730261D01*
X160078845Y-143699500D01*
X160078842Y-143699500D01*
X159921158Y-143699500D01*
X159921155Y-143699500D01*
X159766510Y-143730261D01*
X159766498Y-143730264D01*
X159620827Y-143790602D01*
X159620814Y-143790609D01*
X159489711Y-143878210D01*
X159489707Y-143878213D01*
X159378213Y-143989707D01*
X159378210Y-143989711D01*
X159290609Y-144120814D01*
X159290602Y-144120827D01*
X159230264Y-144266498D01*
X159230261Y-144266510D01*
X159199500Y-144421153D01*
X154282138Y-144421153D01*
X154297939Y-144341718D01*
X154300500Y-144328844D01*
X154300500Y-144171155D01*
X154300499Y-144171153D01*
X154269738Y-144016510D01*
X154269737Y-144016503D01*
X154230778Y-143922449D01*
X154223310Y-143852984D01*
X154230775Y-143827556D01*
X154269737Y-143733497D01*
X154300500Y-143578842D01*
X154300500Y-143421158D01*
X154300500Y-143421155D01*
X154300499Y-143421153D01*
X154269738Y-143266510D01*
X154269737Y-143266503D01*
X154230778Y-143172449D01*
X154223310Y-143102984D01*
X154230775Y-143077556D01*
X154269737Y-142983497D01*
X154300500Y-142828842D01*
X154300500Y-142671158D01*
X154300500Y-142671155D01*
X154300499Y-142671153D01*
X164199500Y-142671153D01*
X164199500Y-142828846D01*
X164230261Y-142983489D01*
X164230264Y-142983501D01*
X164290602Y-143129172D01*
X164290609Y-143129185D01*
X164378210Y-143260288D01*
X164378213Y-143260292D01*
X164489707Y-143371786D01*
X164489711Y-143371789D01*
X164620814Y-143459390D01*
X164620827Y-143459397D01*
X164766498Y-143519735D01*
X164766503Y-143519737D01*
X164921153Y-143550499D01*
X164921156Y-143550500D01*
X164921158Y-143550500D01*
X165078844Y-143550500D01*
X165078845Y-143550499D01*
X165233497Y-143519737D01*
X165282602Y-143499396D01*
X165352070Y-143491927D01*
X165414550Y-143523201D01*
X165450203Y-143583289D01*
X165451672Y-143589765D01*
X165480261Y-143733491D01*
X165480264Y-143733501D01*
X165540602Y-143879172D01*
X165540609Y-143879185D01*
X165628210Y-144010288D01*
X165628213Y-144010292D01*
X165739707Y-144121786D01*
X165739711Y-144121789D01*
X165870814Y-144209390D01*
X165870827Y-144209397D01*
X166008683Y-144266498D01*
X166016503Y-144269737D01*
X166171153Y-144300499D01*
X166171156Y-144300500D01*
X166171158Y-144300500D01*
X166328844Y-144300500D01*
X166328845Y-144300499D01*
X166483497Y-144269737D01*
X166629179Y-144209394D01*
X166760289Y-144121789D01*
X166871789Y-144010289D01*
X166959394Y-143879179D01*
X167019737Y-143733497D01*
X167050500Y-143578842D01*
X167050500Y-143421158D01*
X167050500Y-143421155D01*
X167050499Y-143421153D01*
X167019738Y-143266510D01*
X167019737Y-143266503D01*
X166980780Y-143172452D01*
X166959397Y-143120827D01*
X166959390Y-143120814D01*
X166871789Y-142989711D01*
X166871786Y-142989707D01*
X166760292Y-142878213D01*
X166760288Y-142878210D01*
X166629185Y-142790609D01*
X166629172Y-142790602D01*
X166483501Y-142730264D01*
X166483489Y-142730261D01*
X166328845Y-142699500D01*
X166328842Y-142699500D01*
X166171158Y-142699500D01*
X166171155Y-142699500D01*
X166016510Y-142730261D01*
X166016498Y-142730264D01*
X165967396Y-142750603D01*
X165950081Y-142752464D01*
X165934039Y-142759238D01*
X165916066Y-142756121D01*
X165897926Y-142758072D01*
X165882351Y-142750275D01*
X165865196Y-142747301D01*
X165851761Y-142734962D01*
X165835447Y-142726796D01*
X165826406Y-142711676D01*
X165813736Y-142700040D01*
X165803248Y-142672947D01*
X165800007Y-142667526D01*
X165799059Y-142663917D01*
X165769737Y-142516503D01*
X165744142Y-142454710D01*
X165730242Y-142421153D01*
X171899500Y-142421153D01*
X171899500Y-142578846D01*
X171930261Y-142733489D01*
X171930264Y-142733501D01*
X171990602Y-142879172D01*
X171990609Y-142879185D01*
X172078210Y-143010288D01*
X172078213Y-143010292D01*
X172189707Y-143121786D01*
X172189711Y-143121789D01*
X172320814Y-143209390D01*
X172320827Y-143209397D01*
X172458712Y-143266510D01*
X172466503Y-143269737D01*
X172621153Y-143300499D01*
X172621156Y-143300500D01*
X172621158Y-143300500D01*
X172778844Y-143300500D01*
X172778845Y-143300499D01*
X172933497Y-143269737D01*
X173079179Y-143209394D01*
X173210289Y-143121789D01*
X173321789Y-143010289D01*
X173409394Y-142879179D01*
X173469737Y-142733497D01*
X173500500Y-142578842D01*
X173500500Y-142421158D01*
X173500500Y-142421155D01*
X173500499Y-142421153D01*
X173469738Y-142266510D01*
X173469737Y-142266503D01*
X173460630Y-142244516D01*
X173409397Y-142120827D01*
X173409390Y-142120814D01*
X173321789Y-141989711D01*
X173321786Y-141989707D01*
X173210292Y-141878213D01*
X173210288Y-141878210D01*
X173079185Y-141790609D01*
X173079172Y-141790602D01*
X172933501Y-141730264D01*
X172933489Y-141730261D01*
X172778845Y-141699500D01*
X172778842Y-141699500D01*
X172621158Y-141699500D01*
X172621155Y-141699500D01*
X172466510Y-141730261D01*
X172466498Y-141730264D01*
X172320827Y-141790602D01*
X172320814Y-141790609D01*
X172189711Y-141878210D01*
X172189707Y-141878213D01*
X172078213Y-141989707D01*
X172078210Y-141989711D01*
X171990609Y-142120814D01*
X171990602Y-142120827D01*
X171930264Y-142266498D01*
X171930261Y-142266510D01*
X171899500Y-142421153D01*
X165730242Y-142421153D01*
X165709397Y-142370827D01*
X165709390Y-142370814D01*
X165621789Y-142239711D01*
X165621786Y-142239707D01*
X165510292Y-142128213D01*
X165510288Y-142128210D01*
X165379185Y-142040609D01*
X165379172Y-142040602D01*
X165233501Y-141980264D01*
X165233489Y-141980261D01*
X165078845Y-141949500D01*
X165078842Y-141949500D01*
X164921158Y-141949500D01*
X164921155Y-141949500D01*
X164766510Y-141980261D01*
X164766498Y-141980264D01*
X164620827Y-142040602D01*
X164620814Y-142040609D01*
X164489711Y-142128210D01*
X164489707Y-142128213D01*
X164378213Y-142239707D01*
X164378210Y-142239711D01*
X164290609Y-142370814D01*
X164290602Y-142370827D01*
X164230264Y-142516498D01*
X164230261Y-142516510D01*
X164199500Y-142671153D01*
X154300499Y-142671153D01*
X154269738Y-142516510D01*
X154269737Y-142516503D01*
X154244142Y-142454710D01*
X154209397Y-142370827D01*
X154209390Y-142370814D01*
X154121789Y-142239711D01*
X154121786Y-142239707D01*
X154010292Y-142128213D01*
X154010288Y-142128210D01*
X153879185Y-142040609D01*
X153879172Y-142040602D01*
X153733501Y-141980264D01*
X153733489Y-141980261D01*
X153578845Y-141949500D01*
X153578842Y-141949500D01*
X153421158Y-141949500D01*
X153421155Y-141949500D01*
X153266510Y-141980261D01*
X153266498Y-141980264D01*
X153120827Y-142040602D01*
X153120814Y-142040609D01*
X152989711Y-142128210D01*
X152989707Y-142128213D01*
X152962681Y-142155240D01*
X152901358Y-142188725D01*
X152831666Y-142183741D01*
X152787319Y-142155240D01*
X152760292Y-142128213D01*
X152760288Y-142128210D01*
X152629185Y-142040609D01*
X152629172Y-142040602D01*
X152483501Y-141980264D01*
X152483489Y-141980261D01*
X152328845Y-141949500D01*
X152328842Y-141949500D01*
X152171158Y-141949500D01*
X152171155Y-141949500D01*
X152016510Y-141980261D01*
X152016498Y-141980264D01*
X151870827Y-142040602D01*
X151870814Y-142040609D01*
X151739711Y-142128210D01*
X151739707Y-142128213D01*
X151628213Y-142239707D01*
X151628210Y-142239711D01*
X151540609Y-142370814D01*
X151540602Y-142370827D01*
X151480264Y-142516498D01*
X151480261Y-142516510D01*
X151449500Y-142671153D01*
X148082138Y-142671153D01*
X148088161Y-142640874D01*
X148100500Y-142578844D01*
X148100500Y-142421155D01*
X148100499Y-142421153D01*
X148069738Y-142266510D01*
X148069737Y-142266503D01*
X148060630Y-142244516D01*
X148009397Y-142120827D01*
X148009390Y-142120814D01*
X147921789Y-141989711D01*
X147921786Y-141989707D01*
X147810292Y-141878213D01*
X147810288Y-141878210D01*
X147679185Y-141790609D01*
X147679172Y-141790602D01*
X147533501Y-141730264D01*
X147533489Y-141730261D01*
X147378845Y-141699500D01*
X147378842Y-141699500D01*
X147221158Y-141699500D01*
X147221155Y-141699500D01*
X147066510Y-141730261D01*
X147066498Y-141730264D01*
X146920827Y-141790602D01*
X146920814Y-141790609D01*
X146789711Y-141878210D01*
X146789707Y-141878213D01*
X146678213Y-141989707D01*
X146678210Y-141989711D01*
X146590609Y-142120814D01*
X146590602Y-142120827D01*
X146530264Y-142266498D01*
X146530261Y-142266510D01*
X146499500Y-142421153D01*
X141014868Y-142421153D01*
X140661192Y-139171153D01*
X163199500Y-139171153D01*
X163199500Y-139328846D01*
X163230261Y-139483489D01*
X163230264Y-139483501D01*
X163290602Y-139629172D01*
X163290609Y-139629185D01*
X163378210Y-139760288D01*
X163378213Y-139760292D01*
X163489707Y-139871786D01*
X163489711Y-139871789D01*
X163620814Y-139959390D01*
X163620827Y-139959397D01*
X163652806Y-139972643D01*
X163707210Y-140016483D01*
X163729275Y-140082778D01*
X163711996Y-140150477D01*
X163693036Y-140174885D01*
X163628210Y-140239711D01*
X163540609Y-140370814D01*
X163540602Y-140370827D01*
X163480264Y-140516498D01*
X163480261Y-140516510D01*
X163449500Y-140671153D01*
X163449500Y-140828846D01*
X163480261Y-140983489D01*
X163480264Y-140983501D01*
X163540602Y-141129172D01*
X163540609Y-141129185D01*
X163628210Y-141260288D01*
X163628213Y-141260292D01*
X163739707Y-141371786D01*
X163739711Y-141371789D01*
X163870814Y-141459390D01*
X163870827Y-141459397D01*
X164016498Y-141519735D01*
X164016503Y-141519737D01*
X164171153Y-141550499D01*
X164171156Y-141550500D01*
X164171158Y-141550500D01*
X164328844Y-141550500D01*
X164328845Y-141550499D01*
X164483497Y-141519737D01*
X164629179Y-141459394D01*
X164760289Y-141371789D01*
X164871789Y-141260289D01*
X164959394Y-141129179D01*
X165019737Y-140983497D01*
X165050500Y-140828842D01*
X165050500Y-140671158D01*
X165050500Y-140671155D01*
X165050499Y-140671153D01*
X165019738Y-140516510D01*
X165019737Y-140516503D01*
X165019735Y-140516498D01*
X164959397Y-140370827D01*
X164959390Y-140370814D01*
X164871789Y-140239711D01*
X164871786Y-140239707D01*
X164760292Y-140128213D01*
X164760288Y-140128210D01*
X164629185Y-140040609D01*
X164629179Y-140040606D01*
X164597191Y-140027356D01*
X164542788Y-139983514D01*
X164520724Y-139917220D01*
X164538004Y-139849521D01*
X164556960Y-139825117D01*
X164621789Y-139760289D01*
X164709394Y-139629179D01*
X164769737Y-139483497D01*
X164800500Y-139328842D01*
X164800500Y-139171158D01*
X164800500Y-139171155D01*
X164800499Y-139171153D01*
X164769738Y-139016510D01*
X164769737Y-139016503D01*
X164769735Y-139016498D01*
X164709397Y-138870827D01*
X164709390Y-138870814D01*
X164621789Y-138739711D01*
X164621786Y-138739707D01*
X164510292Y-138628213D01*
X164510288Y-138628210D01*
X164379185Y-138540609D01*
X164379172Y-138540602D01*
X164233501Y-138480264D01*
X164233489Y-138480261D01*
X164078845Y-138449500D01*
X164078842Y-138449500D01*
X163921158Y-138449500D01*
X163921155Y-138449500D01*
X163766510Y-138480261D01*
X163766498Y-138480264D01*
X163620827Y-138540602D01*
X163620814Y-138540609D01*
X163489711Y-138628210D01*
X163489707Y-138628213D01*
X163378213Y-138739707D01*
X163378210Y-138739711D01*
X163290609Y-138870814D01*
X163290602Y-138870827D01*
X163230264Y-139016498D01*
X163230261Y-139016510D01*
X163199500Y-139171153D01*
X140661192Y-139171153D01*
X140144281Y-134421155D01*
X140144281Y-134421153D01*
X146199500Y-134421153D01*
X146199500Y-134578846D01*
X146230261Y-134733489D01*
X146230264Y-134733501D01*
X146290602Y-134879172D01*
X146290609Y-134879185D01*
X146378210Y-135010288D01*
X146378213Y-135010292D01*
X146489707Y-135121786D01*
X146489711Y-135121789D01*
X146620814Y-135209390D01*
X146620827Y-135209397D01*
X146758647Y-135266483D01*
X146766503Y-135269737D01*
X146921153Y-135300499D01*
X146921156Y-135300500D01*
X146921158Y-135300500D01*
X147078844Y-135300500D01*
X147078845Y-135300499D01*
X147233497Y-135269737D01*
X147379179Y-135209394D01*
X147510289Y-135121789D01*
X147621789Y-135010289D01*
X147709394Y-134879179D01*
X147769737Y-134733497D01*
X147800500Y-134578842D01*
X147800500Y-134421158D01*
X147800500Y-134421155D01*
X147800499Y-134421153D01*
X153449500Y-134421153D01*
X153449500Y-134578846D01*
X153480261Y-134733489D01*
X153480264Y-134733501D01*
X153540602Y-134879172D01*
X153540609Y-134879185D01*
X153628210Y-135010288D01*
X153628213Y-135010292D01*
X153739707Y-135121786D01*
X153739711Y-135121789D01*
X153870814Y-135209390D01*
X153870827Y-135209397D01*
X153902806Y-135222643D01*
X153957210Y-135266483D01*
X153979275Y-135332778D01*
X153961996Y-135400477D01*
X153943036Y-135424885D01*
X153878210Y-135489711D01*
X153790609Y-135620814D01*
X153790602Y-135620827D01*
X153730264Y-135766498D01*
X153730261Y-135766510D01*
X153699500Y-135921153D01*
X153699500Y-136078846D01*
X153730261Y-136233489D01*
X153730264Y-136233501D01*
X153790602Y-136379172D01*
X153790609Y-136379185D01*
X153878210Y-136510288D01*
X153878213Y-136510292D01*
X153989707Y-136621786D01*
X153989711Y-136621789D01*
X154120814Y-136709390D01*
X154120827Y-136709397D01*
X154258683Y-136766498D01*
X154266503Y-136769737D01*
X154421153Y-136800499D01*
X154421156Y-136800500D01*
X154421158Y-136800500D01*
X154578844Y-136800500D01*
X154578845Y-136800499D01*
X154733497Y-136769737D01*
X154879179Y-136709394D01*
X155010289Y-136621789D01*
X155121789Y-136510289D01*
X155181348Y-136421153D01*
X159199500Y-136421153D01*
X159199500Y-136578846D01*
X159230261Y-136733489D01*
X159230264Y-136733501D01*
X159290602Y-136879172D01*
X159290609Y-136879185D01*
X159378210Y-137010288D01*
X159378213Y-137010292D01*
X159489707Y-137121786D01*
X159489711Y-137121789D01*
X159620814Y-137209390D01*
X159620827Y-137209397D01*
X159766498Y-137269735D01*
X159766503Y-137269737D01*
X159921153Y-137300499D01*
X159921156Y-137300500D01*
X159921158Y-137300500D01*
X160078844Y-137300500D01*
X160078845Y-137300499D01*
X160233497Y-137269737D01*
X160379179Y-137209394D01*
X160510289Y-137121789D01*
X160621789Y-137010289D01*
X160709394Y-136879179D01*
X160769737Y-136733497D01*
X160800500Y-136578842D01*
X160800500Y-136421158D01*
X160800500Y-136421155D01*
X160800499Y-136421153D01*
X160769738Y-136266510D01*
X160769737Y-136266503D01*
X160756062Y-136233489D01*
X160709397Y-136120827D01*
X160709390Y-136120814D01*
X160621789Y-135989711D01*
X160621786Y-135989707D01*
X160510292Y-135878213D01*
X160510288Y-135878210D01*
X160379185Y-135790609D01*
X160379172Y-135790602D01*
X160233501Y-135730264D01*
X160233489Y-135730261D01*
X160078845Y-135699500D01*
X160078842Y-135699500D01*
X159921158Y-135699500D01*
X159921155Y-135699500D01*
X159766510Y-135730261D01*
X159766498Y-135730264D01*
X159620827Y-135790602D01*
X159620814Y-135790609D01*
X159489711Y-135878210D01*
X159489707Y-135878213D01*
X159378213Y-135989707D01*
X159378210Y-135989711D01*
X159290609Y-136120814D01*
X159290602Y-136120827D01*
X159230264Y-136266498D01*
X159230261Y-136266510D01*
X159199500Y-136421153D01*
X155181348Y-136421153D01*
X155209394Y-136379179D01*
X155269737Y-136233497D01*
X155300500Y-136078842D01*
X155300500Y-135921158D01*
X155300500Y-135921155D01*
X155300499Y-135921153D01*
X155274531Y-135790606D01*
X155269737Y-135766503D01*
X155269735Y-135766498D01*
X155209397Y-135620827D01*
X155209390Y-135620814D01*
X155121789Y-135489711D01*
X155121786Y-135489707D01*
X155010292Y-135378213D01*
X155010288Y-135378210D01*
X154879185Y-135290609D01*
X154879179Y-135290606D01*
X154847191Y-135277356D01*
X154792788Y-135233514D01*
X154770724Y-135167220D01*
X154788004Y-135099521D01*
X154806960Y-135075117D01*
X154871789Y-135010289D01*
X154959394Y-134879179D01*
X155019737Y-134733497D01*
X155050500Y-134578842D01*
X155050500Y-134421158D01*
X155050500Y-134421155D01*
X155050499Y-134421153D01*
X172199500Y-134421153D01*
X172199500Y-134578846D01*
X172230261Y-134733489D01*
X172230264Y-134733501D01*
X172290602Y-134879172D01*
X172290609Y-134879185D01*
X172378210Y-135010288D01*
X172378213Y-135010292D01*
X172489707Y-135121786D01*
X172489711Y-135121789D01*
X172620814Y-135209390D01*
X172620827Y-135209397D01*
X172758647Y-135266483D01*
X172766503Y-135269737D01*
X172921153Y-135300499D01*
X172921156Y-135300500D01*
X172921158Y-135300500D01*
X173078844Y-135300500D01*
X173078845Y-135300499D01*
X173233497Y-135269737D01*
X173379179Y-135209394D01*
X173510289Y-135121789D01*
X173621789Y-135010289D01*
X173681348Y-134921153D01*
X176199500Y-134921153D01*
X176199500Y-135078846D01*
X176230261Y-135233489D01*
X176230264Y-135233501D01*
X176290602Y-135379172D01*
X176290609Y-135379185D01*
X176325304Y-135431109D01*
X176346182Y-135497786D01*
X176327698Y-135565167D01*
X176325304Y-135568891D01*
X176290609Y-135620814D01*
X176290602Y-135620827D01*
X176230264Y-135766498D01*
X176230261Y-135766510D01*
X176199500Y-135921153D01*
X176199500Y-136078846D01*
X176230261Y-136233489D01*
X176230264Y-136233501D01*
X176290602Y-136379172D01*
X176290609Y-136379185D01*
X176325304Y-136431109D01*
X176346182Y-136497786D01*
X176327698Y-136565167D01*
X176325304Y-136568891D01*
X176290609Y-136620814D01*
X176290602Y-136620827D01*
X176230264Y-136766498D01*
X176230261Y-136766510D01*
X176199500Y-136921153D01*
X176199500Y-137078846D01*
X176230261Y-137233489D01*
X176230264Y-137233501D01*
X176290602Y-137379172D01*
X176290609Y-137379185D01*
X176378210Y-137510288D01*
X176378213Y-137510292D01*
X176489707Y-137621786D01*
X176489711Y-137621789D01*
X176620814Y-137709390D01*
X176620827Y-137709397D01*
X176766498Y-137769735D01*
X176766503Y-137769737D01*
X176921153Y-137800499D01*
X176921156Y-137800500D01*
X176921158Y-137800500D01*
X177078844Y-137800500D01*
X177078845Y-137800499D01*
X177233497Y-137769737D01*
X177379179Y-137709394D01*
X177510289Y-137621789D01*
X177621789Y-137510289D01*
X177709394Y-137379179D01*
X177769737Y-137233497D01*
X177800500Y-137078842D01*
X177800500Y-136921158D01*
X177800500Y-136921155D01*
X177800499Y-136921153D01*
X177769738Y-136766510D01*
X177769737Y-136766503D01*
X177709794Y-136621786D01*
X177709396Y-136620825D01*
X177709394Y-136620822D01*
X177709394Y-136620821D01*
X177674694Y-136568889D01*
X177653816Y-136502215D01*
X177672300Y-136434835D01*
X177674676Y-136431136D01*
X177709394Y-136379179D01*
X177769737Y-136233497D01*
X177800500Y-136078842D01*
X177800500Y-135921158D01*
X177800500Y-135921155D01*
X177800499Y-135921153D01*
X177774531Y-135790606D01*
X177769737Y-135766503D01*
X177769735Y-135766498D01*
X177709396Y-135620825D01*
X177709394Y-135620822D01*
X177709394Y-135620821D01*
X177674694Y-135568889D01*
X177653816Y-135502215D01*
X177672300Y-135434835D01*
X177674676Y-135431136D01*
X177709394Y-135379179D01*
X177769737Y-135233497D01*
X177800500Y-135078842D01*
X177800500Y-134921158D01*
X177800500Y-134921155D01*
X177800499Y-134921153D01*
X177769738Y-134766510D01*
X177769737Y-134766503D01*
X177756062Y-134733489D01*
X177709397Y-134620827D01*
X177709390Y-134620814D01*
X177621789Y-134489711D01*
X177621786Y-134489707D01*
X177510292Y-134378213D01*
X177510288Y-134378210D01*
X177379185Y-134290609D01*
X177379172Y-134290602D01*
X177233501Y-134230264D01*
X177233489Y-134230261D01*
X177078845Y-134199500D01*
X177078842Y-134199500D01*
X176921158Y-134199500D01*
X176921155Y-134199500D01*
X176766510Y-134230261D01*
X176766498Y-134230264D01*
X176620827Y-134290602D01*
X176620814Y-134290609D01*
X176489711Y-134378210D01*
X176489707Y-134378213D01*
X176378213Y-134489707D01*
X176378210Y-134489711D01*
X176290609Y-134620814D01*
X176290602Y-134620827D01*
X176230264Y-134766498D01*
X176230261Y-134766510D01*
X176199500Y-134921153D01*
X173681348Y-134921153D01*
X173709394Y-134879179D01*
X173769737Y-134733497D01*
X173800500Y-134578842D01*
X173800500Y-134421158D01*
X173800500Y-134421155D01*
X173800499Y-134421153D01*
X173774531Y-134290606D01*
X173769737Y-134266503D01*
X173769735Y-134266498D01*
X173709397Y-134120827D01*
X173709390Y-134120814D01*
X173621789Y-133989711D01*
X173621786Y-133989707D01*
X173510292Y-133878213D01*
X173510288Y-133878210D01*
X173379185Y-133790609D01*
X173379172Y-133790602D01*
X173233501Y-133730264D01*
X173233489Y-133730261D01*
X173078845Y-133699500D01*
X173078842Y-133699500D01*
X172921158Y-133699500D01*
X172921155Y-133699500D01*
X172766510Y-133730261D01*
X172766498Y-133730264D01*
X172620827Y-133790602D01*
X172620814Y-133790609D01*
X172489711Y-133878210D01*
X172489707Y-133878213D01*
X172378213Y-133989707D01*
X172378210Y-133989711D01*
X172290609Y-134120814D01*
X172290602Y-134120827D01*
X172230264Y-134266498D01*
X172230261Y-134266510D01*
X172199500Y-134421153D01*
X155050499Y-134421153D01*
X155024531Y-134290606D01*
X155019737Y-134266503D01*
X155019735Y-134266498D01*
X154959397Y-134120827D01*
X154959390Y-134120814D01*
X154871789Y-133989711D01*
X154871786Y-133989707D01*
X154760292Y-133878213D01*
X154760288Y-133878210D01*
X154629185Y-133790609D01*
X154629172Y-133790602D01*
X154483501Y-133730264D01*
X154483489Y-133730261D01*
X154328845Y-133699500D01*
X154328842Y-133699500D01*
X154171158Y-133699500D01*
X154171155Y-133699500D01*
X154016510Y-133730261D01*
X154016498Y-133730264D01*
X153870827Y-133790602D01*
X153870814Y-133790609D01*
X153739711Y-133878210D01*
X153739707Y-133878213D01*
X153628213Y-133989707D01*
X153628210Y-133989711D01*
X153540609Y-134120814D01*
X153540602Y-134120827D01*
X153480264Y-134266498D01*
X153480261Y-134266510D01*
X153449500Y-134421153D01*
X147800499Y-134421153D01*
X147774531Y-134290606D01*
X147769737Y-134266503D01*
X147769735Y-134266498D01*
X147709397Y-134120827D01*
X147709390Y-134120814D01*
X147621789Y-133989711D01*
X147621786Y-133989707D01*
X147510292Y-133878213D01*
X147510288Y-133878210D01*
X147379185Y-133790609D01*
X147379172Y-133790602D01*
X147233501Y-133730264D01*
X147233489Y-133730261D01*
X147078845Y-133699500D01*
X147078842Y-133699500D01*
X146921158Y-133699500D01*
X146921155Y-133699500D01*
X146766510Y-133730261D01*
X146766498Y-133730264D01*
X146620827Y-133790602D01*
X146620814Y-133790609D01*
X146489711Y-133878210D01*
X146489707Y-133878213D01*
X146378213Y-133989707D01*
X146378210Y-133989711D01*
X146290609Y-134120814D01*
X146290602Y-134120827D01*
X146230264Y-134266498D01*
X146230261Y-134266510D01*
X146199500Y-134421153D01*
X140144281Y-134421153D01*
X140009049Y-133178481D01*
X140008252Y-133171153D01*
X164299500Y-133171153D01*
X164299500Y-133328846D01*
X164330261Y-133483489D01*
X164330264Y-133483501D01*
X164390602Y-133629172D01*
X164390609Y-133629185D01*
X164478210Y-133760288D01*
X164478213Y-133760292D01*
X164589707Y-133871786D01*
X164589711Y-133871789D01*
X164720814Y-133959390D01*
X164720827Y-133959397D01*
X164794013Y-133989711D01*
X164866503Y-134019737D01*
X165021153Y-134050499D01*
X165021156Y-134050500D01*
X165021158Y-134050500D01*
X165178844Y-134050500D01*
X165178845Y-134050499D01*
X165333497Y-134019737D01*
X165479179Y-133959394D01*
X165610289Y-133871789D01*
X165721789Y-133760289D01*
X165809394Y-133629179D01*
X165869737Y-133483497D01*
X165900500Y-133328842D01*
X165900500Y-133171158D01*
X165900500Y-133171155D01*
X165900499Y-133171153D01*
X165869738Y-133016510D01*
X165869737Y-133016503D01*
X165862901Y-133000000D01*
X165809397Y-132870827D01*
X165809390Y-132870814D01*
X165721789Y-132739711D01*
X165721786Y-132739707D01*
X165610292Y-132628213D01*
X165610288Y-132628210D01*
X165479185Y-132540609D01*
X165479172Y-132540602D01*
X165333501Y-132480264D01*
X165333489Y-132480261D01*
X165178845Y-132449500D01*
X165178842Y-132449500D01*
X165021158Y-132449500D01*
X165021155Y-132449500D01*
X164866510Y-132480261D01*
X164866498Y-132480264D01*
X164720827Y-132540602D01*
X164720814Y-132540609D01*
X164589711Y-132628210D01*
X164589707Y-132628213D01*
X164478213Y-132739707D01*
X164478210Y-132739711D01*
X164390609Y-132870814D01*
X164390602Y-132870827D01*
X164330264Y-133016498D01*
X164330261Y-133016510D01*
X164299500Y-133171153D01*
X140008252Y-133171153D01*
X139401228Y-127593100D01*
X139400500Y-127579685D01*
X139400500Y-66000000D01*
X139750000Y-66000000D01*
X139750000Y-93750000D01*
X141213681Y-95213681D01*
X141247166Y-95275004D01*
X141250000Y-95301362D01*
X141250000Y-121750000D01*
X142989279Y-123489279D01*
X143022764Y-123550602D01*
X143017780Y-123620294D01*
X142975908Y-123676227D01*
X142925790Y-123698577D01*
X142766508Y-123730261D01*
X142766498Y-123730264D01*
X142620827Y-123790602D01*
X142620814Y-123790609D01*
X142568891Y-123825304D01*
X142502214Y-123846182D01*
X142434833Y-123827698D01*
X142431109Y-123825304D01*
X142379185Y-123790609D01*
X142379172Y-123790602D01*
X142233501Y-123730264D01*
X142233489Y-123730261D01*
X142078845Y-123699500D01*
X142078842Y-123699500D01*
X141921158Y-123699500D01*
X141921155Y-123699500D01*
X141766510Y-123730261D01*
X141766498Y-123730264D01*
X141620827Y-123790602D01*
X141620814Y-123790609D01*
X141568891Y-123825304D01*
X141502214Y-123846182D01*
X141434833Y-123827698D01*
X141431109Y-123825304D01*
X141379185Y-123790609D01*
X141379172Y-123790602D01*
X141233501Y-123730264D01*
X141233489Y-123730261D01*
X141078845Y-123699500D01*
X141078842Y-123699500D01*
X140921158Y-123699500D01*
X140921155Y-123699500D01*
X140766510Y-123730261D01*
X140766498Y-123730264D01*
X140620827Y-123790602D01*
X140620814Y-123790609D01*
X140489711Y-123878210D01*
X140489707Y-123878213D01*
X140378213Y-123989707D01*
X140378210Y-123989711D01*
X140290609Y-124120814D01*
X140290602Y-124120827D01*
X140230264Y-124266498D01*
X140230261Y-124266510D01*
X140199500Y-124421153D01*
X140199500Y-124578846D01*
X140230261Y-124733489D01*
X140230264Y-124733501D01*
X140290602Y-124879172D01*
X140290609Y-124879185D01*
X140378210Y-125010288D01*
X140378213Y-125010292D01*
X140489707Y-125121786D01*
X140489711Y-125121789D01*
X140620814Y-125209390D01*
X140620827Y-125209397D01*
X140744734Y-125260720D01*
X140766503Y-125269737D01*
X140921153Y-125300499D01*
X140921156Y-125300500D01*
X140921158Y-125300500D01*
X141078844Y-125300500D01*
X141078845Y-125300499D01*
X141233497Y-125269737D01*
X141379179Y-125209394D01*
X141431110Y-125174694D01*
X141497785Y-125153816D01*
X141565165Y-125172300D01*
X141568863Y-125174676D01*
X141620821Y-125209394D01*
X141620823Y-125209395D01*
X141620825Y-125209396D01*
X141744734Y-125260720D01*
X141766503Y-125269737D01*
X141921153Y-125300499D01*
X141921156Y-125300500D01*
X141921158Y-125300500D01*
X142078844Y-125300500D01*
X142078845Y-125300499D01*
X142233497Y-125269737D01*
X142379179Y-125209394D01*
X142431110Y-125174694D01*
X142497785Y-125153816D01*
X142565165Y-125172300D01*
X142568863Y-125174676D01*
X142620821Y-125209394D01*
X142620823Y-125209395D01*
X142620825Y-125209396D01*
X142744734Y-125260720D01*
X142766503Y-125269737D01*
X142862367Y-125288805D01*
X142863535Y-125289038D01*
X142925446Y-125321422D01*
X142960020Y-125382138D01*
X142960961Y-125386463D01*
X142980261Y-125483491D01*
X142980264Y-125483501D01*
X143040602Y-125629172D01*
X143040609Y-125629185D01*
X143128210Y-125760288D01*
X143128213Y-125760292D01*
X143239707Y-125871786D01*
X143239711Y-125871789D01*
X143370814Y-125959390D01*
X143370827Y-125959397D01*
X143446181Y-125990609D01*
X143516503Y-126019737D01*
X143671153Y-126050499D01*
X143671156Y-126050500D01*
X143671158Y-126050500D01*
X143828844Y-126050500D01*
X143828845Y-126050499D01*
X143983497Y-126019737D01*
X144129179Y-125959394D01*
X144260289Y-125871789D01*
X144371789Y-125760289D01*
X144459394Y-125629179D01*
X144466859Y-125611158D01*
X144503760Y-125522068D01*
X144519737Y-125483497D01*
X144535056Y-125406478D01*
X144551422Y-125324210D01*
X144583807Y-125262299D01*
X144644523Y-125227724D01*
X144714292Y-125231464D01*
X144760720Y-125260720D01*
X145463681Y-125963681D01*
X145497166Y-126025004D01*
X145500000Y-126051362D01*
X145500000Y-133000000D01*
X147500000Y-133000000D01*
X147500000Y-128421153D01*
X159199500Y-128421153D01*
X159199500Y-128578846D01*
X159230261Y-128733489D01*
X159230264Y-128733501D01*
X159290602Y-128879172D01*
X159290609Y-128879185D01*
X159378210Y-129010288D01*
X159378213Y-129010292D01*
X159489707Y-129121786D01*
X159489711Y-129121789D01*
X159620814Y-129209390D01*
X159620827Y-129209397D01*
X159766498Y-129269735D01*
X159766503Y-129269737D01*
X159921153Y-129300499D01*
X159921156Y-129300500D01*
X159921158Y-129300500D01*
X160078844Y-129300500D01*
X160078845Y-129300499D01*
X160233497Y-129269737D01*
X160379179Y-129209394D01*
X160510289Y-129121789D01*
X160621789Y-129010289D01*
X160709394Y-128879179D01*
X160769737Y-128733497D01*
X160800500Y-128578842D01*
X160800500Y-128421158D01*
X160800500Y-128421155D01*
X160800499Y-128421153D01*
X160769738Y-128266510D01*
X160769737Y-128266503D01*
X160769735Y-128266498D01*
X160709397Y-128120827D01*
X160709390Y-128120814D01*
X160621789Y-127989711D01*
X160621786Y-127989707D01*
X160510292Y-127878213D01*
X160510288Y-127878210D01*
X160379185Y-127790609D01*
X160379172Y-127790602D01*
X160233501Y-127730264D01*
X160233489Y-127730261D01*
X160078845Y-127699500D01*
X160078842Y-127699500D01*
X159921158Y-127699500D01*
X159921155Y-127699500D01*
X159766510Y-127730261D01*
X159766498Y-127730264D01*
X159620827Y-127790602D01*
X159620814Y-127790609D01*
X159489711Y-127878210D01*
X159489707Y-127878213D01*
X159378213Y-127989707D01*
X159378210Y-127989711D01*
X159290609Y-128120814D01*
X159290602Y-128120827D01*
X159230264Y-128266498D01*
X159230261Y-128266510D01*
X159199500Y-128421153D01*
X147500000Y-128421153D01*
X147500000Y-127617947D01*
X147519685Y-127550908D01*
X147572489Y-127505153D01*
X147599809Y-127496330D01*
X147668435Y-127482678D01*
X147733497Y-127469737D01*
X147879179Y-127409394D01*
X148010289Y-127321789D01*
X148121789Y-127210289D01*
X148209394Y-127079179D01*
X148269737Y-126933497D01*
X148300500Y-126778842D01*
X148300500Y-126621158D01*
X148300500Y-126621155D01*
X148300499Y-126621153D01*
X171899500Y-126621153D01*
X171899500Y-126778846D01*
X171930261Y-126933489D01*
X171930264Y-126933501D01*
X171990602Y-127079172D01*
X171990609Y-127079185D01*
X172078210Y-127210288D01*
X172078213Y-127210292D01*
X172189707Y-127321786D01*
X172189711Y-127321789D01*
X172320814Y-127409390D01*
X172320827Y-127409397D01*
X172466498Y-127469735D01*
X172466503Y-127469737D01*
X172600194Y-127496330D01*
X172621153Y-127500499D01*
X172621156Y-127500500D01*
X172621158Y-127500500D01*
X172778844Y-127500500D01*
X172778845Y-127500499D01*
X172933497Y-127469737D01*
X173079179Y-127409394D01*
X173210289Y-127321789D01*
X173321789Y-127210289D01*
X173409394Y-127079179D01*
X173469737Y-126933497D01*
X173500500Y-126778842D01*
X173500500Y-126621158D01*
X173500500Y-126621155D01*
X173500499Y-126621153D01*
X173469738Y-126466510D01*
X173469737Y-126466503D01*
X173466935Y-126459738D01*
X173409397Y-126320827D01*
X173409390Y-126320814D01*
X173321789Y-126189711D01*
X173321786Y-126189707D01*
X173210292Y-126078213D01*
X173210288Y-126078210D01*
X173079185Y-125990609D01*
X173079172Y-125990602D01*
X172933501Y-125930264D01*
X172933489Y-125930261D01*
X172778845Y-125899500D01*
X172778842Y-125899500D01*
X172621158Y-125899500D01*
X172621155Y-125899500D01*
X172466510Y-125930261D01*
X172466498Y-125930264D01*
X172320827Y-125990602D01*
X172320814Y-125990609D01*
X172189711Y-126078210D01*
X172189707Y-126078213D01*
X172078213Y-126189707D01*
X172078210Y-126189711D01*
X171990609Y-126320814D01*
X171990602Y-126320827D01*
X171930264Y-126466498D01*
X171930261Y-126466510D01*
X171899500Y-126621153D01*
X148300499Y-126621153D01*
X148269738Y-126466510D01*
X148269737Y-126466503D01*
X148266935Y-126459738D01*
X148209397Y-126320827D01*
X148209390Y-126320814D01*
X148121789Y-126189711D01*
X148121786Y-126189707D01*
X148010292Y-126078213D01*
X148010288Y-126078210D01*
X147879185Y-125990609D01*
X147879172Y-125990602D01*
X147733501Y-125930264D01*
X147733489Y-125930261D01*
X147578845Y-125899500D01*
X147578842Y-125899500D01*
X147450862Y-125899500D01*
X147383823Y-125879815D01*
X147363181Y-125863181D01*
X146171153Y-124671153D01*
X155199500Y-124671153D01*
X155199500Y-124828846D01*
X155230261Y-124983489D01*
X155230264Y-124983501D01*
X155290602Y-125129172D01*
X155290609Y-125129185D01*
X155378210Y-125260288D01*
X155378213Y-125260292D01*
X155489707Y-125371786D01*
X155489711Y-125371789D01*
X155620814Y-125459390D01*
X155620827Y-125459397D01*
X155766498Y-125519735D01*
X155766503Y-125519737D01*
X155863832Y-125539097D01*
X155921153Y-125550499D01*
X155921156Y-125550500D01*
X155921158Y-125550500D01*
X156078844Y-125550500D01*
X156078845Y-125550499D01*
X156233497Y-125519737D01*
X156379179Y-125459394D01*
X156510289Y-125371789D01*
X156621789Y-125260289D01*
X156709394Y-125129179D01*
X156769737Y-124983497D01*
X156800500Y-124828842D01*
X156800500Y-124671158D01*
X156800500Y-124671155D01*
X156800499Y-124671153D01*
X164299500Y-124671153D01*
X164299500Y-124828846D01*
X164330261Y-124983489D01*
X164330264Y-124983501D01*
X164390602Y-125129172D01*
X164390609Y-125129185D01*
X164478210Y-125260288D01*
X164478213Y-125260292D01*
X164589707Y-125371786D01*
X164589711Y-125371789D01*
X164720814Y-125459390D01*
X164720827Y-125459397D01*
X164833554Y-125506089D01*
X164866498Y-125519735D01*
X164872131Y-125522068D01*
X164871114Y-125524522D01*
X164919930Y-125556510D01*
X164948390Y-125620321D01*
X164949500Y-125636878D01*
X164949500Y-125768846D01*
X164980261Y-125923489D01*
X164980264Y-125923501D01*
X165040602Y-126069172D01*
X165040609Y-126069185D01*
X165128210Y-126200288D01*
X165128213Y-126200292D01*
X165239707Y-126311786D01*
X165239711Y-126311789D01*
X165370814Y-126399390D01*
X165370827Y-126399397D01*
X165516498Y-126459735D01*
X165516503Y-126459737D01*
X165671153Y-126490499D01*
X165671156Y-126490500D01*
X165671158Y-126490500D01*
X165828844Y-126490500D01*
X165828845Y-126490499D01*
X165983497Y-126459737D01*
X166129179Y-126399394D01*
X166260289Y-126311789D01*
X166371789Y-126200289D01*
X166459394Y-126069179D01*
X166519737Y-125923497D01*
X166550500Y-125768842D01*
X166550500Y-125611158D01*
X166550500Y-125611155D01*
X166550499Y-125611153D01*
X166532315Y-125519737D01*
X166519737Y-125456503D01*
X166490726Y-125386463D01*
X166459397Y-125310827D01*
X166459390Y-125310814D01*
X166371789Y-125179711D01*
X166371786Y-125179707D01*
X166260292Y-125068213D01*
X166260288Y-125068210D01*
X166129185Y-124980609D01*
X166129172Y-124980602D01*
X165977870Y-124917932D01*
X165978879Y-124915494D01*
X165930008Y-124883416D01*
X165901598Y-124819583D01*
X165900500Y-124803121D01*
X165900500Y-124671155D01*
X165900499Y-124671153D01*
X165869738Y-124516510D01*
X165869737Y-124516503D01*
X165830242Y-124421153D01*
X165809397Y-124370827D01*
X165809390Y-124370814D01*
X165721789Y-124239711D01*
X165721786Y-124239707D01*
X165610292Y-124128213D01*
X165610288Y-124128210D01*
X165479185Y-124040609D01*
X165479172Y-124040602D01*
X165333501Y-123980264D01*
X165333489Y-123980261D01*
X165178845Y-123949500D01*
X165178842Y-123949500D01*
X165021158Y-123949500D01*
X165021155Y-123949500D01*
X164866510Y-123980261D01*
X164866498Y-123980264D01*
X164720827Y-124040602D01*
X164720814Y-124040609D01*
X164589711Y-124128210D01*
X164589707Y-124128213D01*
X164478213Y-124239707D01*
X164478210Y-124239711D01*
X164390609Y-124370814D01*
X164390602Y-124370827D01*
X164330264Y-124516498D01*
X164330261Y-124516510D01*
X164299500Y-124671153D01*
X156800499Y-124671153D01*
X156769738Y-124516510D01*
X156769737Y-124516503D01*
X156730242Y-124421153D01*
X156709397Y-124370827D01*
X156709390Y-124370814D01*
X156621789Y-124239711D01*
X156621786Y-124239707D01*
X156510292Y-124128213D01*
X156510288Y-124128210D01*
X156379185Y-124040609D01*
X156379172Y-124040602D01*
X156233501Y-123980264D01*
X156233489Y-123980261D01*
X156078845Y-123949500D01*
X156078842Y-123949500D01*
X155921158Y-123949500D01*
X155921155Y-123949500D01*
X155766510Y-123980261D01*
X155766498Y-123980264D01*
X155620827Y-124040602D01*
X155620814Y-124040609D01*
X155489711Y-124128210D01*
X155489707Y-124128213D01*
X155378213Y-124239707D01*
X155378210Y-124239711D01*
X155290609Y-124370814D01*
X155290602Y-124370827D01*
X155230264Y-124516498D01*
X155230261Y-124516510D01*
X155199500Y-124671153D01*
X146171153Y-124671153D01*
X142786319Y-121286319D01*
X142752834Y-121224996D01*
X142750000Y-121198638D01*
X142750000Y-120421153D01*
X152449500Y-120421153D01*
X152449500Y-120578846D01*
X152480261Y-120733489D01*
X152480264Y-120733501D01*
X152540602Y-120879172D01*
X152540609Y-120879185D01*
X152628210Y-121010288D01*
X152628213Y-121010292D01*
X152739707Y-121121786D01*
X152739711Y-121121789D01*
X152870814Y-121209390D01*
X152870827Y-121209397D01*
X152968853Y-121250000D01*
X153016503Y-121269737D01*
X153171153Y-121300499D01*
X153171156Y-121300500D01*
X153171158Y-121300500D01*
X153328844Y-121300500D01*
X153328845Y-121300499D01*
X153483497Y-121269737D01*
X153629179Y-121209394D01*
X153760289Y-121121789D01*
X153871789Y-121010289D01*
X153959394Y-120879179D01*
X154019737Y-120733497D01*
X154050500Y-120578842D01*
X154050500Y-120421158D01*
X154050500Y-120421155D01*
X154050499Y-120421153D01*
X154019738Y-120266510D01*
X154019737Y-120266503D01*
X153983427Y-120178842D01*
X153959397Y-120120827D01*
X153959390Y-120120814D01*
X153871789Y-119989711D01*
X153871786Y-119989707D01*
X153760292Y-119878213D01*
X153760288Y-119878210D01*
X153629185Y-119790609D01*
X153629172Y-119790602D01*
X153483501Y-119730264D01*
X153483489Y-119730261D01*
X153328845Y-119699500D01*
X153328842Y-119699500D01*
X153171158Y-119699500D01*
X153171155Y-119699500D01*
X153016510Y-119730261D01*
X153016498Y-119730264D01*
X152870827Y-119790602D01*
X152870814Y-119790609D01*
X152739711Y-119878210D01*
X152739707Y-119878213D01*
X152628213Y-119989707D01*
X152628210Y-119989711D01*
X152540609Y-120120814D01*
X152540602Y-120120827D01*
X152480264Y-120266498D01*
X152480261Y-120266510D01*
X152449500Y-120421153D01*
X142750000Y-120421153D01*
X142750000Y-118421153D01*
X145199500Y-118421153D01*
X145199500Y-118578846D01*
X145230261Y-118733489D01*
X145230264Y-118733501D01*
X145290602Y-118879172D01*
X145290609Y-118879185D01*
X145378210Y-119010288D01*
X145378213Y-119010292D01*
X145489707Y-119121786D01*
X145489711Y-119121789D01*
X145620814Y-119209390D01*
X145620827Y-119209397D01*
X145766498Y-119269735D01*
X145766503Y-119269737D01*
X145921153Y-119300499D01*
X145921156Y-119300500D01*
X145921158Y-119300500D01*
X146078844Y-119300500D01*
X146078845Y-119300499D01*
X146233497Y-119269737D01*
X146379179Y-119209394D01*
X146510289Y-119121789D01*
X146621789Y-119010289D01*
X146709394Y-118879179D01*
X146769737Y-118733497D01*
X146800500Y-118578842D01*
X146800500Y-118421158D01*
X146800500Y-118421155D01*
X146800499Y-118421153D01*
X153699500Y-118421153D01*
X153699500Y-118578846D01*
X153730261Y-118733489D01*
X153730264Y-118733501D01*
X153790602Y-118879172D01*
X153790609Y-118879185D01*
X153878210Y-119010288D01*
X153878213Y-119010292D01*
X153989707Y-119121786D01*
X153989711Y-119121789D01*
X154120814Y-119209390D01*
X154120827Y-119209397D01*
X154266498Y-119269735D01*
X154266503Y-119269737D01*
X154421153Y-119300499D01*
X154421156Y-119300500D01*
X154421158Y-119300500D01*
X154578844Y-119300500D01*
X154578845Y-119300499D01*
X154733497Y-119269737D01*
X154879179Y-119209394D01*
X155010289Y-119121789D01*
X155121789Y-119010289D01*
X155209394Y-118879179D01*
X155221937Y-118848896D01*
X155265776Y-118794494D01*
X155332070Y-118772428D01*
X155399769Y-118789706D01*
X155447381Y-118840842D01*
X155458115Y-118872157D01*
X155480261Y-118983491D01*
X155480264Y-118983501D01*
X155540602Y-119129172D01*
X155540609Y-119129185D01*
X155628210Y-119260288D01*
X155628213Y-119260292D01*
X155705240Y-119337319D01*
X155738725Y-119398642D01*
X155733741Y-119468334D01*
X155705240Y-119512681D01*
X155628213Y-119589707D01*
X155628210Y-119589711D01*
X155540609Y-119720814D01*
X155540602Y-119720827D01*
X155480264Y-119866498D01*
X155480261Y-119866510D01*
X155449500Y-120021153D01*
X155449500Y-120178846D01*
X155480261Y-120333489D01*
X155480264Y-120333501D01*
X155540602Y-120479172D01*
X155540609Y-120479185D01*
X155628210Y-120610288D01*
X155628213Y-120610292D01*
X155739707Y-120721786D01*
X155739711Y-120721789D01*
X155870814Y-120809390D01*
X155870827Y-120809397D01*
X156016498Y-120869735D01*
X156016503Y-120869737D01*
X156171153Y-120900499D01*
X156171156Y-120900500D01*
X156171158Y-120900500D01*
X156328844Y-120900500D01*
X156328845Y-120900499D01*
X156483497Y-120869737D01*
X156629179Y-120809394D01*
X156760289Y-120721789D01*
X156871789Y-120610289D01*
X156959394Y-120479179D01*
X156983429Y-120421153D01*
X159199500Y-120421153D01*
X159199500Y-120578846D01*
X159230261Y-120733489D01*
X159230264Y-120733501D01*
X159290602Y-120879172D01*
X159290609Y-120879185D01*
X159378210Y-121010288D01*
X159378213Y-121010292D01*
X159489707Y-121121786D01*
X159489711Y-121121789D01*
X159620814Y-121209390D01*
X159620827Y-121209397D01*
X159718853Y-121250000D01*
X159766503Y-121269737D01*
X159921153Y-121300499D01*
X159921156Y-121300500D01*
X159921158Y-121300500D01*
X160078844Y-121300500D01*
X160078845Y-121300499D01*
X160233497Y-121269737D01*
X160379179Y-121209394D01*
X160510289Y-121121789D01*
X160621789Y-121010289D01*
X160709394Y-120879179D01*
X160769737Y-120733497D01*
X160800500Y-120578842D01*
X160800500Y-120421158D01*
X160800500Y-120421155D01*
X160800499Y-120421153D01*
X160769738Y-120266510D01*
X160769737Y-120266503D01*
X160733427Y-120178842D01*
X160709397Y-120120827D01*
X160709390Y-120120814D01*
X160621789Y-119989711D01*
X160621786Y-119989707D01*
X160510292Y-119878213D01*
X160510288Y-119878210D01*
X160379185Y-119790609D01*
X160379172Y-119790602D01*
X160233501Y-119730264D01*
X160233489Y-119730261D01*
X160078845Y-119699500D01*
X160078842Y-119699500D01*
X159921158Y-119699500D01*
X159921155Y-119699500D01*
X159766510Y-119730261D01*
X159766498Y-119730264D01*
X159620827Y-119790602D01*
X159620814Y-119790609D01*
X159489711Y-119878210D01*
X159489707Y-119878213D01*
X159378213Y-119989707D01*
X159378210Y-119989711D01*
X159290609Y-120120814D01*
X159290602Y-120120827D01*
X159230264Y-120266498D01*
X159230261Y-120266510D01*
X159199500Y-120421153D01*
X156983429Y-120421153D01*
X157005603Y-120367621D01*
X157005605Y-120367614D01*
X157019737Y-120333497D01*
X157050500Y-120178842D01*
X157050500Y-120021158D01*
X157050500Y-120021155D01*
X157050499Y-120021153D01*
X157022066Y-119878211D01*
X157019737Y-119866503D01*
X156988298Y-119790602D01*
X156959397Y-119720827D01*
X156959390Y-119720814D01*
X156871789Y-119589711D01*
X156871786Y-119589707D01*
X156794760Y-119512681D01*
X156761275Y-119451358D01*
X156766259Y-119381666D01*
X156794760Y-119337319D01*
X156871786Y-119260292D01*
X156871789Y-119260289D01*
X156959394Y-119129179D01*
X157019737Y-118983497D01*
X157050500Y-118828842D01*
X157050500Y-118671158D01*
X157050500Y-118671155D01*
X157050499Y-118671153D01*
X157019738Y-118516510D01*
X157019737Y-118516503D01*
X156980242Y-118421153D01*
X173199500Y-118421153D01*
X173199500Y-118578846D01*
X173230261Y-118733489D01*
X173230264Y-118733501D01*
X173290602Y-118879172D01*
X173290609Y-118879185D01*
X173378210Y-119010288D01*
X173378213Y-119010292D01*
X173489707Y-119121786D01*
X173489711Y-119121789D01*
X173620814Y-119209390D01*
X173620827Y-119209397D01*
X173766498Y-119269735D01*
X173766503Y-119269737D01*
X173921153Y-119300499D01*
X173921156Y-119300500D01*
X173921158Y-119300500D01*
X174078844Y-119300500D01*
X174078845Y-119300499D01*
X174233497Y-119269737D01*
X174379179Y-119209394D01*
X174510289Y-119121789D01*
X174621789Y-119010289D01*
X174709394Y-118879179D01*
X174769737Y-118733497D01*
X174800500Y-118578842D01*
X174800500Y-118421158D01*
X174800500Y-118421155D01*
X174800499Y-118421153D01*
X174769738Y-118266510D01*
X174769737Y-118266503D01*
X174769735Y-118266498D01*
X174709397Y-118120827D01*
X174709390Y-118120814D01*
X174621789Y-117989711D01*
X174621786Y-117989707D01*
X174510292Y-117878213D01*
X174510288Y-117878210D01*
X174379185Y-117790609D01*
X174379172Y-117790602D01*
X174233501Y-117730264D01*
X174233489Y-117730261D01*
X174078845Y-117699500D01*
X174078842Y-117699500D01*
X173921158Y-117699500D01*
X173921155Y-117699500D01*
X173766510Y-117730261D01*
X173766498Y-117730264D01*
X173620827Y-117790602D01*
X173620814Y-117790609D01*
X173489711Y-117878210D01*
X173489707Y-117878213D01*
X173378213Y-117989707D01*
X173378210Y-117989711D01*
X173290609Y-118120814D01*
X173290602Y-118120827D01*
X173230264Y-118266498D01*
X173230261Y-118266510D01*
X173199500Y-118421153D01*
X156980242Y-118421153D01*
X156962302Y-118377841D01*
X156959397Y-118370827D01*
X156959390Y-118370814D01*
X156871789Y-118239711D01*
X156871786Y-118239707D01*
X156760292Y-118128213D01*
X156760288Y-118128210D01*
X156629185Y-118040609D01*
X156629172Y-118040602D01*
X156483501Y-117980264D01*
X156483489Y-117980261D01*
X156328845Y-117949500D01*
X156328842Y-117949500D01*
X156171158Y-117949500D01*
X156171155Y-117949500D01*
X156016510Y-117980261D01*
X156016498Y-117980264D01*
X155870827Y-118040602D01*
X155870814Y-118040609D01*
X155739711Y-118128210D01*
X155739707Y-118128213D01*
X155628213Y-118239707D01*
X155628210Y-118239711D01*
X155540609Y-118370814D01*
X155540601Y-118370829D01*
X155528061Y-118401104D01*
X155484220Y-118455507D01*
X155417925Y-118477571D01*
X155350226Y-118460291D01*
X155302616Y-118409153D01*
X155291884Y-118377841D01*
X155269738Y-118266510D01*
X155269737Y-118266503D01*
X155269735Y-118266498D01*
X155209397Y-118120827D01*
X155209390Y-118120814D01*
X155121789Y-117989711D01*
X155121786Y-117989707D01*
X155010292Y-117878213D01*
X155010288Y-117878210D01*
X154879185Y-117790609D01*
X154879172Y-117790602D01*
X154733501Y-117730264D01*
X154733489Y-117730261D01*
X154578845Y-117699500D01*
X154578842Y-117699500D01*
X154421158Y-117699500D01*
X154421155Y-117699500D01*
X154266510Y-117730261D01*
X154266498Y-117730264D01*
X154120827Y-117790602D01*
X154120814Y-117790609D01*
X153989711Y-117878210D01*
X153989707Y-117878213D01*
X153878213Y-117989707D01*
X153878210Y-117989711D01*
X153790609Y-118120814D01*
X153790602Y-118120827D01*
X153730264Y-118266498D01*
X153730261Y-118266510D01*
X153699500Y-118421153D01*
X146800499Y-118421153D01*
X146769738Y-118266510D01*
X146769737Y-118266503D01*
X146769735Y-118266498D01*
X146709397Y-118120827D01*
X146709390Y-118120814D01*
X146621789Y-117989711D01*
X146621786Y-117989707D01*
X146510292Y-117878213D01*
X146510288Y-117878210D01*
X146379185Y-117790609D01*
X146379172Y-117790602D01*
X146233501Y-117730264D01*
X146233489Y-117730261D01*
X146078845Y-117699500D01*
X146078842Y-117699500D01*
X145921158Y-117699500D01*
X145921155Y-117699500D01*
X145766510Y-117730261D01*
X145766498Y-117730264D01*
X145620827Y-117790602D01*
X145620814Y-117790609D01*
X145489711Y-117878210D01*
X145489707Y-117878213D01*
X145378213Y-117989707D01*
X145378210Y-117989711D01*
X145290609Y-118120814D01*
X145290602Y-118120827D01*
X145230264Y-118266498D01*
X145230261Y-118266510D01*
X145199500Y-118421153D01*
X142750000Y-118421153D01*
X142750000Y-114321153D01*
X145449500Y-114321153D01*
X145449500Y-114478846D01*
X145480261Y-114633489D01*
X145480264Y-114633501D01*
X145540602Y-114779172D01*
X145540609Y-114779185D01*
X145628210Y-114910288D01*
X145628213Y-114910292D01*
X145739707Y-115021786D01*
X145739711Y-115021789D01*
X145870814Y-115109390D01*
X145870827Y-115109397D01*
X146016498Y-115169735D01*
X146016503Y-115169737D01*
X146171153Y-115200499D01*
X146171156Y-115200500D01*
X146171158Y-115200500D01*
X146328844Y-115200500D01*
X146328845Y-115200499D01*
X146483497Y-115169737D01*
X146629179Y-115109394D01*
X146760289Y-115021789D01*
X146871789Y-114910289D01*
X146959394Y-114779179D01*
X147019737Y-114633497D01*
X147050500Y-114478842D01*
X147050500Y-114321158D01*
X147050500Y-114321155D01*
X147050499Y-114321153D01*
X147024264Y-114189257D01*
X147020662Y-114171153D01*
X150949500Y-114171153D01*
X150949500Y-114328846D01*
X150980261Y-114483489D01*
X150980264Y-114483501D01*
X151040602Y-114629172D01*
X151040609Y-114629185D01*
X151128210Y-114760288D01*
X151128213Y-114760292D01*
X151239707Y-114871786D01*
X151239711Y-114871789D01*
X151370814Y-114959390D01*
X151370827Y-114959397D01*
X151516498Y-115019735D01*
X151516503Y-115019737D01*
X151671153Y-115050499D01*
X151671156Y-115050500D01*
X151671158Y-115050500D01*
X151828844Y-115050500D01*
X151828845Y-115050499D01*
X151983497Y-115019737D01*
X152129179Y-114959394D01*
X152260289Y-114871789D01*
X152371789Y-114760289D01*
X152459394Y-114629179D01*
X152519737Y-114483497D01*
X152550500Y-114328842D01*
X152550500Y-114171158D01*
X152550500Y-114171155D01*
X152550499Y-114171153D01*
X152520596Y-114020821D01*
X152519737Y-114016503D01*
X152519735Y-114016498D01*
X152459397Y-113870827D01*
X152459390Y-113870814D01*
X152371789Y-113739711D01*
X152371786Y-113739707D01*
X152260292Y-113628213D01*
X152260288Y-113628210D01*
X152129185Y-113540609D01*
X152129172Y-113540602D01*
X151983501Y-113480264D01*
X151983489Y-113480261D01*
X151828845Y-113449500D01*
X151828842Y-113449500D01*
X151671158Y-113449500D01*
X151671155Y-113449500D01*
X151516510Y-113480261D01*
X151516498Y-113480264D01*
X151370827Y-113540602D01*
X151370814Y-113540609D01*
X151239711Y-113628210D01*
X151239707Y-113628213D01*
X151128213Y-113739707D01*
X151128210Y-113739711D01*
X151040609Y-113870814D01*
X151040602Y-113870827D01*
X150980264Y-114016498D01*
X150980261Y-114016510D01*
X150949500Y-114171153D01*
X147020662Y-114171153D01*
X147019738Y-114166507D01*
X147019735Y-114166498D01*
X146959397Y-114020827D01*
X146959390Y-114020814D01*
X146871789Y-113889711D01*
X146871786Y-113889707D01*
X146760292Y-113778213D01*
X146760288Y-113778210D01*
X146629185Y-113690609D01*
X146629172Y-113690602D01*
X146483501Y-113630264D01*
X146483489Y-113630261D01*
X146328845Y-113599500D01*
X146328842Y-113599500D01*
X146171158Y-113599500D01*
X146171155Y-113599500D01*
X146016510Y-113630261D01*
X146016498Y-113630264D01*
X145870827Y-113690602D01*
X145870814Y-113690609D01*
X145739711Y-113778210D01*
X145739707Y-113778213D01*
X145628213Y-113889707D01*
X145628210Y-113889711D01*
X145540609Y-114020814D01*
X145540602Y-114020827D01*
X145480264Y-114166498D01*
X145480261Y-114166510D01*
X145449500Y-114321153D01*
X142750000Y-114321153D01*
X142750000Y-111921153D01*
X159199500Y-111921153D01*
X159199500Y-112078846D01*
X159230261Y-112233489D01*
X159230264Y-112233501D01*
X159290602Y-112379172D01*
X159290609Y-112379185D01*
X159378210Y-112510288D01*
X159378213Y-112510292D01*
X159489707Y-112621786D01*
X159489711Y-112621789D01*
X159620814Y-112709390D01*
X159620827Y-112709397D01*
X159766498Y-112769735D01*
X159766503Y-112769737D01*
X159921153Y-112800499D01*
X159921156Y-112800500D01*
X159921158Y-112800500D01*
X160078844Y-112800500D01*
X160078845Y-112800499D01*
X160233497Y-112769737D01*
X160379179Y-112709394D01*
X160510289Y-112621789D01*
X160621789Y-112510289D01*
X160681348Y-112421153D01*
X169999500Y-112421153D01*
X169999500Y-112578846D01*
X170030261Y-112733489D01*
X170030264Y-112733501D01*
X170090602Y-112879172D01*
X170090609Y-112879185D01*
X170178210Y-113010288D01*
X170178213Y-113010292D01*
X170289707Y-113121786D01*
X170289711Y-113121789D01*
X170420814Y-113209390D01*
X170420827Y-113209397D01*
X170566498Y-113269735D01*
X170566503Y-113269737D01*
X170721153Y-113300499D01*
X170721156Y-113300500D01*
X170721158Y-113300500D01*
X170878844Y-113300500D01*
X170878845Y-113300499D01*
X171033497Y-113269737D01*
X171179179Y-113209394D01*
X171310289Y-113121789D01*
X171421789Y-113010289D01*
X171509394Y-112879179D01*
X171569737Y-112733497D01*
X171600500Y-112578842D01*
X171600500Y-112421158D01*
X171600500Y-112421155D01*
X171600499Y-112421153D01*
X171569738Y-112266510D01*
X171569737Y-112266503D01*
X171556062Y-112233489D01*
X171509397Y-112120827D01*
X171509390Y-112120814D01*
X171421789Y-111989711D01*
X171421786Y-111989707D01*
X171310292Y-111878213D01*
X171310288Y-111878210D01*
X171179185Y-111790609D01*
X171179172Y-111790602D01*
X171033501Y-111730264D01*
X171033489Y-111730261D01*
X170878845Y-111699500D01*
X170878842Y-111699500D01*
X170721158Y-111699500D01*
X170721155Y-111699500D01*
X170566510Y-111730261D01*
X170566498Y-111730264D01*
X170420827Y-111790602D01*
X170420814Y-111790609D01*
X170289711Y-111878210D01*
X170289707Y-111878213D01*
X170178213Y-111989707D01*
X170178210Y-111989711D01*
X170090609Y-112120814D01*
X170090602Y-112120827D01*
X170030264Y-112266498D01*
X170030261Y-112266510D01*
X169999500Y-112421153D01*
X160681348Y-112421153D01*
X160709394Y-112379179D01*
X160769737Y-112233497D01*
X160800500Y-112078842D01*
X160800500Y-111921158D01*
X160800500Y-111921155D01*
X160800499Y-111921153D01*
X160774531Y-111790606D01*
X160769737Y-111766503D01*
X160769735Y-111766498D01*
X160709397Y-111620827D01*
X160709390Y-111620814D01*
X160621789Y-111489711D01*
X160621786Y-111489707D01*
X160510292Y-111378213D01*
X160510288Y-111378210D01*
X160379185Y-111290609D01*
X160379172Y-111290602D01*
X160233501Y-111230264D01*
X160233489Y-111230261D01*
X160078845Y-111199500D01*
X160078842Y-111199500D01*
X159921158Y-111199500D01*
X159921155Y-111199500D01*
X159766510Y-111230261D01*
X159766498Y-111230264D01*
X159620827Y-111290602D01*
X159620814Y-111290609D01*
X159489711Y-111378210D01*
X159489707Y-111378213D01*
X159378213Y-111489707D01*
X159378210Y-111489711D01*
X159290609Y-111620814D01*
X159290602Y-111620827D01*
X159230264Y-111766498D01*
X159230261Y-111766510D01*
X159199500Y-111921153D01*
X142750000Y-111921153D01*
X142750000Y-110921153D01*
X146199500Y-110921153D01*
X146199500Y-111078846D01*
X146230261Y-111233489D01*
X146230264Y-111233501D01*
X146290602Y-111379172D01*
X146290609Y-111379185D01*
X146378210Y-111510288D01*
X146378213Y-111510292D01*
X146489707Y-111621786D01*
X146489711Y-111621789D01*
X146620814Y-111709390D01*
X146620827Y-111709397D01*
X146758683Y-111766498D01*
X146766503Y-111769737D01*
X146921153Y-111800499D01*
X146921156Y-111800500D01*
X146921158Y-111800500D01*
X147078844Y-111800500D01*
X147078845Y-111800499D01*
X147089179Y-111798443D01*
X147114287Y-111793450D01*
X147114292Y-111793449D01*
X147199800Y-111776439D01*
X147233497Y-111769737D01*
X147379179Y-111709394D01*
X147510289Y-111621789D01*
X147621789Y-111510289D01*
X147709394Y-111379179D01*
X147769737Y-111233497D01*
X147800500Y-111078842D01*
X147800500Y-110921158D01*
X147800500Y-110921155D01*
X147800499Y-110921153D01*
X147769738Y-110766510D01*
X147769737Y-110766503D01*
X147730242Y-110671153D01*
X147709397Y-110620827D01*
X147709390Y-110620814D01*
X147621790Y-110489712D01*
X147621784Y-110489705D01*
X147553232Y-110421153D01*
X152199500Y-110421153D01*
X152199500Y-110578846D01*
X152230261Y-110733489D01*
X152230264Y-110733501D01*
X152290602Y-110879172D01*
X152290609Y-110879185D01*
X152378210Y-111010288D01*
X152378213Y-111010292D01*
X152489707Y-111121786D01*
X152489711Y-111121789D01*
X152620814Y-111209390D01*
X152620827Y-111209397D01*
X152766498Y-111269735D01*
X152766503Y-111269737D01*
X152921153Y-111300499D01*
X152921156Y-111300500D01*
X152921158Y-111300500D01*
X153078844Y-111300500D01*
X153078845Y-111300499D01*
X153233497Y-111269737D01*
X153379179Y-111209394D01*
X153510289Y-111121789D01*
X153621789Y-111010289D01*
X153709394Y-110879179D01*
X153769737Y-110733497D01*
X153800500Y-110578842D01*
X153800500Y-110421158D01*
X153800500Y-110421155D01*
X153800499Y-110421153D01*
X153774531Y-110290606D01*
X153769737Y-110266503D01*
X153769735Y-110266498D01*
X153709397Y-110120827D01*
X153709390Y-110120814D01*
X153621789Y-109989711D01*
X153621786Y-109989707D01*
X153510292Y-109878213D01*
X153510288Y-109878210D01*
X153379185Y-109790609D01*
X153379172Y-109790602D01*
X153233501Y-109730264D01*
X153233489Y-109730261D01*
X153078845Y-109699500D01*
X153078842Y-109699500D01*
X152921158Y-109699500D01*
X152921155Y-109699500D01*
X152766510Y-109730261D01*
X152766498Y-109730264D01*
X152620827Y-109790602D01*
X152620814Y-109790609D01*
X152489711Y-109878210D01*
X152489707Y-109878213D01*
X152378213Y-109989707D01*
X152378210Y-109989711D01*
X152290609Y-110120814D01*
X152290602Y-110120827D01*
X152230264Y-110266498D01*
X152230261Y-110266510D01*
X152199500Y-110421153D01*
X147553232Y-110421153D01*
X147510292Y-110378213D01*
X147510288Y-110378210D01*
X147379185Y-110290609D01*
X147379172Y-110290602D01*
X147233501Y-110230264D01*
X147233489Y-110230261D01*
X147078845Y-110199500D01*
X147078842Y-110199500D01*
X146921158Y-110199500D01*
X146921155Y-110199500D01*
X146766510Y-110230261D01*
X146766498Y-110230264D01*
X146620827Y-110290602D01*
X146620814Y-110290609D01*
X146489711Y-110378210D01*
X146489707Y-110378213D01*
X146378213Y-110489707D01*
X146378210Y-110489711D01*
X146290609Y-110620814D01*
X146290602Y-110620827D01*
X146230264Y-110766498D01*
X146230261Y-110766510D01*
X146199500Y-110921153D01*
X142750000Y-110921153D01*
X142750000Y-108921153D01*
X163199500Y-108921153D01*
X163199500Y-109078846D01*
X163230261Y-109233489D01*
X163230264Y-109233501D01*
X163290602Y-109379172D01*
X163290609Y-109379185D01*
X163378210Y-109510288D01*
X163378213Y-109510292D01*
X163489707Y-109621786D01*
X163489711Y-109621789D01*
X163620814Y-109709390D01*
X163620827Y-109709397D01*
X163744054Y-109760439D01*
X163798458Y-109804280D01*
X163820523Y-109870574D01*
X163803244Y-109938273D01*
X163752107Y-109985884D01*
X163744054Y-109989561D01*
X163620827Y-110040602D01*
X163620814Y-110040609D01*
X163489711Y-110128210D01*
X163489707Y-110128213D01*
X163378213Y-110239707D01*
X163378210Y-110239711D01*
X163290609Y-110370814D01*
X163290602Y-110370827D01*
X163230264Y-110516498D01*
X163230261Y-110516510D01*
X163199500Y-110671153D01*
X163199500Y-110828846D01*
X163230261Y-110983489D01*
X163230264Y-110983501D01*
X163290602Y-111129172D01*
X163290609Y-111129185D01*
X163378210Y-111260288D01*
X163378213Y-111260292D01*
X163489707Y-111371786D01*
X163489711Y-111371789D01*
X163620814Y-111459390D01*
X163620827Y-111459397D01*
X163766498Y-111519735D01*
X163766503Y-111519737D01*
X163921153Y-111550499D01*
X163921156Y-111550500D01*
X163921158Y-111550500D01*
X164078844Y-111550500D01*
X164078845Y-111550499D01*
X164233497Y-111519737D01*
X164379179Y-111459394D01*
X164510289Y-111371789D01*
X164621789Y-111260289D01*
X164709394Y-111129179D01*
X164769737Y-110983497D01*
X164800500Y-110828842D01*
X164800500Y-110671158D01*
X164800500Y-110671155D01*
X164800499Y-110671153D01*
X164769738Y-110516510D01*
X164769737Y-110516503D01*
X164758640Y-110489712D01*
X164709397Y-110370827D01*
X164709390Y-110370814D01*
X164621789Y-110239711D01*
X164621786Y-110239707D01*
X164510292Y-110128213D01*
X164510288Y-110128210D01*
X164379185Y-110040609D01*
X164379172Y-110040602D01*
X164255945Y-109989561D01*
X164201541Y-109945721D01*
X164179476Y-109879427D01*
X164196755Y-109811727D01*
X164247892Y-109764116D01*
X164255945Y-109760439D01*
X164379172Y-109709397D01*
X164379172Y-109709396D01*
X164379179Y-109709394D01*
X164510289Y-109621789D01*
X164621789Y-109510289D01*
X164709394Y-109379179D01*
X164769737Y-109233497D01*
X164800500Y-109078842D01*
X164800500Y-108921158D01*
X164800500Y-108921155D01*
X164800499Y-108921153D01*
X164769738Y-108766510D01*
X164769737Y-108766503D01*
X164769735Y-108766498D01*
X164709397Y-108620827D01*
X164709390Y-108620814D01*
X164621789Y-108489711D01*
X164621786Y-108489707D01*
X164510292Y-108378213D01*
X164510288Y-108378210D01*
X164379185Y-108290609D01*
X164379172Y-108290602D01*
X164233501Y-108230264D01*
X164233489Y-108230261D01*
X164078845Y-108199500D01*
X164078842Y-108199500D01*
X163921158Y-108199500D01*
X163921155Y-108199500D01*
X163766510Y-108230261D01*
X163766498Y-108230264D01*
X163620827Y-108290602D01*
X163620814Y-108290609D01*
X163489711Y-108378210D01*
X163489707Y-108378213D01*
X163378213Y-108489707D01*
X163378210Y-108489711D01*
X163290609Y-108620814D01*
X163290602Y-108620827D01*
X163230264Y-108766498D01*
X163230261Y-108766510D01*
X163199500Y-108921153D01*
X142750000Y-108921153D01*
X142750000Y-107671153D01*
X164699500Y-107671153D01*
X164699500Y-107828846D01*
X164730261Y-107983489D01*
X164730264Y-107983501D01*
X164790602Y-108129172D01*
X164790609Y-108129185D01*
X164878210Y-108260288D01*
X164878213Y-108260292D01*
X164989707Y-108371786D01*
X164989711Y-108371789D01*
X165120814Y-108459390D01*
X165120827Y-108459397D01*
X165194013Y-108489711D01*
X165266503Y-108519737D01*
X165421153Y-108550499D01*
X165421156Y-108550500D01*
X165421158Y-108550500D01*
X165578844Y-108550500D01*
X165578845Y-108550499D01*
X165733497Y-108519737D01*
X165879179Y-108459394D01*
X166010289Y-108371789D01*
X166121789Y-108260289D01*
X166209394Y-108129179D01*
X166269737Y-107983497D01*
X166300500Y-107828842D01*
X166300500Y-107671158D01*
X166300500Y-107671155D01*
X166300499Y-107671153D01*
X166269738Y-107516510D01*
X166269737Y-107516503D01*
X166230242Y-107421153D01*
X171399500Y-107421153D01*
X171399500Y-107578846D01*
X171430261Y-107733489D01*
X171430264Y-107733501D01*
X171490602Y-107879172D01*
X171490609Y-107879185D01*
X171578210Y-108010288D01*
X171578213Y-108010292D01*
X171689707Y-108121786D01*
X171689711Y-108121789D01*
X171820814Y-108209390D01*
X171820827Y-108209397D01*
X171966498Y-108269735D01*
X171966503Y-108269737D01*
X172121153Y-108300499D01*
X172121156Y-108300500D01*
X172121158Y-108300500D01*
X172278844Y-108300500D01*
X172278845Y-108300499D01*
X172433497Y-108269737D01*
X172579179Y-108209394D01*
X172710289Y-108121789D01*
X172821789Y-108010289D01*
X172909394Y-107879179D01*
X172969737Y-107733497D01*
X173000500Y-107578842D01*
X173000500Y-107421158D01*
X173000500Y-107421155D01*
X173000499Y-107421153D01*
X172969738Y-107266510D01*
X172969737Y-107266503D01*
X172969735Y-107266498D01*
X172909397Y-107120827D01*
X172909390Y-107120814D01*
X172821789Y-106989711D01*
X172821786Y-106989707D01*
X172710292Y-106878213D01*
X172710288Y-106878210D01*
X172579185Y-106790609D01*
X172579172Y-106790602D01*
X172433501Y-106730264D01*
X172433489Y-106730261D01*
X172278845Y-106699500D01*
X172278842Y-106699500D01*
X172121158Y-106699500D01*
X172121155Y-106699500D01*
X171966510Y-106730261D01*
X171966498Y-106730264D01*
X171820827Y-106790602D01*
X171820814Y-106790609D01*
X171689711Y-106878210D01*
X171689707Y-106878213D01*
X171578213Y-106989707D01*
X171578210Y-106989711D01*
X171490609Y-107120814D01*
X171490602Y-107120827D01*
X171430264Y-107266498D01*
X171430261Y-107266510D01*
X171399500Y-107421153D01*
X166230242Y-107421153D01*
X166229933Y-107420408D01*
X166209397Y-107370827D01*
X166209390Y-107370814D01*
X166121789Y-107239711D01*
X166121786Y-107239707D01*
X166010292Y-107128213D01*
X166010288Y-107128210D01*
X165879185Y-107040609D01*
X165879172Y-107040602D01*
X165733501Y-106980264D01*
X165733489Y-106980261D01*
X165578845Y-106949500D01*
X165578842Y-106949500D01*
X165421158Y-106949500D01*
X165421155Y-106949500D01*
X165266510Y-106980261D01*
X165266498Y-106980264D01*
X165120827Y-107040602D01*
X165120814Y-107040609D01*
X164989711Y-107128210D01*
X164989707Y-107128213D01*
X164878213Y-107239707D01*
X164878210Y-107239711D01*
X164790609Y-107370814D01*
X164790602Y-107370827D01*
X164730264Y-107516498D01*
X164730261Y-107516510D01*
X164699500Y-107671153D01*
X142750000Y-107671153D01*
X142750000Y-105921153D01*
X145699500Y-105921153D01*
X145699500Y-106078846D01*
X145730261Y-106233489D01*
X145730264Y-106233501D01*
X145790602Y-106379172D01*
X145790609Y-106379185D01*
X145878210Y-106510288D01*
X145878213Y-106510292D01*
X145989707Y-106621786D01*
X145989711Y-106621789D01*
X146120814Y-106709390D01*
X146120827Y-106709397D01*
X146266498Y-106769735D01*
X146266503Y-106769737D01*
X146421153Y-106800499D01*
X146421156Y-106800500D01*
X146421158Y-106800500D01*
X146578844Y-106800500D01*
X146578845Y-106800499D01*
X146733497Y-106769737D01*
X146879179Y-106709394D01*
X147010289Y-106621789D01*
X147121789Y-106510289D01*
X147209394Y-106379179D01*
X147269737Y-106233497D01*
X147282138Y-106171153D01*
X152199500Y-106171153D01*
X152199500Y-106328846D01*
X152230261Y-106483489D01*
X152230264Y-106483501D01*
X152290602Y-106629172D01*
X152290609Y-106629185D01*
X152378210Y-106760288D01*
X152378213Y-106760292D01*
X152489707Y-106871786D01*
X152489711Y-106871789D01*
X152620814Y-106959390D01*
X152620827Y-106959397D01*
X152694013Y-106989711D01*
X152766503Y-107019737D01*
X152921153Y-107050499D01*
X152921156Y-107050500D01*
X152921158Y-107050500D01*
X153078844Y-107050500D01*
X153078845Y-107050499D01*
X153233497Y-107019737D01*
X153379179Y-106959394D01*
X153510289Y-106871789D01*
X153621789Y-106760289D01*
X153709394Y-106629179D01*
X153769737Y-106483497D01*
X153800500Y-106328842D01*
X153800500Y-106171158D01*
X153800500Y-106171155D01*
X153800499Y-106171153D01*
X153769738Y-106016510D01*
X153769737Y-106016503D01*
X153730242Y-105921153D01*
X153709397Y-105870827D01*
X153709390Y-105870814D01*
X153621789Y-105739711D01*
X153621786Y-105739707D01*
X153510292Y-105628213D01*
X153510288Y-105628210D01*
X153379185Y-105540609D01*
X153379172Y-105540602D01*
X153233501Y-105480264D01*
X153233489Y-105480261D01*
X153078845Y-105449500D01*
X153078842Y-105449500D01*
X152921158Y-105449500D01*
X152921155Y-105449500D01*
X152766510Y-105480261D01*
X152766498Y-105480264D01*
X152620827Y-105540602D01*
X152620814Y-105540609D01*
X152489711Y-105628210D01*
X152489707Y-105628213D01*
X152378213Y-105739707D01*
X152378210Y-105739711D01*
X152290609Y-105870814D01*
X152290602Y-105870827D01*
X152230264Y-106016498D01*
X152230261Y-106016510D01*
X152199500Y-106171153D01*
X147282138Y-106171153D01*
X147288161Y-106140874D01*
X147300500Y-106078844D01*
X147300500Y-105921155D01*
X147300499Y-105921153D01*
X147269738Y-105766510D01*
X147269737Y-105766503D01*
X147269735Y-105766498D01*
X147209397Y-105620827D01*
X147209390Y-105620814D01*
X147121789Y-105489711D01*
X147121786Y-105489707D01*
X147010292Y-105378213D01*
X147010288Y-105378210D01*
X146879185Y-105290609D01*
X146879172Y-105290602D01*
X146733501Y-105230264D01*
X146733489Y-105230261D01*
X146578845Y-105199500D01*
X146578842Y-105199500D01*
X146421158Y-105199500D01*
X146421155Y-105199500D01*
X146266510Y-105230261D01*
X146266498Y-105230264D01*
X146120827Y-105290602D01*
X146120814Y-105290609D01*
X145989711Y-105378210D01*
X145989707Y-105378213D01*
X145878213Y-105489707D01*
X145878210Y-105489711D01*
X145790609Y-105620814D01*
X145790602Y-105620827D01*
X145730264Y-105766498D01*
X145730261Y-105766510D01*
X145699500Y-105921153D01*
X142750000Y-105921153D01*
X142750000Y-104421153D01*
X164699500Y-104421153D01*
X164699500Y-104578846D01*
X164730261Y-104733489D01*
X164730264Y-104733501D01*
X164790602Y-104879172D01*
X164790609Y-104879185D01*
X164878210Y-105010288D01*
X164878213Y-105010292D01*
X164989707Y-105121786D01*
X164989711Y-105121789D01*
X165120814Y-105209390D01*
X165120827Y-105209397D01*
X165266498Y-105269735D01*
X165266503Y-105269737D01*
X165421153Y-105300499D01*
X165421156Y-105300500D01*
X165421158Y-105300500D01*
X165578844Y-105300500D01*
X165578845Y-105300499D01*
X165733497Y-105269737D01*
X165879179Y-105209394D01*
X166010289Y-105121789D01*
X166121789Y-105010289D01*
X166209394Y-104879179D01*
X166269737Y-104733497D01*
X166300500Y-104578842D01*
X166300500Y-104421158D01*
X166300500Y-104421155D01*
X166300499Y-104421153D01*
X166269738Y-104266510D01*
X166269737Y-104266503D01*
X166269735Y-104266498D01*
X166209397Y-104120827D01*
X166209390Y-104120814D01*
X166121789Y-103989711D01*
X166121786Y-103989707D01*
X166010292Y-103878213D01*
X166010288Y-103878210D01*
X165879185Y-103790609D01*
X165879172Y-103790602D01*
X165733501Y-103730264D01*
X165733489Y-103730261D01*
X165578845Y-103699500D01*
X165578842Y-103699500D01*
X165421158Y-103699500D01*
X165421155Y-103699500D01*
X165266510Y-103730261D01*
X165266498Y-103730264D01*
X165120827Y-103790602D01*
X165120814Y-103790609D01*
X164989711Y-103878210D01*
X164989707Y-103878213D01*
X164878213Y-103989707D01*
X164878210Y-103989711D01*
X164790609Y-104120814D01*
X164790602Y-104120827D01*
X164730264Y-104266498D01*
X164730261Y-104266510D01*
X164699500Y-104421153D01*
X142750000Y-104421153D01*
X142750000Y-100909448D01*
X143349500Y-100909448D01*
X143349500Y-101090551D01*
X143377829Y-101269410D01*
X143433787Y-101441636D01*
X143433788Y-101441639D01*
X143516006Y-101602997D01*
X143622441Y-101749494D01*
X143622445Y-101749499D01*
X143750500Y-101877554D01*
X143750505Y-101877558D01*
X143751407Y-101878213D01*
X143897006Y-101983996D01*
X144002484Y-102037740D01*
X144058360Y-102066211D01*
X144058363Y-102066212D01*
X144144476Y-102094191D01*
X144230591Y-102122171D01*
X144313320Y-102135274D01*
X144409449Y-102150500D01*
X144455832Y-102150500D01*
X144522871Y-102170185D01*
X144568626Y-102222989D01*
X144578570Y-102292147D01*
X144558933Y-102343392D01*
X144540610Y-102370812D01*
X144540602Y-102370827D01*
X144480264Y-102516498D01*
X144480261Y-102516510D01*
X144449500Y-102671153D01*
X144449500Y-102828846D01*
X144480261Y-102983489D01*
X144480264Y-102983501D01*
X144540602Y-103129172D01*
X144540609Y-103129185D01*
X144628210Y-103260288D01*
X144628213Y-103260292D01*
X144739707Y-103371786D01*
X144739711Y-103371789D01*
X144870814Y-103459390D01*
X144870827Y-103459397D01*
X145016498Y-103519735D01*
X145016503Y-103519737D01*
X145171153Y-103550499D01*
X145171156Y-103550500D01*
X145171158Y-103550500D01*
X145328844Y-103550500D01*
X145328845Y-103550499D01*
X145483497Y-103519737D01*
X145629179Y-103459394D01*
X145760289Y-103371789D01*
X145871789Y-103260289D01*
X145959394Y-103129179D01*
X145972643Y-103097192D01*
X146016483Y-103042790D01*
X146082776Y-103020724D01*
X146150476Y-103038002D01*
X146174885Y-103056964D01*
X146239707Y-103121786D01*
X146239711Y-103121789D01*
X146370814Y-103209390D01*
X146370827Y-103209397D01*
X146516498Y-103269735D01*
X146516503Y-103269737D01*
X146671153Y-103300499D01*
X146671156Y-103300500D01*
X146671158Y-103300500D01*
X146828844Y-103300500D01*
X146828845Y-103300499D01*
X146983497Y-103269737D01*
X147129179Y-103209394D01*
X147260289Y-103121789D01*
X147371789Y-103010289D01*
X147459394Y-102879179D01*
X147519737Y-102733497D01*
X147522192Y-102721153D01*
X150199500Y-102721153D01*
X150199500Y-102878846D01*
X150230261Y-103033489D01*
X150230264Y-103033501D01*
X150290602Y-103179172D01*
X150290609Y-103179185D01*
X150378210Y-103310288D01*
X150378213Y-103310292D01*
X150489707Y-103421786D01*
X150489711Y-103421789D01*
X150620814Y-103509390D01*
X150620827Y-103509397D01*
X150720060Y-103550500D01*
X150766503Y-103569737D01*
X150921153Y-103600499D01*
X150921156Y-103600500D01*
X150921158Y-103600500D01*
X151078844Y-103600500D01*
X151078845Y-103600499D01*
X151233497Y-103569737D01*
X151379179Y-103509394D01*
X151510289Y-103421789D01*
X151621789Y-103310289D01*
X151709394Y-103179179D01*
X151769737Y-103033497D01*
X151800500Y-102878842D01*
X151800500Y-102721158D01*
X151800500Y-102721155D01*
X151800499Y-102721153D01*
X151780543Y-102620827D01*
X151769737Y-102566503D01*
X151769735Y-102566498D01*
X151709397Y-102420827D01*
X151709390Y-102420814D01*
X151621789Y-102289711D01*
X151621786Y-102289707D01*
X151510292Y-102178213D01*
X151510288Y-102178210D01*
X151379185Y-102090609D01*
X151379172Y-102090602D01*
X151233501Y-102030264D01*
X151233489Y-102030261D01*
X151078845Y-101999500D01*
X151078842Y-101999500D01*
X150921158Y-101999500D01*
X150921155Y-101999500D01*
X150766510Y-102030261D01*
X150766498Y-102030264D01*
X150620827Y-102090602D01*
X150620814Y-102090609D01*
X150489711Y-102178210D01*
X150489707Y-102178213D01*
X150378213Y-102289707D01*
X150378210Y-102289711D01*
X150290609Y-102420814D01*
X150290602Y-102420827D01*
X150230264Y-102566498D01*
X150230261Y-102566510D01*
X150199500Y-102721153D01*
X147522192Y-102721153D01*
X147528216Y-102690874D01*
X147528216Y-102690873D01*
X147550499Y-102578846D01*
X147550500Y-102578844D01*
X147550500Y-102421155D01*
X147550499Y-102421153D01*
X147524531Y-102290606D01*
X147519737Y-102266503D01*
X147519735Y-102266498D01*
X147459397Y-102120827D01*
X147459390Y-102120814D01*
X147371789Y-101989711D01*
X147371786Y-101989707D01*
X147260292Y-101878213D01*
X147260288Y-101878210D01*
X147129185Y-101790609D01*
X147129172Y-101790602D01*
X146983501Y-101730264D01*
X146983489Y-101730261D01*
X146828845Y-101699500D01*
X146828842Y-101699500D01*
X146671158Y-101699500D01*
X146671155Y-101699500D01*
X146516510Y-101730261D01*
X146516498Y-101730264D01*
X146370827Y-101790602D01*
X146370814Y-101790609D01*
X146239711Y-101878210D01*
X146239707Y-101878213D01*
X146128213Y-101989707D01*
X146128210Y-101989711D01*
X146040609Y-102120814D01*
X146040603Y-102120826D01*
X146027355Y-102152809D01*
X145983513Y-102207211D01*
X145917219Y-102229275D01*
X145849520Y-102211995D01*
X145825114Y-102193035D01*
X145760292Y-102128213D01*
X145760288Y-102128210D01*
X145629185Y-102040609D01*
X145629172Y-102040602D01*
X145483501Y-101980264D01*
X145483492Y-101980261D01*
X145430182Y-101969657D01*
X145368271Y-101937271D01*
X145333698Y-101876555D01*
X145337439Y-101806785D01*
X145366695Y-101760358D01*
X145377553Y-101749501D01*
X145483996Y-101602994D01*
X145566211Y-101441639D01*
X145622171Y-101269409D01*
X145645552Y-101121789D01*
X145650500Y-101090551D01*
X145650500Y-100909448D01*
X154549500Y-100909448D01*
X154549500Y-101090551D01*
X154577829Y-101269410D01*
X154633787Y-101441636D01*
X154633788Y-101441639D01*
X154716006Y-101602997D01*
X154822441Y-101749494D01*
X154822445Y-101749499D01*
X154950500Y-101877554D01*
X154950505Y-101877558D01*
X155058879Y-101956296D01*
X155101545Y-102011625D01*
X155107524Y-102081239D01*
X155081852Y-102135274D01*
X155078208Y-102139713D01*
X154990609Y-102270814D01*
X154990602Y-102270827D01*
X154930264Y-102416498D01*
X154930261Y-102416510D01*
X154899500Y-102571153D01*
X154899500Y-102728846D01*
X154930261Y-102883489D01*
X154930264Y-102883501D01*
X154990602Y-103029172D01*
X154990609Y-103029185D01*
X155078210Y-103160288D01*
X155078213Y-103160292D01*
X155189707Y-103271786D01*
X155189711Y-103271789D01*
X155320814Y-103359390D01*
X155320827Y-103359397D01*
X155466498Y-103419735D01*
X155466503Y-103419737D01*
X155621153Y-103450499D01*
X155621156Y-103450500D01*
X155621158Y-103450500D01*
X155778844Y-103450500D01*
X155778845Y-103450499D01*
X155933497Y-103419737D01*
X156079179Y-103359394D01*
X156210289Y-103271789D01*
X156321789Y-103160289D01*
X156409394Y-103029179D01*
X156454139Y-102921153D01*
X159199500Y-102921153D01*
X159199500Y-103078846D01*
X159230261Y-103233489D01*
X159230264Y-103233501D01*
X159290602Y-103379172D01*
X159290609Y-103379185D01*
X159378210Y-103510288D01*
X159378213Y-103510292D01*
X159489707Y-103621786D01*
X159489711Y-103621789D01*
X159620814Y-103709390D01*
X159620827Y-103709397D01*
X159766498Y-103769735D01*
X159766503Y-103769737D01*
X159921153Y-103800499D01*
X159921156Y-103800500D01*
X159921158Y-103800500D01*
X160078844Y-103800500D01*
X160078845Y-103800499D01*
X160233497Y-103769737D01*
X160379179Y-103709394D01*
X160510289Y-103621789D01*
X160621789Y-103510289D01*
X160709394Y-103379179D01*
X160769737Y-103233497D01*
X160800500Y-103078842D01*
X160800500Y-102921158D01*
X160800500Y-102921155D01*
X160800499Y-102921153D01*
X160769737Y-102766503D01*
X160754138Y-102728844D01*
X160709397Y-102620827D01*
X160709390Y-102620814D01*
X160621789Y-102489711D01*
X160621786Y-102489707D01*
X160510292Y-102378213D01*
X160510288Y-102378210D01*
X160379185Y-102290609D01*
X160379172Y-102290602D01*
X160233501Y-102230264D01*
X160233489Y-102230261D01*
X160078845Y-102199500D01*
X160078842Y-102199500D01*
X159921158Y-102199500D01*
X159921155Y-102199500D01*
X159766510Y-102230261D01*
X159766498Y-102230264D01*
X159620827Y-102290602D01*
X159620814Y-102290609D01*
X159489711Y-102378210D01*
X159489707Y-102378213D01*
X159378213Y-102489707D01*
X159378210Y-102489711D01*
X159290609Y-102620814D01*
X159290602Y-102620827D01*
X159230264Y-102766498D01*
X159230261Y-102766510D01*
X159199500Y-102921153D01*
X156454139Y-102921153D01*
X156469737Y-102883497D01*
X156500500Y-102728842D01*
X156500500Y-102571158D01*
X156500500Y-102571155D01*
X156500499Y-102571153D01*
X156470596Y-102420821D01*
X156469737Y-102416503D01*
X156450815Y-102370821D01*
X156409397Y-102270827D01*
X156409390Y-102270814D01*
X156321788Y-102139709D01*
X156318153Y-102135280D01*
X156290839Y-102070970D01*
X156302629Y-102002103D01*
X156341117Y-101956297D01*
X156449501Y-101877553D01*
X156577553Y-101749501D01*
X156683996Y-101602994D01*
X156766211Y-101441639D01*
X156822171Y-101269409D01*
X156845552Y-101121789D01*
X156850500Y-101090551D01*
X156850500Y-100909448D01*
X156834019Y-100805397D01*
X156822171Y-100730591D01*
X156766211Y-100558361D01*
X156766211Y-100558360D01*
X156711203Y-100450403D01*
X156683996Y-100397006D01*
X156591531Y-100269738D01*
X156577558Y-100250505D01*
X156577554Y-100250500D01*
X156449499Y-100122445D01*
X156449494Y-100122441D01*
X156302997Y-100016006D01*
X156302996Y-100016005D01*
X156302994Y-100016004D01*
X156251300Y-99989664D01*
X156141639Y-99933788D01*
X156141636Y-99933787D01*
X155969410Y-99877829D01*
X155790551Y-99849500D01*
X155790546Y-99849500D01*
X155609454Y-99849500D01*
X155609449Y-99849500D01*
X155430589Y-99877829D01*
X155258363Y-99933787D01*
X155258360Y-99933788D01*
X155097002Y-100016006D01*
X154950505Y-100122441D01*
X154950500Y-100122445D01*
X154822445Y-100250500D01*
X154822441Y-100250505D01*
X154716006Y-100397002D01*
X154633788Y-100558360D01*
X154633787Y-100558363D01*
X154577829Y-100730589D01*
X154549500Y-100909448D01*
X145650500Y-100909448D01*
X145634019Y-100805397D01*
X145622171Y-100730591D01*
X145566211Y-100558361D01*
X145566211Y-100558360D01*
X145511203Y-100450403D01*
X145483996Y-100397006D01*
X145391531Y-100269738D01*
X145377558Y-100250505D01*
X145377554Y-100250500D01*
X145249499Y-100122445D01*
X145249494Y-100122441D01*
X145102997Y-100016006D01*
X145102996Y-100016005D01*
X145102994Y-100016004D01*
X145051300Y-99989664D01*
X144941639Y-99933788D01*
X144941636Y-99933787D01*
X144769410Y-99877829D01*
X144590551Y-99849500D01*
X144590546Y-99849500D01*
X144409454Y-99849500D01*
X144409449Y-99849500D01*
X144230589Y-99877829D01*
X144058363Y-99933787D01*
X144058360Y-99933788D01*
X143897002Y-100016006D01*
X143750505Y-100122441D01*
X143750500Y-100122445D01*
X143622445Y-100250500D01*
X143622441Y-100250505D01*
X143516006Y-100397002D01*
X143433788Y-100558360D01*
X143433787Y-100558363D01*
X143377829Y-100730589D01*
X143349500Y-100909448D01*
X142750000Y-100909448D01*
X142750000Y-98671153D01*
X146549500Y-98671153D01*
X146549500Y-98828846D01*
X146580261Y-98983489D01*
X146580264Y-98983501D01*
X146640602Y-99129172D01*
X146640609Y-99129185D01*
X146728210Y-99260288D01*
X146728213Y-99260292D01*
X146839707Y-99371786D01*
X146839711Y-99371789D01*
X146970814Y-99459390D01*
X146970827Y-99459397D01*
X147116498Y-99519735D01*
X147116503Y-99519737D01*
X147271153Y-99550499D01*
X147271156Y-99550500D01*
X147271158Y-99550500D01*
X147428844Y-99550500D01*
X147428845Y-99550499D01*
X147583497Y-99519737D01*
X147729179Y-99459394D01*
X147786411Y-99421153D01*
X148349500Y-99421153D01*
X148349500Y-99578846D01*
X148380261Y-99733489D01*
X148380264Y-99733501D01*
X148440602Y-99879172D01*
X148440609Y-99879185D01*
X148528210Y-100010288D01*
X148528213Y-100010292D01*
X148639707Y-100121786D01*
X148639711Y-100121789D01*
X148770814Y-100209390D01*
X148770827Y-100209397D01*
X148870060Y-100250500D01*
X148916503Y-100269737D01*
X149071153Y-100300499D01*
X149071156Y-100300500D01*
X149071158Y-100300500D01*
X149228844Y-100300500D01*
X149228845Y-100300499D01*
X149383497Y-100269737D01*
X149448033Y-100243005D01*
X149527548Y-100210070D01*
X149597017Y-100202601D01*
X149622452Y-100210070D01*
X149720058Y-100250499D01*
X149766503Y-100269737D01*
X149921153Y-100300499D01*
X149921156Y-100300500D01*
X149921158Y-100300500D01*
X150078844Y-100300500D01*
X150078845Y-100300499D01*
X150233497Y-100269737D01*
X150379179Y-100209394D01*
X150510289Y-100121789D01*
X150621789Y-100010289D01*
X150709394Y-99879179D01*
X150769737Y-99733497D01*
X150800500Y-99578842D01*
X150800500Y-99421158D01*
X150800500Y-99421155D01*
X150800499Y-99421153D01*
X152449500Y-99421153D01*
X152449500Y-99578846D01*
X152480261Y-99733489D01*
X152480264Y-99733501D01*
X152540602Y-99879172D01*
X152540609Y-99879185D01*
X152628210Y-100010288D01*
X152628213Y-100010292D01*
X152739707Y-100121786D01*
X152739711Y-100121789D01*
X152870814Y-100209390D01*
X152870827Y-100209397D01*
X152970060Y-100250500D01*
X153016503Y-100269737D01*
X153171153Y-100300499D01*
X153171156Y-100300500D01*
X153171158Y-100300500D01*
X153328844Y-100300500D01*
X153328845Y-100300499D01*
X153483497Y-100269737D01*
X153629179Y-100209394D01*
X153760289Y-100121789D01*
X153871789Y-100010289D01*
X153959394Y-99879179D01*
X154019737Y-99733497D01*
X154050500Y-99578842D01*
X154050500Y-99421158D01*
X154050500Y-99421155D01*
X154050499Y-99421153D01*
X154032204Y-99329179D01*
X154019737Y-99266503D01*
X153985352Y-99183489D01*
X153959397Y-99120827D01*
X153959390Y-99120814D01*
X153871789Y-98989711D01*
X153871786Y-98989707D01*
X153760292Y-98878213D01*
X153760288Y-98878210D01*
X153629185Y-98790609D01*
X153629172Y-98790602D01*
X153483501Y-98730264D01*
X153483489Y-98730261D01*
X153328845Y-98699500D01*
X153328842Y-98699500D01*
X153171158Y-98699500D01*
X153171155Y-98699500D01*
X153016510Y-98730261D01*
X153016498Y-98730264D01*
X152870827Y-98790602D01*
X152870814Y-98790609D01*
X152739711Y-98878210D01*
X152739707Y-98878213D01*
X152628213Y-98989707D01*
X152628210Y-98989711D01*
X152540609Y-99120814D01*
X152540602Y-99120827D01*
X152480264Y-99266498D01*
X152480261Y-99266510D01*
X152449500Y-99421153D01*
X150800499Y-99421153D01*
X150782204Y-99329179D01*
X150769737Y-99266503D01*
X150735352Y-99183489D01*
X150709397Y-99120827D01*
X150709390Y-99120814D01*
X150621789Y-98989711D01*
X150621786Y-98989707D01*
X150510292Y-98878213D01*
X150510288Y-98878210D01*
X150379185Y-98790609D01*
X150379172Y-98790602D01*
X150233501Y-98730264D01*
X150233489Y-98730261D01*
X150078845Y-98699500D01*
X150078842Y-98699500D01*
X149921158Y-98699500D01*
X149921155Y-98699500D01*
X149766510Y-98730261D01*
X149766498Y-98730264D01*
X149622452Y-98789930D01*
X149552983Y-98797399D01*
X149527548Y-98789930D01*
X149383501Y-98730264D01*
X149383489Y-98730261D01*
X149228845Y-98699500D01*
X149228842Y-98699500D01*
X149071158Y-98699500D01*
X149071155Y-98699500D01*
X148916510Y-98730261D01*
X148916498Y-98730264D01*
X148770827Y-98790602D01*
X148770814Y-98790609D01*
X148639711Y-98878210D01*
X148639707Y-98878213D01*
X148528213Y-98989707D01*
X148528210Y-98989711D01*
X148440609Y-99120814D01*
X148440602Y-99120827D01*
X148380264Y-99266498D01*
X148380261Y-99266510D01*
X148349500Y-99421153D01*
X147786411Y-99421153D01*
X147860289Y-99371789D01*
X147860292Y-99371786D01*
X147904694Y-99327385D01*
X147971786Y-99260292D01*
X147971789Y-99260289D01*
X148059394Y-99129179D01*
X148062854Y-99120827D01*
X148100954Y-99028844D01*
X148119737Y-98983497D01*
X148150500Y-98828842D01*
X148150500Y-98671158D01*
X148150500Y-98671155D01*
X148150499Y-98671153D01*
X148130543Y-98570827D01*
X148119737Y-98516503D01*
X148119735Y-98516498D01*
X148059397Y-98370827D01*
X148059390Y-98370814D01*
X147971789Y-98239711D01*
X147971786Y-98239707D01*
X147860292Y-98128213D01*
X147860288Y-98128210D01*
X147729185Y-98040609D01*
X147729172Y-98040602D01*
X147583501Y-97980264D01*
X147583489Y-97980261D01*
X147428845Y-97949500D01*
X147428842Y-97949500D01*
X147271158Y-97949500D01*
X147271155Y-97949500D01*
X147116510Y-97980261D01*
X147116498Y-97980264D01*
X146970827Y-98040602D01*
X146970814Y-98040609D01*
X146839711Y-98128210D01*
X146839707Y-98128213D01*
X146728213Y-98239707D01*
X146728210Y-98239711D01*
X146640609Y-98370814D01*
X146640602Y-98370827D01*
X146580264Y-98516498D01*
X146580261Y-98516510D01*
X146549500Y-98671153D01*
X142750000Y-98671153D01*
X142750000Y-94750000D01*
X141536319Y-93536319D01*
X141502834Y-93474996D01*
X141500000Y-93448638D01*
X141500000Y-84421153D01*
X142699500Y-84421153D01*
X142699500Y-84578846D01*
X142730261Y-84733489D01*
X142730264Y-84733501D01*
X142790602Y-84879172D01*
X142790609Y-84879185D01*
X142878210Y-85010288D01*
X142878213Y-85010292D01*
X142989707Y-85121786D01*
X142989711Y-85121789D01*
X143120814Y-85209390D01*
X143120827Y-85209397D01*
X143194013Y-85239711D01*
X143266503Y-85269737D01*
X143417262Y-85299725D01*
X143421153Y-85300499D01*
X143421156Y-85300500D01*
X143421158Y-85300500D01*
X143578844Y-85300500D01*
X143578845Y-85300499D01*
X143733497Y-85269737D01*
X143879179Y-85209394D01*
X144010289Y-85121789D01*
X144010294Y-85121783D01*
X144012928Y-85120024D01*
X144079606Y-85099146D01*
X144146986Y-85117630D01*
X144193676Y-85169608D01*
X144204853Y-85238578D01*
X144199752Y-85261442D01*
X144187062Y-85300500D01*
X144182753Y-85313761D01*
X144149500Y-85523713D01*
X144149500Y-85736286D01*
X144182753Y-85946239D01*
X144248444Y-86148414D01*
X144344951Y-86337820D01*
X144469890Y-86509786D01*
X144620213Y-86660109D01*
X144792182Y-86785050D01*
X144800946Y-86789516D01*
X144851742Y-86837491D01*
X144868536Y-86905312D01*
X144845998Y-86971447D01*
X144800946Y-87010484D01*
X144792182Y-87014949D01*
X144620213Y-87139890D01*
X144469890Y-87290213D01*
X144344951Y-87462179D01*
X144248444Y-87651585D01*
X144182753Y-87853760D01*
X144149500Y-88063713D01*
X144149500Y-88276286D01*
X144182753Y-88486239D01*
X144248444Y-88688414D01*
X144344951Y-88877820D01*
X144469890Y-89049786D01*
X144620213Y-89200109D01*
X144792182Y-89325050D01*
X144800946Y-89329516D01*
X144851742Y-89377491D01*
X144868536Y-89445312D01*
X144845998Y-89511447D01*
X144800946Y-89550484D01*
X144792182Y-89554949D01*
X144620213Y-89679890D01*
X144469890Y-89830213D01*
X144344951Y-90002179D01*
X144248444Y-90191585D01*
X144182753Y-90393760D01*
X144149500Y-90603713D01*
X144149500Y-90816286D01*
X144175983Y-90983497D01*
X144182754Y-91026243D01*
X144226182Y-91159901D01*
X144248444Y-91228414D01*
X144344951Y-91417820D01*
X144469890Y-91589786D01*
X144620213Y-91740109D01*
X144792182Y-91865050D01*
X144800946Y-91869516D01*
X144851742Y-91917491D01*
X144868536Y-91985312D01*
X144845998Y-92051447D01*
X144800946Y-92090484D01*
X144792182Y-92094949D01*
X144620213Y-92219890D01*
X144469890Y-92370213D01*
X144344951Y-92542179D01*
X144248444Y-92731585D01*
X144182753Y-92933760D01*
X144149500Y-93143713D01*
X144149500Y-93356286D01*
X144174834Y-93516243D01*
X144182754Y-93566243D01*
X144245803Y-93760288D01*
X144248444Y-93768414D01*
X144344951Y-93957820D01*
X144469890Y-94129786D01*
X144583430Y-94243326D01*
X144616915Y-94304649D01*
X144611931Y-94374341D01*
X144570059Y-94430274D01*
X144539083Y-94447189D01*
X144407669Y-94496203D01*
X144407664Y-94496206D01*
X144292455Y-94582452D01*
X144292452Y-94582455D01*
X144206206Y-94697664D01*
X144206202Y-94697671D01*
X144155908Y-94832517D01*
X144152931Y-94860213D01*
X144149501Y-94892123D01*
X144149500Y-94892135D01*
X144149500Y-96687870D01*
X144149501Y-96687876D01*
X144155908Y-96747483D01*
X144206202Y-96882328D01*
X144206206Y-96882335D01*
X144292452Y-96997544D01*
X144292455Y-96997547D01*
X144407664Y-97083793D01*
X144407671Y-97083797D01*
X144542517Y-97134091D01*
X144542516Y-97134091D01*
X144549444Y-97134835D01*
X144602127Y-97140500D01*
X146397872Y-97140499D01*
X146457483Y-97134091D01*
X146592331Y-97083796D01*
X146707546Y-96997546D01*
X146793796Y-96882331D01*
X146844091Y-96747483D01*
X146850500Y-96687873D01*
X146850499Y-95671153D01*
X149699500Y-95671153D01*
X149699500Y-95828846D01*
X149730261Y-95983489D01*
X149730264Y-95983501D01*
X149790602Y-96129172D01*
X149790609Y-96129185D01*
X149878210Y-96260288D01*
X149878213Y-96260292D01*
X149989707Y-96371786D01*
X149989711Y-96371789D01*
X150120814Y-96459390D01*
X150120827Y-96459397D01*
X150266498Y-96519735D01*
X150266503Y-96519737D01*
X150421153Y-96550499D01*
X150421156Y-96550500D01*
X150421158Y-96550500D01*
X150578844Y-96550500D01*
X150578845Y-96550499D01*
X150733497Y-96519737D01*
X150879179Y-96459394D01*
X151010289Y-96371789D01*
X151085644Y-96296433D01*
X151146965Y-96262950D01*
X151216657Y-96267934D01*
X151272591Y-96309805D01*
X151283806Y-96327817D01*
X151306212Y-96371790D01*
X151344951Y-96447820D01*
X151469890Y-96619786D01*
X151620211Y-96770107D01*
X151626808Y-96774900D01*
X151669473Y-96830231D01*
X151675451Y-96899844D01*
X151642844Y-96961639D01*
X151582005Y-96995995D01*
X151512249Y-96992005D01*
X151506469Y-96989778D01*
X151483501Y-96980264D01*
X151483489Y-96980261D01*
X151328845Y-96949500D01*
X151328842Y-96949500D01*
X151171158Y-96949500D01*
X151171155Y-96949500D01*
X151016510Y-96980261D01*
X151016498Y-96980264D01*
X150870827Y-97040602D01*
X150870814Y-97040609D01*
X150739711Y-97128210D01*
X150739707Y-97128213D01*
X150628213Y-97239707D01*
X150628210Y-97239711D01*
X150540609Y-97370814D01*
X150540602Y-97370827D01*
X150480264Y-97516498D01*
X150480261Y-97516510D01*
X150449500Y-97671153D01*
X150449500Y-97828846D01*
X150480261Y-97983489D01*
X150480264Y-97983501D01*
X150540602Y-98129172D01*
X150540609Y-98129185D01*
X150628210Y-98260288D01*
X150628213Y-98260292D01*
X150739707Y-98371786D01*
X150739711Y-98371789D01*
X150870814Y-98459390D01*
X150870827Y-98459397D01*
X150944013Y-98489711D01*
X151016503Y-98519737D01*
X151171153Y-98550499D01*
X151171156Y-98550500D01*
X151171158Y-98550500D01*
X151328844Y-98550500D01*
X151328845Y-98550499D01*
X151483497Y-98519737D01*
X151629179Y-98459394D01*
X151760289Y-98371789D01*
X151871789Y-98260289D01*
X151959394Y-98129179D01*
X152019737Y-97983497D01*
X152050500Y-97828842D01*
X152050500Y-97671158D01*
X152050500Y-97671155D01*
X152039036Y-97613523D01*
X152039036Y-97613522D01*
X152035435Y-97595418D01*
X155873765Y-97595418D01*
X155873765Y-97753111D01*
X155904526Y-97907754D01*
X155904529Y-97907766D01*
X155964867Y-98053437D01*
X155964874Y-98053450D01*
X156052475Y-98184553D01*
X156052478Y-98184557D01*
X156163972Y-98296051D01*
X156163976Y-98296054D01*
X156295079Y-98383655D01*
X156295092Y-98383662D01*
X156440763Y-98444000D01*
X156440768Y-98444002D01*
X156595418Y-98474764D01*
X156595421Y-98474765D01*
X156595423Y-98474765D01*
X156753109Y-98474765D01*
X156753110Y-98474764D01*
X156907762Y-98444002D01*
X157053444Y-98383659D01*
X157184554Y-98296054D01*
X157296054Y-98184554D01*
X157383659Y-98053444D01*
X157383663Y-98053433D01*
X157386262Y-98048571D01*
X157435219Y-97998721D01*
X157471431Y-97985396D01*
X157551788Y-97969413D01*
X157697470Y-97909070D01*
X157828580Y-97821465D01*
X157940080Y-97709965D01*
X158027685Y-97578855D01*
X158088028Y-97433173D01*
X158090419Y-97421153D01*
X160137000Y-97421153D01*
X160137000Y-97578846D01*
X160167761Y-97733489D01*
X160167764Y-97733501D01*
X160228102Y-97879172D01*
X160228109Y-97879185D01*
X160315710Y-98010288D01*
X160315713Y-98010292D01*
X160427207Y-98121786D01*
X160427211Y-98121789D01*
X160558314Y-98209390D01*
X160558327Y-98209397D01*
X160703998Y-98269735D01*
X160704003Y-98269737D01*
X160836292Y-98296051D01*
X160858653Y-98300499D01*
X160858656Y-98300500D01*
X160858658Y-98300500D01*
X161016344Y-98300500D01*
X161016345Y-98300499D01*
X161170997Y-98269737D01*
X161316679Y-98209394D01*
X161397746Y-98155226D01*
X161464422Y-98134349D01*
X161531802Y-98152833D01*
X161578492Y-98204811D01*
X161589669Y-98273781D01*
X161569739Y-98327219D01*
X161540608Y-98370816D01*
X161540602Y-98370827D01*
X161480264Y-98516498D01*
X161480261Y-98516510D01*
X161449500Y-98671153D01*
X161449500Y-98828846D01*
X161480261Y-98983489D01*
X161480264Y-98983501D01*
X161540602Y-99129172D01*
X161540609Y-99129185D01*
X161628210Y-99260288D01*
X161628213Y-99260292D01*
X161739707Y-99371786D01*
X161739711Y-99371789D01*
X161870814Y-99459390D01*
X161870827Y-99459397D01*
X161994054Y-99510439D01*
X162048458Y-99554280D01*
X162070523Y-99620574D01*
X162053244Y-99688273D01*
X162002107Y-99735884D01*
X161994054Y-99739561D01*
X161870827Y-99790602D01*
X161870814Y-99790609D01*
X161739711Y-99878210D01*
X161739707Y-99878213D01*
X161628213Y-99989707D01*
X161628210Y-99989711D01*
X161540609Y-100120814D01*
X161540602Y-100120827D01*
X161480264Y-100266498D01*
X161480261Y-100266510D01*
X161449500Y-100421153D01*
X161449500Y-100578846D01*
X161480261Y-100733489D01*
X161480264Y-100733501D01*
X161540602Y-100879172D01*
X161540609Y-100879185D01*
X161628210Y-101010288D01*
X161628213Y-101010292D01*
X161739707Y-101121786D01*
X161739711Y-101121789D01*
X161870814Y-101209390D01*
X161870827Y-101209397D01*
X162016498Y-101269735D01*
X162016503Y-101269737D01*
X162171153Y-101300499D01*
X162171156Y-101300500D01*
X162171158Y-101300500D01*
X162328844Y-101300500D01*
X162328845Y-101300499D01*
X162483497Y-101269737D01*
X162629179Y-101209394D01*
X162760289Y-101121789D01*
X162871789Y-101010289D01*
X162922398Y-100934548D01*
X162976010Y-100889743D01*
X163045335Y-100881036D01*
X163108363Y-100911190D01*
X163145082Y-100970634D01*
X163149500Y-101003439D01*
X163149500Y-101090551D01*
X163177829Y-101269410D01*
X163233787Y-101441636D01*
X163233788Y-101441639D01*
X163316006Y-101602997D01*
X163422441Y-101749494D01*
X163422445Y-101749499D01*
X163550500Y-101877554D01*
X163550505Y-101877558D01*
X163658879Y-101956296D01*
X163701545Y-102011625D01*
X163707524Y-102081239D01*
X163681852Y-102135274D01*
X163678208Y-102139713D01*
X163590609Y-102270814D01*
X163590602Y-102270827D01*
X163530264Y-102416498D01*
X163530261Y-102416510D01*
X163499500Y-102571153D01*
X163499500Y-102728846D01*
X163530261Y-102883489D01*
X163530264Y-102883501D01*
X163590602Y-103029172D01*
X163590609Y-103029185D01*
X163678210Y-103160288D01*
X163678213Y-103160292D01*
X163789707Y-103271786D01*
X163789711Y-103271789D01*
X163920814Y-103359390D01*
X163920827Y-103359397D01*
X164066498Y-103419735D01*
X164066503Y-103419737D01*
X164221153Y-103450499D01*
X164221156Y-103450500D01*
X164221158Y-103450500D01*
X164378844Y-103450500D01*
X164378845Y-103450499D01*
X164533497Y-103419737D01*
X164679179Y-103359394D01*
X164810289Y-103271789D01*
X164921789Y-103160289D01*
X165009394Y-103029179D01*
X165069737Y-102883497D01*
X165100500Y-102728842D01*
X165100500Y-102721153D01*
X168199500Y-102721153D01*
X168199500Y-102878846D01*
X168230261Y-103033489D01*
X168230264Y-103033501D01*
X168290602Y-103179172D01*
X168290609Y-103179185D01*
X168378210Y-103310288D01*
X168378213Y-103310292D01*
X168489707Y-103421786D01*
X168489711Y-103421789D01*
X168620814Y-103509390D01*
X168620827Y-103509397D01*
X168720060Y-103550500D01*
X168766503Y-103569737D01*
X168921153Y-103600499D01*
X168921156Y-103600500D01*
X168921158Y-103600500D01*
X169078844Y-103600500D01*
X169078845Y-103600499D01*
X169233497Y-103569737D01*
X169379179Y-103509394D01*
X169510289Y-103421789D01*
X169621789Y-103310289D01*
X169709394Y-103179179D01*
X169769737Y-103033497D01*
X169800500Y-102878842D01*
X169800500Y-102721158D01*
X169800500Y-102721155D01*
X169800499Y-102721153D01*
X169780543Y-102620827D01*
X169769737Y-102566503D01*
X169769735Y-102566498D01*
X169709397Y-102420827D01*
X169709390Y-102420814D01*
X169621789Y-102289711D01*
X169621786Y-102289707D01*
X169510292Y-102178213D01*
X169510288Y-102178210D01*
X169379185Y-102090609D01*
X169379172Y-102090602D01*
X169233501Y-102030264D01*
X169233489Y-102030261D01*
X169078845Y-101999500D01*
X169078842Y-101999500D01*
X168921158Y-101999500D01*
X168921155Y-101999500D01*
X168766510Y-102030261D01*
X168766498Y-102030264D01*
X168620827Y-102090602D01*
X168620814Y-102090609D01*
X168489711Y-102178210D01*
X168489707Y-102178213D01*
X168378213Y-102289707D01*
X168378210Y-102289711D01*
X168290609Y-102420814D01*
X168290602Y-102420827D01*
X168230264Y-102566498D01*
X168230261Y-102566510D01*
X168199500Y-102721153D01*
X165100500Y-102721153D01*
X165100500Y-102571158D01*
X165100500Y-102571155D01*
X165100499Y-102571153D01*
X165070596Y-102420821D01*
X165069737Y-102416503D01*
X165050815Y-102370821D01*
X165009397Y-102270827D01*
X165009390Y-102270814D01*
X164921788Y-102139709D01*
X164918153Y-102135280D01*
X164890839Y-102070970D01*
X164902629Y-102002103D01*
X164941117Y-101956297D01*
X165049501Y-101877553D01*
X165177553Y-101749501D01*
X165283996Y-101602994D01*
X165366211Y-101441639D01*
X165422171Y-101269409D01*
X165445552Y-101121789D01*
X165450500Y-101090551D01*
X165450500Y-100909448D01*
X174349500Y-100909448D01*
X174349500Y-101090551D01*
X174377829Y-101269410D01*
X174433787Y-101441636D01*
X174433788Y-101441639D01*
X174516006Y-101602997D01*
X174622441Y-101749494D01*
X174622445Y-101749499D01*
X174750500Y-101877554D01*
X174750505Y-101877558D01*
X174858879Y-101956296D01*
X174901545Y-102011625D01*
X174907524Y-102081239D01*
X174881852Y-102135274D01*
X174878208Y-102139713D01*
X174790609Y-102270814D01*
X174790602Y-102270827D01*
X174730264Y-102416498D01*
X174730261Y-102416510D01*
X174699500Y-102571153D01*
X174699500Y-102728846D01*
X174730261Y-102883489D01*
X174730264Y-102883501D01*
X174790602Y-103029172D01*
X174790609Y-103029185D01*
X174878210Y-103160288D01*
X174878213Y-103160292D01*
X174989707Y-103271786D01*
X174989711Y-103271789D01*
X175120814Y-103359390D01*
X175120827Y-103359397D01*
X175266498Y-103419735D01*
X175266503Y-103419737D01*
X175421153Y-103450499D01*
X175421156Y-103450500D01*
X175421158Y-103450500D01*
X175578844Y-103450500D01*
X175578845Y-103450499D01*
X175733497Y-103419737D01*
X175879179Y-103359394D01*
X176010289Y-103271789D01*
X176121789Y-103160289D01*
X176209394Y-103029179D01*
X176269737Y-102883497D01*
X176300500Y-102728842D01*
X176300500Y-102571158D01*
X176300500Y-102571155D01*
X176300499Y-102571153D01*
X176270596Y-102420821D01*
X176269737Y-102416503D01*
X176250815Y-102370821D01*
X176209397Y-102270827D01*
X176209390Y-102270814D01*
X176121788Y-102139709D01*
X176118153Y-102135280D01*
X176090839Y-102070970D01*
X176102629Y-102002103D01*
X176141117Y-101956297D01*
X176249501Y-101877553D01*
X176377553Y-101749501D01*
X176483996Y-101602994D01*
X176566211Y-101441639D01*
X176622171Y-101269409D01*
X176645552Y-101121789D01*
X176650500Y-101090551D01*
X176650500Y-100909448D01*
X176634019Y-100805397D01*
X176622171Y-100730591D01*
X176566211Y-100558361D01*
X176566211Y-100558360D01*
X176511203Y-100450403D01*
X176483996Y-100397006D01*
X176391531Y-100269738D01*
X176377558Y-100250505D01*
X176377554Y-100250500D01*
X176249499Y-100122445D01*
X176249494Y-100122441D01*
X176102997Y-100016006D01*
X176102996Y-100016005D01*
X176102994Y-100016004D01*
X176051300Y-99989664D01*
X175941639Y-99933788D01*
X175941636Y-99933787D01*
X175769410Y-99877829D01*
X175590551Y-99849500D01*
X175590546Y-99849500D01*
X175409454Y-99849500D01*
X175409449Y-99849500D01*
X175230589Y-99877829D01*
X175058363Y-99933787D01*
X175058360Y-99933788D01*
X174897002Y-100016006D01*
X174750505Y-100122441D01*
X174750500Y-100122445D01*
X174622445Y-100250500D01*
X174622441Y-100250505D01*
X174516006Y-100397002D01*
X174433788Y-100558360D01*
X174433787Y-100558363D01*
X174377829Y-100730589D01*
X174349500Y-100909448D01*
X165450500Y-100909448D01*
X165434019Y-100805397D01*
X165422171Y-100730591D01*
X165366211Y-100558361D01*
X165366211Y-100558360D01*
X165311203Y-100450403D01*
X165283996Y-100397006D01*
X165191531Y-100269738D01*
X165177558Y-100250505D01*
X165177554Y-100250500D01*
X165049499Y-100122445D01*
X165049494Y-100122441D01*
X164902997Y-100016006D01*
X164902996Y-100016005D01*
X164902994Y-100016004D01*
X164851300Y-99989664D01*
X164741639Y-99933788D01*
X164741636Y-99933787D01*
X164569410Y-99877829D01*
X164390551Y-99849500D01*
X164390546Y-99849500D01*
X164209454Y-99849500D01*
X164209449Y-99849500D01*
X164030589Y-99877829D01*
X163858363Y-99933787D01*
X163858360Y-99933788D01*
X163697002Y-100016006D01*
X163550505Y-100122441D01*
X163550500Y-100122445D01*
X163422445Y-100250500D01*
X163422441Y-100250505D01*
X163316005Y-100397002D01*
X163283871Y-100460068D01*
X163235896Y-100510863D01*
X163168074Y-100527657D01*
X163101940Y-100505118D01*
X163058489Y-100450403D01*
X163052709Y-100426929D01*
X163051689Y-100427132D01*
X163019738Y-100266510D01*
X163019737Y-100266503D01*
X163019735Y-100266498D01*
X162959397Y-100120827D01*
X162959390Y-100120814D01*
X162871789Y-99989711D01*
X162871786Y-99989707D01*
X162760292Y-99878213D01*
X162760288Y-99878210D01*
X162629185Y-99790609D01*
X162629172Y-99790602D01*
X162505945Y-99739561D01*
X162451541Y-99695721D01*
X162429476Y-99629427D01*
X162446755Y-99561727D01*
X162497892Y-99514116D01*
X162505945Y-99510439D01*
X162629172Y-99459397D01*
X162629172Y-99459396D01*
X162629179Y-99459394D01*
X162760289Y-99371789D01*
X162871789Y-99260289D01*
X162959394Y-99129179D01*
X162962854Y-99120827D01*
X163000954Y-99028844D01*
X163019737Y-98983497D01*
X163034715Y-98908194D01*
X163042084Y-98871153D01*
X165949500Y-98871153D01*
X165949500Y-99028846D01*
X165980261Y-99183489D01*
X165980264Y-99183501D01*
X166040602Y-99329172D01*
X166040609Y-99329185D01*
X166128210Y-99460288D01*
X166128213Y-99460292D01*
X166239707Y-99571786D01*
X166239711Y-99571789D01*
X166370814Y-99659390D01*
X166370827Y-99659397D01*
X166516498Y-99719735D01*
X166516503Y-99719737D01*
X166671153Y-99750499D01*
X166671156Y-99750500D01*
X166671158Y-99750500D01*
X166828844Y-99750500D01*
X166828845Y-99750499D01*
X166983497Y-99719737D01*
X167129179Y-99659394D01*
X167260289Y-99571789D01*
X167371789Y-99460289D01*
X167459394Y-99329179D01*
X167519737Y-99183497D01*
X167550500Y-99028842D01*
X167550500Y-98871158D01*
X167550500Y-98871155D01*
X167550499Y-98871153D01*
X167544476Y-98840874D01*
X167519737Y-98716503D01*
X167500955Y-98671158D01*
X167459397Y-98570827D01*
X167459390Y-98570814D01*
X167371789Y-98439711D01*
X167371786Y-98439707D01*
X167260292Y-98328213D01*
X167260288Y-98328210D01*
X167129185Y-98240609D01*
X167129172Y-98240602D01*
X166983501Y-98180264D01*
X166983489Y-98180261D01*
X166828845Y-98149500D01*
X166828842Y-98149500D01*
X166671158Y-98149500D01*
X166671155Y-98149500D01*
X166516510Y-98180261D01*
X166516498Y-98180264D01*
X166370827Y-98240602D01*
X166370814Y-98240609D01*
X166239711Y-98328210D01*
X166239707Y-98328213D01*
X166128213Y-98439707D01*
X166128210Y-98439711D01*
X166040609Y-98570814D01*
X166040602Y-98570827D01*
X165980264Y-98716498D01*
X165980261Y-98716510D01*
X165949500Y-98871153D01*
X163042084Y-98871153D01*
X163048107Y-98840875D01*
X163048107Y-98840874D01*
X163050500Y-98828844D01*
X163050500Y-98671155D01*
X163050499Y-98671153D01*
X163030543Y-98570827D01*
X163019737Y-98516503D01*
X163019735Y-98516498D01*
X162959397Y-98370827D01*
X162959390Y-98370814D01*
X162871789Y-98239711D01*
X162871786Y-98239707D01*
X162760292Y-98128213D01*
X162760288Y-98128210D01*
X162629185Y-98040609D01*
X162629172Y-98040602D01*
X162483501Y-97980264D01*
X162483489Y-97980261D01*
X162328845Y-97949500D01*
X162328842Y-97949500D01*
X162171158Y-97949500D01*
X162171155Y-97949500D01*
X162016510Y-97980261D01*
X162016498Y-97980264D01*
X161870827Y-98040602D01*
X161870816Y-98040608D01*
X161789753Y-98094773D01*
X161723076Y-98115650D01*
X161655696Y-98097165D01*
X161609006Y-98045186D01*
X161597830Y-97976216D01*
X161617762Y-97922778D01*
X161646889Y-97879186D01*
X161646890Y-97879185D01*
X161646894Y-97879179D01*
X161707237Y-97733497D01*
X161738000Y-97578842D01*
X161738000Y-97421158D01*
X161738000Y-97421155D01*
X161737999Y-97421153D01*
X161719637Y-97328842D01*
X161707237Y-97266503D01*
X161707235Y-97266498D01*
X161667742Y-97171153D01*
X171449500Y-97171153D01*
X171449500Y-97328846D01*
X171480261Y-97483489D01*
X171480264Y-97483501D01*
X171540602Y-97629172D01*
X171540609Y-97629185D01*
X171628210Y-97760288D01*
X171628213Y-97760292D01*
X171739707Y-97871786D01*
X171739711Y-97871789D01*
X171870814Y-97959390D01*
X171870827Y-97959397D01*
X171994054Y-98010439D01*
X172048458Y-98054280D01*
X172070523Y-98120574D01*
X172053244Y-98188273D01*
X172002107Y-98235884D01*
X171994054Y-98239561D01*
X171870827Y-98290602D01*
X171870814Y-98290609D01*
X171739711Y-98378210D01*
X171739707Y-98378213D01*
X171628213Y-98489707D01*
X171628210Y-98489711D01*
X171540609Y-98620814D01*
X171540602Y-98620827D01*
X171480264Y-98766498D01*
X171480261Y-98766510D01*
X171449500Y-98921153D01*
X171449500Y-99078846D01*
X171480261Y-99233489D01*
X171480264Y-99233501D01*
X171540602Y-99379172D01*
X171540609Y-99379185D01*
X171628210Y-99510288D01*
X171628213Y-99510292D01*
X171739707Y-99621786D01*
X171739711Y-99621789D01*
X171870814Y-99709390D01*
X171870827Y-99709397D01*
X171970060Y-99750500D01*
X172016503Y-99769737D01*
X172171153Y-99800499D01*
X172171156Y-99800500D01*
X172171158Y-99800500D01*
X172328844Y-99800500D01*
X172328845Y-99800499D01*
X172483497Y-99769737D01*
X172629179Y-99709394D01*
X172760289Y-99621789D01*
X172871789Y-99510289D01*
X172959394Y-99379179D01*
X173019737Y-99233497D01*
X173050500Y-99078842D01*
X173050500Y-98921158D01*
X173050500Y-98921155D01*
X173050499Y-98921153D01*
X173040553Y-98871153D01*
X173019737Y-98766503D01*
X173019735Y-98766498D01*
X172959397Y-98620827D01*
X172959390Y-98620814D01*
X172871789Y-98489711D01*
X172871786Y-98489707D01*
X172760292Y-98378213D01*
X172760288Y-98378210D01*
X172629185Y-98290609D01*
X172629172Y-98290602D01*
X172505945Y-98239561D01*
X172451541Y-98195721D01*
X172429476Y-98129427D01*
X172446755Y-98061727D01*
X172497892Y-98014116D01*
X172505945Y-98010439D01*
X172629172Y-97959397D01*
X172629172Y-97959396D01*
X172629179Y-97959394D01*
X172760289Y-97871789D01*
X172871789Y-97760289D01*
X172959394Y-97629179D01*
X173019737Y-97483497D01*
X173050500Y-97328842D01*
X173050500Y-97171158D01*
X173050500Y-97171155D01*
X173050499Y-97171153D01*
X173044402Y-97140500D01*
X173019737Y-97016503D01*
X173011884Y-96997544D01*
X172959397Y-96870827D01*
X172959390Y-96870814D01*
X172871789Y-96739711D01*
X172871786Y-96739707D01*
X172760292Y-96628213D01*
X172760288Y-96628210D01*
X172629185Y-96540609D01*
X172629172Y-96540602D01*
X172483501Y-96480264D01*
X172483489Y-96480261D01*
X172328845Y-96449500D01*
X172328842Y-96449500D01*
X172171158Y-96449500D01*
X172171155Y-96449500D01*
X172016510Y-96480261D01*
X172016498Y-96480264D01*
X171870827Y-96540602D01*
X171870814Y-96540609D01*
X171739711Y-96628210D01*
X171739707Y-96628213D01*
X171628213Y-96739707D01*
X171628210Y-96739711D01*
X171540609Y-96870814D01*
X171540602Y-96870827D01*
X171480264Y-97016498D01*
X171480261Y-97016510D01*
X171449500Y-97171153D01*
X161667742Y-97171153D01*
X161646897Y-97120827D01*
X161646890Y-97120814D01*
X161559289Y-96989711D01*
X161559286Y-96989707D01*
X161447792Y-96878213D01*
X161447788Y-96878210D01*
X161316685Y-96790609D01*
X161316672Y-96790602D01*
X161171001Y-96730264D01*
X161170989Y-96730261D01*
X161016345Y-96699500D01*
X161016342Y-96699500D01*
X160858658Y-96699500D01*
X160858655Y-96699500D01*
X160704010Y-96730261D01*
X160703998Y-96730264D01*
X160558327Y-96790602D01*
X160558314Y-96790609D01*
X160427211Y-96878210D01*
X160427207Y-96878213D01*
X160315713Y-96989707D01*
X160315710Y-96989711D01*
X160228109Y-97120814D01*
X160228102Y-97120827D01*
X160167764Y-97266498D01*
X160167761Y-97266510D01*
X160137000Y-97421153D01*
X158090419Y-97421153D01*
X158096442Y-97390874D01*
X158118791Y-97278520D01*
X158118791Y-97120831D01*
X158118790Y-97120829D01*
X158105194Y-97052478D01*
X158088028Y-96966179D01*
X158088026Y-96966174D01*
X158027688Y-96820503D01*
X158027681Y-96820490D01*
X157940080Y-96689387D01*
X157940077Y-96689383D01*
X157828583Y-96577889D01*
X157828579Y-96577886D01*
X157697476Y-96490285D01*
X157697463Y-96490278D01*
X157551792Y-96429940D01*
X157551780Y-96429937D01*
X157397136Y-96399176D01*
X157397133Y-96399176D01*
X157239449Y-96399176D01*
X157239446Y-96399176D01*
X157084801Y-96429937D01*
X157084789Y-96429940D01*
X156939118Y-96490278D01*
X156939105Y-96490285D01*
X156808002Y-96577886D01*
X156807998Y-96577889D01*
X156696504Y-96689383D01*
X156696498Y-96689391D01*
X156608900Y-96820491D01*
X156606282Y-96825389D01*
X156557315Y-96875229D01*
X156521120Y-96888544D01*
X156440773Y-96904526D01*
X156440763Y-96904529D01*
X156295092Y-96964867D01*
X156295079Y-96964874D01*
X156163976Y-97052475D01*
X156163972Y-97052478D01*
X156052478Y-97163972D01*
X156052475Y-97163976D01*
X155964874Y-97295079D01*
X155964867Y-97295092D01*
X155904529Y-97440763D01*
X155904526Y-97440775D01*
X155873765Y-97595418D01*
X152035435Y-97595418D01*
X152019738Y-97516510D01*
X152019737Y-97516503D01*
X151967701Y-97390875D01*
X151959397Y-97370827D01*
X151959390Y-97370814D01*
X151871789Y-97239711D01*
X151871786Y-97239707D01*
X151805378Y-97173299D01*
X151771893Y-97111976D01*
X151776877Y-97042284D01*
X151818749Y-96986351D01*
X151884213Y-96961934D01*
X151949354Y-96975133D01*
X151981588Y-96991557D01*
X152183757Y-97057246D01*
X152393713Y-97090500D01*
X152393714Y-97090500D01*
X152606286Y-97090500D01*
X152606287Y-97090500D01*
X152816243Y-97057246D01*
X153018412Y-96991557D01*
X153207816Y-96895051D01*
X153297034Y-96830231D01*
X153379786Y-96770109D01*
X153379788Y-96770106D01*
X153379792Y-96770104D01*
X153530104Y-96619792D01*
X153530106Y-96619788D01*
X153530109Y-96619786D01*
X153649899Y-96454907D01*
X153655051Y-96447816D01*
X153751557Y-96258412D01*
X153817246Y-96056243D01*
X153826647Y-95996888D01*
X154275235Y-95996888D01*
X154275235Y-96154581D01*
X154305996Y-96309224D01*
X154305999Y-96309236D01*
X154366337Y-96454907D01*
X154366344Y-96454920D01*
X154453945Y-96586023D01*
X154453948Y-96586027D01*
X154565442Y-96697521D01*
X154565446Y-96697524D01*
X154696549Y-96785125D01*
X154696562Y-96785132D01*
X154842233Y-96845470D01*
X154842238Y-96845472D01*
X154974527Y-96871786D01*
X154996888Y-96876234D01*
X154996891Y-96876235D01*
X154996893Y-96876235D01*
X155154579Y-96876235D01*
X155154580Y-96876234D01*
X155309232Y-96845472D01*
X155454914Y-96785129D01*
X155586024Y-96697524D01*
X155697524Y-96586024D01*
X155785129Y-96454914D01*
X155795474Y-96429940D01*
X155819561Y-96371786D01*
X155845472Y-96309232D01*
X155872938Y-96171153D01*
X165449500Y-96171153D01*
X165449500Y-96328846D01*
X165480261Y-96483489D01*
X165480264Y-96483501D01*
X165540602Y-96629172D01*
X165540609Y-96629185D01*
X165628210Y-96760288D01*
X165628213Y-96760292D01*
X165739707Y-96871786D01*
X165739711Y-96871789D01*
X165870814Y-96959390D01*
X165870827Y-96959397D01*
X165962931Y-96997547D01*
X166016503Y-97019737D01*
X166171153Y-97050499D01*
X166171156Y-97050500D01*
X166171158Y-97050500D01*
X166328844Y-97050500D01*
X166328845Y-97050499D01*
X166339179Y-97048443D01*
X166364287Y-97043450D01*
X166364292Y-97043449D01*
X166449800Y-97026439D01*
X166483497Y-97019737D01*
X166612782Y-96966186D01*
X166629172Y-96959397D01*
X166629172Y-96959396D01*
X166629179Y-96959394D01*
X166760289Y-96871789D01*
X166871789Y-96760289D01*
X166959394Y-96629179D01*
X167019737Y-96483497D01*
X167050500Y-96328842D01*
X167050500Y-96171158D01*
X167050500Y-96171155D01*
X167050499Y-96171153D01*
X167019738Y-96016510D01*
X167019737Y-96016503D01*
X167001056Y-95971403D01*
X166959397Y-95870827D01*
X166959390Y-95870814D01*
X166871789Y-95739711D01*
X166871786Y-95739707D01*
X166760292Y-95628213D01*
X166760288Y-95628210D01*
X166629185Y-95540609D01*
X166629172Y-95540602D01*
X166483501Y-95480264D01*
X166483489Y-95480261D01*
X166328845Y-95449500D01*
X166328842Y-95449500D01*
X166171158Y-95449500D01*
X166171155Y-95449500D01*
X166016510Y-95480261D01*
X166016498Y-95480264D01*
X165870827Y-95540602D01*
X165870814Y-95540609D01*
X165739711Y-95628210D01*
X165739707Y-95628213D01*
X165628213Y-95739707D01*
X165628210Y-95739711D01*
X165540609Y-95870814D01*
X165540602Y-95870827D01*
X165480264Y-96016498D01*
X165480261Y-96016510D01*
X165449500Y-96171153D01*
X155872938Y-96171153D01*
X155876235Y-96154577D01*
X155876235Y-95996893D01*
X155876235Y-95996890D01*
X155859827Y-95914406D01*
X155851090Y-95870481D01*
X155857317Y-95800891D01*
X155900180Y-95745714D01*
X155925248Y-95731732D01*
X155979179Y-95709394D01*
X156110289Y-95621789D01*
X156221789Y-95510289D01*
X156309394Y-95379179D01*
X156312854Y-95370827D01*
X156341081Y-95302679D01*
X156369737Y-95233497D01*
X156400500Y-95078842D01*
X156400500Y-94921158D01*
X156400500Y-94921155D01*
X156400499Y-94921153D01*
X156394726Y-94892129D01*
X156369737Y-94766503D01*
X156346290Y-94709896D01*
X156309397Y-94620827D01*
X156309390Y-94620814D01*
X156221789Y-94489711D01*
X156221786Y-94489707D01*
X156110292Y-94378213D01*
X156110288Y-94378210D01*
X155979185Y-94290609D01*
X155979172Y-94290602D01*
X155833501Y-94230264D01*
X155833489Y-94230261D01*
X155678845Y-94199500D01*
X155678842Y-94199500D01*
X155521158Y-94199500D01*
X155521155Y-94199500D01*
X155366510Y-94230261D01*
X155366498Y-94230264D01*
X155220827Y-94290602D01*
X155220814Y-94290609D01*
X155089711Y-94378210D01*
X155089707Y-94378213D01*
X154978213Y-94489707D01*
X154978210Y-94489711D01*
X154890609Y-94620814D01*
X154890602Y-94620827D01*
X154830264Y-94766498D01*
X154830261Y-94766510D01*
X154799500Y-94921153D01*
X154799500Y-95078846D01*
X154824644Y-95205252D01*
X154818417Y-95274843D01*
X154775554Y-95330021D01*
X154750481Y-95344004D01*
X154696556Y-95366341D01*
X154696549Y-95366344D01*
X154565446Y-95453945D01*
X154565442Y-95453948D01*
X154453948Y-95565442D01*
X154453945Y-95565446D01*
X154366344Y-95696549D01*
X154366337Y-95696562D01*
X154305999Y-95842233D01*
X154305996Y-95842245D01*
X154275235Y-95996888D01*
X153826647Y-95996888D01*
X153850500Y-95846287D01*
X153850500Y-95633713D01*
X153817246Y-95423757D01*
X153751557Y-95221588D01*
X153655051Y-95032184D01*
X153655049Y-95032181D01*
X153655048Y-95032179D01*
X153530109Y-94860213D01*
X153379786Y-94709890D01*
X153207820Y-94584951D01*
X153202915Y-94582452D01*
X153199054Y-94580485D01*
X153148259Y-94532512D01*
X153131463Y-94464692D01*
X153153999Y-94398556D01*
X153199054Y-94359515D01*
X153207816Y-94355051D01*
X153277189Y-94304649D01*
X153379786Y-94230109D01*
X153379788Y-94230106D01*
X153379792Y-94230104D01*
X153530104Y-94079792D01*
X153530106Y-94079788D01*
X153530109Y-94079786D01*
X153655048Y-93907820D01*
X153655047Y-93907820D01*
X153655051Y-93907816D01*
X153751557Y-93718412D01*
X153766912Y-93671153D01*
X166199500Y-93671153D01*
X166199500Y-93828846D01*
X166230261Y-93983489D01*
X166230264Y-93983501D01*
X166290602Y-94129172D01*
X166290609Y-94129185D01*
X166378210Y-94260288D01*
X166378213Y-94260292D01*
X166489707Y-94371786D01*
X166489711Y-94371789D01*
X166620814Y-94459390D01*
X166620827Y-94459397D01*
X166766498Y-94519735D01*
X166766503Y-94519737D01*
X166875646Y-94541447D01*
X166921153Y-94550499D01*
X166921156Y-94550500D01*
X166921158Y-94550500D01*
X167078844Y-94550500D01*
X167078845Y-94550499D01*
X167233497Y-94519737D01*
X167353574Y-94470000D01*
X167379172Y-94459397D01*
X167379172Y-94459396D01*
X167379179Y-94459394D01*
X167510289Y-94371789D01*
X167621789Y-94260289D01*
X167709394Y-94129179D01*
X167769737Y-93983497D01*
X167800500Y-93828842D01*
X167800500Y-93671158D01*
X167800500Y-93671155D01*
X167800499Y-93671153D01*
X167779630Y-93566239D01*
X167769737Y-93516503D01*
X167756062Y-93483489D01*
X167709397Y-93370827D01*
X167709390Y-93370814D01*
X167621789Y-93239711D01*
X167621786Y-93239707D01*
X167510292Y-93128213D01*
X167510288Y-93128210D01*
X167379185Y-93040609D01*
X167379172Y-93040602D01*
X167233501Y-92980264D01*
X167233489Y-92980261D01*
X167078845Y-92949500D01*
X167078842Y-92949500D01*
X166921158Y-92949500D01*
X166921155Y-92949500D01*
X166766510Y-92980261D01*
X166766498Y-92980264D01*
X166620827Y-93040602D01*
X166620814Y-93040609D01*
X166489711Y-93128210D01*
X166489707Y-93128213D01*
X166378213Y-93239707D01*
X166378210Y-93239711D01*
X166290609Y-93370814D01*
X166290602Y-93370827D01*
X166230264Y-93516498D01*
X166230261Y-93516510D01*
X166199500Y-93671153D01*
X153766912Y-93671153D01*
X153817246Y-93516243D01*
X153850500Y-93306287D01*
X153850500Y-93093713D01*
X153817246Y-92883757D01*
X153751557Y-92681588D01*
X153655051Y-92492184D01*
X153655049Y-92492181D01*
X153655048Y-92492179D01*
X153530109Y-92320213D01*
X153379786Y-92169890D01*
X153207820Y-92044951D01*
X153203033Y-92042512D01*
X153199054Y-92040485D01*
X153148259Y-91992512D01*
X153131463Y-91924692D01*
X153153999Y-91858556D01*
X153199054Y-91819515D01*
X153207816Y-91815051D01*
X153310966Y-91740109D01*
X153379786Y-91690109D01*
X153379788Y-91690106D01*
X153379792Y-91690104D01*
X153530104Y-91539792D01*
X153649106Y-91375999D01*
X153649107Y-91375998D01*
X153652164Y-91371789D01*
X153655051Y-91367816D01*
X153751557Y-91178412D01*
X153817246Y-90976243D01*
X153850500Y-90766287D01*
X153850500Y-90553713D01*
X153817246Y-90343757D01*
X153751557Y-90141588D01*
X153655051Y-89952184D01*
X153655049Y-89952181D01*
X153655048Y-89952179D01*
X153530109Y-89780213D01*
X153379786Y-89629890D01*
X153207820Y-89504951D01*
X153203033Y-89502512D01*
X153199054Y-89500485D01*
X153148259Y-89452512D01*
X153131463Y-89384692D01*
X153153999Y-89318556D01*
X153199054Y-89279515D01*
X153207816Y-89275051D01*
X153310966Y-89200109D01*
X153379786Y-89150109D01*
X153379788Y-89150106D01*
X153379792Y-89150104D01*
X153530104Y-88999792D01*
X153530106Y-88999788D01*
X153530109Y-88999786D01*
X153655048Y-88827820D01*
X153655047Y-88827820D01*
X153655051Y-88827816D01*
X153751557Y-88638412D01*
X153817246Y-88436243D01*
X153850500Y-88226287D01*
X153850500Y-88013713D01*
X153817246Y-87803757D01*
X153751557Y-87601588D01*
X153655051Y-87412184D01*
X153655049Y-87412181D01*
X153655048Y-87412179D01*
X153530109Y-87240213D01*
X153379786Y-87089890D01*
X153207820Y-86964951D01*
X153203033Y-86962512D01*
X153199054Y-86960485D01*
X153148259Y-86912512D01*
X153131463Y-86844692D01*
X153153999Y-86778556D01*
X153199054Y-86739515D01*
X153207816Y-86735051D01*
X153310966Y-86660109D01*
X153379786Y-86610109D01*
X153379788Y-86610106D01*
X153379792Y-86610104D01*
X153530104Y-86459792D01*
X153530106Y-86459788D01*
X153530109Y-86459786D01*
X153655048Y-86287820D01*
X153655047Y-86287820D01*
X153655051Y-86287816D01*
X153751557Y-86098412D01*
X153817246Y-85896243D01*
X153850500Y-85686287D01*
X153850500Y-85473713D01*
X153817246Y-85263757D01*
X153751557Y-85061588D01*
X153655051Y-84872184D01*
X153655049Y-84872181D01*
X153655048Y-84872179D01*
X153530109Y-84700213D01*
X153379786Y-84549890D01*
X153207820Y-84424951D01*
X153203033Y-84422512D01*
X153199054Y-84420485D01*
X153148259Y-84372512D01*
X153131463Y-84304692D01*
X153153999Y-84238556D01*
X153199054Y-84199515D01*
X153207816Y-84195051D01*
X153229789Y-84179086D01*
X153379786Y-84070109D01*
X153379788Y-84070106D01*
X153379792Y-84070104D01*
X153530104Y-83919792D01*
X153530106Y-83919788D01*
X153530109Y-83919786D01*
X153655048Y-83747820D01*
X153655047Y-83747820D01*
X153655051Y-83747816D01*
X153751557Y-83558412D01*
X153817246Y-83356243D01*
X153850500Y-83146287D01*
X153850500Y-83042135D01*
X168399500Y-83042135D01*
X168399500Y-84837870D01*
X168399501Y-84837876D01*
X168405908Y-84897483D01*
X168456202Y-85032328D01*
X168456206Y-85032335D01*
X168542452Y-85147544D01*
X168542455Y-85147547D01*
X168657664Y-85233793D01*
X168657671Y-85233797D01*
X168789082Y-85282810D01*
X168845016Y-85324681D01*
X168869433Y-85390145D01*
X168854582Y-85458418D01*
X168833431Y-85486673D01*
X168719889Y-85600215D01*
X168594951Y-85772179D01*
X168498444Y-85961585D01*
X168432753Y-86163760D01*
X168399500Y-86373713D01*
X168399500Y-86586286D01*
X168431688Y-86789516D01*
X168432754Y-86796243D01*
X168489681Y-86971447D01*
X168498444Y-86998414D01*
X168594951Y-87187820D01*
X168719890Y-87359786D01*
X168870213Y-87510109D01*
X169042182Y-87635050D01*
X169050946Y-87639516D01*
X169101742Y-87687491D01*
X169118536Y-87755312D01*
X169095998Y-87821447D01*
X169050946Y-87860484D01*
X169042182Y-87864949D01*
X168870213Y-87989890D01*
X168719890Y-88140213D01*
X168594951Y-88312179D01*
X168498444Y-88501585D01*
X168432753Y-88703760D01*
X168399500Y-88913713D01*
X168399500Y-89126286D01*
X168431688Y-89329516D01*
X168432754Y-89336243D01*
X168489681Y-89511447D01*
X168498444Y-89538414D01*
X168594951Y-89727820D01*
X168719890Y-89899786D01*
X168870213Y-90050109D01*
X169042179Y-90175048D01*
X169042181Y-90175049D01*
X169042184Y-90175051D01*
X169051493Y-90179794D01*
X169102290Y-90227766D01*
X169119087Y-90295587D01*
X169096552Y-90361722D01*
X169051505Y-90400760D01*
X169042446Y-90405376D01*
X169042440Y-90405380D01*
X168988282Y-90444727D01*
X168988282Y-90444728D01*
X169620591Y-91077037D01*
X169557007Y-91094075D01*
X169442993Y-91159901D01*
X169349901Y-91252993D01*
X169284075Y-91367007D01*
X169267037Y-91430591D01*
X168634728Y-90798282D01*
X168634727Y-90798282D01*
X168595380Y-90852439D01*
X168498904Y-91041782D01*
X168433242Y-91243869D01*
X168433242Y-91243872D01*
X168400000Y-91453753D01*
X168400000Y-91666246D01*
X168433242Y-91876127D01*
X168433242Y-91876130D01*
X168498904Y-92078217D01*
X168595375Y-92267550D01*
X168634728Y-92321716D01*
X169267037Y-91689408D01*
X169284075Y-91752993D01*
X169349901Y-91867007D01*
X169442993Y-91960099D01*
X169557007Y-92025925D01*
X169620590Y-92042962D01*
X168988282Y-92675269D01*
X168988282Y-92675270D01*
X169042449Y-92714624D01*
X169231782Y-92811095D01*
X169433870Y-92876757D01*
X169643754Y-92910000D01*
X169856246Y-92910000D01*
X170066127Y-92876757D01*
X170066130Y-92876757D01*
X170268217Y-92811095D01*
X170457554Y-92714622D01*
X170511716Y-92675270D01*
X170511717Y-92675270D01*
X169879408Y-92042962D01*
X169942993Y-92025925D01*
X170057007Y-91960099D01*
X170150099Y-91867007D01*
X170215925Y-91752993D01*
X170232962Y-91689408D01*
X170865270Y-92321717D01*
X170865270Y-92321716D01*
X170904622Y-92267554D01*
X171001095Y-92078217D01*
X171066757Y-91876130D01*
X171066757Y-91876127D01*
X171100000Y-91666246D01*
X171100000Y-91453753D01*
X171066757Y-91243872D01*
X171066757Y-91243869D01*
X171001095Y-91041782D01*
X170904624Y-90852449D01*
X170865270Y-90798282D01*
X170865269Y-90798282D01*
X170232962Y-91430590D01*
X170215925Y-91367007D01*
X170150099Y-91252993D01*
X170057007Y-91159901D01*
X169942993Y-91094075D01*
X169879409Y-91077037D01*
X170511716Y-90444728D01*
X170457547Y-90405373D01*
X170457547Y-90405372D01*
X170448500Y-90400763D01*
X170397706Y-90352788D01*
X170380912Y-90284966D01*
X170403451Y-90218832D01*
X170448508Y-90179793D01*
X170457816Y-90175051D01*
X170537007Y-90117515D01*
X170629786Y-90050109D01*
X170629788Y-90050106D01*
X170629792Y-90050104D01*
X170780104Y-89899792D01*
X170780106Y-89899788D01*
X170780109Y-89899786D01*
X170905048Y-89727820D01*
X170905047Y-89727820D01*
X170905051Y-89727816D01*
X171001557Y-89538412D01*
X171067246Y-89336243D01*
X171100500Y-89126287D01*
X171100500Y-88913713D01*
X171067246Y-88703757D01*
X171001557Y-88501588D01*
X170905051Y-88312184D01*
X170905049Y-88312181D01*
X170905048Y-88312179D01*
X170780109Y-88140213D01*
X170629786Y-87989890D01*
X170457820Y-87864951D01*
X170457115Y-87864591D01*
X170449054Y-87860485D01*
X170398259Y-87812512D01*
X170381463Y-87744692D01*
X170403999Y-87678556D01*
X170449054Y-87639515D01*
X170457816Y-87635051D01*
X170503878Y-87601585D01*
X170629786Y-87510109D01*
X170629788Y-87510106D01*
X170629792Y-87510104D01*
X170780104Y-87359792D01*
X170780106Y-87359788D01*
X170780109Y-87359786D01*
X170905048Y-87187820D01*
X170905047Y-87187820D01*
X170905051Y-87187816D01*
X171001557Y-86998412D01*
X171067246Y-86796243D01*
X171100500Y-86586287D01*
X171100500Y-86373713D01*
X171067246Y-86163757D01*
X171001557Y-85961588D01*
X170905051Y-85772184D01*
X170905049Y-85772181D01*
X170905048Y-85772179D01*
X170780109Y-85600213D01*
X170666569Y-85486673D01*
X170633084Y-85425350D01*
X170638068Y-85355658D01*
X170679940Y-85299725D01*
X170710915Y-85282810D01*
X170842331Y-85233796D01*
X170957546Y-85147546D01*
X171043796Y-85032331D01*
X171094091Y-84897483D01*
X171100500Y-84837873D01*
X171100499Y-83042128D01*
X171094091Y-82982517D01*
X171075888Y-82933713D01*
X171043797Y-82847671D01*
X171043793Y-82847664D01*
X170957547Y-82732455D01*
X170957544Y-82732452D01*
X170842335Y-82646206D01*
X170842328Y-82646202D01*
X170707482Y-82595908D01*
X170707483Y-82595908D01*
X170647883Y-82589501D01*
X170647881Y-82589500D01*
X170647873Y-82589500D01*
X170647864Y-82589500D01*
X168852129Y-82589500D01*
X168852123Y-82589501D01*
X168792516Y-82595908D01*
X168657671Y-82646202D01*
X168657664Y-82646206D01*
X168542455Y-82732452D01*
X168542452Y-82732455D01*
X168456206Y-82847664D01*
X168456202Y-82847671D01*
X168405908Y-82982517D01*
X168399501Y-83042116D01*
X168399501Y-83042123D01*
X168399500Y-83042135D01*
X153850500Y-83042135D01*
X153850500Y-82933713D01*
X153817246Y-82723757D01*
X153751557Y-82521588D01*
X153655051Y-82332184D01*
X153655049Y-82332181D01*
X153655048Y-82332179D01*
X153530109Y-82160213D01*
X153379786Y-82009890D01*
X153207820Y-81884951D01*
X153203033Y-81882512D01*
X153199054Y-81880485D01*
X153148259Y-81832512D01*
X153131463Y-81764692D01*
X153153999Y-81698556D01*
X153199054Y-81659515D01*
X153207816Y-81655051D01*
X153310966Y-81580109D01*
X153379786Y-81530109D01*
X153379788Y-81530106D01*
X153379792Y-81530104D01*
X153530104Y-81379792D01*
X153530106Y-81379788D01*
X153530109Y-81379786D01*
X153655048Y-81207820D01*
X153655047Y-81207820D01*
X153655051Y-81207816D01*
X153751557Y-81018412D01*
X153817246Y-80816243D01*
X153850500Y-80606287D01*
X153850500Y-80393713D01*
X153817246Y-80183757D01*
X153751557Y-79981588D01*
X153655051Y-79792184D01*
X153655049Y-79792181D01*
X153655048Y-79792179D01*
X153530109Y-79620213D01*
X153416569Y-79506673D01*
X153383084Y-79445350D01*
X153388068Y-79375658D01*
X153429940Y-79319725D01*
X153460915Y-79302810D01*
X153592331Y-79253796D01*
X153707546Y-79167546D01*
X153793796Y-79052331D01*
X153844091Y-78917483D01*
X153850500Y-78857873D01*
X153850499Y-77062128D01*
X153844091Y-77002517D01*
X153803888Y-76894728D01*
X153793797Y-76867671D01*
X153793793Y-76867664D01*
X153707547Y-76752455D01*
X153707544Y-76752452D01*
X153592335Y-76666206D01*
X153592328Y-76666202D01*
X153457482Y-76615908D01*
X153457483Y-76615908D01*
X153397883Y-76609501D01*
X153397881Y-76609500D01*
X153397873Y-76609500D01*
X153397864Y-76609500D01*
X151602129Y-76609500D01*
X151602123Y-76609501D01*
X151542516Y-76615908D01*
X151407671Y-76666202D01*
X151407664Y-76666206D01*
X151292455Y-76752452D01*
X151292452Y-76752455D01*
X151206206Y-76867664D01*
X151206202Y-76867671D01*
X151155908Y-77002517D01*
X151149501Y-77062116D01*
X151149501Y-77062123D01*
X151149500Y-77062135D01*
X151149500Y-78857870D01*
X151149501Y-78857876D01*
X151155908Y-78917483D01*
X151206202Y-79052328D01*
X151206206Y-79052335D01*
X151292452Y-79167544D01*
X151292455Y-79167547D01*
X151407664Y-79253793D01*
X151407671Y-79253797D01*
X151539082Y-79302810D01*
X151595016Y-79344681D01*
X151619433Y-79410145D01*
X151604582Y-79478418D01*
X151583431Y-79506673D01*
X151469889Y-79620215D01*
X151344951Y-79792179D01*
X151248444Y-79981585D01*
X151182753Y-80183760D01*
X151149500Y-80393713D01*
X151149500Y-80606286D01*
X151182753Y-80816239D01*
X151248444Y-81018414D01*
X151344951Y-81207820D01*
X151469890Y-81379786D01*
X151620213Y-81530109D01*
X151792182Y-81655050D01*
X151800946Y-81659516D01*
X151851742Y-81707491D01*
X151868536Y-81775312D01*
X151845998Y-81841447D01*
X151800946Y-81880484D01*
X151792182Y-81884949D01*
X151620213Y-82009890D01*
X151469890Y-82160213D01*
X151344951Y-82332179D01*
X151248444Y-82521585D01*
X151182753Y-82723760D01*
X151149500Y-82933713D01*
X151149500Y-83146286D01*
X151182753Y-83356239D01*
X151248444Y-83558414D01*
X151344951Y-83747820D01*
X151469890Y-83919786D01*
X151620213Y-84070109D01*
X151792182Y-84195050D01*
X151800946Y-84199516D01*
X151851742Y-84247491D01*
X151868536Y-84315312D01*
X151845998Y-84381447D01*
X151800946Y-84420484D01*
X151792182Y-84424949D01*
X151620213Y-84549890D01*
X151469890Y-84700213D01*
X151344951Y-84872179D01*
X151248444Y-85061585D01*
X151182753Y-85263760D01*
X151149500Y-85473713D01*
X151149500Y-85686286D01*
X151182753Y-85896239D01*
X151248444Y-86098414D01*
X151344951Y-86287820D01*
X151469890Y-86459786D01*
X151620213Y-86610109D01*
X151792182Y-86735050D01*
X151800946Y-86739516D01*
X151851742Y-86787491D01*
X151868536Y-86855312D01*
X151845998Y-86921447D01*
X151800946Y-86960484D01*
X151792182Y-86964949D01*
X151620213Y-87089890D01*
X151469890Y-87240213D01*
X151344951Y-87412179D01*
X151248444Y-87601585D01*
X151248443Y-87601587D01*
X151248443Y-87601588D01*
X151237570Y-87635051D01*
X151182753Y-87803760D01*
X151149500Y-88013713D01*
X151149500Y-88226286D01*
X151165743Y-88328844D01*
X151182754Y-88436243D01*
X151198105Y-88483489D01*
X151248444Y-88638414D01*
X151344951Y-88827820D01*
X151469890Y-88999786D01*
X151620213Y-89150109D01*
X151792182Y-89275050D01*
X151800946Y-89279516D01*
X151851742Y-89327491D01*
X151868536Y-89395312D01*
X151845998Y-89461447D01*
X151800946Y-89500484D01*
X151792182Y-89504949D01*
X151620213Y-89629890D01*
X151469890Y-89780213D01*
X151344951Y-89952179D01*
X151248444Y-90141585D01*
X151182753Y-90343760D01*
X151155392Y-90516510D01*
X151149500Y-90553713D01*
X151149500Y-90766287D01*
X151182754Y-90976243D01*
X151242428Y-91159901D01*
X151248444Y-91178414D01*
X151344951Y-91367820D01*
X151469890Y-91539786D01*
X151620213Y-91690109D01*
X151792182Y-91815050D01*
X151800946Y-91819516D01*
X151851742Y-91867491D01*
X151868536Y-91935312D01*
X151845998Y-92001447D01*
X151800946Y-92040484D01*
X151792182Y-92044949D01*
X151620213Y-92169890D01*
X151469890Y-92320213D01*
X151344951Y-92492179D01*
X151248444Y-92681585D01*
X151182753Y-92883760D01*
X151149500Y-93093713D01*
X151149500Y-93306286D01*
X151177567Y-93483497D01*
X151182754Y-93516243D01*
X151233089Y-93671158D01*
X151248444Y-93718414D01*
X151344951Y-93907820D01*
X151469890Y-94079786D01*
X151620213Y-94230109D01*
X151792182Y-94355050D01*
X151800946Y-94359516D01*
X151851742Y-94407491D01*
X151868536Y-94475312D01*
X151845998Y-94541447D01*
X151800946Y-94580484D01*
X151792182Y-94584949D01*
X151620213Y-94709890D01*
X151469890Y-94860213D01*
X151344951Y-95032180D01*
X151277058Y-95165427D01*
X151229083Y-95216223D01*
X151161262Y-95233018D01*
X151095127Y-95210480D01*
X151078892Y-95196813D01*
X151010292Y-95128213D01*
X151010288Y-95128210D01*
X150879185Y-95040609D01*
X150879172Y-95040602D01*
X150733501Y-94980264D01*
X150733489Y-94980261D01*
X150578845Y-94949500D01*
X150578842Y-94949500D01*
X150421158Y-94949500D01*
X150421155Y-94949500D01*
X150266510Y-94980261D01*
X150266498Y-94980264D01*
X150120827Y-95040602D01*
X150120814Y-95040609D01*
X149989711Y-95128210D01*
X149989707Y-95128213D01*
X149878213Y-95239707D01*
X149878210Y-95239711D01*
X149790609Y-95370814D01*
X149790602Y-95370827D01*
X149730264Y-95516498D01*
X149730261Y-95516510D01*
X149699500Y-95671153D01*
X146850499Y-95671153D01*
X146850499Y-94892128D01*
X146844091Y-94832517D01*
X146819469Y-94766503D01*
X146793797Y-94697671D01*
X146793793Y-94697664D01*
X146707547Y-94582455D01*
X146707544Y-94582452D01*
X146592335Y-94496206D01*
X146592328Y-94496202D01*
X146460917Y-94447189D01*
X146404983Y-94405318D01*
X146380566Y-94339853D01*
X146395418Y-94271580D01*
X146416563Y-94243332D01*
X146530104Y-94129792D01*
X146530550Y-94129179D01*
X146653902Y-93959397D01*
X146655051Y-93957816D01*
X146751557Y-93768412D01*
X146817246Y-93566243D01*
X146850500Y-93356287D01*
X146850500Y-93171153D01*
X148949500Y-93171153D01*
X148949500Y-93328846D01*
X148980261Y-93483489D01*
X148980264Y-93483501D01*
X149040602Y-93629172D01*
X149040609Y-93629185D01*
X149128210Y-93760288D01*
X149128213Y-93760292D01*
X149239707Y-93871786D01*
X149239711Y-93871789D01*
X149370814Y-93959390D01*
X149370827Y-93959397D01*
X149516498Y-94019735D01*
X149516503Y-94019737D01*
X149671153Y-94050499D01*
X149671156Y-94050500D01*
X149671158Y-94050500D01*
X149828844Y-94050500D01*
X149828845Y-94050499D01*
X149983497Y-94019737D01*
X150129179Y-93959394D01*
X150260289Y-93871789D01*
X150371789Y-93760289D01*
X150459394Y-93629179D01*
X150519737Y-93483497D01*
X150550500Y-93328842D01*
X150550500Y-93171158D01*
X150550500Y-93171155D01*
X150550499Y-93171153D01*
X150524531Y-93040606D01*
X150519737Y-93016503D01*
X150519735Y-93016498D01*
X150459397Y-92870827D01*
X150459390Y-92870814D01*
X150371789Y-92739711D01*
X150371786Y-92739707D01*
X150260292Y-92628213D01*
X150260288Y-92628210D01*
X150129185Y-92540609D01*
X150129172Y-92540602D01*
X149983501Y-92480264D01*
X149983489Y-92480261D01*
X149828845Y-92449500D01*
X149828842Y-92449500D01*
X149671158Y-92449500D01*
X149671155Y-92449500D01*
X149516510Y-92480261D01*
X149516498Y-92480264D01*
X149370827Y-92540602D01*
X149370814Y-92540609D01*
X149239711Y-92628210D01*
X149239707Y-92628213D01*
X149128213Y-92739707D01*
X149128210Y-92739711D01*
X149040609Y-92870814D01*
X149040602Y-92870827D01*
X148980264Y-93016498D01*
X148980261Y-93016510D01*
X148949500Y-93171153D01*
X146850500Y-93171153D01*
X146850500Y-93143713D01*
X146817246Y-92933757D01*
X146751557Y-92731588D01*
X146655051Y-92542184D01*
X146655049Y-92542181D01*
X146655048Y-92542179D01*
X146530109Y-92370213D01*
X146379786Y-92219890D01*
X146207820Y-92094951D01*
X146207115Y-92094591D01*
X146199054Y-92090485D01*
X146148259Y-92042512D01*
X146131463Y-91974692D01*
X146153999Y-91908556D01*
X146199054Y-91869515D01*
X146207816Y-91865051D01*
X146362052Y-91752993D01*
X146379786Y-91740109D01*
X146379788Y-91740106D01*
X146379792Y-91740104D01*
X146530104Y-91589792D01*
X146530106Y-91589788D01*
X146530109Y-91589786D01*
X146655048Y-91417820D01*
X146655047Y-91417820D01*
X146655051Y-91417816D01*
X146751557Y-91228412D01*
X146817246Y-91026243D01*
X146850500Y-90816287D01*
X146850500Y-90671153D01*
X148199500Y-90671153D01*
X148199500Y-90828846D01*
X148230261Y-90983489D01*
X148230264Y-90983501D01*
X148290602Y-91129172D01*
X148290609Y-91129185D01*
X148378210Y-91260288D01*
X148378213Y-91260292D01*
X148489707Y-91371786D01*
X148489711Y-91371789D01*
X148620814Y-91459390D01*
X148620827Y-91459397D01*
X148766498Y-91519735D01*
X148766503Y-91519737D01*
X148867316Y-91539790D01*
X148921153Y-91550499D01*
X148921156Y-91550500D01*
X148921158Y-91550500D01*
X149078844Y-91550500D01*
X149078845Y-91550499D01*
X149233497Y-91519737D01*
X149379179Y-91459394D01*
X149510289Y-91371789D01*
X149621789Y-91260289D01*
X149709394Y-91129179D01*
X149769737Y-90983497D01*
X149800500Y-90828842D01*
X149800500Y-90671158D01*
X149800500Y-90671155D01*
X149800499Y-90671153D01*
X149787084Y-90603713D01*
X149769737Y-90516503D01*
X149723706Y-90405373D01*
X149709397Y-90370827D01*
X149709390Y-90370814D01*
X149621789Y-90239711D01*
X149621786Y-90239707D01*
X149510292Y-90128213D01*
X149510288Y-90128210D01*
X149379185Y-90040609D01*
X149379172Y-90040602D01*
X149233501Y-89980264D01*
X149233489Y-89980261D01*
X149078845Y-89949500D01*
X149078842Y-89949500D01*
X148921158Y-89949500D01*
X148921155Y-89949500D01*
X148766510Y-89980261D01*
X148766498Y-89980264D01*
X148620827Y-90040602D01*
X148620814Y-90040609D01*
X148489711Y-90128210D01*
X148489707Y-90128213D01*
X148378213Y-90239707D01*
X148378210Y-90239711D01*
X148290609Y-90370814D01*
X148290602Y-90370827D01*
X148230264Y-90516498D01*
X148230261Y-90516510D01*
X148199500Y-90671153D01*
X146850500Y-90671153D01*
X146850500Y-90603713D01*
X146817246Y-90393757D01*
X146751557Y-90191588D01*
X146655051Y-90002184D01*
X146655049Y-90002181D01*
X146655048Y-90002179D01*
X146530109Y-89830213D01*
X146379786Y-89679890D01*
X146207820Y-89554951D01*
X146207115Y-89554591D01*
X146199054Y-89550485D01*
X146148259Y-89502512D01*
X146131463Y-89434692D01*
X146153999Y-89368556D01*
X146199054Y-89329515D01*
X146207816Y-89325051D01*
X146276640Y-89275048D01*
X146379786Y-89200109D01*
X146379788Y-89200106D01*
X146379792Y-89200104D01*
X146530104Y-89049792D01*
X146530106Y-89049788D01*
X146530109Y-89049786D01*
X146655048Y-88877820D01*
X146655047Y-88877820D01*
X146655051Y-88877816D01*
X146751557Y-88688412D01*
X146817246Y-88486243D01*
X146850500Y-88276287D01*
X146850500Y-88171153D01*
X147449500Y-88171153D01*
X147449500Y-88328846D01*
X147480261Y-88483489D01*
X147480264Y-88483501D01*
X147540602Y-88629172D01*
X147540609Y-88629185D01*
X147628210Y-88760288D01*
X147628213Y-88760292D01*
X147739707Y-88871786D01*
X147739711Y-88871789D01*
X147870814Y-88959390D01*
X147870827Y-88959397D01*
X147968351Y-88999792D01*
X148016503Y-89019737D01*
X148167569Y-89049786D01*
X148171153Y-89050499D01*
X148171156Y-89050500D01*
X148171158Y-89050500D01*
X148328844Y-89050500D01*
X148328845Y-89050499D01*
X148483497Y-89019737D01*
X148629179Y-88959394D01*
X148760289Y-88871789D01*
X148871789Y-88760289D01*
X148959394Y-88629179D01*
X149019737Y-88483497D01*
X149050500Y-88328842D01*
X149050500Y-88171158D01*
X149050500Y-88171155D01*
X149050499Y-88171153D01*
X149044344Y-88140208D01*
X149019737Y-88016503D01*
X149008714Y-87989890D01*
X148959397Y-87870827D01*
X148959390Y-87870814D01*
X148871789Y-87739711D01*
X148871786Y-87739707D01*
X148760292Y-87628213D01*
X148760288Y-87628210D01*
X148629185Y-87540609D01*
X148629172Y-87540602D01*
X148483501Y-87480264D01*
X148483489Y-87480261D01*
X148328845Y-87449500D01*
X148328842Y-87449500D01*
X148171158Y-87449500D01*
X148171155Y-87449500D01*
X148016510Y-87480261D01*
X148016498Y-87480264D01*
X147870827Y-87540602D01*
X147870814Y-87540609D01*
X147739711Y-87628210D01*
X147739707Y-87628213D01*
X147628213Y-87739707D01*
X147628210Y-87739711D01*
X147540609Y-87870814D01*
X147540602Y-87870827D01*
X147480264Y-88016498D01*
X147480261Y-88016510D01*
X147449500Y-88171153D01*
X146850500Y-88171153D01*
X146850500Y-88063713D01*
X146817246Y-87853757D01*
X146751557Y-87651588D01*
X146655051Y-87462184D01*
X146655049Y-87462181D01*
X146655048Y-87462179D01*
X146530109Y-87290213D01*
X146379786Y-87139890D01*
X146207820Y-87014951D01*
X146207115Y-87014591D01*
X146199054Y-87010485D01*
X146148259Y-86962512D01*
X146131463Y-86894692D01*
X146153999Y-86828556D01*
X146199054Y-86789515D01*
X146207816Y-86785051D01*
X146276640Y-86735048D01*
X146379786Y-86660109D01*
X146379788Y-86660106D01*
X146379792Y-86660104D01*
X146530104Y-86509792D01*
X146530106Y-86509788D01*
X146530109Y-86509786D01*
X146630368Y-86371789D01*
X146655051Y-86337816D01*
X146679061Y-86290692D01*
X146727034Y-86239897D01*
X146794855Y-86223101D01*
X146860990Y-86245638D01*
X146877227Y-86259306D01*
X146989707Y-86371786D01*
X146989711Y-86371789D01*
X147120814Y-86459390D01*
X147120827Y-86459397D01*
X147242479Y-86509786D01*
X147266503Y-86519737D01*
X147421153Y-86550499D01*
X147421156Y-86550500D01*
X147421158Y-86550500D01*
X147578844Y-86550500D01*
X147578845Y-86550499D01*
X147733497Y-86519737D01*
X147879179Y-86459394D01*
X148010289Y-86371789D01*
X148121789Y-86260289D01*
X148209394Y-86129179D01*
X148269737Y-85983497D01*
X148300500Y-85828842D01*
X148300500Y-85671158D01*
X148300500Y-85671155D01*
X148300499Y-85671153D01*
X148269738Y-85516510D01*
X148269737Y-85516503D01*
X148242148Y-85449896D01*
X148209397Y-85370827D01*
X148209390Y-85370814D01*
X148121789Y-85239711D01*
X148121786Y-85239707D01*
X148010292Y-85128213D01*
X148010288Y-85128210D01*
X147879185Y-85040609D01*
X147879172Y-85040602D01*
X147733501Y-84980264D01*
X147733489Y-84980261D01*
X147578845Y-84949500D01*
X147578842Y-84949500D01*
X147421158Y-84949500D01*
X147421155Y-84949500D01*
X147266510Y-84980261D01*
X147266498Y-84980264D01*
X147120827Y-85040602D01*
X147120814Y-85040609D01*
X146989711Y-85128210D01*
X146989706Y-85128214D01*
X146957118Y-85160802D01*
X146895794Y-85194287D01*
X146826103Y-85189301D01*
X146770170Y-85147429D01*
X146753829Y-85115910D01*
X146753418Y-85116081D01*
X146751558Y-85111589D01*
X146684644Y-84980263D01*
X146655051Y-84922184D01*
X146655049Y-84922181D01*
X146655048Y-84922179D01*
X146530109Y-84750213D01*
X146379786Y-84599890D01*
X146207820Y-84474951D01*
X146207115Y-84474591D01*
X146199054Y-84470485D01*
X146148259Y-84422512D01*
X146131463Y-84354692D01*
X146153999Y-84288556D01*
X146199054Y-84249515D01*
X146207816Y-84245051D01*
X146276640Y-84195048D01*
X146379786Y-84120109D01*
X146379788Y-84120106D01*
X146379792Y-84120104D01*
X146530104Y-83969792D01*
X146530106Y-83969788D01*
X146530109Y-83969786D01*
X146655048Y-83797820D01*
X146655047Y-83797820D01*
X146655051Y-83797816D01*
X146751557Y-83608412D01*
X146817246Y-83406243D01*
X146850500Y-83196287D01*
X146850500Y-82983713D01*
X146817246Y-82773757D01*
X146751557Y-82571588D01*
X146655051Y-82382184D01*
X146655049Y-82382181D01*
X146655048Y-82382179D01*
X146530109Y-82210213D01*
X146379786Y-82059890D01*
X146207820Y-81934951D01*
X146207115Y-81934591D01*
X146199054Y-81930485D01*
X146148259Y-81882512D01*
X146131463Y-81814692D01*
X146153999Y-81748556D01*
X146199054Y-81709515D01*
X146207816Y-81705051D01*
X146276640Y-81655048D01*
X146379786Y-81580109D01*
X146379788Y-81580106D01*
X146379792Y-81580104D01*
X146530104Y-81429792D01*
X146530106Y-81429788D01*
X146530109Y-81429786D01*
X146655048Y-81257820D01*
X146655047Y-81257820D01*
X146655051Y-81257816D01*
X146751557Y-81068412D01*
X146817246Y-80866243D01*
X146850500Y-80656287D01*
X146850500Y-80443713D01*
X146817246Y-80233757D01*
X146751557Y-80031588D01*
X146655051Y-79842184D01*
X146655049Y-79842181D01*
X146655048Y-79842179D01*
X146530109Y-79670213D01*
X146379786Y-79519890D01*
X146207817Y-79394949D01*
X146198504Y-79390204D01*
X146147707Y-79342230D01*
X146130912Y-79274409D01*
X146153449Y-79208274D01*
X146198507Y-79169232D01*
X146207555Y-79164622D01*
X146261716Y-79125270D01*
X146261717Y-79125270D01*
X145629408Y-78492962D01*
X145692993Y-78475925D01*
X145807007Y-78410099D01*
X145900099Y-78317007D01*
X145965925Y-78202993D01*
X145982962Y-78139408D01*
X146615270Y-78771717D01*
X146615270Y-78771716D01*
X146654622Y-78717554D01*
X146751095Y-78528217D01*
X146816757Y-78326130D01*
X146816757Y-78326127D01*
X146850000Y-78116246D01*
X146850000Y-77903753D01*
X146816757Y-77693872D01*
X146816757Y-77693869D01*
X146751095Y-77491782D01*
X146654624Y-77302449D01*
X146615270Y-77248282D01*
X146615269Y-77248282D01*
X145982962Y-77880590D01*
X145965925Y-77817007D01*
X145900099Y-77702993D01*
X145807007Y-77609901D01*
X145692993Y-77544075D01*
X145629409Y-77527037D01*
X146261716Y-76894728D01*
X146207550Y-76855375D01*
X146018217Y-76758904D01*
X145816129Y-76693242D01*
X145606246Y-76660000D01*
X145393754Y-76660000D01*
X145183872Y-76693242D01*
X145183869Y-76693242D01*
X144981782Y-76758904D01*
X144792439Y-76855380D01*
X144738282Y-76894727D01*
X144738282Y-76894728D01*
X145370591Y-77527037D01*
X145307007Y-77544075D01*
X145192993Y-77609901D01*
X145099901Y-77702993D01*
X145034075Y-77817007D01*
X145017037Y-77880591D01*
X144384728Y-77248282D01*
X144384727Y-77248282D01*
X144345380Y-77302439D01*
X144248904Y-77491782D01*
X144183242Y-77693869D01*
X144183242Y-77693872D01*
X144150000Y-77903753D01*
X144150000Y-78116246D01*
X144183242Y-78326127D01*
X144183242Y-78326130D01*
X144248904Y-78528217D01*
X144345375Y-78717550D01*
X144384728Y-78771716D01*
X145017037Y-78139408D01*
X145034075Y-78202993D01*
X145099901Y-78317007D01*
X145192993Y-78410099D01*
X145307007Y-78475925D01*
X145370590Y-78492962D01*
X144738282Y-79125269D01*
X144738282Y-79125270D01*
X144792452Y-79164626D01*
X144792451Y-79164626D01*
X144801495Y-79169234D01*
X144852292Y-79217208D01*
X144869087Y-79285029D01*
X144846550Y-79351164D01*
X144801499Y-79390202D01*
X144792182Y-79394949D01*
X144620213Y-79519890D01*
X144469890Y-79670213D01*
X144344951Y-79842179D01*
X144248444Y-80031585D01*
X144182753Y-80233760D01*
X144149500Y-80443713D01*
X144149500Y-80656286D01*
X144182753Y-80866239D01*
X144248444Y-81068414D01*
X144344951Y-81257820D01*
X144469890Y-81429786D01*
X144620213Y-81580109D01*
X144792182Y-81705050D01*
X144800946Y-81709516D01*
X144851742Y-81757491D01*
X144868536Y-81825312D01*
X144845998Y-81891447D01*
X144800946Y-81930484D01*
X144792182Y-81934949D01*
X144620213Y-82059890D01*
X144469890Y-82210213D01*
X144344951Y-82382179D01*
X144248444Y-82571585D01*
X144182753Y-82773760D01*
X144149500Y-82983713D01*
X144149500Y-83196286D01*
X144182753Y-83406239D01*
X144248444Y-83608414D01*
X144344951Y-83797820D01*
X144469890Y-83969786D01*
X144620213Y-84120109D01*
X144792182Y-84245050D01*
X144800946Y-84249516D01*
X144851742Y-84297491D01*
X144868536Y-84365312D01*
X144845998Y-84431447D01*
X144800946Y-84470484D01*
X144792182Y-84474949D01*
X144620215Y-84599889D01*
X144504934Y-84715170D01*
X144443611Y-84748654D01*
X144373919Y-84743670D01*
X144317986Y-84701798D01*
X144293569Y-84636334D01*
X144295636Y-84603296D01*
X144300500Y-84578844D01*
X144300500Y-84421155D01*
X144300499Y-84421153D01*
X144284666Y-84341557D01*
X144269737Y-84266503D01*
X144258161Y-84238556D01*
X144209397Y-84120827D01*
X144209390Y-84120814D01*
X144121789Y-83989711D01*
X144121786Y-83989707D01*
X144010292Y-83878213D01*
X144010288Y-83878210D01*
X143879185Y-83790609D01*
X143879172Y-83790602D01*
X143733501Y-83730264D01*
X143733489Y-83730261D01*
X143578845Y-83699500D01*
X143578842Y-83699500D01*
X143421158Y-83699500D01*
X143421155Y-83699500D01*
X143266510Y-83730261D01*
X143266498Y-83730264D01*
X143120827Y-83790602D01*
X143120814Y-83790609D01*
X142989711Y-83878210D01*
X142989707Y-83878213D01*
X142878213Y-83989707D01*
X142878210Y-83989711D01*
X142790609Y-84120814D01*
X142790602Y-84120827D01*
X142730264Y-84266498D01*
X142730261Y-84266510D01*
X142699500Y-84421153D01*
X141500000Y-84421153D01*
X141500000Y-76421153D01*
X160199500Y-76421153D01*
X160199500Y-76578846D01*
X160230261Y-76733489D01*
X160230264Y-76733501D01*
X160290602Y-76879172D01*
X160290609Y-76879185D01*
X160378210Y-77010288D01*
X160378213Y-77010292D01*
X160489707Y-77121786D01*
X160489711Y-77121789D01*
X160620814Y-77209390D01*
X160620827Y-77209397D01*
X160766498Y-77269735D01*
X160766503Y-77269737D01*
X160921153Y-77300499D01*
X160921156Y-77300500D01*
X160921158Y-77300500D01*
X161078844Y-77300500D01*
X161078845Y-77300499D01*
X161233497Y-77269737D01*
X161379179Y-77209394D01*
X161510289Y-77121789D01*
X161621789Y-77010289D01*
X161709394Y-76879179D01*
X161769737Y-76733497D01*
X161800500Y-76578842D01*
X161800500Y-76421158D01*
X161800500Y-76421155D01*
X161800499Y-76421153D01*
X161769738Y-76266510D01*
X161769737Y-76266503D01*
X161769735Y-76266498D01*
X161709397Y-76120827D01*
X161709390Y-76120814D01*
X161621789Y-75989711D01*
X161621786Y-75989707D01*
X161510292Y-75878213D01*
X161510288Y-75878210D01*
X161379185Y-75790609D01*
X161379172Y-75790602D01*
X161233501Y-75730264D01*
X161233489Y-75730261D01*
X161078845Y-75699500D01*
X161078842Y-75699500D01*
X160921158Y-75699500D01*
X160921155Y-75699500D01*
X160766510Y-75730261D01*
X160766498Y-75730264D01*
X160620827Y-75790602D01*
X160620814Y-75790609D01*
X160489711Y-75878210D01*
X160489707Y-75878213D01*
X160378213Y-75989707D01*
X160378210Y-75989711D01*
X160290609Y-76120814D01*
X160290602Y-76120827D01*
X160230264Y-76266498D01*
X160230261Y-76266510D01*
X160199500Y-76421153D01*
X141500000Y-76421153D01*
X141500000Y-72825983D01*
X141519685Y-72758944D01*
X141572489Y-72713189D01*
X141641647Y-72703245D01*
X141705203Y-72732270D01*
X141738561Y-72778531D01*
X141790602Y-72904172D01*
X141790609Y-72904185D01*
X141878210Y-73035288D01*
X141878213Y-73035292D01*
X141989707Y-73146786D01*
X141989711Y-73146789D01*
X142120814Y-73234390D01*
X142120827Y-73234397D01*
X142266498Y-73294735D01*
X142266503Y-73294737D01*
X142421153Y-73325499D01*
X142421156Y-73325500D01*
X142421158Y-73325500D01*
X142578844Y-73325500D01*
X142578845Y-73325499D01*
X142733497Y-73294737D01*
X142879179Y-73234394D01*
X143010289Y-73146789D01*
X143121789Y-73035289D01*
X143209394Y-72904179D01*
X143269737Y-72758497D01*
X143300500Y-72603842D01*
X143300500Y-72446158D01*
X143300500Y-72446155D01*
X143300499Y-72446153D01*
X143269738Y-72291510D01*
X143269737Y-72291503D01*
X143241783Y-72224016D01*
X143209397Y-72145827D01*
X143209390Y-72145814D01*
X143121789Y-72014711D01*
X143121786Y-72014707D01*
X143010292Y-71903213D01*
X143010288Y-71903210D01*
X142879185Y-71815609D01*
X142879172Y-71815602D01*
X142733501Y-71755264D01*
X142733489Y-71755261D01*
X142578845Y-71724500D01*
X142578842Y-71724500D01*
X142421158Y-71724500D01*
X142421155Y-71724500D01*
X142266510Y-71755261D01*
X142266498Y-71755264D01*
X142120827Y-71815602D01*
X142120814Y-71815609D01*
X141989711Y-71903210D01*
X141989707Y-71903213D01*
X141878213Y-72014707D01*
X141878210Y-72014711D01*
X141790609Y-72145814D01*
X141790604Y-72145823D01*
X141738561Y-72271469D01*
X141694720Y-72325872D01*
X141628426Y-72347937D01*
X141560727Y-72330658D01*
X141513116Y-72279521D01*
X141500000Y-72224016D01*
X141500000Y-68921153D01*
X177199500Y-68921153D01*
X177199500Y-69078846D01*
X177230261Y-69233489D01*
X177230264Y-69233501D01*
X177290602Y-69379172D01*
X177290609Y-69379185D01*
X177325304Y-69431109D01*
X177346182Y-69497786D01*
X177327698Y-69565167D01*
X177325304Y-69568891D01*
X177290609Y-69620814D01*
X177290602Y-69620827D01*
X177230264Y-69766498D01*
X177230261Y-69766510D01*
X177199500Y-69921153D01*
X177199500Y-70078846D01*
X177230261Y-70233489D01*
X177230264Y-70233501D01*
X177290602Y-70379172D01*
X177290609Y-70379185D01*
X177325304Y-70431109D01*
X177346182Y-70497786D01*
X177327698Y-70565167D01*
X177325304Y-70568891D01*
X177290609Y-70620814D01*
X177290602Y-70620827D01*
X177230264Y-70766498D01*
X177230261Y-70766510D01*
X177199500Y-70921153D01*
X177199500Y-71078846D01*
X177230261Y-71233489D01*
X177230264Y-71233501D01*
X177290602Y-71379172D01*
X177290609Y-71379185D01*
X177378210Y-71510288D01*
X177378213Y-71510292D01*
X177489707Y-71621786D01*
X177489711Y-71621789D01*
X177620814Y-71709390D01*
X177620827Y-71709397D01*
X177766498Y-71769735D01*
X177766503Y-71769737D01*
X177921153Y-71800499D01*
X177921156Y-71800500D01*
X177921158Y-71800500D01*
X178078844Y-71800500D01*
X178078845Y-71800499D01*
X178233497Y-71769737D01*
X178379179Y-71709394D01*
X178510289Y-71621789D01*
X178621789Y-71510289D01*
X178709394Y-71379179D01*
X178769737Y-71233497D01*
X178800500Y-71078842D01*
X178800500Y-70921158D01*
X178800500Y-70921155D01*
X178800499Y-70921153D01*
X178769738Y-70766510D01*
X178769737Y-70766503D01*
X178769735Y-70766498D01*
X178709396Y-70620825D01*
X178709394Y-70620822D01*
X178709394Y-70620821D01*
X178674694Y-70568889D01*
X178653816Y-70502215D01*
X178672300Y-70434835D01*
X178674676Y-70431136D01*
X178709394Y-70379179D01*
X178769737Y-70233497D01*
X178800500Y-70078842D01*
X178800500Y-69921158D01*
X178800500Y-69921155D01*
X178800499Y-69921153D01*
X178769738Y-69766510D01*
X178769737Y-69766503D01*
X178769735Y-69766498D01*
X178709396Y-69620825D01*
X178709394Y-69620822D01*
X178709394Y-69620821D01*
X178674694Y-69568889D01*
X178653816Y-69502215D01*
X178672300Y-69434835D01*
X178674676Y-69431136D01*
X178709394Y-69379179D01*
X178769737Y-69233497D01*
X178800500Y-69078842D01*
X178800500Y-68921158D01*
X178800500Y-68921155D01*
X178800499Y-68921153D01*
X178769738Y-68766510D01*
X178769737Y-68766503D01*
X178769735Y-68766498D01*
X178709397Y-68620827D01*
X178709390Y-68620814D01*
X178621789Y-68489711D01*
X178621786Y-68489707D01*
X178510292Y-68378213D01*
X178510288Y-68378210D01*
X178379185Y-68290609D01*
X178379172Y-68290602D01*
X178233501Y-68230264D01*
X178233489Y-68230261D01*
X178078845Y-68199500D01*
X178078842Y-68199500D01*
X177921158Y-68199500D01*
X177921155Y-68199500D01*
X177766510Y-68230261D01*
X177766498Y-68230264D01*
X177620827Y-68290602D01*
X177620814Y-68290609D01*
X177489711Y-68378210D01*
X177489707Y-68378213D01*
X177378213Y-68489707D01*
X177378210Y-68489711D01*
X177290609Y-68620814D01*
X177290602Y-68620827D01*
X177230264Y-68766498D01*
X177230261Y-68766510D01*
X177199500Y-68921153D01*
X141500000Y-68921153D01*
X141500000Y-67017527D01*
X141519685Y-66950488D01*
X141572489Y-66904733D01*
X141604599Y-66895055D01*
X141787951Y-66866015D01*
X141997606Y-66797895D01*
X142194022Y-66697815D01*
X142372365Y-66568242D01*
X142480320Y-66460286D01*
X142541639Y-66426804D01*
X142611331Y-66431788D01*
X142667265Y-66473659D01*
X142673535Y-66482871D01*
X142757288Y-66618656D01*
X142881344Y-66742712D01*
X143030666Y-66834814D01*
X143197203Y-66889999D01*
X143299991Y-66900500D01*
X144700008Y-66900499D01*
X144802797Y-66889999D01*
X144969334Y-66834814D01*
X145118656Y-66742712D01*
X145242712Y-66618656D01*
X145334814Y-66469334D01*
X145389999Y-66302797D01*
X145400500Y-66200009D01*
X145400499Y-64799992D01*
X145400498Y-64799983D01*
X146059500Y-64799983D01*
X146059500Y-66200001D01*
X146059501Y-66200018D01*
X146070000Y-66302796D01*
X146070001Y-66302799D01*
X146125185Y-66469331D01*
X146125187Y-66469336D01*
X146133537Y-66482873D01*
X146217288Y-66618656D01*
X146341344Y-66742712D01*
X146490666Y-66834814D01*
X146657203Y-66889999D01*
X146759991Y-66900500D01*
X148160008Y-66900499D01*
X148262797Y-66889999D01*
X148429334Y-66834814D01*
X148578656Y-66742712D01*
X148702712Y-66618656D01*
X148786463Y-66482872D01*
X148838410Y-66436149D01*
X148907372Y-66424926D01*
X148971454Y-66452769D01*
X148979682Y-66460289D01*
X149087636Y-66568243D01*
X149087641Y-66568247D01*
X149243192Y-66681260D01*
X149265978Y-66697815D01*
X149394375Y-66763237D01*
X149462393Y-66797895D01*
X149462396Y-66797896D01*
X149567221Y-66831955D01*
X149672049Y-66866015D01*
X149889778Y-66900500D01*
X149889779Y-66900500D01*
X150110221Y-66900500D01*
X150110222Y-66900500D01*
X150327951Y-66866015D01*
X150537606Y-66797895D01*
X150734022Y-66697815D01*
X150912365Y-66568242D01*
X151068242Y-66412365D01*
X151197815Y-66234022D01*
X151297895Y-66037606D01*
X151366015Y-65827951D01*
X151400500Y-65610222D01*
X151400500Y-65389778D01*
X151366015Y-65172049D01*
X151313457Y-65010289D01*
X151297896Y-64962396D01*
X151297895Y-64962393D01*
X151263237Y-64894375D01*
X151197815Y-64765978D01*
X151147848Y-64697204D01*
X151068247Y-64587641D01*
X151068243Y-64587636D01*
X150912363Y-64431756D01*
X150912358Y-64431752D01*
X150897770Y-64421153D01*
X153699500Y-64421153D01*
X153699500Y-64578846D01*
X153730261Y-64733489D01*
X153730264Y-64733501D01*
X153790602Y-64879172D01*
X153790609Y-64879185D01*
X153878210Y-65010288D01*
X153878213Y-65010292D01*
X153989707Y-65121786D01*
X153989711Y-65121789D01*
X154120814Y-65209390D01*
X154120827Y-65209397D01*
X154266498Y-65269735D01*
X154266503Y-65269737D01*
X154421153Y-65300499D01*
X154421156Y-65300500D01*
X154421158Y-65300500D01*
X154578844Y-65300500D01*
X154578845Y-65300499D01*
X154733497Y-65269737D01*
X154879179Y-65209394D01*
X155010289Y-65121789D01*
X155121789Y-65010289D01*
X155209394Y-64879179D01*
X155269737Y-64733497D01*
X155300500Y-64578842D01*
X155300500Y-64421158D01*
X155300500Y-64421155D01*
X155300499Y-64421153D01*
X155276835Y-64302187D01*
X155269737Y-64266503D01*
X155269735Y-64266498D01*
X155209397Y-64120827D01*
X155209390Y-64120814D01*
X155121789Y-63989711D01*
X155121786Y-63989707D01*
X155010292Y-63878213D01*
X155010288Y-63878210D01*
X154879185Y-63790609D01*
X154879172Y-63790602D01*
X154733501Y-63730264D01*
X154733489Y-63730261D01*
X154578845Y-63699500D01*
X154578842Y-63699500D01*
X154421158Y-63699500D01*
X154421155Y-63699500D01*
X154266510Y-63730261D01*
X154266498Y-63730264D01*
X154120827Y-63790602D01*
X154120814Y-63790609D01*
X153989711Y-63878210D01*
X153989707Y-63878213D01*
X153878213Y-63989707D01*
X153878210Y-63989711D01*
X153790609Y-64120814D01*
X153790602Y-64120827D01*
X153730264Y-64266498D01*
X153730261Y-64266510D01*
X153699500Y-64421153D01*
X150897770Y-64421153D01*
X150734025Y-64302187D01*
X150734024Y-64302186D01*
X150734022Y-64302185D01*
X150645908Y-64257288D01*
X150537606Y-64202104D01*
X150537603Y-64202103D01*
X150327952Y-64133985D01*
X150219086Y-64116742D01*
X150110222Y-64099500D01*
X149889778Y-64099500D01*
X149817201Y-64110995D01*
X149672047Y-64133985D01*
X149462396Y-64202103D01*
X149462393Y-64202104D01*
X149265974Y-64302187D01*
X149087642Y-64431751D01*
X148979682Y-64539711D01*
X148918359Y-64573195D01*
X148848667Y-64568211D01*
X148792734Y-64526339D01*
X148786462Y-64517125D01*
X148759652Y-64473659D01*
X148702712Y-64381344D01*
X148578656Y-64257288D01*
X148429334Y-64165186D01*
X148262797Y-64110001D01*
X148262795Y-64110000D01*
X148160010Y-64099500D01*
X146759998Y-64099500D01*
X146759981Y-64099501D01*
X146657203Y-64110000D01*
X146657200Y-64110001D01*
X146490668Y-64165185D01*
X146490663Y-64165187D01*
X146341342Y-64257289D01*
X146217289Y-64381342D01*
X146125187Y-64530663D01*
X146125185Y-64530668D01*
X146111093Y-64573195D01*
X146070001Y-64697203D01*
X146070001Y-64697204D01*
X146070000Y-64697204D01*
X146059500Y-64799983D01*
X145400498Y-64799983D01*
X145397024Y-64765978D01*
X145389999Y-64697203D01*
X145389998Y-64697200D01*
X145363971Y-64618656D01*
X145334814Y-64530666D01*
X145242712Y-64381344D01*
X145118656Y-64257288D01*
X144969334Y-64165186D01*
X144802797Y-64110001D01*
X144802795Y-64110000D01*
X144700016Y-64099500D01*
X144700009Y-64099500D01*
X144557204Y-64099500D01*
X144490165Y-64079815D01*
X144444410Y-64027011D01*
X144434466Y-63957853D01*
X144463491Y-63894297D01*
X144471021Y-63886345D01*
X144479434Y-63878213D01*
X144984711Y-63389778D01*
X174604500Y-63389778D01*
X174604500Y-63610221D01*
X174638985Y-63827952D01*
X174707103Y-64037603D01*
X174707104Y-64037606D01*
X174756213Y-64133985D01*
X174790922Y-64202105D01*
X174807187Y-64234025D01*
X174936752Y-64412358D01*
X174936756Y-64412363D01*
X175092636Y-64568243D01*
X175092641Y-64568247D01*
X175248192Y-64681260D01*
X175270978Y-64697815D01*
X175399375Y-64763237D01*
X175467393Y-64797895D01*
X175467396Y-64797896D01*
X175572221Y-64831955D01*
X175677049Y-64866015D01*
X175894778Y-64900500D01*
X175894779Y-64900500D01*
X176115221Y-64900500D01*
X176115222Y-64900500D01*
X176332951Y-64866015D01*
X176542606Y-64797895D01*
X176739022Y-64697815D01*
X176917365Y-64568242D01*
X177025320Y-64460286D01*
X177086639Y-64426804D01*
X177156331Y-64431788D01*
X177212265Y-64473659D01*
X177218535Y-64482871D01*
X177302288Y-64618656D01*
X177426344Y-64742712D01*
X177575666Y-64834814D01*
X177742203Y-64889999D01*
X177844991Y-64900500D01*
X179245008Y-64900499D01*
X179347797Y-64889999D01*
X179514334Y-64834814D01*
X179663656Y-64742712D01*
X179787712Y-64618656D01*
X179879814Y-64469334D01*
X179934999Y-64302797D01*
X179945500Y-64200009D01*
X179945499Y-62799992D01*
X179942024Y-62765978D01*
X179934999Y-62697203D01*
X179934998Y-62697200D01*
X179879814Y-62530666D01*
X179787712Y-62381344D01*
X179663656Y-62257288D01*
X179514334Y-62165186D01*
X179347797Y-62110001D01*
X179347795Y-62110000D01*
X179245010Y-62099500D01*
X177844998Y-62099500D01*
X177844981Y-62099501D01*
X177742203Y-62110000D01*
X177742200Y-62110001D01*
X177575668Y-62165185D01*
X177575663Y-62165187D01*
X177426342Y-62257289D01*
X177302289Y-62381342D01*
X177218537Y-62517126D01*
X177166589Y-62563851D01*
X177097626Y-62575072D01*
X177033544Y-62547229D01*
X177025317Y-62539710D01*
X176917363Y-62431756D01*
X176917358Y-62431752D01*
X176739025Y-62302187D01*
X176739024Y-62302186D01*
X176739022Y-62302185D01*
X176650908Y-62257288D01*
X176542606Y-62202104D01*
X176542603Y-62202103D01*
X176332952Y-62133985D01*
X176181516Y-62110000D01*
X176115222Y-62099500D01*
X175894778Y-62099500D01*
X175828484Y-62110000D01*
X175677047Y-62133985D01*
X175467396Y-62202103D01*
X175467393Y-62202104D01*
X175270974Y-62302187D01*
X175092641Y-62431752D01*
X175092636Y-62431756D01*
X174936756Y-62587636D01*
X174936752Y-62587641D01*
X174807187Y-62765974D01*
X174707104Y-62962393D01*
X174707103Y-62962396D01*
X174638985Y-63172047D01*
X174604500Y-63389778D01*
X144984711Y-63389778D01*
X147162229Y-61284844D01*
X147224111Y-61252405D01*
X147248412Y-61250000D01*
X149867829Y-61250000D01*
X149878007Y-61250500D01*
X149878997Y-61250500D01*
X150081993Y-61250500D01*
X150092171Y-61250000D01*
X151137829Y-61250000D01*
X151148007Y-61250500D01*
X151148997Y-61250500D01*
X151351993Y-61250500D01*
X151362171Y-61250000D01*
X151761887Y-61250000D01*
X151797019Y-61230815D01*
X151866711Y-61235798D01*
X151866713Y-61235799D01*
X151887619Y-61243596D01*
X151887627Y-61243598D01*
X151947155Y-61249999D01*
X151947172Y-61250000D01*
X152270000Y-61250000D01*
X152270000Y-60365865D01*
X152270067Y-60361789D01*
X152270400Y-60351638D01*
X152275500Y-60326003D01*
X152275500Y-60285830D01*
X152289745Y-60300075D01*
X152375255Y-60349444D01*
X152470630Y-60375000D01*
X152569370Y-60375000D01*
X152664745Y-60349444D01*
X152750255Y-60300075D01*
X152770000Y-60280330D01*
X152770000Y-61250000D01*
X153092828Y-61250000D01*
X153092844Y-61249999D01*
X153152372Y-61243598D01*
X153152379Y-61243596D01*
X153287086Y-61193354D01*
X153287093Y-61193350D01*
X153402187Y-61107190D01*
X153402190Y-61107187D01*
X153488350Y-60992093D01*
X153488354Y-60992086D01*
X153514810Y-60921153D01*
X162137000Y-60921153D01*
X162137000Y-61078846D01*
X162167761Y-61233489D01*
X162167764Y-61233501D01*
X162228102Y-61379172D01*
X162228109Y-61379185D01*
X162315710Y-61510288D01*
X162315713Y-61510292D01*
X162427207Y-61621786D01*
X162427211Y-61621789D01*
X162558314Y-61709390D01*
X162558327Y-61709397D01*
X162703998Y-61769735D01*
X162704003Y-61769737D01*
X162858653Y-61800499D01*
X162858656Y-61800500D01*
X162858658Y-61800500D01*
X163016344Y-61800500D01*
X163016345Y-61800499D01*
X163170997Y-61769737D01*
X163316679Y-61709394D01*
X163447789Y-61621789D01*
X163559289Y-61510289D01*
X163646894Y-61379179D01*
X163707237Y-61233497D01*
X163738000Y-61078842D01*
X163738000Y-60921158D01*
X163738000Y-60921155D01*
X163737999Y-60921153D01*
X163713471Y-60797844D01*
X163707237Y-60766503D01*
X163684146Y-60710756D01*
X163646897Y-60620827D01*
X163646890Y-60620814D01*
X163559289Y-60489711D01*
X163559286Y-60489707D01*
X163447792Y-60378213D01*
X163447788Y-60378210D01*
X163333343Y-60301740D01*
X163316685Y-60290609D01*
X163316672Y-60290602D01*
X163171001Y-60230264D01*
X163170989Y-60230261D01*
X163016345Y-60199500D01*
X163016342Y-60199500D01*
X162858658Y-60199500D01*
X162858655Y-60199500D01*
X162704010Y-60230261D01*
X162703998Y-60230264D01*
X162558327Y-60290602D01*
X162558314Y-60290609D01*
X162427211Y-60378210D01*
X162427207Y-60378213D01*
X162315713Y-60489707D01*
X162315710Y-60489711D01*
X162228109Y-60620814D01*
X162228102Y-60620827D01*
X162167764Y-60766498D01*
X162167761Y-60766510D01*
X162137000Y-60921153D01*
X153514810Y-60921153D01*
X153533243Y-60871733D01*
X153533244Y-60871731D01*
X153538596Y-60857380D01*
X153538598Y-60857372D01*
X153544999Y-60797844D01*
X153545000Y-60797827D01*
X153545000Y-60250000D01*
X152800330Y-60250000D01*
X152820075Y-60230255D01*
X152869444Y-60144745D01*
X152895000Y-60049370D01*
X152895000Y-59950630D01*
X152869444Y-59855255D01*
X152820075Y-59769745D01*
X152800330Y-59750000D01*
X153545000Y-59750000D01*
X153545000Y-59202172D01*
X153544999Y-59202155D01*
X153538598Y-59142627D01*
X153538596Y-59142620D01*
X153488354Y-59007913D01*
X153488350Y-59007906D01*
X153402190Y-58892812D01*
X153402187Y-58892809D01*
X153287093Y-58806649D01*
X153287086Y-58806645D01*
X153152379Y-58756403D01*
X153152372Y-58756401D01*
X153092844Y-58750000D01*
X152770000Y-58750000D01*
X152770000Y-59719670D01*
X152750255Y-59699925D01*
X152664745Y-59650556D01*
X152569370Y-59625000D01*
X152470630Y-59625000D01*
X152375255Y-59650556D01*
X152289745Y-59699925D01*
X152275500Y-59714170D01*
X152275500Y-59673997D01*
X152272383Y-59658326D01*
X152270000Y-59634134D01*
X152270000Y-58750000D01*
X151947155Y-58750000D01*
X151887627Y-58756401D01*
X151887614Y-58756404D01*
X151866709Y-58764201D01*
X151797017Y-58769183D01*
X151761888Y-58750000D01*
X151750000Y-58750000D01*
X151362171Y-58750000D01*
X151351993Y-58749500D01*
X151351003Y-58749500D01*
X151148997Y-58749500D01*
X151148007Y-58749500D01*
X151137829Y-58750000D01*
X150092171Y-58750000D01*
X150081993Y-58749500D01*
X150081003Y-58749500D01*
X149878997Y-58749500D01*
X149878007Y-58749500D01*
X149867829Y-58750000D01*
X146999999Y-58750000D01*
X141684199Y-64065799D01*
X141622876Y-64099284D01*
X141577127Y-64100592D01*
X141570230Y-64099500D01*
X141570222Y-64099500D01*
X141349778Y-64099500D01*
X141277201Y-64110995D01*
X141132047Y-64133985D01*
X140922396Y-64202103D01*
X140922393Y-64202104D01*
X140725974Y-64302187D01*
X140547641Y-64431752D01*
X140547636Y-64431756D01*
X140391756Y-64587636D01*
X140391752Y-64587641D01*
X140262187Y-64765974D01*
X140162104Y-64962393D01*
X140162103Y-64962396D01*
X140093985Y-65172047D01*
X140059500Y-65389778D01*
X140059500Y-65610230D01*
X140060592Y-65617127D01*
X140051634Y-65686420D01*
X140025800Y-65724199D01*
X139750000Y-66000000D01*
X139400500Y-66000000D01*
X139400500Y-59041395D01*
X139403494Y-59014313D01*
X139404395Y-59010288D01*
X139536249Y-58421153D01*
X162599500Y-58421153D01*
X162599500Y-58578846D01*
X162630261Y-58733489D01*
X162630264Y-58733501D01*
X162690602Y-58879172D01*
X162690609Y-58879185D01*
X162778210Y-59010288D01*
X162778213Y-59010292D01*
X162889707Y-59121786D01*
X162889711Y-59121789D01*
X163020814Y-59209390D01*
X163020827Y-59209397D01*
X163166498Y-59269735D01*
X163166503Y-59269737D01*
X163264571Y-59289244D01*
X163321153Y-59300499D01*
X163321156Y-59300500D01*
X163321158Y-59300500D01*
X163478844Y-59300500D01*
X163478845Y-59300499D01*
X163633497Y-59269737D01*
X163779179Y-59209394D01*
X163910289Y-59121789D01*
X164021789Y-59010289D01*
X164109394Y-58879179D01*
X164169737Y-58733497D01*
X164200500Y-58578842D01*
X164200500Y-58421158D01*
X164200500Y-58421155D01*
X164200499Y-58421153D01*
X164169738Y-58266510D01*
X164169737Y-58266503D01*
X164125692Y-58160167D01*
X164109397Y-58120827D01*
X164109390Y-58120814D01*
X164021789Y-57989711D01*
X164021786Y-57989707D01*
X163910292Y-57878213D01*
X163910288Y-57878210D01*
X163779185Y-57790609D01*
X163779172Y-57790602D01*
X163633501Y-57730264D01*
X163633489Y-57730261D01*
X163478845Y-57699500D01*
X163478842Y-57699500D01*
X163321158Y-57699500D01*
X163321155Y-57699500D01*
X163166510Y-57730261D01*
X163166498Y-57730264D01*
X163020827Y-57790602D01*
X163020814Y-57790609D01*
X162889711Y-57878210D01*
X162889707Y-57878213D01*
X162778213Y-57989707D01*
X162778210Y-57989711D01*
X162690609Y-58120814D01*
X162690602Y-58120827D01*
X162630264Y-58266498D01*
X162630261Y-58266510D01*
X162599500Y-58421153D01*
X139536249Y-58421153D01*
X139773971Y-57358992D01*
X171249500Y-57358992D01*
X171249500Y-57561007D01*
X171288907Y-57759119D01*
X171288909Y-57759127D01*
X171366213Y-57945755D01*
X171419904Y-58026109D01*
X171440782Y-58092787D01*
X171422297Y-58160167D01*
X171419904Y-58163891D01*
X171366213Y-58244244D01*
X171288909Y-58430872D01*
X171288907Y-58430880D01*
X171249500Y-58628992D01*
X171249500Y-58831007D01*
X171288907Y-59029119D01*
X171288910Y-59029131D01*
X171322547Y-59110338D01*
X171330016Y-59179807D01*
X171310405Y-59224864D01*
X171310895Y-59225132D01*
X171307910Y-59230596D01*
X171307260Y-59232092D01*
X171306646Y-59232911D01*
X171306645Y-59232913D01*
X171256403Y-59367620D01*
X171256401Y-59367627D01*
X171250000Y-59427155D01*
X171250000Y-59750000D01*
X172134134Y-59750000D01*
X172158326Y-59752383D01*
X172161123Y-59752939D01*
X172173995Y-59755499D01*
X172173996Y-59755500D01*
X172173997Y-59755500D01*
X172214170Y-59755500D01*
X172199925Y-59769745D01*
X172150556Y-59855255D01*
X172125000Y-59950630D01*
X172125000Y-60049370D01*
X172150556Y-60144745D01*
X172199925Y-60230255D01*
X172219670Y-60250000D01*
X171250000Y-60250000D01*
X171250000Y-60572844D01*
X171256401Y-60632372D01*
X171256403Y-60632379D01*
X171306645Y-60767086D01*
X171306649Y-60767093D01*
X171392809Y-60882187D01*
X171392812Y-60882190D01*
X171507906Y-60968350D01*
X171507913Y-60968354D01*
X171642620Y-61018596D01*
X171642627Y-61018598D01*
X171702155Y-61024999D01*
X171702172Y-61025000D01*
X172250000Y-61025000D01*
X172250000Y-60280330D01*
X172269745Y-60300075D01*
X172355255Y-60349444D01*
X172450630Y-60375000D01*
X172549370Y-60375000D01*
X172644745Y-60349444D01*
X172730255Y-60300075D01*
X172750000Y-60280330D01*
X172750000Y-61025000D01*
X173297828Y-61025000D01*
X173297844Y-61024999D01*
X173357372Y-61018598D01*
X173357379Y-61018596D01*
X173492086Y-60968354D01*
X173492093Y-60968350D01*
X173607187Y-60882190D01*
X173607190Y-60882187D01*
X173693350Y-60767093D01*
X173693354Y-60767086D01*
X173743596Y-60632379D01*
X173743598Y-60632372D01*
X173749999Y-60572844D01*
X173750000Y-60572827D01*
X173750000Y-60250000D01*
X172780330Y-60250000D01*
X172800075Y-60230255D01*
X172849444Y-60144745D01*
X172875000Y-60049370D01*
X172875000Y-59950630D01*
X172849444Y-59855255D01*
X172800075Y-59769745D01*
X172785830Y-59755500D01*
X172826004Y-59755500D01*
X172826004Y-59755499D01*
X172839473Y-59752820D01*
X172841674Y-59752383D01*
X172865866Y-59750000D01*
X173750000Y-59750000D01*
X173750000Y-59427172D01*
X173749999Y-59427155D01*
X173743598Y-59367627D01*
X173743596Y-59367620D01*
X173693354Y-59232913D01*
X173693353Y-59232911D01*
X173692745Y-59232099D01*
X173692390Y-59231148D01*
X173689103Y-59225128D01*
X173689968Y-59224655D01*
X173668329Y-59166634D01*
X173677452Y-59110338D01*
X173711091Y-59029127D01*
X173750500Y-58831003D01*
X173750500Y-58628997D01*
X173711091Y-58430873D01*
X173633786Y-58244244D01*
X173580094Y-58163889D01*
X173559217Y-58097214D01*
X173577701Y-58029834D01*
X173580078Y-58026134D01*
X173633786Y-57945756D01*
X173711091Y-57759127D01*
X173750500Y-57561003D01*
X173750500Y-57358997D01*
X173711091Y-57160873D01*
X173633786Y-56974244D01*
X173633784Y-56974241D01*
X173633782Y-56974237D01*
X173521558Y-56806281D01*
X173378718Y-56663441D01*
X173210762Y-56551217D01*
X173210752Y-56551212D01*
X173024127Y-56473909D01*
X173024119Y-56473907D01*
X172826007Y-56434500D01*
X172826003Y-56434500D01*
X172173997Y-56434500D01*
X172173992Y-56434500D01*
X171975880Y-56473907D01*
X171975872Y-56473909D01*
X171789247Y-56551212D01*
X171789237Y-56551217D01*
X171621281Y-56663441D01*
X171478441Y-56806281D01*
X171366217Y-56974237D01*
X171366212Y-56974247D01*
X171288909Y-57160872D01*
X171288907Y-57160880D01*
X171249500Y-57358992D01*
X139773971Y-57358992D01*
X140716209Y-53148992D01*
X170499500Y-53148992D01*
X170499500Y-53351007D01*
X170538907Y-53549119D01*
X170538909Y-53549127D01*
X170616213Y-53735755D01*
X170669904Y-53816109D01*
X170690782Y-53882787D01*
X170672297Y-53950167D01*
X170669904Y-53953891D01*
X170616213Y-54034244D01*
X170538909Y-54220872D01*
X170538907Y-54220880D01*
X170499500Y-54418992D01*
X170499500Y-54621007D01*
X170538907Y-54819119D01*
X170538909Y-54819127D01*
X170616212Y-55005752D01*
X170616217Y-55005762D01*
X170728441Y-55173718D01*
X170871281Y-55316558D01*
X171039237Y-55428782D01*
X171039241Y-55428784D01*
X171039244Y-55428786D01*
X171225873Y-55506091D01*
X171423992Y-55545499D01*
X171423996Y-55545500D01*
X171423997Y-55545500D01*
X172076004Y-55545500D01*
X172076005Y-55545499D01*
X172274127Y-55506091D01*
X172460756Y-55428786D01*
X172628718Y-55316558D01*
X172771558Y-55173718D01*
X172883786Y-55005756D01*
X172961091Y-54819127D01*
X173000500Y-54621003D01*
X173000500Y-54418997D01*
X172961091Y-54220873D01*
X172883786Y-54034244D01*
X172830094Y-53953889D01*
X172809217Y-53887214D01*
X172827701Y-53819834D01*
X172830078Y-53816134D01*
X172883786Y-53735756D01*
X172961091Y-53549127D01*
X173000500Y-53351003D01*
X173000500Y-53148997D01*
X172961091Y-52950873D01*
X172927451Y-52869661D01*
X172919983Y-52800194D01*
X172939592Y-52755144D01*
X172939101Y-52754876D01*
X172942102Y-52749379D01*
X172942748Y-52747896D01*
X172943352Y-52747089D01*
X172993597Y-52612376D01*
X172993598Y-52612372D01*
X172999999Y-52552844D01*
X173000000Y-52552827D01*
X173000000Y-52230000D01*
X172115866Y-52230000D01*
X172091674Y-52227617D01*
X172076004Y-52224500D01*
X172076003Y-52224500D01*
X172035830Y-52224500D01*
X172050075Y-52210255D01*
X172099444Y-52124745D01*
X172125000Y-52029370D01*
X172125000Y-51930630D01*
X172099444Y-51835255D01*
X172050075Y-51749745D01*
X172030330Y-51730000D01*
X173000000Y-51730000D01*
X173000000Y-51407172D01*
X172999999Y-51407155D01*
X172993598Y-51347627D01*
X172993596Y-51347620D01*
X172943354Y-51212913D01*
X172943350Y-51212906D01*
X172857190Y-51097812D01*
X172857187Y-51097809D01*
X172742093Y-51011649D01*
X172742086Y-51011645D01*
X172607379Y-50961403D01*
X172607372Y-50961401D01*
X172547844Y-50955000D01*
X172000000Y-50955000D01*
X172000000Y-51699670D01*
X171980255Y-51679925D01*
X171894745Y-51630556D01*
X171799370Y-51605000D01*
X171700630Y-51605000D01*
X171605255Y-51630556D01*
X171519745Y-51679925D01*
X171500000Y-51699670D01*
X171500000Y-50955000D01*
X170952155Y-50955000D01*
X170892627Y-50961401D01*
X170892620Y-50961403D01*
X170757913Y-51011645D01*
X170757906Y-51011649D01*
X170642812Y-51097809D01*
X170642809Y-51097812D01*
X170556649Y-51212906D01*
X170556645Y-51212913D01*
X170506403Y-51347620D01*
X170506401Y-51347627D01*
X170500000Y-51407155D01*
X170500000Y-51730000D01*
X171469670Y-51730000D01*
X171449925Y-51749745D01*
X171400556Y-51835255D01*
X171375000Y-51930630D01*
X171375000Y-52029370D01*
X171400556Y-52124745D01*
X171449925Y-52210255D01*
X171464170Y-52224500D01*
X171423997Y-52224500D01*
X171423996Y-52224500D01*
X171408326Y-52227617D01*
X171384134Y-52230000D01*
X170500000Y-52230000D01*
X170500000Y-52552844D01*
X170506401Y-52612372D01*
X170506403Y-52612379D01*
X170556645Y-52747086D01*
X170557251Y-52747895D01*
X170557604Y-52748841D01*
X170560897Y-52754872D01*
X170560030Y-52755345D01*
X170581670Y-52813359D01*
X170572547Y-52869661D01*
X170538910Y-52950868D01*
X170538907Y-52950880D01*
X170499500Y-53148992D01*
X140716209Y-53148992D01*
X141678942Y-48847418D01*
X141712793Y-48786296D01*
X141774315Y-48753178D01*
X141799948Y-48750500D01*
X145098421Y-48750500D01*
X145292826Y-48719709D01*
X145480025Y-48658884D01*
X145655405Y-48569524D01*
X145814646Y-48453828D01*
X145953828Y-48314646D01*
X146069524Y-48155405D01*
X146158884Y-47980025D01*
X146219709Y-47792826D01*
X146242929Y-47646220D01*
X146250500Y-47598421D01*
X146250500Y-46909448D01*
X147349500Y-46909448D01*
X147349500Y-47090551D01*
X147377829Y-47269410D01*
X147433787Y-47441636D01*
X147433788Y-47441639D01*
X147489664Y-47551300D01*
X147513671Y-47598416D01*
X147516006Y-47602997D01*
X147622441Y-47749494D01*
X147622445Y-47749499D01*
X147750500Y-47877554D01*
X147750505Y-47877558D01*
X147878287Y-47970396D01*
X147897006Y-47983996D01*
X147987248Y-48029977D01*
X148058360Y-48066211D01*
X148058363Y-48066212D01*
X148144476Y-48094191D01*
X148230591Y-48122171D01*
X148313429Y-48135291D01*
X148409449Y-48150500D01*
X148409454Y-48150500D01*
X148590551Y-48150500D01*
X148677259Y-48136765D01*
X148769409Y-48122171D01*
X148941639Y-48066211D01*
X149102994Y-47983996D01*
X149249501Y-47877553D01*
X149377553Y-47749501D01*
X149483996Y-47602994D01*
X149566211Y-47441639D01*
X149622171Y-47269409D01*
X149636765Y-47177259D01*
X149650500Y-47090551D01*
X149650500Y-46909448D01*
X149634019Y-46805397D01*
X149622171Y-46730591D01*
X149566211Y-46558361D01*
X149566211Y-46558360D01*
X149537740Y-46502484D01*
X149483996Y-46397006D01*
X149470396Y-46378287D01*
X149377558Y-46250505D01*
X149377554Y-46250500D01*
X149249499Y-46122445D01*
X149249494Y-46122441D01*
X149102997Y-46016006D01*
X149102996Y-46016005D01*
X149102994Y-46016004D01*
X149051300Y-45989664D01*
X148941639Y-45933788D01*
X148941636Y-45933787D01*
X148769410Y-45877829D01*
X148590551Y-45849500D01*
X148590546Y-45849500D01*
X148409454Y-45849500D01*
X148409449Y-45849500D01*
X148230589Y-45877829D01*
X148058363Y-45933787D01*
X148058360Y-45933788D01*
X147897002Y-46016006D01*
X147750505Y-46122441D01*
X147750500Y-46122445D01*
X147622445Y-46250500D01*
X147622441Y-46250505D01*
X147516006Y-46397002D01*
X147433788Y-46558360D01*
X147433787Y-46558363D01*
X147377829Y-46730589D01*
X147349500Y-46909448D01*
X146250500Y-46909448D01*
X146250500Y-45374500D01*
X146270185Y-45307461D01*
X146322989Y-45261706D01*
X146374500Y-45250500D01*
X159950172Y-45250500D01*
X173625500Y-45250500D01*
X173692539Y-45270185D01*
G37*
%TD.AperFunction*%
%TD*%
M02*
